<svg xmlns="http://www.w3.org/2000/svg" viewBox="0 0 1024 1024"><defs><style>.cls-1{fill:#f78319;}.cls-2{fill:none;}</style></defs><title>Asset 68</title><g id="Layer_2" data-name="Layer 2"><g id="Layer_1-2" data-name="Layer 1"><path class="cls-1" d="M843.93,69.43H180.07a83.21,83.21,0,0,0-83,83V871.59a83.21,83.21,0,0,0,83,83H843.93a83.21,83.21,0,0,0,83-83V152.41A83.21,83.21,0,0,0,843.93,69.43Zm-27.66,774.5H207.73V180.07H816.27ZM318.38,456.68H705.62V512H318.38Zm0,110.64H705.62v55.32H318.38Zm0,110.64H705.62v55.32H318.38Zm0-331.93H705.62v55.32H318.38Z"/><rect class="cls-2" width="1024" height="1024"/></g></g></svg>