<svg xmlns="http://www.w3.org/2000/svg" viewBox="0 0 1024 1024"><defs><style>.cls-1{fill:none;}.cls-2{fill:#fff;}</style></defs><title>Asset 45</title><g id="Layer_2" data-name="Layer 2"><g id="Layer_1-2" data-name="Layer 1"><rect class="cls-1" width="1024" height="1024"/><path class="cls-2" d="M851.46,463.4H636c-18.72-50.12-66.32-83.78-121.3-83.78s-102.6,33.65-121.34,83.78H172.54a48.6,48.6,0,1,0,0,97.2H395.67a129.57,129.57,0,0,0,238,0H851.46a48.6,48.6,0,1,0,0-97.2ZM515,548.15a38.88,38.88,0,1,1,38.88-38.88A38.88,38.88,0,0,1,515,548.15Z"/><path class="cls-2" d="M773.19,659.27A127,127,0,0,0,656,737.54H172.54a48.64,48.64,0,1,0,0,97.27H656a127.06,127.06,0,0,0,117.23,78.37c70,0,126.93-57,126.93-127S843.18,659.27,773.19,659.27Zm0,165.84A38.88,38.88,0,1,1,812,786.23,38.88,38.88,0,0,1,773.16,825.11Z"/><path class="cls-2" d="M250.9,364.73A126.91,126.91,0,0,0,368,286.36H851.46a48.59,48.59,0,1,0,0-97.17H368A126.91,126.91,0,0,0,250.9,110.82c-70,0-127,57-127,127S180.87,364.73,250.9,364.73Zm.1-165.8a38.88,38.88,0,1,1-38.88,38.88A38.88,38.88,0,0,1,251,198.93Z"/></g></g></svg>