<svg xmlns="http://www.w3.org/2000/svg" viewBox="0 0 1024 1024"><defs><style>.cls-1{fill:#fff;}.cls-2{fill:none;}</style></defs><title>Asset 44</title><g id="Layer_2" data-name="Layer 2"><g id="Layer_1-2" data-name="Layer 1"><path class="cls-1" d="M853.73,728.39H829.28V561.87C829,426.93,742.51,306.73,616.43,262.64V233a104.42,104.42,0,1,0-208.84,0v29.66c-126.11,44.1-212.65,164.31-212.85,299.29V728.39H170.27a46.38,46.38,0,1,0,0,92.76H383.5a148.27,148.27,0,0,0,257,0H853.73a46.38,46.38,0,1,0,0-92.76Zm-117.22,0h-449V561.93c0-123.8,100.72-224.51,224.5-224.51S736.51,438.13,736.51,561.93Z"/><rect class="cls-2" width="1024" height="1024"/></g></g></svg>