<svg xmlns="http://www.w3.org/2000/svg" viewBox="0 0 1024 1024"><defs><style>.cls-1{fill:#f78319;}.cls-2{fill:none;}</style></defs><title>Asset 42</title><g id="Layer_2" data-name="Layer 2"><g id="Layer_1-2" data-name="Layer 1"><path class="cls-1" d="M924.48,821.21,759.34,656.07a39.72,39.72,0,0,0-28.16-11.6h-27a342.85,342.85,0,0,0,72.88-212c0-190.32-154.21-344.54-344.54-344.54S88,242.13,88,432.45,242.2,777,432.52,777a342.85,342.85,0,0,0,212-72.88v27a39.72,39.72,0,0,0,11.6,28.16L821.29,924.41a39.59,39.59,0,0,0,56.15,0l46.88-46.88A39.94,39.94,0,0,0,924.48,821.21Zm-492-176.74a212,212,0,1,1,212-212A211.9,211.9,0,0,1,432.52,644.47Z"/><rect class="cls-2" width="1024" height="1024"/></g></g></svg>