<svg width="48" height="40" viewBox="0 0 48 40" fill="none" xmlns="http://www.w3.org/2000/svg">
<path d="M15.6 20L17.4666 18.1333M17.4666 18.1333L24 11.6L30.5333 18.1333M17.4666 18.1333V27.4666C17.4666 27.9821 17.8845 28.4 18.4 28.4H21.2M30.5333 18.1333L32.4 20M30.5333 18.1333V27.4666C30.5333 27.9821 30.1154 28.4 29.6 28.4H26.8M21.2 28.4C21.7154 28.4 22.1333 27.9821 22.1333 27.4666V23.7333C22.1333 23.2178 22.5512 22.8 23.0666 22.8H24.9333C25.4488 22.8 25.8666 23.2178 25.8666 23.7333V27.4666C25.8666 27.9821 26.2845 28.4 26.8 28.4M21.2 28.4H26.8" stroke="#141518" stroke-width="1.67" stroke-linecap="round" stroke-linejoin="round"/>
</svg>
