<svg width="64" height="42" viewBox="0 0 64 42" fill="none" xmlns="http://www.w3.org/2000/svg">
<path d="M28.9999 14.4668H27.1333C26.1023 14.4668 25.2666 15.3025 25.2666 16.3334V27.5334C25.2666 28.5644 26.1023 29.4001 27.1333 29.4001H36.4666C37.4975 29.4001 38.3333 28.5644 38.3333 27.5334V16.3334C38.3333 15.3025 37.4975 14.4668 36.4666 14.4668H34.5999M28.9999 14.4668C28.9999 15.4977 29.8357 16.3334 30.8666 16.3334H32.7333C33.7642 16.3334 34.5999 15.4977 34.5999 14.4668M28.9999 14.4668C28.9999 13.4358 29.8357 12.6001 30.8666 12.6001H32.7333C33.7642 12.6001 34.5999 13.4358 34.5999 14.4668M31.7999 21.0001H34.5999M31.7999 24.7334H34.5999M28.9999 21.0001H29.0093M28.9999 24.7334H29.0093" stroke="#141518" stroke-width="1.67" stroke-linecap="round"/>
</svg>
