<svg width="48" height="40" viewBox="0 0 48 40" fill="none" xmlns="http://www.w3.org/2000/svg">
<rect y="6" width="48" height="28" rx="14" fill="#141518"/>
<path d="M22.95 11.6001C22.3701 11.6001 21.9 12.0702 21.9 12.6501C21.9 13.23 22.3701 13.7001 22.95 13.7001H25.05C25.6299 13.7001 26.1 13.23 26.1 12.6501C26.1 12.0702 25.6299 11.6001 25.05 11.6001H22.95Z" fill="white"/>
<path fill-rule="evenodd" clip-rule="evenodd" d="M17.7 14.7501C17.7 13.5903 18.6402 12.6501 19.8 12.6501C19.8 14.3898 21.2103 15.8001 22.95 15.8001H25.05C26.7897 15.8001 28.2 14.3898 28.2 12.6501C29.3598 12.6501 30.3 13.5903 30.3 14.7501V26.3001C30.3 27.4599 29.3598 28.4001 28.2 28.4001H19.8C18.6402 28.4001 17.7 27.4599 17.7 26.3001V14.7501ZM20.85 18.9501C20.2701 18.9501 19.8 19.4202 19.8 20.0001C19.8 20.58 20.2701 21.0501 20.85 21.0501H20.8605C21.4404 21.0501 21.9105 20.58 21.9105 20.0001C21.9105 19.4202 21.4404 18.9501 20.8605 18.9501H20.85ZM24 18.9501C23.4201 18.9501 22.95 19.4202 22.95 20.0001C22.95 20.58 23.4201 21.0501 24 21.0501H27.15C27.7299 21.0501 28.2 20.58 28.2 20.0001C28.2 19.4202 27.7299 18.9501 27.15 18.9501H24ZM20.85 23.1501C20.2701 23.1501 19.8 23.6202 19.8 24.2001C19.8 24.78 20.2701 25.2501 20.85 25.2501H20.8605C21.4404 25.2501 21.9105 24.78 21.9105 24.2001C21.9105 23.6202 21.4404 23.1501 20.8605 23.1501H20.85ZM24 23.1501C23.4201 23.1501 22.95 23.6202 22.95 24.2001C22.95 24.78 23.4201 25.2501 24 25.2501H27.15C27.7299 25.2501 28.2 24.78 28.2 24.2001C28.2 23.6202 27.7299 23.1501 27.15 23.1501H24Z" fill="white"/>
</svg>
