<svg width="48" height="40" viewBox="0 0 48 40" fill="none" xmlns="http://www.w3.org/2000/svg">
<rect y="6" width="48" height="28" rx="14" fill="#141518"/>
<path fill-rule="evenodd" clip-rule="evenodd" d="M32.4 20.0001C32.4 24.6393 28.6392 28.4001 24 28.4001C19.3608 28.4001 15.6 24.6393 15.6 20.0001C15.6 15.3609 19.3608 11.6001 24 11.6001C28.6392 11.6001 32.4 15.3609 32.4 20.0001ZM24 16.8501C23.6127 16.8501 23.273 17.0593 23.0898 17.3759C22.7994 17.8778 22.1571 18.0494 21.6552 17.759C21.1532 17.4686 20.9817 16.8263 21.272 16.3243C21.8151 15.3855 22.8327 14.7501 24 14.7501C25.7397 14.7501 27.15 16.1604 27.15 17.9001C27.15 19.2716 26.2734 20.4384 25.05 20.8709V21.0501C25.05 21.63 24.5799 22.1001 24 22.1001C23.4201 22.1001 22.95 21.63 22.95 21.0501V20.0001C22.95 19.4202 23.4201 18.9501 24 18.9501C24.5799 18.9501 25.05 18.48 25.05 17.9001C25.05 17.3202 24.5799 16.8501 24 16.8501ZM24 25.2501C24.5799 25.2501 25.05 24.78 25.05 24.2001C25.05 23.6202 24.5799 23.1501 24 23.1501C23.4201 23.1501 22.95 23.6202 22.95 24.2001C22.95 24.78 23.4201 25.2501 24 25.2501Z" fill="white"/>
</svg>
