<svg width="24" height="25" viewBox="0 0 24 25" fill="none" xmlns="http://www.w3.org/2000/svg">
<path d="M18.5334 11.4914H5.46676M18.5334 11.4914C19.5644 11.4914 20.4001 12.3272 20.4001 13.3581V18.9581C20.4001 19.989 19.5644 20.8248 18.5334 20.8248H5.46676C4.43583 20.8248 3.6001 19.989 3.6001 18.9581V13.3581C3.6001 12.3272 4.43583 11.4914 5.46676 11.4914M18.5334 11.4914V9.62478C18.5334 8.59385 17.6977 7.75811 16.6668 7.75811M5.46676 11.4914V9.62478C5.46676 8.59385 6.3025 7.75811 7.33343 7.75811M7.33343 7.75811V5.89145C7.33343 4.86052 8.16917 4.02478 9.2001 4.02478H14.8001C15.831 4.02478 16.6668 4.86052 16.6668 5.89145V7.75811M7.33343 7.75811H16.6668" stroke="#141518" stroke-width="1.67" stroke-linecap="round" stroke-linejoin="round"/>
</svg>
