<svg width="48" height="29" viewBox="0 0 48 29" fill="none" xmlns="http://www.w3.org/2000/svg">
<rect y="0.424805" width="48" height="28" rx="14" fill="#141518"/>
<path d="M20.8501 7.07483C20.2702 7.07483 19.8001 7.54493 19.8001 8.12483C19.8001 8.70473 20.2702 9.17483 20.8501 9.17483H27.1501C27.73 9.17483 28.2001 8.70473 28.2001 8.12483C28.2001 7.54493 27.73 7.07483 27.1501 7.07483H20.8501Z" fill="white"/>
<path d="M17.7001 11.2748C17.7001 10.6949 18.1702 10.2248 18.7501 10.2248H29.2501C29.83 10.2248 30.3001 10.6949 30.3001 11.2748C30.3001 11.8547 29.83 12.3248 29.2501 12.3248H18.7501C18.1702 12.3248 17.7001 11.8547 17.7001 11.2748Z" fill="white"/>
<path d="M15.6001 15.4748C15.6001 14.315 16.5403 13.3748 17.7001 13.3748H30.3001C31.4599 13.3748 32.4001 14.315 32.4001 15.4748V19.6748C32.4001 20.8346 31.4599 21.7748 30.3001 21.7748H17.7001C16.5403 21.7748 15.6001 20.8346 15.6001 19.6748V15.4748Z" fill="white"/>
</svg>
