<svg width="48" height="40" viewBox="0 0 48 40" fill="none" xmlns="http://www.w3.org/2000/svg">
<rect y="6" width="48" height="28" rx="14" fill="#141518"/>
<path d="M24.7424 11.9076C24.3324 11.4976 23.6676 11.4976 23.2575 11.9076L15.9075 19.2576C15.4975 19.6677 15.4975 20.3325 15.9075 20.7426C16.3176 21.1526 16.9824 21.1526 17.3924 20.7426L17.7 20.435V27.3501C17.7 27.93 18.1701 28.4001 18.75 28.4001H20.85C21.4299 28.4001 21.9 27.93 21.9 27.3501V25.2501C21.9 24.6702 22.3701 24.2001 22.95 24.2001H25.05C25.6299 24.2001 26.1 24.6702 26.1 25.2501V27.3501C26.1 27.93 26.5701 28.4001 27.15 28.4001H29.25C29.8299 28.4001 30.3 27.93 30.3 27.3501V20.435L30.6075 20.7426C31.0176 21.1526 31.6824 21.1526 32.0924 20.7426C32.5025 20.3325 32.5025 19.6677 32.0924 19.2576L24.7424 11.9076Z" fill="white"/>
</svg>
