<svg xmlns="http://www.w3.org/2000/svg" xmlns:xlink="http://www.w3.org/1999/xlink" viewBox="0 0 496.3 568.46"><defs><style>.cls-1,.cls-17{fill:none;}.cls-2{isolation:isolate;}.cls-3{fill:#f7a05e;}.cls-16,.cls-4{fill:#ffba1f;}.cls-13,.cls-4{opacity:0.5;}.cls-5{fill:#204f80;}.cls-18,.cls-6{fill:#f78319;}.cls-7{clip-path:url(#clip-path);}.cls-8{fill:#d7edff;}.cls-14,.cls-9{fill:#fff;}.cls-10,.cls-12{fill:#d3dde5;}.cls-10,.cls-11{mix-blend-mode:multiply;}.cls-13{fill:#f1f8fe;}.cls-14{opacity:0.2;}.cls-15{fill:#39b54a;}.cls-15,.cls-16,.cls-17{stroke:#204f80;stroke-miterlimit:10;stroke-width:7px;}.cls-18{fill-rule:evenodd;}</style><clipPath id="clip-path" transform="translate(0 -4.84)"><rect class="cls-1" x="51.43" width="388.96" height="463.53"/></clipPath></defs><title>Pantalla3</title><g class="cls-2"><g id="Layer_2" data-name="Layer 2"><g id="Layer_1-2" data-name="Layer 1"><rect class="cls-3" x="100.16" y="458.69" width="314.33" height="6.6" rx="1.5" ry="1.5"/><circle class="cls-4" cx="248.43" cy="225.27" r="224.55"/><rect class="cls-5" y="237.88" width="145.33" height="11.06" rx="5.53" ry="5.53"/><rect class="cls-5" x="46.92" y="263.58" width="98.42" height="11.06" rx="5.53" ry="5.53"/><rect class="cls-5" x="368.37" y="344.84" width="96.93" height="11.06" rx="5.53" ry="5.53" transform="translate(833.67 695.9) rotate(180)"/><rect class="cls-5" x="368.37" y="370.53" width="127.93" height="11.06" rx="5.53" ry="5.53" transform="translate(864.67 747.28) rotate(-180)"/><path class="cls-6" d="M373.62,142.43A12.42,12.42,0,0,0,386,130h0a12.42,12.42,0,0,0-12.42-12.42H357.5a12.42,12.42,0,0,1-12.42-12.42v-2A12.42,12.42,0,0,1,357.5,90.81h92.57a12.42,12.42,0,0,1,12.42,12.42v2a12.42,12.42,0,0,1-12.42,12.42H420A12.42,12.42,0,0,0,407.6,130h0A12.42,12.42,0,0,0,420,142.43h2a12.42,12.42,0,0,1,12.42,12.42v2A12.42,12.42,0,0,1,422,169.22H347.92a12.42,12.42,0,0,1-12.42-12.42v-2a12.42,12.42,0,0,1,12.42-12.42h25.7" transform="translate(0 -4.84)"/><rect class="cls-6" x="189.48" y="176.38" width="36.59" height="27.01" rx="13.5" ry="13.5"/><g class="cls-7"><polygon class="cls-8" points="385.28 443.18 385.28 454.4 385.28 462.51 385.28 474.8 385.28 481.84 110.86 481.84 110.86 474.8 110.86 462.51 110.86 454.4 110.86 443.18 110.86 109.34 385.28 109.34 385.28 443.18"/><rect class="cls-6" x="110.86" y="109.34" width="274.42" height="46.29"/><rect class="cls-6" x="110.86" y="458.69" width="274.42" height="23.15"/><path class="cls-9" d="M385.28,106.07H110.86V87.21a26,26,0,0,1,26-26h222.4a26,26,0,0,1,26,26Z" transform="translate(0 -4.84)"/><path class="cls-5" d="M248.07,79.58H212.76a4.06,4.06,0,1,0,0,8.11h35.32a4.06,4.06,0,0,0,0-8.11Z" transform="translate(0 -4.84)"/><path class="cls-5" d="M283.39,79.58h-8.83a4.06,4.06,0,1,0,0,8.11h8.83a4.06,4.06,0,0,0,0-8.11Z" transform="translate(0 -4.84)"/><path class="cls-5" d="M248.07,554a23.15,23.15,0,1,0-23.15-23.15A23.17,23.17,0,0,0,248.07,554Zm0-40.15a17,17,0,1,1-17,17A17,17,0,0,1,248.07,513.83Z" transform="translate(0 -4.84)"/><path class="cls-9" d="M385.28,539.18a26,26,0,0,1-26,26H136.87a26,26,0,0,1-26-26V494.79H385.28Z" transform="translate(0 -4.84)"/><polygon class="cls-10" points="385.28 443.18 385.28 454.4 385.28 462.51 385.28 474.8 385.28 481.84 365.18 481.84 365.18 474.8 365.18 462.51 365.18 454.4 365.18 443.18 365.18 109.34 385.28 109.34 385.28 443.18"/><path class="cls-5" d="M248.07,79.58H212.76a4.06,4.06,0,1,0,0,8.11h35.32a4.06,4.06,0,0,0,0-8.11Z" transform="translate(0 -4.84)"/><path class="cls-5" d="M283.39,79.58h-8.83a4.06,4.06,0,1,0,0,8.11h8.83a4.06,4.06,0,0,0,0-8.11Z" transform="translate(0 -4.84)"/><path class="cls-5" d="M248.07,554a23.15,23.15,0,1,0-23.15-23.15A23.17,23.17,0,0,0,248.07,554Zm0-40.15a17,17,0,1,1-17,17A17,17,0,0,1,248.07,513.83Z" transform="translate(0 -4.84)"/><path class="cls-5" d="M359.28,53.09H136.87a34.16,34.16,0,0,0-34.12,34.12v452a34.16,34.16,0,0,0,34.12,34.13h222.4a34.16,34.16,0,0,0,34.13-34.12v-452A34.16,34.16,0,0,0,359.28,53.09Zm26,486.09a26,26,0,0,1-26,26H136.87a26,26,0,0,1-26-26V494.79H385.28Zm0-91.16v38.66H110.86V114.18H385.28Zm0-342H110.86V87.21a26,26,0,0,1,26-26h222.4a26,26,0,0,1,26,26Z" transform="translate(0 -4.84)"/><g class="cls-11"><path class="cls-12" d="M365.18,61.91v44.16h20.1V87.21A26,26,0,0,0,365.18,61.91Z" transform="translate(0 -4.84)"/></g><g class="cls-11"><path class="cls-12" d="M365.18,565.19v-70.4h20.1v45.09A26,26,0,0,1,365.18,565.19Z" transform="translate(0 -4.84)"/></g><rect class="cls-5" x="110.62" y="155.04" width="274.66" height="10.14"/><rect class="cls-5" x="110.62" y="448.55" width="274.66" height="10.14"/><rect class="cls-13" x="200.9" y="127.72" width="92.27" height="9.55" rx="2" ry="2"/><rect class="cls-14" x="206.38" y="458.69" width="86.86" height="22.77"/><circle class="cls-9" cx="154.05" cy="469.73" r="4.77"/><circle class="cls-6" cx="249.81" cy="469.73" r="4.77"/><circle class="cls-9" cx="341.29" cy="469.73" r="4.77"/></g><rect class="cls-1" width="496.3" height="496.3"/><circle class="cls-15" cx="182.28" cy="221.83" r="32.69"/><circle class="cls-16" cx="182.28" cy="373.75" r="32.69"/><line class="cls-17" x1="182.28" y1="254.52" x2="182.28" y2="341.06"/><line class="cls-17" x1="182.28" y1="406.17" x2="182.28" y2="455.93"/><rect class="cls-5" x="223.65" y="213.89" width="132.77" height="5.3" rx="2.22" ry="2.22"/><rect class="cls-5" x="223.65" y="226.79" width="101.45" height="5.3" rx="2.22" ry="2.22"/><rect class="cls-5" x="223.65" y="366.72" width="132.77" height="5.3" rx="2.22" ry="2.22"/><rect class="cls-5" x="223.65" y="379.62" width="101.45" height="5.3" rx="2.22" ry="2.22"/><path class="cls-9" d="M180.79,244.76a3.55,3.55,0,0,1-2.69-1.27L160.58,223.4a4.81,4.81,0,0,1,0-6.15,3.46,3.46,0,0,1,5.37,0l14.84,17,34.13-39.12a3.46,3.46,0,0,1,5.37,0,4.81,4.81,0,0,1,0,6.15l-36.81,42.19A3.55,3.55,0,0,1,180.79,244.76Z" transform="translate(0 -4.84)"/><circle class="cls-5" cx="162.8" cy="374.55" r="4.94"/><circle class="cls-5" cx="182.28" cy="374.55" r="4.94"/><circle class="cls-5" cx="201.75" cy="374.55" r="4.94"/><rect class="cls-1" x="398.35" y="165.9" width="95.98" height="95.98"/><path class="cls-6" d="M480,180.08,409.11,221a3.67,3.67,0,0,0,.34,6.6l16.25,6.82,43.92-38.71a.92.92,0,0,1,1.31,1.27l-36.83,44.87v12.31a3.67,3.67,0,0,0,6.5,2.42l9.71-11.82,19,8a3.68,3.68,0,0,0,5-2.78l11-66A3.67,3.67,0,0,0,480,180.08Z" transform="translate(0 -4.84)"/><path class="cls-18" d="M393.65,266.71l2.38,3.94c2.36-1.17,4.71-2.35,7-3.59l-2.47-3.9C398.3,264.39,396,265.55,393.65,266.71Z" transform="translate(0 -4.84)"/><polygon class="cls-18" points="406.03 255.43 408.57 259.29 415.44 255.44 412.79 251.64 406.03 255.43"/><path class="cls-18" d="M424.58,249.32c-2.17,1.37-4.32,2.77-6.55,4.06l2.73,3.75c2.27-1.31,4.46-2.73,6.67-4.13Z" transform="translate(0 -4.84)"/><path class="cls-18" d="M355.15,283.94l2,4.12c2.45-1,4.91-2,7.34-3L362.43,281C360,282,357.58,283,355.15,283.94Z" transform="translate(0 -4.84)"/><path class="cls-18" d="M368.15,278.53l2.12,4.07c2.44-1,4.84-2.1,7.24-3.19l-2.19-4C372.95,276.45,370.57,277.52,368.15,278.53Z" transform="translate(0 -4.84)"/><polygon class="cls-18" points="380.95 268 383.19 272.01 390.33 268.63 388.01 264.65 380.95 268"/><path class="cls-18" d="M315.27,298.49l1.69,4.23c2.52-.82,5-1.65,7.54-2.53L322.76,296C320.28,296.85,317.77,297.67,315.27,298.49Z" transform="translate(0 -4.84)"/><path class="cls-18" d="M328.67,293.92l1.79,4.2c2.51-.85,5-1.8,7.47-2.69l-1.84-4.18C333.62,292.14,331.17,293.08,328.67,293.92Z" transform="translate(0 -4.84)"/><polygon class="cls-18" points="341.92 284.27 343.81 288.43 351.21 285.58 349.26 281.44 341.92 284.27"/><polygon class="cls-18" points="274.43 305.88 275.83 310.19 283.52 308.07 282.07 303.77 274.43 305.88"/><polygon class="cls-18" points="288.11 302.05 289.61 306.34 297.26 304.09 295.71 299.82 288.11 302.05"/><polygon class="cls-18" points="301.67 297.99 303.26 302.25 310.86 299.88 309.22 295.63 301.67 297.99"/><polygon class="cls-18" points="232.86 315.87 233.98 320.25 241.8 318.56 240.63 314.19 232.86 315.87"/><polygon class="cls-18" points="246.77 312.8 247.99 317.16 255.76 315.32 254.5 310.97 246.77 312.8"/><polygon class="cls-18" points="260.57 309.48 261.88 313.82 269.62 311.85 268.25 307.52 260.57 309.48"/><path class="cls-18" d="M190.7,328.28l.79,4.44c2.65-.39,5.29-.8,7.93-1.21l-.85-4.43C195.95,327.49,193.33,327.9,190.7,328.28Z" transform="translate(0 -4.84)"/><polygon class="cls-18" points="204.8 321.21 205.7 325.64 213.59 324.25 212.63 319.84 204.8 321.21"/><polygon class="cls-18" points="218.79 318.7 219.8 323.1 227.66 321.56 226.59 317.17 218.79 318.7"/><path class="cls-18" d="M148.1,332.94l.37,4.49c2.68-.18,5.35-.39,8-.61l-.46-4.48C153.39,332.56,150.75,332.77,148.1,332.94Z" transform="translate(0 -4.84)"/><path class="cls-18" d="M162.32,331.76l.52,4.47c2.67-.25,5.33-.54,8-.83l-.6-4.47C167.6,331.23,165,331.51,162.32,331.76Z" transform="translate(0 -4.84)"/><polygon class="cls-18" points="176.46 325.37 177.12 329.83 185.09 328.8 184.35 324.35 176.46 325.37"/><path class="cls-18" d="M105.08,338c2.69.14,5.38.24,8.06.31l.13-4.5c-2.64-.07-5.28-.16-7.91-.3Z" transform="translate(0 -4.84)"/><path class="cls-18" d="M119.57,333.91l0,4.5q4,0,8.06-.06l-.1-4.5Q123.54,333.94,119.57,333.91Z" transform="translate(0 -4.84)"/><path class="cls-18" d="M133.76,333.69l.19,4.5c2.68-.1,5.36-.22,8-.36l-.29-4.49C139.06,333.48,136.41,333.59,133.76,333.69Z" transform="translate(0 -4.84)"/><path class="cls-18" d="M62.25,330.7c2.55.91,5.14,1.7,7.75,2.39l1.38-4.32c-2.48-.66-4.92-1.41-7.3-2.26Z" transform="translate(0 -4.84)"/><path class="cls-18" d="M76.26,334.56q4,.82,8,1.42l.81-4.44q-3.87-.58-7.68-1.37Z" transform="translate(0 -4.84)"/><path class="cls-18" d="M90.54,336.82c2.68.32,5.36.56,8,.78l.42-4.48c-2.62-.22-5.24-.45-7.84-.76Z" transform="translate(0 -4.84)"/><path class="cls-18" d="M44.15,300.48l-4.82-1a23.15,23.15,0,0,0-.79,7.74l5-.43A18.82,18.82,0,0,1,44.15,300.48Z" transform="translate(0 -4.84)"/><path class="cls-18" d="M40,313.23a22.22,22.22,0,0,0,4.36,6.68l3.88-2.8a18,18,0,0,1-3.56-5.43Z" transform="translate(0 -4.84)"/><path class="cls-18" d="M49.19,324.13a47.08,47.08,0,0,0,7,4.07l2.29-4a42.08,42.08,0,0,1-6.26-3.62Z" transform="translate(0 -4.84)"/><path class="cls-18" d="M65.39,273.14l2.93-2.38-3.25-3.39-3,2.46c-1,.85-2,1.68-2.95,2.54l3.45,3.22Z" transform="translate(0 -4.84)"/><path class="cls-18" d="M58.22,279.63l-3.63-3.06c-1.82,1.83-3.63,3.68-5.29,5.66L53.2,285C54.76,283.14,56.48,281.38,58.22,279.63Z" transform="translate(0 -4.84)"/><path class="cls-18" d="M49.69,289.46,45.54,287a50.6,50.6,0,0,0-4,6.6l4.52,1.83A46.3,46.3,0,0,1,49.69,289.46Z" transform="translate(0 -4.84)"/><path class="cls-18" d="M93.59,248.28l2.66,3.79q3.34-1.95,6.75-3.81l-2.56-3.85Q97,246.31,93.59,248.28Z" transform="translate(0 -4.84)"/><path class="cls-18" d="M91,255.2l-2.74-3.74c-2.23,1.36-4.46,2.74-6.65,4.16l2.86,3.67C86.59,257.89,88.77,256.54,91,255.2Z" transform="translate(0 -4.84)"/><path class="cls-18" d="M76.44,259q-3.23,2.21-6.37,4.52L73.18,267q3.06-2.26,6.23-4.42Z" transform="translate(0 -4.84)"/></g></g></g></svg>