<svg xmlns="http://www.w3.org/2000/svg" xmlns:xlink="http://www.w3.org/1999/xlink" viewBox="0 0 496.3 496.3"><defs><style>.cls-1,.cls-13{fill:none;}.cls-2{fill:#f78319;}.cls-3{fill:#f7a05e;}.cls-12,.cls-4{fill:#ffba1f;}.cls-22,.cls-4{opacity:0.5;}.cls-5{fill:#d7edff;}.cls-23,.cls-6{fill:#fff;}.cls-13,.cls-6{stroke:#204f80;stroke-width:6px;}.cls-13,.cls-6,.cls-9{stroke-miterlimit:10;}.cls-22,.cls-7{fill:#204f80;}.cls-8{fill:#007aff;}.cls-11,.cls-9{fill:#e6e6e6;}.cls-9{stroke:#fff;}.cls-10{fill:#ffe600;}.cls-14{clip-path:url(#clip-path);}.cls-15{fill:#fedac6;}.cls-16{fill:#f5c4b0;}.cls-17{fill:#a15d30;}.cls-18{fill:#2e6aa3;}.cls-19{fill:#ebebeb;}.cls-20{fill:#8f4f24;}.cls-21{fill:#215280;}</style><clipPath id="clip-path"><ellipse class="cls-1" cx="243.56" cy="87.25" rx="80.45" ry="86.15"/></clipPath></defs><title>Pantalla5</title><g id="Layer_2" data-name="Layer 2"><g id="Layer_1-2" data-name="Layer 1"><rect class="cls-2" x="384.86" y="71.36" width="111.44" height="8.48" rx="4.24" ry="4.24" transform="translate(881.16 151.2) rotate(-180)"/><rect class="cls-2" x="405.36" y="91.06" width="75.46" height="8.48" rx="4.24" ry="4.24" transform="translate(886.19 190.6) rotate(-180)"/><rect class="cls-3" x="100.16" y="458.69" width="314.33" height="6.6" rx="1.5" ry="1.5"/><circle class="cls-4" cx="248.43" cy="225.27" r="224.55"/><path class="cls-2" d="M111.3,215.59h0a12.42,12.42,0,0,1,12.42-12.42h10.89A12.42,12.42,0,0,0,147,190.76v-2a12.42,12.42,0,0,0-12.42-12.42H12.42A12.42,12.42,0,0,0,0,188.8v2a12.42,12.42,0,0,0,12.42,12.42H72.1a12.42,12.42,0,0,1,12.42,12.42h0A12.42,12.42,0,0,1,72.1,228h-37a12.42,12.42,0,0,0-12.42,12.42v2A12.42,12.42,0,0,0,35.07,254.8H157.26a12.42,12.42,0,0,0,12.42-12.42v-2A12.42,12.42,0,0,0,157.26,228H123.72A12.42,12.42,0,0,1,111.3,215.59Z"/><path id="Rectangulo_blanco" class="cls-5" d="M377.9,435.44H119c-16.28,0-29.48-11.19-29.48-25V93.61c0-13.81,13.2-25,29.48-25H377.9c16.28,0,29.48,11.19,29.48,25V410.44C407.38,424.25,394.18,435.44,377.9,435.44Z"/><path id="Rectangulo_blanco-2" data-name="Rectangulo_blanco" class="cls-6" d="M377.9,435.44H119c-16.28,0-29.48-11.19-29.48-25V93.61c0-13.81,13.2-25,29.48-25H377.9c16.28,0,29.48,11.19,29.48,25V410.44C407.38,424.25,394.18,435.44,377.9,435.44Z"/><rect class="cls-7" x="151.57" y="189.64" width="188.33" height="8.27" rx="4.13" ry="4.13"/><rect class="cls-7" x="189.79" y="203.05" width="117.28" height="8.27" rx="4.13" ry="4.13"/><rect class="cls-8" x="111.35" y="367.13" width="274.16" height="42.45" rx="6" ry="6"/><rect class="cls-9" x="111.35" y="278.93" width="274.16" height="70.39" rx="6" ry="6"/><path class="cls-10" d="M160.57,247.94l-4.27,2.25a1.64,1.64,0,0,1-2.38-1.73l.82-4.76a1.64,1.64,0,0,0-.47-1.45l-3.46-3.37a1.64,1.64,0,0,1,.91-2.79l4.78-.69a1.64,1.64,0,0,0,1.23-.9l2.14-4.33a1.64,1.64,0,0,1,2.94,0l2.14,4.33a1.64,1.64,0,0,0,1.23.9l4.78.69a1.64,1.64,0,0,1,.91,2.79l-3.46,3.37a1.64,1.64,0,0,0-.47,1.45l.82,4.76a1.64,1.64,0,0,1-2.38,1.73l-4.27-2.25A1.64,1.64,0,0,0,160.57,247.94Z"/><polygon class="cls-11" points="204.88 247.53 196.91 251.73 198.43 242.85 191.98 236.56 200.89 235.27 204.88 227.19 208.87 235.27 217.78 236.56 211.33 242.85 212.85 251.73 204.88 247.53"/><polygon class="cls-11" points="248.43 247.53 240.46 251.73 241.98 242.85 235.53 236.56 244.44 235.27 248.43 227.19 252.41 235.27 261.33 236.56 254.88 242.85 256.4 251.73 248.43 247.53"/><polygon class="cls-11" points="291.98 247.53 284 251.73 285.53 242.85 279.08 236.56 287.99 235.27 291.98 227.19 295.96 235.27 304.88 236.56 298.43 242.85 299.95 251.73 291.98 247.53"/><path class="cls-11" d="M334.76,247.94l-4.27,2.25a1.64,1.64,0,0,1-2.38-1.73l.82-4.76a1.64,1.64,0,0,0-.47-1.45L325,238.88a1.64,1.64,0,0,1,.91-2.79l4.78-.69a1.64,1.64,0,0,0,1.23-.9l2.14-4.33a1.64,1.64,0,0,1,2.94,0l2.14,4.33a1.64,1.64,0,0,0,1.23.9l4.78.69a1.64,1.64,0,0,1,.91,2.79l-3.46,3.37a1.64,1.64,0,0,0-.47,1.45l.82,4.76a1.64,1.64,0,0,1-2.38,1.73l-4.27-2.25A1.64,1.64,0,0,0,334.76,247.94Z"/><path class="cls-10" d="M204.12,247.94l-4.27,2.25a1.64,1.64,0,0,1-2.38-1.73l.82-4.76a1.64,1.64,0,0,0-.47-1.45l-3.46-3.37a1.64,1.64,0,0,1,.91-2.79l4.78-.69a1.64,1.64,0,0,0,1.23-.9l2.14-4.33a1.64,1.64,0,0,1,2.94,0l2.14,4.33a1.64,1.64,0,0,0,1.23.9l4.78.69a1.64,1.64,0,0,1,.91,2.79l-3.46,3.37a1.64,1.64,0,0,0-.47,1.45l.82,4.76a1.64,1.64,0,0,1-2.38,1.73l-4.27-2.25A1.64,1.64,0,0,0,204.12,247.94Z"/><path class="cls-10" d="M247.67,247.94l-4.27,2.25a1.64,1.64,0,0,1-2.38-1.73l.82-4.76a1.64,1.64,0,0,0-.47-1.45l-3.46-3.37a1.64,1.64,0,0,1,.91-2.79l4.78-.69a1.64,1.64,0,0,0,1.23-.9l2.14-4.33a1.64,1.64,0,0,1,2.94,0l2.14,4.33a1.64,1.64,0,0,0,1.23.9l4.78.69a1.64,1.64,0,0,1,.91,2.79l-3.46,3.37a1.64,1.64,0,0,0-.47,1.45l.82,4.76a1.64,1.64,0,0,1-2.38,1.73l-4.27-2.25A1.64,1.64,0,0,0,247.67,247.94Z"/><path class="cls-10" d="M291.21,247.94l-4.27,2.25a1.64,1.64,0,0,1-2.38-1.73l.82-4.76a1.64,1.64,0,0,0-.47-1.45l-3.46-3.37a1.64,1.64,0,0,1,.91-2.79l4.78-.69a1.64,1.64,0,0,0,1.23-.9l2.14-4.33a1.64,1.64,0,0,1,2.94,0l2.14,4.33a1.64,1.64,0,0,0,1.23.9l4.78.69a1.64,1.64,0,0,1,.91,2.79L299,242.25a1.64,1.64,0,0,0-.47,1.45l.82,4.76a1.64,1.64,0,0,1-2.38,1.73l-4.27-2.25A1.64,1.64,0,0,0,291.21,247.94Z"/><circle class="cls-12" cx="243.56" cy="103.06" r="72.07"/><circle class="cls-13" cx="243.56" cy="103.06" r="72.07"/><g class="cls-14"><path class="cls-15" d="M275.17,46.2C267.58,43.49,262.53,30,262.53,30c-10.51,13.13-34.35,13.26-48,12.1V86.79a27,27,0,0,0,4.5,15l.94,1.41A23.67,23.67,0,0,0,239.53,114h11.55A23.81,23.81,0,0,0,272,101h0a27,27,0,0,0,3.18-13V46.2Z"/><path class="cls-16" d="M224.62,75.78V42.49c-3.69,0-7.15-.16-10.11-.43V86.79a27,27,0,0,0,4.5,15l.94,1.41a24.06,24.06,0,0,0,14.79,10.09l-1-1.87A74.59,74.59,0,0,1,224.62,75.78Z"/><path class="cls-15" d="M297.91,170.69V143.63c0-10.85-7.5-20-17.54-21.46l-14.71-2.08a6.87,6.87,0,0,1-5.66-6.93v-7.42H229.67v7.42a6.87,6.87,0,0,1-5.66,6.93l-14.71,2.08c-10,1.44-17.54,10.61-17.54,21.46v27.06Z"/><path class="cls-16" d="M262.15,118.3a7.14,7.14,0,0,1-2.15-5.14v-7.42H229.67v7.42a7.15,7.15,0,0,1-2.15,5.14A35.7,35.7,0,0,0,262.15,118.3Z"/><path class="cls-17" d="M275.17,46.2V35.37c0-7.47-5.66-13.53-12.64-13.53h0a25.07,25.07,0,0,0-18.3-8.12h-7c-15,0-27.8,13.53-32.86,27.06,0,0,43,8.12,58.13-10.83,0,0,5.05,13.53,12.64,16.24"/><path class="cls-17" d="M266.37,78.94a4.39,4.39,0,0,1-6.22,1.76,4.69,4.69,0,0,1-1.49-1.49,12.43,12.43,0,0,0-10.41-6h-6.82a12.43,12.43,0,0,0-10.41,6,4.37,4.37,0,0,1-6.31,1.32,4.77,4.77,0,0,1-1.4-1.59l-8.8-17.38V86.79a27,27,0,0,0,4.5,15l.94,1.41A23.67,23.67,0,0,0,239.53,114h11.55c13.32,0,24.1-11.59,24.09-25.85V61.57Z"/><path class="cls-15" d="M275.17,46.2h-2.53V62.43h2.53a8.14,8.14,0,0,0,0-16.24Z"/><path class="cls-16" d="M206.92,54.31a7.86,7.86,0,0,0,7.58,8.12H217V46.2h-2.53A7.86,7.86,0,0,0,206.92,54.31Z"/><path class="cls-18" d="M280.37,122.17l-14.71-2.08a6.38,6.38,0,0,1-2.38-.81l-18.45,27.06-18.45-27.06a6.36,6.36,0,0,1-2.38.89l-14.71,2.08c-10,1.43-17.5,10.56-17.54,21.38V173.4H297.91V143.63C297.91,132.78,290.41,123.6,280.37,122.17Z"/><polygon class="cls-19" points="234.73 132.8 244.84 146.33 254.95 132.8 234.73 132.8"/><rect class="cls-18" x="186.7" y="162.57" width="25.28" height="10.83"/><rect class="cls-18" x="277.69" y="162.57" width="25.28" height="10.83"/><path class="cls-20" d="M228.81,15.15c-11.22,4-20.35,14.8-24.42,25.63a122.4,122.4,0,0,0,20.22,1.73V35.37A49,49,0,0,1,228.81,15.15Z"/><path class="cls-20" d="M224.77,80.57a5.27,5.27,0,0,1-1.47-1.62l-8.8-17.38V86.79a27,27,0,0,0,4.5,15l.94,1.41a24.06,24.06,0,0,0,14.79,10.09l-1-1.87A74.48,74.48,0,0,1,224.77,80.57Z"/><rect class="cls-21" x="232.2" y="130.1" width="5.06" height="43.3"/><rect class="cls-21" x="219.56" y="121.98" width="5.06" height="51.42"/><rect class="cls-21" x="206.92" y="121.98" width="5.06" height="51.42"/><rect class="cls-21" x="194.28" y="130.1" width="5.06" height="43.3"/><rect class="cls-21" x="194.28" y="132.8" width="40.44" height="5.41"/><rect class="cls-21" x="191.76" y="146.33" width="53.08" height="5.41"/><rect class="cls-21" x="196.81" y="159.87" width="50.55" height="5.41"/><rect class="cls-21" x="252.42" y="130.1" width="5.06" height="43.3"/><rect class="cls-21" x="265.06" y="121.98" width="5.06" height="51.42"/><rect class="cls-21" x="277.69" y="121.98" width="5.06" height="51.42"/><rect class="cls-21" x="290.33" y="130.1" width="5.06" height="43.3"/><rect class="cls-21" x="254.95" y="132.8" width="40.44" height="5.41"/><rect class="cls-21" x="244.84" y="146.33" width="53.08" height="5.41"/><rect class="cls-21" x="242.31" y="159.87" width="50.55" height="5.41"/><path class="cls-7" d="M275.17,65.14h-2.53V59.73h2.53a5.43,5.43,0,0,0,0-10.83h-2.53V43.49h2.53c5.58,0,10.11,4.86,10.11,10.83S280.74,65.14,275.17,65.14Z"/><path class="cls-7" d="M217,65.14h-2.53c-5.58,0-10.11-4.86-10.11-10.83s4.53-10.83,10.11-10.83H217V48.9h-2.53a5.43,5.43,0,0,0,0,10.83H217v5.41Z"/><path class="cls-7" d="M251.1,116.73H239.53a26.2,26.2,0,0,1-21.65-12l-.94-1.41a29.69,29.69,0,0,1-5-16.56v-46H217v46a24,24,0,0,0,4,13.42l.94,1.41a21.22,21.22,0,0,0,17.53,9.69H251.1a21.35,21.35,0,0,0,18.69-11.62,24.16,24.16,0,0,0,2.85-11.6V43.49h5.06V88.06a29.91,29.91,0,0,1-3.52,14.31A26.37,26.37,0,0,1,251.1,116.73Z"/><path class="cls-7" d="M275.17,48.9a2.4,2.4,0,0,1-.8-.14c-6-2.13-10.39-9.61-12.6-14.17-17.56,16.23-56.09,9.18-57.81,8.86a2.53,2.53,0,0,1-1.77-1.35,2.88,2.88,0,0,1-.14-2.32C207.39,25.48,221.2,11,237.25,11h7a27.24,27.24,0,0,1,19.36,8.16c7.87.58,14.11,7.63,14.11,16.2V46.2a2.77,2.77,0,0,1-1,2.2A2.41,2.41,0,0,1,275.17,48.9ZM262.53,27.25a2.37,2.37,0,0,1,.41,0,2.57,2.57,0,0,1,1.93,1.66c1,2.69,4,9,7.76,12.51V35.37c0-6-4.53-10.83-10.11-10.83a2.45,2.45,0,0,1-1.79-.79,22.47,22.47,0,0,0-16.51-7.33h-7c-12.65,0-23.78,10.71-29.18,22.2,10.07,1.39,40.8,4.22,52.53-10.43A2.46,2.46,0,0,1,262.53,27.25Z"/><path class="cls-7" d="M262.36,84.09a6.86,6.86,0,0,1-5.81-3.38A9.91,9.91,0,0,0,248.24,76h-6.81A9.77,9.77,0,0,0,233,80.73a6.89,6.89,0,0,1-5.85,3.35h0a7.07,7.07,0,0,1-6-3.79l-8.8-16.52,4.39-2.68,8.8,16.51a2,2,0,0,0,1.7,1.07h0a1.93,1.93,0,0,0,1.6-.95,14.91,14.91,0,0,1,12.58-7.17h6.87a14.91,14.91,0,0,1,12.51,7.15,1.92,1.92,0,0,0,1.71,1,2,2,0,0,0,1.81-1.08L273,61.11l4.4,2.66-8.69,16.51a7,7,0,0,1-6.14,3.81Z"/><path class="cls-7" d="M194.28,162.57h-5.05V143.63c0-12.15,8.48-22.53,19.73-24.14l14.71-2.09a4.23,4.23,0,0,0,3.47-4.25h5.06a9.56,9.56,0,0,1-7.85,9.61l-14.72,2.09c-8.75,1.25-15.35,9.32-15.35,18.78v18.95Z"/><path class="cls-7" d="M300.44,162.57h-5.06V143.63c0-9.45-6.6-17.53-15.35-18.78l-14.7-2.09a9.56,9.56,0,0,1-7.86-9.61h5.06A4.23,4.23,0,0,0,266,117.4l14.7,2.09c11.26,1.61,19.74,12,19.74,24.14Z"/><rect class="cls-7" x="209.45" y="151.75" width="5.06" height="21.65"/><rect class="cls-7" x="275.17" y="151.75" width="5.06" height="21.65"/><path class="cls-7" d="M244.84,149a2.48,2.48,0,0,1-2.07-1.16l-17.69-27.06,4.14-3.1,15.62,23.9,15.62-23.9,4.14,3.1-17.69,27.06A2.49,2.49,0,0,1,244.84,149Z"/><path class="cls-7" d="M224.62,151.75a2.41,2.41,0,0,1-1-.21,2.68,2.68,0,0,1-1.5-2l-5.06-29.77,5-1,4.37,25.72,12-8.54,2.8,4.5L226,151.29A2.43,2.43,0,0,1,224.62,151.75Z"/><path class="cls-7" d="M265.06,151.75a2.42,2.42,0,0,1-1.4-.45l-15.17-10.83,2.8-4.5,12,8.54,4.37-25.72,5,1-5.06,29.77a2.68,2.68,0,0,1-1.5,2A2.33,2.33,0,0,1,265.06,151.75Z"/><rect class="cls-7" x="242.31" y="146.33" width="5.06" height="27.06"/><rect class="cls-7" x="234.73" y="130.1" width="20.22" height="5.41"/><path class="cls-7" d="M214.51,173.4h-5.06v-8.12H189.23v8.12h-5.06V162.57a2.62,2.62,0,0,1,2.53-2.71H212a2.62,2.62,0,0,1,2.53,2.71V173.4Z"/><path class="cls-7" d="M305.5,173.4h-5.06v-8.12H280.22v8.12h-5.05V162.57a2.62,2.62,0,0,1,2.53-2.71H303a2.62,2.62,0,0,1,2.53,2.71V173.4Z"/><path class="cls-7" d="M236,159.87a4.07,4.07,0,1,1,3.79-4.06A3.94,3.94,0,0,1,236,159.87Zm0-5.41a1.36,1.36,0,1,0,1.26,1.35A1.31,1.31,0,0,0,236,154.45Z"/></g><rect class="cls-22" x="123.61" y="292.93" width="249.51" height="6.79" rx="3.39" ry="3.39"/><rect class="cls-22" x="123.61" y="307.34" width="155.37" height="6.79" rx="3.39" ry="3.39"/><rect class="cls-23" x="189.79" y="384.23" width="117.28" height="8.27" rx="4.13" ry="4.13"/><rect class="cls-1" width="496.3" height="496.3"/><g id="Mail-3"><circle class="cls-2" cx="425.95" cy="47.26" r="21.35"/><path class="cls-7" d="M443.09,93.06v2.86a5.71,5.71,0,0,1-5.71,5.71H371.66a5.71,5.71,0,0,1-5.71-5.71V93.14l32.56-21.79,6,3.13,6.17-3Z"/><path class="cls-7" d="M443.09,63.06v30l-32.4-21.6,6.3-3.09a22.56,22.56,0,0,0,9,1.83,22.82,22.82,0,0,0,16.86-7.41Z"/><path class="cls-7" d="M417,68.37l-6.3,3.09-6.17,3-6-3.13-32.56-17V53.06a5.71,5.71,0,0,1,5.71-5.71h31.43A22.84,22.84,0,0,0,417,68.37Z"/><path class="cls-7" d="M398.51,71.36,365.95,93.14V54.4Z"/><path class="cls-23" d="M450.24,47.34a24.27,24.27,0,0,0-48.5-1.43H371.66a7.15,7.15,0,0,0-7.14,7.14V95.92a7.15,7.15,0,0,0,7.14,7.14h65.72a7.15,7.15,0,0,0,7.14-7.14V63.06h-.09A24.16,24.16,0,0,0,450.24,47.34ZM425.95,71.63a24.16,24.16,0,0,0,15.72-5.8V90.39L413.55,71.65l3.52-1.72a24.12,24.12,0,0,0,8.88,1.7Zm0-45.72a21.43,21.43,0,1,1-21.43,21.43A21.43,21.43,0,0,1,425.95,25.91ZM371.66,48.77h30.07a24.28,24.28,0,0,0,12.07,19.57l-9.27,4.54L367.37,53.53v-.48a4.29,4.29,0,0,1,4.29-4.29Zm24,22.74-28.34,19V56.75Zm41.67,28.69H371.66a4.29,4.29,0,0,1-4.29-4.29h0v-2L398.6,73l5.26,2.74a1.43,1.43,0,0,0,1.29,0l5.44-2.67,31.08,20.72v2.09a4.29,4.29,0,0,1-4.29,4.29Z"/><path class="cls-23" d="M421.86,56.91a1.59,1.59,0,0,1-1.2-.57l-7.86-9a2.16,2.16,0,0,1,0-2.76,1.55,1.55,0,0,1,2.41,0l6.66,7.63,15.31-17.54a1.55,1.55,0,0,1,2.41,0,2.16,2.16,0,0,1,0,2.76L423.06,56.34A1.59,1.59,0,0,1,421.86,56.91Z"/></g></g></g></svg>