<svg xmlns="http://www.w3.org/2000/svg" xmlns:xlink="http://www.w3.org/1999/xlink" viewBox="0 0 496.3 704"><defs><style>.cls-1{fill:none;}.cls-2{fill:#f7a05e;}.cls-3{clip-path:url(#clip-path);}.cls-4{opacity:0.2;}.cls-5{fill:#eff0f0;}.cls-6{fill:#01467a;}.cls-22,.cls-7{fill:#fedac6;}.cls-21,.cls-8{fill:#f5c4b0;}.cls-9{fill:#2e6aa3;}.cls-10{fill:#a15d30;}.cls-11{fill:#ebebeb;}.cls-12{fill:#8f4f24;}.cls-13{fill:#215280;}.cls-14{fill:#204f80;}.cls-15{fill:#969696;}.cls-16{fill:#ffba1f;}.cls-17{fill:#d1cfcf;}.cls-18{fill:#8c5219;}.cls-19{fill:#f78319;}.cls-20{fill:#fff;}.cls-21,.cls-22{stroke:#204f80;stroke-miterlimit:10;stroke-width:4px;}.cls-23{fill:#f5737f;}.cls-24{fill:#fafafa;}</style><clipPath id="clip-path"><circle class="cls-1" cx="248.43" cy="369.9" r="224.55"/></clipPath></defs><title>Pantalla4</title><g id="Layer_2" data-name="Layer 2"><g id="Layer_1-2" data-name="Layer 1"><circle class="cls-2" cx="248.43" cy="369.9" r="224.55"/><g class="cls-3"><g class="cls-4"><path class="cls-5" d="M373.75,449.39l40.48,15.81,20.91-51.12,9.34,3.65,4-9.74-73.69-28.78,59-144.22a13.12,13.12,0,0,0-3-14.37l42.22-103.23-10-3.89L420.76,216.73a13.65,13.65,0,0,0-12.33,8.37l-31.11,76.06L348.67,290l23.89-58.42-16-6.24L395.16,131l-5-1.95L351.6,223.38,325,213,376,88.25a13.24,13.24,0,0,0-7.6-17.32,13.76,13.76,0,0,0-17.72,7.43L297.86,207.6l-23-36.77-29.06-11.35L306.54,11l-5-1.95L240.82,157.53l-42.76-16.7L228.68,66l-5-1.95-30.61,74.85-40.27-15.73L201.59,3.89,191.63,0,112.26,194l48.31,146.79-76,23,25.21-61.64L84,222.22l-5.12,1.58L104.07,302,77.95,365.88l-22.14,6.71,3.18,10,40.7-12.34L30.64,539.1l5,1.95,33.27-81.34L108.08,475,90,519.23l.93.36-2,4.87,68.4,26.71L145.14,581l-90.3-35.26-2,4.87,90.3,35.26L132,613a13.24,13.24,0,0,0,7.6,17.32,13.76,13.76,0,0,0,17.72-7.43l11.12-27.18,39.44,15.4-26.38,64.5,5,1.95,14.68-35.9,39.44,15.4-17.59,43L233,704l29.29-71.6,37.16,14.51,14.19-34.69,118.95,46.45,4-9.74L336.93,610l34.18-83.57,99.64,38.91,4-9.74L350.18,507Zm56.4-37.25-18.92,46.25-40.48-15.81L345.2,505l-26.57-10.38,23-56.17a13.65,13.65,0,0,0,12.33-8.37L370.78,389ZM140.11,425l16.1-39.35L200,402.71l28.37-69.37,15.57,6.08L199.48,448.14Zm186.66-53.19-11.7,28.6-57.5-22.46,11.7-28.6Zm-53.52-32.19,37.39-91.42,16.88,27L297.34,349Zm55.36,80.66a13.12,13.12,0,0,0,3,14.37l-2.4,5.87-21.38-8.35,23.89-58.42,13.7,5.35ZM355.42,383l5.4,2.11L344,426.23a2.93,2.93,0,0,1-3.78,1.58,2.82,2.82,0,0,1-1.62-3.69ZM260.26,483.17l-16.1,39.35-39.44-15.4,16.1-39.35ZM224.8,458l30.78-75.25,57.5,22.46-10.2,24.95L261.36,414l-20.58,50.3Zm-10-3.89-5.4-2.11,44.47-108.72,5.4,2.11Zm33.09-124.46L225.82,321l-52.63,16L203,264.14l61.86,24.16ZM205.46,461.77l5.4,2.11-34.18,83.57-5.4-2.11ZM202.73,512l39.44,15.4-16.1,39.35-39.44-15.4Zm44.42,17.35,39.44,15.4-16.1,39.35-39.44-15.4Zm41.43,10.54-39.44-15.4,16.1-39.35,39.44,15.4Zm-42.82-73.65,18.58-45.44,39,15.24,23.87,9.32-18.58,45.44ZM418.39,229a2.93,2.93,0,0,1,3.78-1.58,2.82,2.82,0,0,1,1.62,3.69l-59,144.22-5.4-2.11Zm-43.07,77-25.89,63.29-28.65-11.19,25.89-63.29Zm-9.73-71.55-49.78,121.7-8.51-3.32,32.19-78.71L315.62,236,323,217.87Zm-4.9-152.23a2.93,2.93,0,0,1,3.78-1.58,2.82,2.82,0,0,1,1.62,3.69L308.63,224.82l-3.78-6.05ZM299.88,230.93l3.78,6.05-40.37,98.7-5.4-2.11Zm-7-11.17-26,63.68-32-12.48,35.6-87Zm-26.16-40.81L229.9,269,205,259.28l36.84-90.06Zm-29.89-11.67-15.93,38.94-42.76-16.7,15.93-38.94ZM189.1,148.62l-15.93,38.94L132.9,171.84l15.93-38.94Zm-58.19,28.09,40.27,15.73-26.7,65.27-20.82-63.27Zm16.15,88.82,29.1-71.15,42.76,16.7L169.17,332.72Zm24.31,83L222.76,333,197,395.89,158.2,380.73ZM70.88,454.84l35.41-86.58,51.88-15.73L110.07,470.15Zm65.25-20.15,27.19,10.62-34.18,83.57-27.19-10.62Zm-2,96.14,34.18-83.57,27.19,10.62-34.18,83.57ZM147.39,619a2.93,2.93,0,0,1-3.78,1.58,2.82,2.82,0,0,1-1.62-3.69l25.3-61.87,5.4,2.11Zm55.8,17.79,11.7-28.6-44.42-17.35,12.2-29.82,83.86,32.75-23.89,58.42Zm93.28,3.26-32.17-12.57,12.2-29.82,32.17,12.57Zm35.48-32L280.47,588l34.18-83.57,51.48,20.1Z"/><polygon class="cls-5" points="177.77 233.12 168.22 229.39 153.78 264.68 163.33 268.41 177.77 233.12"/><polygon class="cls-5" points="163.09 289.02 178.03 294.86 184.01 280.25 169.06 274.42 163.09 289.02"/><polygon class="cls-5" points="205.25 223.62 195.7 219.89 182.09 253.16 191.64 256.88 205.25 223.62"/><polygon class="cls-5" points="212.25 192.95 215.9 184.03 195.56 176.08 191.91 185.01 212.25 192.95"/><polygon class="cls-5" points="164.13 144.05 154.47 140.28 149.13 153.35 158.78 157.12 164.13 144.05"/><polygon class="cls-5" points="166.38 175.04 170.03 166.11 149.27 158 145.62 166.93 166.38 175.04"/><polygon class="cls-5" points="154.59 194.43 142.97 189.89 136 206.93 147.62 211.47 154.59 194.43"/><polygon class="cls-5" points="166.03 117.03 173.92 120.11 182.71 98.61 174.82 95.53 166.03 117.03"/><polygon class="cls-5" points="195.74 116.17 184.74 111.87 180.34 122.62 191.34 126.92 195.74 116.17"/><polygon class="cls-5" points="202.76 83.39 212.47 59.66 203.04 55.97 193.33 79.71 202.76 83.39"/><polygon class="cls-5" points="211.32 137.54 236.44 147.35 239.63 139.54 214.52 129.73 211.32 137.54"/><polygon class="cls-5" points="231.37 106.79 239.33 87.32 232.9 84.81 224.93 104.28 231.37 106.79"/><polygon class="cls-5" points="247.89 124.07 253.2 111.08 244.07 107.52 238.76 120.5 247.89 124.07"/><polygon class="cls-5" points="217.15 255.44 223.99 238.7 218.91 236.72 212.06 253.45 217.15 255.44"/><polygon class="cls-5" points="243.48 223.73 229.41 218.24 225.93 226.76 239.99 232.25 243.48 223.73"/><polygon class="cls-5" points="254.63 186.45 249.65 184.5 239.7 208.84 244.68 210.79 254.63 186.45"/><polygon class="cls-5" points="247.56 257.61 262.19 263.33 264.7 257.19 250.07 251.47 247.56 257.61"/><polygon class="cls-5" points="260.13 240.11 266.67 242.67 274.88 222.59 268.34 220.03 260.13 240.11"/><polygon class="cls-5" points="207.01 273 203.28 282.13 215.68 286.98 219.42 277.85 207.01 273"/><polygon class="cls-5" points="192.58 308.3 199.61 311.05 207.57 291.57 200.54 288.83 192.58 308.3"/><polygon class="cls-5" points="216.13 309.73 232.16 316 235.15 308.69 219.11 302.43 216.13 309.73"/><polygon class="cls-5" points="237.16 283.02 233.56 291.84 250.68 298.53 254.29 289.7 237.16 283.02"/><polygon class="cls-5" points="282.45 335.63 290.55 338.8 301.06 313.09 292.96 309.92 282.45 335.63"/><polygon class="cls-5" points="309.21 281.69 304.42 293.4 312.31 296.48 317.1 284.77 309.21 281.69"/><polygon class="cls-5" points="351.08 242 352.91 237.53 334.85 230.48 333.02 234.94 351.08 242"/><polygon class="cls-5" points="343.46 209.14 348.96 211.29 361.4 180.86 355.9 178.72 343.46 209.14"/><polygon class="cls-5" points="152.57 421.86 161.08 425.19 171.3 400.2 162.79 396.88 152.57 421.86"/><polygon class="cls-5" points="182.05 404.4 176.94 416.89 198.78 425.42 203.89 412.93 182.05 404.4"/><polygon class="cls-5" points="231.65 353.55 226.16 351.41 214.26 380.51 219.75 382.66 231.65 353.55"/><polygon class="cls-5" points="297.78 367.73 274.8 358.76 269.45 371.84 292.43 380.81 297.78 367.73"/><polygon class="cls-5" points="317.3 375.36 305.93 370.92 301.39 382.02 312.76 386.46 317.3 375.36"/><polygon class="cls-5" points="298.68 405.13 277.3 396.78 272.57 408.35 293.95 416.7 298.68 405.13"/><polygon class="cls-5" points="238.52 443.04 244.75 445.47 257.81 413.52 251.59 411.09 238.52 443.04"/><polygon class="cls-5" points="244.82 483.25 226.76 476.2 223.65 483.81 241.71 490.86 244.82 483.25"/><polygon class="cls-5" points="214.44 506.32 237.42 515.3 241.4 505.56 218.42 496.58 214.44 506.32"/><polygon class="cls-5" points="206.97 524.58 199.63 542.53 215.82 548.85 223.16 530.9 206.97 524.58"/><polygon class="cls-5" points="256.94 522.92 269.45 527.8 274.45 515.58 261.94 510.7 256.94 522.92"/><polygon class="cls-5" points="271.55 498.1 269.99 501.9 292.15 510.56 293.71 506.76 271.55 498.1"/><polygon class="cls-5" points="264.39 547 254.44 571.34 261.16 573.97 271.12 549.63 264.39 547"/><polygon class="cls-5" points="242.13 559.13 248.39 561.57 252.74 550.92 246.49 548.48 242.13 559.13"/><polygon class="cls-5" points="134.21 496.16 121.8 491.31 113.38 511.9 125.79 516.75 134.21 496.16"/><polygon class="cls-5" points="147.32 465.49 134.42 460.45 129.26 473.06 142.17 478.1 147.32 465.49"/><polygon class="cls-5" points="177.56 477.3 168.38 473.71 155.75 504.57 164.94 508.16 177.56 477.3"/><polygon class="cls-5" points="94.4 478.14 73.55 470 69.01 481.11 89.86 489.25 94.4 478.14"/><polygon class="cls-5" points="52.76 534.33 62.1 537.98 74.71 507.15 65.37 503.5 52.76 534.33"/><polygon class="cls-5" points="124.16 548.11 87.52 533.8 85.03 539.88 121.67 554.19 124.16 548.11"/><polygon class="cls-5" points="188.45 583.1 213.16 592.75 217.97 580.98 193.27 571.33 188.45 583.1"/><polygon class="cls-5" points="234.94 594.43 224.08 621 236.1 625.7 246.97 599.13 234.94 594.43"/><polygon class="cls-5" points="174.33 611.45 165.53 632.95 179.23 638.3 188.03 616.8 174.33 611.45"/><polygon class="cls-5" points="206.92 654.09 200.04 670.89 217.24 677.61 224.11 660.81 206.92 654.09"/><polygon class="cls-5" points="104.33 596.58 120.81 603.02 124.54 593.89 108.07 587.46 104.33 596.58"/><polygon class="cls-5" points="73.63 591.89 83.44 595.72 92.24 574.22 82.43 570.39 73.63 591.89"/><polygon class="cls-5" points="289.13 622.42 292.62 613.89 279.33 608.71 275.85 617.23 289.13 622.42"/><polygon class="cls-5" points="290.74 585.52 299.87 589.09 311.2 561.4 302.06 557.83 290.74 585.52"/><polygon class="cls-5" points="336.19 555.63 341.81 541.89 317.73 532.49 312.11 546.23 336.19 555.63"/><polygon class="cls-5" points="318.93 581.36 326.81 584.43 332.79 569.83 324.9 566.75 318.93 581.36"/><polygon class="cls-5" points="385.14 130.19 372.27 125.17 361.07 152.55 373.94 157.57 385.14 130.19"/><polygon class="cls-5" points="421.03 114.96 388.65 102.31 384.67 112.05 417.05 124.69 421.03 114.96"/><polygon class="cls-5" points="402.63 148.29 399.38 156.25 407.53 159.43 410.78 151.47 402.63 148.29"/><polygon class="cls-5" points="333.18 485.3 338.78 487.49 346.5 468.63 340.89 466.44 333.18 485.3"/><polygon class="cls-5" points="360.44 429.25 391.16 441.25 397.84 424.92 367.12 412.92 360.44 429.25"/><polygon class="cls-5" points="347.45 450.41 358.76 454.83 363.28 443.77 351.97 439.36 347.45 450.41"/><polygon class="cls-5" points="412.94 412.71 399.24 407.36 397.83 410.81 411.53 416.16 412.94 412.71"/><polygon class="cls-5" points="380.91 461.6 369.29 490.01 381.22 494.67 392.85 466.26 380.91 461.6"/><polygon class="cls-5" points="410.4 515.46 389.64 507.35 387.14 513.47 407.89 521.58 410.4 515.46"/><polygon class="cls-5" points="422.76 488.76 430.89 468.88 419.27 464.34 411.14 484.22 422.76 488.76"/><polygon class="cls-5" points="334.26 351.63 340.51 354.07 349.53 332.01 343.28 329.57 334.26 351.63"/><polygon class="cls-5" points="322.38 408.39 326.43 409.97 335.11 388.75 331.06 387.17 322.38 408.39"/><polygon class="cls-5" points="359.83 322.57 364.88 310.22 350.66 304.67 345.61 317.02 359.83 322.57"/><polygon class="cls-5" points="365.13 285 371.48 269.49 365.94 267.32 359.59 282.84 365.13 285"/><polygon class="cls-5" points="392.7 236.49 380.5 231.72 372.82 250.49 385.02 255.25 392.7 236.49"/><polygon class="cls-5" points="376.31 190.92 367.43 212.62 375.92 215.94 384.79 194.23 376.31 190.92"/><polygon class="cls-5" points="406.83 213.42 388.77 206.37 386.03 213.06 404.09 220.12 406.83 213.42"/><polygon class="cls-5" points="418.15 185.74 394.8 176.62 392.68 181.79 416.04 190.91 418.15 185.74"/><polygon class="cls-5" points="436.99 309.19 457.65 258.68 445.61 253.98 424.95 304.48 436.99 309.19"/><polygon class="cls-5" points="469.05 279.95 464.36 291.41 476.09 295.99 480.78 284.53 469.05 279.95"/><polygon class="cls-5" points="406.72 337.59 413 322.22 409.58 320.88 403.29 336.25 406.72 337.59"/><polygon class="cls-5" points="470.34 227.64 448.55 219.13 444.81 228.26 466.61 236.77 470.34 227.64"/><polygon class="cls-5" points="127.69 260.25 114.25 229.63 101.23 235.09 114.67 265.7 127.69 260.25"/></g></g><rect class="cls-1" y="144.63" width="496.3" height="496.3"/><path class="cls-6" d="M257.92,496.08H239.27a8.59,8.59,0,0,0-8.58,8.58v75.71a8.59,8.59,0,0,0,8.58,8.58h9a2.83,2.83,0,0,0,1.45,0h8.24a8.59,8.59,0,0,0,8.58-8.58V504.66A8.59,8.59,0,0,0,257.92,496.08Zm2.39,84.29a2.39,2.39,0,0,1-2.39,2.39H252V557.14a3.09,3.09,0,1,0-6.19,0v25.63h-6.59a2.4,2.4,0,0,1-2.39-2.39V504.66a2.4,2.4,0,0,1,2.39-2.39h18.65a2.4,2.4,0,0,1,2.39,2.39Z"/><path class="cls-6" d="M252.71,402.73a3.09,3.09,0,0,0-4.38,0L234.67,416.4a3.09,3.09,0,1,0,4.38,4.38l13.67-13.67A3.09,3.09,0,0,0,252.71,402.73Z"/><path class="cls-6" d="M264.53,407.91a3.09,3.09,0,0,0-4.38,0l-12.93,12.93a3.09,3.09,0,1,0,4.38,4.38l12.93-12.93A3.09,3.09,0,0,0,264.53,407.91Z"/><path class="cls-7" d="M301.67,367.2V340.13c0-10.85-7.5-20-17.54-21.46l-14.71-2.08a6.87,6.87,0,0,1-5.66-6.93v-7.42H233.43v7.42a6.87,6.87,0,0,1-5.66,6.93l-14.71,2.08c-10,1.44-17.54,10.61-17.54,21.46V367.2Z"/><path class="cls-8" d="M265.91,314.8a7.14,7.14,0,0,1-2.15-5.14v-7.42H233.43v7.42a7.15,7.15,0,0,1-2.15,5.14A35.7,35.7,0,0,0,265.91,314.8Z"/><path class="cls-9" d="M301.67,340.13c0-10.85-7.5-20-17.54-21.46l-14.71-2.08a6.38,6.38,0,0,1-2.38-.81l-18.45,27.06-18.45-27.06a6.36,6.36,0,0,1-2.38.89l-14.71,2.08c-10,1.43-17.5,10.56-17.54,21.38V369.9h19V403h72V369.9h15.17Z"/><path class="cls-7" d="M278.92,242.7c-7.58-2.71-12.64-16.24-12.64-16.24-10.51,13.13-34.35,13.26-48,12.1V283.3a27,27,0,0,0,4.5,15l.94,1.41a23.67,23.67,0,0,0,19.59,10.83h11.55a23.81,23.81,0,0,0,20.9-13h0a27,27,0,0,0,3.18-13V242.7Z"/><path class="cls-8" d="M228.37,272.28V239c-3.69,0-7.15-.16-10.11-.43V283.3a27,27,0,0,0,4.5,15l.94,1.41a24.06,24.06,0,0,0,14.79,10.09l-1-1.87A74.59,74.59,0,0,1,228.37,272.28Z"/><path class="cls-10" d="M278.92,242.7V231.88c0-7.47-5.66-13.53-12.64-13.53h0a25.07,25.07,0,0,0-18.3-8.12h-7c-15,0-27.8,13.53-32.86,27.06,0,0,43,8.12,58.13-10.83,0,0,5.05,13.53,12.64,16.24"/><path class="cls-10" d="M270.13,275.45a4.39,4.39,0,0,1-6.22,1.76,4.69,4.69,0,0,1-1.49-1.49,12.43,12.43,0,0,0-10.41-6h-6.82a12.43,12.43,0,0,0-10.41,6,4.37,4.37,0,0,1-6.31,1.32,4.77,4.77,0,0,1-1.4-1.59l-8.8-17.38V283.3a27,27,0,0,0,4.5,15l.94,1.41a23.67,23.67,0,0,0,19.59,10.83h11.55c13.32,0,24.1-11.59,24.09-25.85v-26.6Z"/><path class="cls-7" d="M278.92,242.7H276.4v16.24h2.53a8.14,8.14,0,0,0,0-16.24Z"/><path class="cls-8" d="M210.68,250.82a7.86,7.86,0,0,0,7.58,8.12h2.53V242.7h-2.53A7.86,7.86,0,0,0,210.68,250.82Z"/><polygon class="cls-11" points="238.48 329.31 248.59 342.84 258.7 329.31 238.48 329.31"/><rect class="cls-9" x="190.46" y="359.08" width="25.28" height="10.83"/><rect class="cls-9" x="281.45" y="359.08" width="25.28" height="10.83"/><path class="cls-12" d="M232.57,211.66c-11.22,4-20.35,14.8-24.42,25.63A122.4,122.4,0,0,0,228.37,239v-7.15A49,49,0,0,1,232.57,211.66Z"/><path class="cls-12" d="M228.52,277.07a5.27,5.27,0,0,1-1.47-1.62l-8.8-17.38V283.3a27,27,0,0,0,4.5,15l.94,1.41a24.06,24.06,0,0,0,14.79,10.09l-1-1.87A74.48,74.48,0,0,1,228.52,277.07Z"/><rect class="cls-13" x="235.96" y="326.6" width="5.06" height="76.36"/><rect class="cls-13" x="223.32" y="318.48" width="5.06" height="84.48"/><rect class="cls-13" x="210.68" y="318.48" width="5.06" height="51.42"/><rect class="cls-13" x="198.04" y="326.6" width="5.06" height="43.3"/><rect class="cls-13" x="198.04" y="329.31" width="40.44" height="5.41"/><rect class="cls-13" x="195.51" y="342.84" width="53.08" height="5.41"/><rect class="cls-13" x="200.57" y="356.37" width="50.55" height="5.41"/><rect class="cls-13" x="256.18" y="326.6" width="5.06" height="76.36"/><rect class="cls-13" x="268.81" y="318.48" width="5.06" height="84.48"/><rect class="cls-13" x="281.45" y="318.48" width="5.06" height="84.05"/><rect class="cls-13" x="294.09" y="326.6" width="5.06" height="43.3"/><rect class="cls-13" x="258.7" y="329.31" width="40.44" height="5.41"/><rect class="cls-13" x="248.59" y="342.84" width="53.08" height="5.41"/><rect class="cls-13" x="246.07" y="356.37" width="50.55" height="5.41"/><rect class="cls-13" x="187.93" y="369.9" width="121.32" height="5.41"/><rect class="cls-13" x="214.47" y="383.51" width="36.65" height="5.41"/><rect class="cls-13" x="246.07" y="383.51" width="40.44" height="5.41"/><rect class="cls-13" x="214.47" y="397.55" width="72.03" height="5.41"/><path class="cls-14" d="M278.92,261.65H276.4v-5.41h2.53a5.43,5.43,0,0,0,0-10.83H276.4V240h2.53c5.58,0,10.11,4.86,10.11,10.83S284.5,261.65,278.92,261.65Z"/><path class="cls-14" d="M220.79,261.65h-2.53c-5.58,0-10.11-4.86-10.11-10.83S212.69,240,218.26,240h2.53v5.41h-2.53a5.43,5.43,0,0,0,0,10.83h2.53v5.41Z"/><path class="cls-14" d="M254.86,313.23H243.29a26.2,26.2,0,0,1-21.65-12l-.94-1.41a29.69,29.69,0,0,1-5-16.56v-46h5.06v46a24,24,0,0,0,4,13.42l.94,1.41a21.22,21.22,0,0,0,17.53,9.69h11.56a21.35,21.35,0,0,0,18.69-11.62,24.16,24.16,0,0,0,2.85-11.6V240h5.06v44.58a29.91,29.91,0,0,1-3.52,14.31A26.37,26.37,0,0,1,254.86,313.23Z"/><path class="cls-14" d="M278.92,245.41a2.4,2.4,0,0,1-.8-.14c-6-2.13-10.39-9.61-12.6-14.17-17.56,16.23-56.09,9.18-57.81,8.86a2.53,2.53,0,0,1-1.77-1.35,2.88,2.88,0,0,1-.14-2.32C211.14,222,225,207.52,241,207.52h7a27.24,27.24,0,0,1,19.36,8.16c7.87.58,14.11,7.63,14.11,16.2V242.7a2.77,2.77,0,0,1-1,2.2A2.41,2.41,0,0,1,278.92,245.41Zm-12.64-21.65a2.37,2.37,0,0,1,.41,0,2.57,2.57,0,0,1,1.93,1.66c1,2.69,4,9,7.76,12.51v-6.09c0-6-4.53-10.83-10.11-10.83a2.45,2.45,0,0,1-1.79-.79A22.47,22.47,0,0,0,248,212.93h-7c-12.65,0-23.78,10.71-29.18,22.2,10.07,1.39,40.8,4.22,52.53-10.43A2.46,2.46,0,0,1,266.29,223.76Z"/><path class="cls-14" d="M266.11,280.59a6.86,6.86,0,0,1-5.81-3.38,9.91,9.91,0,0,0-8.32-4.74h-6.81a9.77,9.77,0,0,0-8.42,4.76,6.89,6.89,0,0,1-5.85,3.35h0a7.07,7.07,0,0,1-6-3.79l-8.8-16.52,4.39-2.68,8.8,16.51a2,2,0,0,0,1.7,1.07h0a1.93,1.93,0,0,0,1.6-.95,14.91,14.91,0,0,1,12.58-7.17H252a14.91,14.91,0,0,1,12.51,7.15,1.92,1.92,0,0,0,1.71,1A2,2,0,0,0,268,274.1l8.68-16.49,4.4,2.66-8.69,16.51a7,7,0,0,1-6.14,3.81Z"/><path class="cls-14" d="M198,359.08H193V340.13c0-12.15,8.48-22.53,19.73-24.14l14.71-2.09a4.23,4.23,0,0,0,3.47-4.25H236a9.56,9.56,0,0,1-7.85,9.61l-14.72,2.09c-8.75,1.25-15.35,9.32-15.35,18.78v18.95Z"/><path class="cls-14" d="M304.2,359.08h-5.06V340.13c0-9.45-6.6-17.53-15.35-18.78l-14.7-2.09a9.56,9.56,0,0,1-7.86-9.61h5.06a4.23,4.23,0,0,0,3.48,4.25l14.7,2.09c11.26,1.61,19.74,12,19.74,24.14Z"/><rect class="cls-14" x="213.21" y="348.25" width="5.06" height="21.65"/><rect class="cls-14" x="278.92" y="348.25" width="5.06" height="21.65"/><path class="cls-14" d="M248.59,345.55a2.48,2.48,0,0,1-2.07-1.16l-17.69-27.06,4.14-3.1,15.62,23.9,15.62-23.9,4.14,3.1-17.69,27.06A2.49,2.49,0,0,1,248.59,345.55Z"/><path class="cls-14" d="M228.37,348.25a2.41,2.41,0,0,1-1-.21,2.68,2.68,0,0,1-1.5-2l-5.06-29.77,5-1L230.17,341l12-8.54,2.8,4.5L229.78,347.8A2.43,2.43,0,0,1,228.37,348.25Z"/><path class="cls-14" d="M268.81,348.25a2.42,2.42,0,0,1-1.4-.45L252.25,337l2.8-4.5L267,341l4.37-25.72,5,1L271.3,346a2.68,2.68,0,0,1-1.5,2A2.33,2.33,0,0,1,268.81,348.25Z"/><rect class="cls-14" x="246.07" y="342.84" width="5.06" height="60.12"/><rect class="cls-14" x="238.48" y="326.6" width="20.22" height="5.41"/><path class="cls-14" d="M218.26,369.9h-5.06v-8.12H193v8.12h-5.06V359.08a2.62,2.62,0,0,1,2.53-2.71h25.28a2.62,2.62,0,0,1,2.53,2.71V369.9Z"/><path class="cls-14" d="M309.25,369.9H304.2v-8.12H284v8.12h-5.05V359.08a2.62,2.62,0,0,1,2.53-2.71h25.28a2.62,2.62,0,0,1,2.53,2.71V369.9Z"/><path class="cls-14" d="M239.75,356.37a4.07,4.07,0,1,1,3.79-4.06A3.94,3.94,0,0,1,239.75,356.37Zm0-5.41a1.36,1.36,0,1,0,1.26,1.35A1.31,1.31,0,0,0,239.75,351Z"/><path class="cls-15" d="M248.59,442.88a28.33,28.33,0,0,0,6.42-.74v45.55H242.18V442.14A28.32,28.32,0,0,0,248.59,442.88Z"/><path class="cls-16" d="M248.59,436.69a22.14,22.14,0,1,1,22.14-22.14A22.17,22.17,0,0,1,248.59,436.69Z"/><path class="cls-15" d="M168.3,417.57v-6a2.39,2.39,0,0,1,2.39-2.39h50.1a28.18,28.18,0,0,0,0,10.82h-50.1A2.39,2.39,0,0,1,168.3,417.57Z"/><path class="cls-17" d="M222.46,496.27v34.38h-18a2.39,2.39,0,0,1-2.39-2.39V458.18a3.08,3.08,0,0,0,2.67,1.56H221a3.09,3.09,0,1,0,0-6.19H204.71a3.08,3.08,0,0,0-2.67,1.56v-29h20.72A28.5,28.5,0,0,0,236,439.91v47.78h-5A8.59,8.59,0,0,0,222.46,496.27Z"/><path class="cls-17" d="M292.76,530.65h-18V496.27a8.59,8.59,0,0,0-8.58-8.58h-5V439.91a28.5,28.5,0,0,0,13.23-13.76h20.72v42.74a3.07,3.07,0,0,0-1.77-.56H270.47a3.09,3.09,0,0,0,0,6.19h22.91a3.07,3.07,0,0,0,1.77-.56v54.3A2.39,2.39,0,0,1,292.76,530.65Z"/><path class="cls-18" d="M303.73,426.15c15.12,10.55,10.38,28.67,10.16,29.41l0,.16-12.5,48.77V426.15Z"/><path class="cls-15" d="M328.89,417.57A2.39,2.39,0,0,1,326.5,420H276.4a28.18,28.18,0,0,0,0-10.82h50.1a2.4,2.4,0,0,1,2.39,2.39Z"/><path class="cls-19" d="M260.31,580.37a2.39,2.39,0,0,1-2.39,2.39H252V557.14a3.09,3.09,0,1,0-6.19,0v25.63h-6.59a2.4,2.4,0,0,1-2.39-2.39V504.66a2.4,2.4,0,0,1,2.39-2.39h18.65a2.4,2.4,0,0,1,2.39,2.39Z"/><path class="cls-20" d="M252.71,402.73a3.09,3.09,0,0,0-4.38,0L234.67,416.4a3.09,3.09,0,1,0,4.38,4.38l13.67-13.67A3.09,3.09,0,0,0,252.71,402.73Z"/><path class="cls-20" d="M264.53,407.91a3.09,3.09,0,0,0-4.38,0l-12.93,12.93a3.09,3.09,0,1,0,4.38,4.38l12.93-12.93A3.09,3.09,0,0,0,264.53,407.91Z"/><path class="cls-14" d="M162.68,407.88a4.08,4.08,0,0,1-.2,1.19,8.45,8.45,0,0,0-.37,2.47v6a8.58,8.58,0,0,0,8.58,8.58h13.68c-11.62,12.64-7.2,29.52-6.74,31.14,0,0,13.69,54.92,18.51,73.16a8.65,8.65,0,0,0,8.29,6.38h21.12a3.09,3.09,0,0,0,3.09-3.09V496.27a2.39,2.39,0,0,1,2.39-2.39h35.11a2.39,2.39,0,0,1,2.39,2.39v37.47a3.09,3.09,0,0,0,3.09,3.09h21.12a8.75,8.75,0,0,0,8.15-5.91c5.67-18.14,18.91-73.63,18.91-73.63.45-1.59,4.89-18.49-6.74-31.14H326.5a8.58,8.58,0,0,0,8.58-8.58v-6a8.42,8.42,0,0,0-.23-1.94.75.75,0,0,1-.13-.46h0a8.71,8.71,0,0,0-.45-1.23h.37a5.34,5.34,0,0,0-4.7-5H299v0H282.85l0,0h-8.38a28.32,28.32,0,0,0-51.68,0H219l-52.67,0a3.66,3.66,0,0,0-3.66,3.66Zm83.65-15.36a22.15,22.15,0,1,1-19.76,19.76A22.17,22.17,0,0,1,246.32,392.52ZM195.85,504.1l-12.23-48.37,0-.17c-.06-.18-5-18.8,10.16-29.41h2.13ZM170.69,420a2.39,2.39,0,0,1-2.39-2.39v-6a2.39,2.39,0,0,1,2.39-2.39h50.1a28.18,28.18,0,0,0,0,10.82h-50.1ZM236,487.69h-5a8.58,8.58,0,0,0-8.58,8.58v34.38h-18a2.39,2.39,0,0,1-2.39-2.39V458.18a3.08,3.08,0,0,0,2.67,1.56h16.16a3.14,3.14,0,0,0,3-2.1,3.1,3.1,0,0,0-2.94-4.09H204.71a3.08,3.08,0,0,0-2.67,1.56v-29h20.72A28.5,28.5,0,0,0,236,439.91Zm19,0H242.18V442.14a28.14,28.14,0,0,0,12.83,0Zm40.14-18.8a3.07,3.07,0,0,0-1.77-.56H270.63a3.2,3.2,0,0,0-3.19,2.52,3.1,3.1,0,0,0,3,3.67h22.91a3.07,3.07,0,0,0,1.77-.56v54.3a2.39,2.39,0,0,1-2.39,2.39h-18V496.27a8.58,8.58,0,0,0-8.58-8.58h-5V439.91a28.5,28.5,0,0,0,13.23-13.76h20.72Zm18.73-13.33,0,.16-12.5,48.77V426.15h2.39C318.84,436.7,314.11,454.82,313.88,455.55Zm15-38A2.39,2.39,0,0,1,326.5,420H276.4a28.18,28.18,0,0,0,0-10.82h50.1a2.39,2.39,0,0,1,2.39,2.39Z"/><rect class="cls-21" x="189.83" y="375.32" width="23.38" height="27.65"/><path class="cls-22" d="M296,403h21.49a0,0,0,0,1,0,0v12.44a10.74,10.74,0,0,1-10.74,10.74h0A10.74,10.74,0,0,1,296,415.41V403A0,0,0,0,1,296,403Z"/><rect class="cls-21" x="285.87" y="375.32" width="21.49" height="27.65"/><path class="cls-18" d="M193.72,426.15h2.13V504.1l-12.23-48.37,0-.17C183.51,455.37,178.52,436.76,193.72,426.15Z"/><path class="cls-22" d="M180.55,403H202a0,0,0,0,1,0,0v12.44a10.74,10.74,0,0,1-10.74,10.74h0a10.74,10.74,0,0,1-10.74-10.74V403a0,0,0,0,1,0,0Z"/><rect class="cls-20" x="384.86" y="237.71" width="111.44" height="8.48" rx="4.24" ry="4.24" transform="translate(881.16 483.89) rotate(-180)"/><rect class="cls-20" x="384.86" y="257.4" width="75.46" height="8.48" rx="4.24" ry="4.24" transform="translate(845.18 523.29) rotate(-180)"/><rect class="cls-20" y="475.06" width="111.44" height="8.48" rx="4.24" ry="4.24"/><rect class="cls-20" x="35.97" y="455.36" width="75.46" height="8.48" rx="4.24" ry="4.24"/><rect class="cls-2" x="100.16" y="603.32" width="314.33" height="6.6" rx="1.5" ry="1.5"/><path class="cls-23" d="M201.05,156.31a28,28,0,0,0-35.31,0c-9.58,7.86-13.7,22.52-10.13,34.31,4.1,13.53,16.51,24.39,27,33.06l.75.62.75-.62c10.37-8.55,22.1-18.28,26.57-31.43C214.83,180.16,211,164.5,201.05,156.31Z"/><path class="cls-24" d="M195.49,179a12.09,12.09,0,1,1-12.09-12.09A12.09,12.09,0,0,1,195.49,179Z"/><path class="cls-14" d="M199.79,179a16.4,16.4,0,1,0-16.4,16.4A16.41,16.41,0,0,0,199.79,179Zm-24.18,0a7.78,7.78,0,1,1,7.78,7.79A7.79,7.79,0,0,1,175.61,179Z"/><path class="cls-14" d="M147.85,279.64H172c5.53,0,5.54-8.61,0-8.61H147.85a21.12,21.12,0,0,1,0-42.24h35.5a4.3,4.3,0,0,0,3.49-1.79l.07-.06c6.1-5,12.23-10.07,17.44-16s9.49-12.87,11.29-20.57a39.45,39.45,0,0,0-2.33-24c-2.59-6.15-6.61-11.82-12.25-15.52a32,32,0,0,0-21.5-4.86,34.06,34.06,0,0,0-23,14,36.58,36.58,0,0,0-6.13,26.29c1.28,8.59,5.54,16.53,11,23.27a90.71,90.71,0,0,0,10.38,10.62h-24a29.73,29.73,0,0,0,0,59.46Zm11.89-90.28c-3.12-10.3.63-23.08,8.74-29.73a23.6,23.6,0,0,1,29.81,0l.08.06c8.28,6.82,11.91,20.51,8.28,31.19-3.84,11.29-13.87,20.1-23.24,27.85C173.49,210.43,163.18,200.73,159.73,189.37Z"/><circle class="cls-14" cx="188.62" cy="274.37" r="5.27"/></g></g></svg>