<svg xmlns="http://www.w3.org/2000/svg" xmlns:xlink="http://www.w3.org/1999/xlink" viewBox="0 0 496.3 496.3"><defs><style>.cls-1,.cls-22,.cls-5,.cls-7{fill:none;}.cls-2{fill:#f7a05e;}.cls-3{fill:#fff;}.cls-4{fill:#d7edff;}.cls-5,.cls-7{stroke:#204f80;}.cls-22,.cls-5,.cls-7{stroke-miterlimit:10;}.cls-5{stroke-width:5px;}.cls-6{fill:#ffba1f;}.cls-7{stroke-width:3px;}.cls-8{clip-path:url(#clip-path);}.cls-9{fill:#fedac6;}.cls-10{fill:#f5c4b0;}.cls-11{fill:#a15d30;}.cls-12{fill:#2e6aa3;}.cls-13{fill:#ebebeb;}.cls-14{fill:#8f4f24;}.cls-15{fill:#215280;}.cls-16{fill:#204f80;}.cls-17{fill:#f5737f;}.cls-18{fill:#ffe600;}.cls-19{clip-path:url(#clip-path-2);}.cls-20{fill:#f288b7;}.cls-21{fill:#ed7bb2;}.cls-22{stroke:#ffe600;}.cls-23{clip-path:url(#clip-path-3);}.cls-24{fill:#f78319;}.cls-25{fill:#dbdbdb;}.cls-26{fill:#bfbfbf;}</style><clipPath id="clip-path"><ellipse class="cls-1" cx="122.76" cy="125.17" rx="51.37" ry="55.01"/></clipPath><clipPath id="clip-path-2"><ellipse class="cls-1" cx="143.01" cy="253.9" rx="38.25" ry="39.32"/></clipPath><clipPath id="clip-path-3"><ellipse class="cls-1" cx="142.64" cy="358.38" rx="36.88" ry="39.75"/></clipPath></defs><title>Pantalla2</title><g id="Layer_2" data-name="Layer 2"><g id="Layer_1-2" data-name="Layer 1"><circle class="cls-2" cx="248.43" cy="225.27" r="224.55"/><rect class="cls-3" y="237.88" width="145.33" height="11.06" rx="5.53" ry="5.53"/><rect class="cls-3" x="46.92" y="263.58" width="98.42" height="11.06" rx="5.53" ry="5.53"/><rect class="cls-3" x="368.37" y="340" width="96.93" height="11.06" rx="5.53" ry="5.53" transform="translate(833.67 691.06) rotate(180)"/><rect class="cls-3" x="368.37" y="365.69" width="127.93" height="11.06" rx="5.53" ry="5.53" transform="translate(864.67 742.44) rotate(-180)"/><rect class="cls-1" width="496.3" height="496.3"/><rect class="cls-3" x="135.91" y="13.57" width="36.59" height="27.01" rx="13.5" ry="13.5"/><rect class="cls-2" x="100.16" y="458.69" width="314.33" height="6.6" rx="1.5" ry="1.5"/><rect class="cls-4" x="56.66" y="69.23" width="417.71" height="123.53" rx="10" ry="10"/><rect class="cls-5" x="56.66" y="69.23" width="417.71" height="123.53" rx="10" ry="10"/><circle class="cls-6" cx="122.76" cy="135.27" r="46.02"/><circle class="cls-7" cx="122.76" cy="135.27" r="46.02"/><g class="cls-8"><path class="cls-9" d="M142.94,99c-4.84-1.73-8.07-10.37-8.07-10.37-6.71,8.38-21.93,8.47-30.66,7.72v28.57a17.27,17.27,0,0,0,2.87,9.57l.6.9a15.11,15.11,0,0,0,12.51,6.91h7.38a15.2,15.2,0,0,0,13.35-8.3h0a17.25,17.25,0,0,0,2-8.28V99Z"/><path class="cls-10" d="M110.66,117.85V96.59c-2.36,0-4.57-.1-6.46-.28v28.57a17.27,17.27,0,0,0,2.87,9.57l.6.9a15.36,15.36,0,0,0,9.44,6.45l-.65-1.19A47.63,47.63,0,0,1,110.66,117.85Z"/><path class="cls-9" d="M157.47,178.45V161.17c0-6.93-4.79-12.79-11.2-13.7l-9.39-1.33a4.39,4.39,0,0,1-3.62-4.42V137H113.89v4.74a4.39,4.39,0,0,1-3.62,4.42l-9.39,1.33c-6.41.92-11.2,6.78-11.2,13.7v17.28Z"/><path class="cls-10" d="M134.63,145a4.56,4.56,0,0,1-1.37-3.28V137H113.89v4.74a4.56,4.56,0,0,1-1.37,3.28A22.79,22.79,0,0,0,134.63,145Z"/><path class="cls-11" d="M142.94,99V92c0-4.77-3.61-8.64-8.07-8.64h0a16,16,0,0,0-11.68-5.18h-4.45c-9.57,0-17.75,8.64-21,17.28,0,0,27.44,5.18,37.12-6.91,0,0,3.23,8.64,8.07,10.37"/><path class="cls-11" d="M137.33,119.87a2.8,2.8,0,0,1-4,1.13,3,3,0,0,1-1-1,7.94,7.94,0,0,0-6.65-3.8H121.4a7.94,7.94,0,0,0-6.65,3.8,2.79,2.79,0,0,1-4,.85,3,3,0,0,1-.89-1l-5.62-11.1v16.11a17.27,17.27,0,0,0,2.87,9.57l.6.9a15.11,15.11,0,0,0,12.51,6.91h7.38c8.5,0,15.39-7.4,15.38-16.5v-17Z"/><path class="cls-9" d="M142.94,99h-1.61v10.37h1.61a5.2,5.2,0,0,0,0-10.37Z"/><path class="cls-10" d="M99.37,104.14a5,5,0,0,0,4.84,5.18h1.61V99h-1.61A5,5,0,0,0,99.37,104.14Z"/><path class="cls-12" d="M146.27,147.47l-9.39-1.33a4.08,4.08,0,0,1-1.52-.52L123.58,162.9l-11.78-17.28a4.06,4.06,0,0,1-1.52.57l-9.39,1.33c-6.39.92-11.18,6.75-11.2,13.65v19h67.78v-19C157.47,154.24,152.68,148.38,146.27,147.47Z"/><polygon class="cls-13" points="117.12 154.26 123.58 162.9 130.03 154.26 117.12 154.26"/><rect class="cls-12" x="86.45" y="173.27" width="16.14" height="6.91"/><rect class="cls-12" x="144.56" y="173.27" width="16.14" height="6.91"/><path class="cls-14" d="M113.34,79.14c-7.17,2.54-13,9.45-15.59,16.37a78.16,78.16,0,0,0,12.91,1.11V92A31.3,31.3,0,0,1,113.34,79.14Z"/><path class="cls-14" d="M110.76,120.91a3.36,3.36,0,0,1-.94-1l-5.62-11.09v16.11a17.27,17.27,0,0,0,2.87,9.57l.6.9a15.36,15.36,0,0,0,9.44,6.45l-.65-1.19A47.56,47.56,0,0,1,110.76,120.91Z"/><rect class="cls-15" x="115.51" y="152.53" width="3.23" height="27.65"/><rect class="cls-15" x="107.44" y="147.35" width="3.23" height="32.84"/><rect class="cls-15" x="99.37" y="147.35" width="3.23" height="32.84"/><rect class="cls-15" x="91.3" y="152.53" width="3.23" height="27.65"/><rect class="cls-15" x="91.3" y="154.26" width="25.82" height="3.46"/><rect class="cls-15" x="89.68" y="162.9" width="33.89" height="3.46"/><rect class="cls-15" x="92.91" y="171.54" width="32.28" height="3.46"/><rect class="cls-15" x="128.42" y="152.53" width="3.23" height="27.65"/><rect class="cls-15" x="136.49" y="147.35" width="3.23" height="32.84"/><rect class="cls-15" x="144.56" y="147.35" width="3.23" height="32.84"/><rect class="cls-15" x="152.63" y="152.53" width="3.23" height="27.65"/><rect class="cls-15" x="130.03" y="154.26" width="25.82" height="3.46"/><rect class="cls-15" x="123.58" y="162.9" width="33.89" height="3.46"/><rect class="cls-15" x="121.96" y="171.54" width="32.28" height="3.46"/><path class="cls-16" d="M142.94,111.05h-1.61V107.6h1.61a3.46,3.46,0,0,0,0-6.91h-1.61V97.23h1.61a6.93,6.93,0,0,1,0,13.83Z"/><path class="cls-16" d="M105.82,111.05h-1.61a6.93,6.93,0,0,1,0-13.83h1.61v3.46h-1.61a3.46,3.46,0,0,0,0,6.91h1.61v3.46Z"/><path class="cls-16" d="M127.57,144h-7.39a16.73,16.73,0,0,1-13.82-7.64l-.6-.9a19,19,0,0,1-3.17-10.58V95.5h3.23v29.38a15.35,15.35,0,0,0,2.57,8.57l.6.9a13.55,13.55,0,0,0,11.2,6.19h7.38a13.63,13.63,0,0,0,11.93-7.42,15.42,15.42,0,0,0,1.82-7.41V97.23h3.23v28.46a19.1,19.1,0,0,1-2.25,9.14A16.84,16.84,0,0,1,127.57,144Z"/><path class="cls-16" d="M142.94,100.69a1.53,1.53,0,0,1-.51-.09c-3.81-1.36-6.63-6.13-8-9.05-11.21,10.36-35.82,5.86-36.92,5.66a1.62,1.62,0,0,1-1.13-.86,1.84,1.84,0,0,1-.09-1.48c3.41-9.13,12.23-18.37,22.48-18.37h4.45a17.4,17.4,0,0,1,12.36,5.21c5,.37,9,4.87,9,10.34V99a1.77,1.77,0,0,1-.67,1.4A1.54,1.54,0,0,1,142.94,100.69Zm-8.07-13.83.26,0a1.64,1.64,0,0,1,1.23,1.06c.65,1.72,2.55,5.74,5,8V92a6.7,6.7,0,0,0-6.46-6.91,1.56,1.56,0,0,1-1.14-.5,14.35,14.35,0,0,0-10.55-4.68h-4.45c-8.08,0-15.18,6.84-18.63,14.17,6.43.88,26.06,2.7,33.54-6.66A1.57,1.57,0,0,1,134.87,86.86Z"/><path class="cls-16" d="M134.76,123.15a4.38,4.38,0,0,1-3.71-2.16,6.33,6.33,0,0,0-5.31-3H121.4a6.24,6.24,0,0,0-5.38,3,4.4,4.4,0,0,1-3.74,2.14h0a4.52,4.52,0,0,1-3.85-2.42l-5.62-10.55,2.8-1.71L111.23,119a1.28,1.28,0,0,0,1.09.68h0a1.23,1.23,0,0,0,1-.61,9.52,9.52,0,0,1,8-4.58h4.39a9.52,9.52,0,0,1,8,4.56,1.23,1.23,0,0,0,1.09.62A1.3,1.3,0,0,0,136,119l5.55-10.53,2.81,1.7-5.55,10.54a4.49,4.49,0,0,1-3.92,2.43Z"/><path class="cls-16" d="M91.3,173.27H88.07v-12.1c0-7.76,5.42-14.39,12.6-15.42l9.39-1.33a2.7,2.7,0,0,0,2.21-2.71h3.23a6.11,6.11,0,0,1-5,6.13l-9.4,1.33c-5.59.8-9.8,6-9.8,12v12.1Z"/><path class="cls-16" d="M159.08,173.27h-3.23v-12.1c0-6-4.21-11.19-9.8-12l-9.39-1.33a6.1,6.1,0,0,1-5-6.13h3.23a2.7,2.7,0,0,0,2.22,2.71l9.38,1.33c7.19,1,12.6,7.66,12.6,15.42Z"/><rect class="cls-16" x="100.98" y="166.36" width="3.23" height="13.83"/><rect class="cls-16" x="142.94" y="166.36" width="3.23" height="13.83"/><path class="cls-16" d="M123.58,164.63a1.58,1.58,0,0,1-1.32-.74L111,146.61l2.65-2,10,15.26,10-15.26,2.65,2-11.3,17.28A1.59,1.59,0,0,1,123.58,164.63Z"/><path class="cls-16" d="M110.66,166.36a1.54,1.54,0,0,1-.63-.14,1.71,1.71,0,0,1-1-1.28l-3.23-19,3.18-.62,2.79,16.42,7.64-5.45,1.79,2.88-9.68,6.91A1.55,1.55,0,0,1,110.66,166.36Z"/><path class="cls-16" d="M136.49,166.36a1.54,1.54,0,0,1-.9-.29l-9.68-6.91,1.79-2.88,7.64,5.45,2.79-16.42,3.17.62-3.23,19a1.71,1.71,0,0,1-1,1.28A1.49,1.49,0,0,1,136.49,166.36Z"/><rect class="cls-16" x="121.96" y="162.9" width="3.23" height="17.28"/><rect class="cls-16" x="117.12" y="152.53" width="12.91" height="3.46"/><path class="cls-16" d="M104.21,180.18H101V175H88.07v5.18H84.84v-6.91a1.67,1.67,0,0,1,1.61-1.73h16.14a1.67,1.67,0,0,1,1.61,1.73v6.91Z"/><path class="cls-16" d="M162.31,180.18h-3.23V175H146.17v5.18h-3.23v-6.91a1.67,1.67,0,0,1,1.61-1.73H160.7a1.67,1.67,0,0,1,1.61,1.73v6.91Z"/><path class="cls-16" d="M117.93,171.54a2.6,2.6,0,1,1,2.42-2.59A2.51,2.51,0,0,1,117.93,171.54Zm0-3.46a.87.87,0,1,0,.81.86A.84.84,0,0,0,117.93,168.08Z"/></g><rect class="cls-16" x="180.77" y="99.37" width="271.15" height="4.43" rx="2.22" ry="2.22"/><rect class="cls-16" x="180.77" y="114.59" width="207.17" height="4.43" rx="2.22" ry="2.22"/><rect class="cls-16" x="200.77" y="163.92" width="67.1" height="4.43" rx="2.22" ry="2.22"/><path class="cls-17" d="M192.48,157.42a7,7,0,0,0-8.85,0,8.43,8.43,0,0,0-2.54,8.6c1,3.39,4.14,6.11,6.77,8.29l.19.15.19-.15c2.6-2.14,5.54-4.58,6.66-7.88A8.6,8.6,0,0,0,192.48,157.42Zm-4.42,8.72a3,3,0,1,1,3-3A3,3,0,0,1,188.05,166.14Z"/><path class="cls-18" d="M189,145l-3.13,1.64a1,1,0,0,1-1.45-1.05l.6-3.48a1,1,0,0,0-.29-.89l-2.53-2.47a1,1,0,0,1,.55-1.71l3.5-.51A1,1,0,0,0,187,136l1.56-3.17a1,1,0,0,1,1.79,0l1.56,3.17a1,1,0,0,0,.75.55l3.5.51a1,1,0,0,1,.55,1.71l-2.53,2.47a1,1,0,0,0-.29.89l.6,3.48a1,1,0,0,1-1.45,1.05L189.95,145A1,1,0,0,0,189,145Z"/><path class="cls-3" d="M218.43,145l-3.13,1.64a1,1,0,0,1-1.45-1.05l.6-3.48a1,1,0,0,0-.29-.89l-2.53-2.47a1,1,0,0,1,.55-1.71l3.5-.51a1,1,0,0,0,.75-.55l1.56-3.17a1,1,0,0,1,1.79,0l1.56,3.17a1,1,0,0,0,.75.55l3.5.51a1,1,0,0,1,.55,1.71l-2.53,2.47a1,1,0,0,0-.29.89l.6,3.48a1,1,0,0,1-1.45,1.05L219.37,145A1,1,0,0,0,218.43,145Z"/><path class="cls-3" d="M247.85,145l-3.13,1.64a1,1,0,0,1-1.45-1.05l.6-3.48a1,1,0,0,0-.29-.89l-2.53-2.47a1,1,0,0,1,.55-1.71l3.5-.51a1,1,0,0,0,.75-.55l1.56-3.17a1,1,0,0,1,1.79,0l1.56,3.17a1,1,0,0,0,.75.55l3.5.51a1,1,0,0,1,.55,1.71l-2.53,2.47a1,1,0,0,0-.29.89l.6,3.48a1,1,0,0,1-1.45,1.05L248.78,145A1,1,0,0,0,247.85,145Z"/><path class="cls-3" d="M277.27,145l-3.13,1.64a1,1,0,0,1-1.45-1.05l.6-3.48a1,1,0,0,0-.29-.89l-2.53-2.47A1,1,0,0,1,271,137l3.5-.51a1,1,0,0,0,.75-.55l1.56-3.17a1,1,0,0,1,1.79,0l1.56,3.17a1,1,0,0,0,.75.55l3.5.51a1,1,0,0,1,.55,1.71l-2.53,2.47a1,1,0,0,0-.29.89l.6,3.48a1,1,0,0,1-1.45,1.05L278.2,145A1,1,0,0,0,277.27,145Z"/><path class="cls-18" d="M306.69,145l-3.13,1.64a1,1,0,0,1-1.45-1.05l.6-3.48a1,1,0,0,0-.29-.89l-2.53-2.47a1,1,0,0,1,.55-1.71l3.5-.51a1,1,0,0,0,.75-.55l1.56-3.17a1,1,0,0,1,1.79,0l1.56,3.17a1,1,0,0,0,.75.55l3.5.51a1,1,0,0,1,.55,1.71l-2.53,2.47a1,1,0,0,0-.29.89l.6,3.48a1,1,0,0,1-1.45,1.05L307.62,145A1,1,0,0,0,306.69,145Z"/><path class="cls-18" d="M218.43,145l-3.13,1.64a1,1,0,0,1-1.45-1.05l.6-3.48a1,1,0,0,0-.29-.89l-2.53-2.47a1,1,0,0,1,.55-1.71l3.5-.51a1,1,0,0,0,.75-.55l1.56-3.17a1,1,0,0,1,1.79,0l1.56,3.17a1,1,0,0,0,.75.55l3.5.51a1,1,0,0,1,.55,1.71l-2.53,2.47a1,1,0,0,0-.29.89l.6,3.48a1,1,0,0,1-1.45,1.05L219.37,145A1,1,0,0,0,218.43,145Z"/><path class="cls-18" d="M247.85,145l-3.13,1.64a1,1,0,0,1-1.45-1.05l.6-3.48a1,1,0,0,0-.29-.89l-2.53-2.47a1,1,0,0,1,.55-1.71l3.5-.51a1,1,0,0,0,.75-.55l1.56-3.17a1,1,0,0,1,1.79,0l1.56,3.17a1,1,0,0,0,.75.55l3.5.51a1,1,0,0,1,.55,1.71l-2.53,2.47a1,1,0,0,0-.29.89l.6,3.48a1,1,0,0,1-1.45,1.05L248.78,145A1,1,0,0,0,247.85,145Z"/><path class="cls-18" d="M277.27,145l-3.13,1.64a1,1,0,0,1-1.45-1.05l.6-3.48a1,1,0,0,0-.29-.89l-2.53-2.47A1,1,0,0,1,271,137l3.5-.51a1,1,0,0,0,.75-.55l1.56-3.17a1,1,0,0,1,1.79,0l1.56,3.17a1,1,0,0,0,.75.55l3.5.51a1,1,0,0,1,.55,1.71l-2.53,2.47a1,1,0,0,0-.29.89l.6,3.48a1,1,0,0,1-1.45,1.05L278.2,145A1,1,0,0,0,277.27,145Z"/><rect class="cls-3" x="94.8" y="212.75" width="303.71" height="89.82" rx="10" ry="10"/><rect class="cls-5" x="94.8" y="212.75" width="303.71" height="89.82" rx="10" ry="10"/><circle class="cls-6" cx="142.86" cy="260.76" r="33.46"/><circle class="cls-7" cx="142.86" cy="260.76" r="33.46"/><g class="cls-19"><path class="cls-11" d="M158.62,270.57c2.44-7.53,2.44-28.87,2.44-28.87,0-15.06-4.88-21.34-17.1-21.34h0c-6.5,0-13.35,2.06-15.87,10-2.44,7.53-3.66,26.36,2.44,40.17A14.87,14.87,0,0,0,144,278.1,18.15,18.15,0,0,0,158.62,270.57Z"/><path class="cls-14" d="M135.42,222a13.26,13.26,0,0,0-7.33,8.4c-2.44,7.53-3.66,26.36,2.44,40.17a14.88,14.88,0,0,0,13.09,7.53C136.08,264.11,135.42,233.2,135.42,222Z"/><rect class="cls-9" x="123.21" y="284.38" width="4.88" height="10.04"/><rect class="cls-10" x="118.32" y="284.38" width="4.88" height="10.04"/><rect class="cls-9" x="159.84" y="284.38" width="9.77" height="10.04"/><path class="cls-20" d="M169.61,278.48a7.46,7.46,0,0,0-6.42-7.53l-8.47-1.09-.54,1.26a11,11,0,0,1-14.6,6,11.28,11.28,0,0,1-5.82-6l-.54-1.26-8.47,1.09a7.46,7.46,0,0,0-6.42,7.53v5.9h9.77l-.26.53a21.73,21.73,0,0,0-2.19,9.52h36.63a21.72,21.72,0,0,0-2.19-9.52l-.26-.53h9.77v-5.9Z"/><path class="cls-21" d="M123.21,271.39a7.52,7.52,0,0,0-4.88,7.09v5.9h4.88Z"/><path class="cls-9" d="M144,278.1a11.1,11.1,0,0,0,10.21-6.92l.54-1.26-2.44-.31a2.49,2.49,0,0,1-2.14-2.51v-6.58H137.86v6.57a2.49,2.49,0,0,1-2.14,2.51l-2.5.31.54,1.26A11.1,11.1,0,0,0,144,278.1Z"/><path class="cls-10" d="M150.07,267.48v-7H137.86v7C142.44,269.93,145.49,269.93,150.07,267.48Z"/><path class="cls-9" d="M158.62,240.44h-2.44V248h2.44a3.77,3.77,0,0,0,0-7.53Z"/><path class="cls-9" d="M157.4,240.44c-15.87-3.77-22-10-22-10l-4.88,11.3.67,8.79A12.94,12.94,0,0,0,144,263h0a12.94,12.94,0,0,0,12.76-12.55Z"/><path class="cls-10" d="M135.42,230.4l-4.88,11.3.67,8.79c.29,6.73,4.21,10,9.1,11.3-1.86-2.37-2.44-4.34-3.66-7.53C135.17,250.49,135.42,230.4,135.42,230.4Z"/><path class="cls-21" d="M127.25,287.59a15.48,15.48,0,0,0-1.6,6.83h8.16C129.56,292.59,127.88,289.78,127.25,287.59Z"/><path class="cls-16" d="M119.54,294.42H117.1V278.48a8.71,8.71,0,0,1,7.49-8.78l11-1.41a1.25,1.25,0,0,0,1.07-1.26v-5.26h2.44V267a3.73,3.73,0,0,1-3.21,3.76l-11,1.41a6.22,6.22,0,0,0-5.35,6.28v16Z"/><path class="cls-16" d="M170.84,294.42H168.4V278.54a6.22,6.22,0,0,0-5.35-6.29l-11-1.4a3.73,3.73,0,0,1-3.21-3.77v-5.3h2.44v5.31a1.25,1.25,0,0,0,1.07,1.27l11,1.4a8.71,8.71,0,0,1,7.49,8.79v15.87Z"/><path class="cls-16" d="M158.62,249.23H157.4v-2.51h1.22a2.51,2.51,0,0,0,0-5H157.4v-2.51h1.22a5,5,0,0,1,0,10Z"/><path class="cls-16" d="M144,279.36h0a12.3,12.3,0,0,1-11.32-7.68l-.78-1.87,2.24-1,.78,1.87a9.87,9.87,0,0,0,9.08,6.16h0a9.87,9.87,0,0,0,9.08-6.15l.78-1.87,2.24,1-.78,1.87A12.3,12.3,0,0,1,144,279.36Z"/><path class="cls-16" d="M129.42,271.09c-6.45-14.58-4.8-34-2.49-41.09s8.15-10.9,17-10.9c12.84,0,18.32,6.76,18.32,22.6h-2.44c0-14.45-4.45-20.08-15.87-20.08-7.84,0-12.79,3.09-14.71,9.18-2.21,6.82-3.77,25.32,2.39,39.26Z"/><path class="cls-16" d="M144,264.3a14.15,14.15,0,0,1-14-13.75l-.67-8.74a1.3,1.3,0,0,1,.1-.61l4.88-11.3a1.23,1.23,0,0,1,.89-.72,1.2,1.2,0,0,1,1.09.35c.06.06,6.13,6.09,21.39,9.71a1.25,1.25,0,0,1,.94,1.31l-.67,10A14.14,14.14,0,0,1,144,264.3Zm-12.19-22.38.65,8.47a11.54,11.54,0,0,0,23.08,0l.6-9c-11.47-2.87-17.72-7-20.24-9Z"/><path class="cls-16" d="M159.8,270.92l-2.35-.69c2.37-8.51,2.4-23.36,2.4-23.51h2.44C162.28,247.34,162.26,262.06,159.8,270.92Z"/><path class="cls-16" d="M124.43,294.42a23.14,23.14,0,0,1,2.32-10.08l.13-.26v-3.47h2.44v3.77a1.29,1.29,0,0,1-.13.56l-.26.53a20.56,20.56,0,0,0-2.06,9Z"/><rect class="cls-16" x="118.32" y="283.13" width="9.77" height="2.51"/><rect class="cls-16" x="159.84" y="283.13" width="9.77" height="2.51"/><path class="cls-16" d="M163.51,294.42h-2.44a20.53,20.53,0,0,0-2.06-9l-.26-.53a1.29,1.29,0,0,1-.13-.56v-3.77h2.44v3.47l.13.26A23.12,23.12,0,0,1,163.51,294.42Z"/></g><rect class="cls-16" x="185.04" y="234.66" width="197.15" height="3.22" rx="1.61" ry="1.61"/><rect class="cls-16" x="185.04" y="245.72" width="150.63" height="3.22" rx="1.61" ry="1.61"/><rect class="cls-16" x="199.58" y="281.6" width="48.79" height="3.22" rx="1.61" ry="1.61"/><path class="cls-17" d="M193.55,276.87a5.1,5.1,0,0,0-6.43,0,6.13,6.13,0,0,0-1.85,6.25c.75,2.47,3,4.44,4.93,6l.14.11.14-.11c1.89-1.56,4-3.33,4.84-5.73A6.25,6.25,0,0,0,193.55,276.87Zm-3.22,6.34a2.2,2.2,0,1,1,2.2-2.2A2.2,2.2,0,0,1,190.34,283.21Z"/><path class="cls-18" d="M191,267.83l-2.27,1.2a.73.73,0,0,1-1.05-.77l.43-2.53a.73.73,0,0,0-.21-.64l-1.84-1.79a.73.73,0,0,1,.4-1.24l2.54-.37a.73.73,0,0,0,.55-.4l1.14-2.3a.73.73,0,0,1,1.3,0l1.14,2.3a.73.73,0,0,0,.55.4l2.54.37a.73.73,0,0,1,.4,1.24l-1.84,1.79a.73.73,0,0,0-.21.64l.43,2.53A.73.73,0,0,1,194,269l-2.27-1.2A.73.73,0,0,0,191,267.83Z"/><path class="cls-3" d="M212.43,267.83l-2.27,1.2a.73.73,0,0,1-1.05-.77l.43-2.53a.73.73,0,0,0-.21-.64l-1.84-1.79a.73.73,0,0,1,.4-1.24l2.54-.37a.73.73,0,0,0,.55-.4l1.14-2.3a.73.73,0,0,1,1.3,0l1.14,2.3a.73.73,0,0,0,.55.4l2.54.37a.73.73,0,0,1,.4,1.24l-1.84,1.79a.73.73,0,0,0-.21.64l.43,2.53a.73.73,0,0,1-1.05.77l-2.27-1.2A.73.73,0,0,0,212.43,267.83Z"/><path class="cls-3" d="M233.82,267.83l-2.27,1.2a.73.73,0,0,1-1.05-.77l.43-2.53a.73.73,0,0,0-.21-.64l-1.84-1.79a.73.73,0,0,1,.4-1.24l2.54-.37a.73.73,0,0,0,.55-.4l1.14-2.3a.73.73,0,0,1,1.3,0l1.14,2.3a.73.73,0,0,0,.55.4L239,262a.73.73,0,0,1,.4,1.24l-1.84,1.79a.73.73,0,0,0-.21.64l.43,2.53a.73.73,0,0,1-1.05.77l-2.27-1.2A.73.73,0,0,0,233.82,267.83Z"/><path class="cls-3" d="M255.2,267.83l-2.27,1.2a.73.73,0,0,1-1.05-.77l.43-2.53a.73.73,0,0,0-.21-.64l-1.84-1.79a.73.73,0,0,1,.4-1.24l2.54-.37a.73.73,0,0,0,.55-.4l1.14-2.3a.73.73,0,0,1,1.3,0l1.14,2.3a.73.73,0,0,0,.55.4l2.54.37a.73.73,0,0,1,.4,1.24L259,265.08a.73.73,0,0,0-.21.64l.43,2.53a.73.73,0,0,1-1.05.77l-2.27-1.2A.73.73,0,0,0,255.2,267.83Z"/><path class="cls-22" d="M276.59,267.83l-2.27,1.2a.73.73,0,0,1-1.05-.77l.43-2.53a.73.73,0,0,0-.21-.64l-1.84-1.79a.73.73,0,0,1,.4-1.24l2.54-.37a.73.73,0,0,0,.55-.4l1.14-2.3a.73.73,0,0,1,1.3,0l1.14,2.3a.73.73,0,0,0,.55.4l2.54.37a.73.73,0,0,1,.4,1.24l-1.84,1.79a.73.73,0,0,0-.21.64l.43,2.53a.73.73,0,0,1-1.05.77l-2.27-1.2A.73.73,0,0,0,276.59,267.83Z"/><path class="cls-18" d="M212.43,267.83l-2.27,1.2a.73.73,0,0,1-1.05-.77l.43-2.53a.73.73,0,0,0-.21-.64l-1.84-1.79a.73.73,0,0,1,.4-1.24l2.54-.37a.73.73,0,0,0,.55-.4l1.14-2.3a.73.73,0,0,1,1.3,0l1.14,2.3a.73.73,0,0,0,.55.4l2.54.37a.73.73,0,0,1,.4,1.24l-1.84,1.79a.73.73,0,0,0-.21.64l.43,2.53a.73.73,0,0,1-1.05.77l-2.27-1.2A.73.73,0,0,0,212.43,267.83Z"/><path class="cls-18" d="M233.82,267.83l-2.27,1.2a.73.73,0,0,1-1.05-.77l.43-2.53a.73.73,0,0,0-.21-.64l-1.84-1.79a.73.73,0,0,1,.4-1.24l2.54-.37a.73.73,0,0,0,.55-.4l1.14-2.3a.73.73,0,0,1,1.3,0l1.14,2.3a.73.73,0,0,0,.55.4L239,262a.73.73,0,0,1,.4,1.24l-1.84,1.79a.73.73,0,0,0-.21.64l.43,2.53a.73.73,0,0,1-1.05.77l-2.27-1.2A.73.73,0,0,0,233.82,267.83Z"/><path class="cls-22" d="M255.2,267.83l-2.27,1.2a.73.73,0,0,1-1.05-.77l.43-2.53a.73.73,0,0,0-.21-.64l-1.84-1.79a.73.73,0,0,1,.4-1.24l2.54-.37a.73.73,0,0,0,.55-.4l1.14-2.3a.73.73,0,0,1,1.3,0l1.14,2.3a.73.73,0,0,0,.55.4l2.54.37a.73.73,0,0,1,.4,1.24L259,265.08a.73.73,0,0,0-.21.64l.43,2.53a.73.73,0,0,1-1.05.77l-2.27-1.2A.73.73,0,0,0,255.2,267.83Z"/><rect class="cls-3" x="94.8" y="316.66" width="303.71" height="89.82" rx="10" ry="10"/><rect class="cls-5" x="94.8" y="316.66" width="303.71" height="89.82" rx="10" ry="10"/><circle class="cls-6" cx="142.86" cy="364.67" r="33.46"/><circle class="cls-7" cx="142.86" cy="364.67" r="33.46"/><g class="cls-23"><path class="cls-24" d="M159.2,374.33l-6.47-.92a2.7,2.7,0,0,1-1.38-.6l-7.78,9.83-7.78-9.88a2.89,2.89,0,0,1-1.41.65l-6.47.92a9.38,9.38,0,0,0-7.68,9.51V397h46.7V383.84A9.38,9.38,0,0,0,159.2,374.33Z"/><path class="cls-9" d="M151.35,372.81a3.19,3.19,0,0,1-1.11-2.47v-5.68H136.89v5.68a3.22,3.22,0,0,1-1.11,2.4l7.78,9.9Z"/><path class="cls-10" d="M150.24,371.3v-6.64H136.89v6.64C141.9,373.64,145.23,373.64,150.24,371.3Z"/><rect class="cls-9" x="124.66" y="391.03" width="4.45" height="5.99"/><rect class="cls-10" x="120.21" y="391.03" width="4.45" height="5.99"/><rect class="cls-9" x="158.02" y="391.03" width="8.9" height="5.99"/><path class="cls-9" d="M132.44,360.57a14.06,14.06,0,0,1-1.11-5.5V339.48h0a4.63,4.63,0,0,1,4.45-4.8H138l.38.6a6.13,6.13,0,0,0,5.18,3h0a6.13,6.13,0,0,0,5.18-3l.38-.6h2.22a4.63,4.63,0,0,1,4.45,4.8h0v15.58c0,7.28-5.48,13.19-12.23,13.19h0a12,12,0,0,1-10-5.6"/><path class="cls-10" d="M135.78,351.05V334.69a4.63,4.63,0,0,0-4.45,4.8v15.58a14.06,14.06,0,0,0,1.11,5.5l1.11,2.09a12.15,12.15,0,0,0,8.13,5.43L138.84,363A24.5,24.5,0,0,1,135.78,351.05Z"/><path class="cls-25" d="M131.33,345.48v-6a4.63,4.63,0,0,1,4.45-4.8H138l.38.6a6,6,0,0,0,8.61,1.89,6.49,6.49,0,0,0,1.75-1.89l.38-.6h2.22a4.63,4.63,0,0,1,4.45,4.8v6h1.11a3.21,3.21,0,0,1,2.22.95l.46-5.38a9.63,9.63,0,0,0-6-10,10.87,10.87,0,0,0-8.9-4.8h-2.22a10.87,10.87,0,0,0-8.9,4.8,9.63,9.63,0,0,0-6,10l.48,5.38a3.21,3.21,0,0,1,2.22-.95Z"/><path class="cls-9" d="M156.91,345.48H155.8v7.19h1.11a3.61,3.61,0,0,0,0-7.19Z"/><path class="cls-10" d="M126.88,349.07a3.47,3.47,0,0,0,3.34,3.6h1.11v-7.19h-1.11A3.47,3.47,0,0,0,126.88,349.07Z"/><path class="cls-25" d="M132.44,362.26h4.45a5.79,5.79,0,0,0,5.56-6H138A5.79,5.79,0,0,0,132.44,362.26Z"/><path class="cls-25" d="M152.46,362.26H148a5.79,5.79,0,0,1-5.56-6h4.45A5.79,5.79,0,0,1,152.46,362.26Z"/><path class="cls-26" d="M133.56,331.09a9.63,9.63,0,0,0-6,10l.48,5.38a3.21,3.21,0,0,1,2.22-.95h1.11v-6a4.63,4.63,0,0,1,4.45-4.8v-6A11.44,11.44,0,0,0,133.56,331.09Z"/><path class="cls-26" d="M138.13,359.86h-5.22a6.31,6.31,0,0,0-.47,2.4h4.45a5.56,5.56,0,0,0,5.12-3.6A6.65,6.65,0,0,1,138.13,359.86Z"/><path class="cls-26" d="M146.78,359.86H152a6.31,6.31,0,0,1,.47,2.4H148a5.56,5.56,0,0,1-5.12-3.6A6.65,6.65,0,0,0,146.78,359.86Z"/><path class="cls-16" d="M156.91,353.87H155.8v-2.4h1.11a2.4,2.4,0,0,0,0-4.8H155.8v-2.4h1.11a4.81,4.81,0,0,1,0,9.59Z"/><path class="cls-16" d="M131.33,353.87h-1.11a4.81,4.81,0,0,1,0-9.59h1.11v2.4h-1.11a2.4,2.4,0,0,0,0,4.8h1.11v2.4Z"/><path class="cls-16" d="M136.89,363.46h-4.45a1.16,1.16,0,0,1-1.11-1.2,7,7,0,0,1,6.67-7.19h4.45a1.16,1.16,0,0,1,1.11,1.2A7,7,0,0,1,136.89,363.46Zm-3.2-2.4h3.2a4.53,4.53,0,0,0,4.31-3.6H138A4.53,4.53,0,0,0,133.7,361.06Z"/><path class="cls-16" d="M152.46,363.46H148a7,7,0,0,1-6.67-7.19,1.16,1.16,0,0,1,1.11-1.2h4.45a7,7,0,0,1,6.67,7.19A1.16,1.16,0,0,1,152.46,363.46Zm-8.76-6a4.53,4.53,0,0,0,4.31,3.6h3.19a4.53,4.53,0,0,0-4.31-3.6Z"/><path class="cls-16" d="M143.56,369.45a13.09,13.09,0,0,1-10.91-6.11l1.82-1.38a10.91,10.91,0,0,0,9.09,5.09h0c6.13,0,11.12-5.38,11.12-12V339.48a3.48,3.48,0,0,0-3.34-3.6h-1.64l0,.07a7,7,0,0,1-12.21,0l0-.06h-1.64a3.48,3.48,0,0,0-3.34,3.6v15.58a12.86,12.86,0,0,0,1,5l-2,1a15.44,15.44,0,0,1-1.21-6V339.48a5.8,5.8,0,0,1,5.56-6H138a1.09,1.09,0,0,1,.92.53l.38.6a4.91,4.91,0,0,0,8.52,0l.38-.61a1.09,1.09,0,0,1,.92-.53h2.22a5.8,5.8,0,0,1,5.56,6v15.58c0,7.93-6,14.39-13.34,14.39Z"/><path class="cls-16" d="M126.89,346.79l-.48-5.63a10.83,10.83,0,0,1,6.47-11.07,12,12,0,0,1,9.58-5h2.22a12,12,0,0,1,9.58,5,10.83,10.83,0,0,1,6.47,11.07l-.48,5.64-2.22-.22.48-5.63a8.39,8.39,0,0,0-5.28-8.7,1.12,1.12,0,0,1-.54-.42,9.83,9.83,0,0,0-8-4.32h-2.22a9.83,9.83,0,0,0-8,4.32,1.12,1.12,0,0,1-.54.42,8.39,8.39,0,0,0-5.28,8.71l.48,5.63Z"/><path class="cls-16" d="M121.32,397H119.1V383.84c0-5.38,3.73-10,8.68-10.69l6.47-.92a1.87,1.87,0,0,0,1.53-1.88v-4.48H138v4.48a4.23,4.23,0,0,1-3.45,4.26l-6.48.92a8.23,8.23,0,0,0-6.75,8.32V397Z"/><path class="cls-16" d="M168,397H165.8V383.84a8.23,8.23,0,0,0-6.75-8.32l-6.47-.92a4.23,4.23,0,0,1-3.46-4.25v-4.49h2.22v4.48a1.87,1.87,0,0,0,1.53,1.88l6.47.92c5,.71,8.68,5.31,8.68,10.69Z"/><rect class="cls-16" x="128" y="387.44" width="2.22" height="9.59"/><rect class="cls-16" x="156.91" y="387.44" width="2.22" height="9.59"/><path class="cls-16" d="M143.56,383.84a1.07,1.07,0,0,1-.84-.41l-7.78-9.59,1.67-1.58,6.95,8.56,6.95-8.56,1.67,1.58-7.78,9.59A1.07,1.07,0,0,1,143.56,383.84Z"/><path class="cls-16" d="M136.89,385a1.11,1.11,0,0,1-1-.71l-4.45-10.79,2-1,4.1,9.94,5.82-1,.37,2.37-6.67,1.2Z"/><path class="cls-16" d="M150.24,385l-.18,0-6.67-1.2.37-2.37,5.82,1,4.1-9.94,2,1-4.45,10.79A1.12,1.12,0,0,1,150.24,385Z"/><rect class="cls-16" x="142.45" y="382.64" width="2.22" height="14.39"/><path class="cls-16" d="M130.22,397H128v-4.8h-6.67V397H119.1v-6a1.16,1.16,0,0,1,1.11-1.2h8.9a1.16,1.16,0,0,1,1.11,1.2v6Z"/><path class="cls-16" d="M168,397H165.8v-4.8h-6.67V397h-2.22v-6a1.16,1.16,0,0,1,1.11-1.2h8.9A1.16,1.16,0,0,1,168,391Z"/><path class="cls-16" d="M139.67,389.83a1.8,1.8,0,1,1,1.67-1.8A1.74,1.74,0,0,1,139.67,389.83Zm0-2.4a.6.6,0,1,0,.56.6A.58.58,0,0,0,139.67,387.44Z"/></g><rect class="cls-16" x="185.04" y="338.57" width="197.15" height="3.22" rx="1.61" ry="1.61"/><rect class="cls-16" x="185.04" y="349.64" width="150.63" height="3.22" rx="1.61" ry="1.61"/><rect class="cls-16" x="199.58" y="385.51" width="48.79" height="3.22" rx="1.61" ry="1.61"/><path class="cls-17" d="M193.55,380.78a5.1,5.1,0,0,0-6.43,0,6.13,6.13,0,0,0-1.85,6.25c.75,2.47,3,4.44,4.93,6l.14.11.14-.11c1.89-1.56,4-3.33,4.84-5.73A6.25,6.25,0,0,0,193.55,380.78Zm-3.22,6.34a2.2,2.2,0,1,1,2.2-2.2A2.2,2.2,0,0,1,190.34,387.12Z"/><path class="cls-18" d="M191,371.74l-2.27,1.2a.73.73,0,0,1-1.05-.77l.43-2.53a.73.73,0,0,0-.21-.64l-1.84-1.79a.73.73,0,0,1,.4-1.24l2.54-.37a.73.73,0,0,0,.55-.4l1.14-2.3a.73.73,0,0,1,1.3,0l1.14,2.3a.73.73,0,0,0,.55.4l2.54.37a.73.73,0,0,1,.4,1.24L194.82,369a.73.73,0,0,0-.21.64l.43,2.53a.73.73,0,0,1-1.05.77l-2.27-1.2A.73.73,0,0,0,191,371.74Z"/><path class="cls-3" d="M212.43,371.74l-2.27,1.2a.73.73,0,0,1-1.05-.77l.43-2.53a.73.73,0,0,0-.21-.64l-1.84-1.79a.73.73,0,0,1,.4-1.24l2.54-.37a.73.73,0,0,0,.55-.4l1.14-2.3a.73.73,0,0,1,1.3,0l1.14,2.3a.73.73,0,0,0,.55.4l2.54.37a.73.73,0,0,1,.4,1.24L216.21,369a.73.73,0,0,0-.21.64l.43,2.53a.73.73,0,0,1-1.05.77l-2.27-1.2A.73.73,0,0,0,212.43,371.74Z"/><path class="cls-3" d="M233.82,371.74l-2.27,1.2a.73.73,0,0,1-1.05-.77l.43-2.53a.73.73,0,0,0-.21-.64l-1.84-1.79a.73.73,0,0,1,.4-1.24l2.54-.37a.73.73,0,0,0,.55-.4l1.14-2.3a.73.73,0,0,1,1.3,0l1.14,2.3a.73.73,0,0,0,.55.4L239,366a.73.73,0,0,1,.4,1.24L237.6,369a.73.73,0,0,0-.21.64l.43,2.53a.73.73,0,0,1-1.05.77l-2.27-1.2A.73.73,0,0,0,233.82,371.74Z"/><path class="cls-3" d="M255.2,371.74l-2.27,1.2a.73.73,0,0,1-1.05-.77l.43-2.53a.73.73,0,0,0-.21-.64l-1.84-1.79a.73.73,0,0,1,.4-1.24l2.54-.37a.73.73,0,0,0,.55-.4l1.14-2.3a.73.73,0,0,1,1.3,0l1.14,2.3a.73.73,0,0,0,.55.4l2.54.37a.73.73,0,0,1,.4,1.24L259,369a.73.73,0,0,0-.21.64l.43,2.53a.73.73,0,0,1-1.05.77l-2.27-1.2A.73.73,0,0,0,255.2,371.74Z"/><path class="cls-22" d="M276.59,371.74l-2.27,1.2a.73.73,0,0,1-1.05-.77l.43-2.53a.73.73,0,0,0-.21-.64l-1.84-1.79a.73.73,0,0,1,.4-1.24l2.54-.37a.73.73,0,0,0,.55-.4l1.14-2.3a.73.73,0,0,1,1.3,0l1.14,2.3a.73.73,0,0,0,.55.4l2.54.37a.73.73,0,0,1,.4,1.24L280.37,369a.73.73,0,0,0-.21.64l.43,2.53a.73.73,0,0,1-1.05.77l-2.27-1.2A.73.73,0,0,0,276.59,371.74Z"/><path class="cls-18" d="M212.43,371.74l-2.27,1.2a.73.73,0,0,1-1.05-.77l.43-2.53a.73.73,0,0,0-.21-.64l-1.84-1.79a.73.73,0,0,1,.4-1.24l2.54-.37a.73.73,0,0,0,.55-.4l1.14-2.3a.73.73,0,0,1,1.3,0l1.14,2.3a.73.73,0,0,0,.55.4l2.54.37a.73.73,0,0,1,.4,1.24L216.21,369a.73.73,0,0,0-.21.64l.43,2.53a.73.73,0,0,1-1.05.77l-2.27-1.2A.73.73,0,0,0,212.43,371.74Z"/><path class="cls-22" d="M233.82,371.74l-2.27,1.2a.73.73,0,0,1-1.05-.77l.43-2.53a.73.73,0,0,0-.21-.64l-1.84-1.79a.73.73,0,0,1,.4-1.24l2.54-.37a.73.73,0,0,0,.55-.4l1.14-2.3a.73.73,0,0,1,1.3,0l1.14,2.3a.73.73,0,0,0,.55.4L239,366a.73.73,0,0,1,.4,1.24L237.6,369a.73.73,0,0,0-.21.64l.43,2.53a.73.73,0,0,1-1.05.77l-2.27-1.2A.73.73,0,0,0,233.82,371.74Z"/><path class="cls-22" d="M255.2,371.74l-2.27,1.2a.73.73,0,0,1-1.05-.77l.43-2.53a.73.73,0,0,0-.21-.64l-1.84-1.79a.73.73,0,0,1,.4-1.24l2.54-.37a.73.73,0,0,0,.55-.4l1.14-2.3a.73.73,0,0,1,1.3,0l1.14,2.3a.73.73,0,0,0,.55.4l2.54.37a.73.73,0,0,1,.4,1.24L259,369a.73.73,0,0,0-.21.64l.43,2.53a.73.73,0,0,1-1.05.77l-2.27-1.2A.73.73,0,0,0,255.2,371.74Z"/><circle class="cls-16" cx="469.34" cy="186.86" r="20.72"/><path class="cls-3" d="M467,196.65a2,2,0,0,1-1.53-.72l-10-11.41a2.73,2.73,0,0,1,0-3.49,2,2,0,0,1,3,0l8.43,9.66,19.39-22.22a2,2,0,0,1,3,0,2.73,2.73,0,0,1,0,3.5l-20.91,24A2,2,0,0,1,467,196.65Z"/></g></g></svg>