<svg xmlns="http://www.w3.org/2000/svg" viewBox="0 0 496.38 464.57"><defs><style>.cls-1{isolation:isolate;}.cls-13,.cls-2{fill:#ffba1f;}.cls-11,.cls-2{opacity:0.5;}.cls-3{fill:#204f80;}.cls-4{fill:#f7a05e;}.cls-5{fill:#d7edff;}.cls-6{fill:#f78319;}.cls-12,.cls-7{fill:#fff;}.cls-10,.cls-8{fill:#d3dde5;}.cls-8,.cls-9{mix-blend-mode:multiply;}.cls-11{fill:#f1f8fe;}.cls-12{opacity:0.2;}.cls-14{fill:none;stroke:#204f80;stroke-miterlimit:10;stroke-width:5px;}.cls-15{fill:#a05395;}.cls-16{fill:#cecdcc;}.cls-17{fill:#ff0080;}.cls-18{fill:#ddade0;}.cls-19{fill:#da78dd;}.cls-20{fill:#c0c7cf;}.cls-21{fill:#abb1b8;}.cls-22{fill:#e7387f;}.cls-23{fill:#ef75a7;}.cls-24{fill:#dfe6f0;}.cls-25{fill:#d0d7e0;}.cls-26{fill:#52ccc3;}.cls-27{fill:#8c5219;}</style></defs><title>Pantalla1</title><g class="cls-1"><g id="Layer_2" data-name="Layer 2"><g id="Layer_1-2" data-name="Layer 1"><circle class="cls-2" cx="248.9" cy="224.55" r="224.55"/><rect class="cls-3" x="351.04" y="134.32" width="145.33" height="11.06" rx="5.53" ry="5.53" transform="translate(847.42 279.71) rotate(-180)"/><rect class="cls-3" x="351.04" y="160.02" width="98.42" height="11.06" rx="5.53" ry="5.53" transform="translate(800.5 331.09) rotate(-180)"/><rect class="cls-3" y="197.54" width="145.33" height="11.06" rx="5.53" ry="5.53"/><rect class="cls-3" x="46.92" y="223.23" width="98.42" height="11.06" rx="5.53" ry="5.53"/><rect class="cls-4" x="100.64" y="457.97" width="314.33" height="6.6" rx="1.5" ry="1.5"/><polygon class="cls-5" points="351.11 367.63 351.11 376.01 351.11 382.08 351.11 391.26 351.11 396.52 145.99 396.52 145.99 391.26 145.99 382.08 145.99 376.01 145.99 367.63 145.99 118.1 351.11 118.1 351.11 367.63"/><rect class="cls-6" x="145.99" y="118.1" width="205.12" height="34.6"/><rect class="cls-6" x="145.99" y="379.22" width="205.12" height="17.3"/><path class="cls-7" d="M351.11,112H146V97.94A19.46,19.46,0,0,1,165.43,78.5H331.66a19.46,19.46,0,0,1,19.45,19.44Z"/><path class="cls-3" d="M248.55,92.23h-26.4a3,3,0,0,0,0,6.07h26.4a3,3,0,0,0,0-6.07Z"/><path class="cls-3" d="M274.95,92.23h-6.6a3,3,0,1,0,0,6.07h6.6a3,3,0,1,0,0-6.07Z"/><path class="cls-3" d="M248.55,446.82a17.3,17.3,0,1,0-17.3-17.3A17.32,17.32,0,0,0,248.55,446.82Zm0-30a12.71,12.71,0,1,1-12.71,12.7A12.72,12.72,0,0,1,248.55,416.82Z"/><path class="cls-7" d="M351.11,435.77a19.46,19.46,0,0,1-19.44,19.44H165.43A19.46,19.46,0,0,1,146,435.77V402.59H351.11Z"/><polygon class="cls-8" points="351.11 367.63 351.11 376.01 351.11 382.08 351.11 391.26 351.11 396.52 336.08 396.52 336.08 391.26 336.08 382.08 336.08 376.01 336.08 367.63 336.08 118.1 351.11 118.1 351.11 367.63"/><path class="cls-3" d="M248.55,92.23h-26.4a3,3,0,0,0,0,6.07h26.4a3,3,0,0,0,0-6.07Z"/><path class="cls-3" d="M274.95,92.23h-6.6a3,3,0,1,0,0,6.07h6.6a3,3,0,1,0,0-6.07Z"/><path class="cls-3" d="M248.55,446.82a17.3,17.3,0,1,0-17.3-17.3A17.32,17.32,0,0,0,248.55,446.82Zm0-30a12.71,12.71,0,1,1-12.71,12.7A12.72,12.72,0,0,1,248.55,416.82Z"/><path class="cls-3" d="M331.67,72.44H165.43a25.53,25.53,0,0,0-25.5,25.5V435.76a25.54,25.54,0,0,0,25.5,25.51H331.66a25.54,25.54,0,0,0,25.51-25.5V97.94A25.53,25.53,0,0,0,331.67,72.44Zm19.44,363.33a19.46,19.46,0,0,1-19.44,19.44H165.43A19.46,19.46,0,0,1,146,435.77V402.59H351.11Zm0-68.14v28.9H146V118.1H351.11Zm0-255.59H146V97.94A19.46,19.46,0,0,1,165.43,78.5H331.66a19.46,19.46,0,0,1,19.45,19.44Z"/><g class="cls-9"><path class="cls-10" d="M336.08,79v33h15V97.94A19.46,19.46,0,0,0,336.08,79Z"/></g><g class="cls-9"><path class="cls-10" d="M336.08,455.2V402.59h15v33.7A19.46,19.46,0,0,1,336.08,455.2Z"/></g><rect class="cls-3" x="145.81" y="152.25" width="205.3" height="7.58"/><rect class="cls-3" x="145.81" y="371.64" width="205.3" height="7.58"/><rect class="cls-11" x="213.29" y="131.83" width="68.97" height="7.13" rx="2" ry="2"/><rect class="cls-12" x="145.81" y="379.22" width="64.92" height="17.02"/><circle class="cls-6" cx="178.27" cy="387.47" r="3.57"/><circle class="cls-7" cx="249.85" cy="387.47" r="3.57"/><circle class="cls-7" cx="318.22" cy="387.47" r="3.57"/><rect class="cls-13" x="314.66" y="99.78" width="103.49" height="104.95" rx="22.76" ry="22.76"/><rect class="cls-14" x="314.66" y="99.78" width="103.49" height="104.95" rx="22.76" ry="22.76"/><rect class="cls-13" x="271.91" y="249.93" width="103.49" height="104.95" rx="22.76" ry="22.76"/><rect class="cls-14" x="271.91" y="249.93" width="103.49" height="104.95" rx="22.76" ry="22.76"/><rect class="cls-13" x="158.55" y="183.06" width="87.73" height="88.98" rx="22.76" ry="22.76"/><rect class="cls-14" x="158.55" y="183.06" width="87.73" height="88.98" rx="22.76" ry="22.76"/><path class="cls-3" d="M228.3,199.84a12.25,12.25,0,0,0-17,0l-.15.15a12.27,12.27,0,0,0-2.61,13.94l3.86,8.37v28.18a5.18,5.18,0,0,0,5.17,5.17h4a5.18,5.18,0,0,0,5.17-5.17V222.31l4.06-8.25A12.22,12.22,0,0,0,228.3,199.84Z"/><path class="cls-15" d="M221.54,253.33h-4a2.86,2.86,0,0,1-2.86-2.85V232.85h5.09v7.46a1.16,1.16,0,0,0,2.31,0v-7.46h2.31v17.63h0A2.86,2.86,0,0,1,221.54,253.33Z"/><polygon class="cls-15" points="214.68 230.53 214.68 223.17 216.43 223.17 216.44 223.17 216.44 223.17 222.97 223.17 222.97 223.17 222.98 223.17 224.4 223.17 224.4 230.53 214.68 230.53"/><path class="cls-16" d="M228.7,213l-3.85,7.82h-.51l.93-5.6a1.16,1.16,0,1,0-2.28-.38l-1,6h-1.3v-5.79a1.16,1.16,0,1,0-2.31,0v5.79h-1l-1-6a1.16,1.16,0,1,0-2.28.38l.93,5.6h-.83L210.6,213a10,10,0,0,1,2.12-11.31l.15-.15A9.94,9.94,0,0,1,228.7,213Z"/><path class="cls-3" d="M188.29,233.44v-5.1a2.32,2.32,0,0,0-1.39-2.12v-7.15a3.47,3.47,0,0,0-1.83-3.06l-3.7-2a3.47,3.47,0,0,0-5.11,3.06v9.13a2.32,2.32,0,0,0-1.39,2.12v5.1a2.32,2.32,0,0,0-2.08,2.3v16.43a3.48,3.48,0,0,0,3.47,3.47H186.9a3.48,3.48,0,0,0,3.47-3.47V235.74A2.32,2.32,0,0,0,188.29,233.44Z"/><path class="cls-17" d="M178.57,217.08a1.16,1.16,0,0,1,1.7-1l3.7,2a1.16,1.16,0,0,1,.61,1v7h-6Z"/><polygon class="cls-18" points="177.42 228.33 185.75 228.33 185.98 228.33 185.98 233.43 177.18 233.43 177.18 228.33 177.42 228.33"/><path class="cls-18" d="M188.06,252.17a1.16,1.16,0,0,1-1.16,1.16h-2.08v-8.79a1.16,1.16,0,0,0-2.31,0v8.79h-6.25a1.16,1.16,0,0,1-1.16-1.16V235.74h13Z"/><path class="cls-3" d="M183.66,241.3a1.16,1.16,0,1,0-.82-.34A1.16,1.16,0,0,0,183.66,241.3Z"/><path class="cls-3" d="M206.81,224.86h-5.32V213.52h2a1.16,1.16,0,1,0,0-2.31h-2v-1.39h2a1.16,1.16,0,1,0,0-2.31h-2v-1.39h2a1.16,1.16,0,1,0,0-2.31h-2v-1.39h2a1.16,1.16,0,1,0,0-2.31h-2v-1.39h2a1.16,1.16,0,1,0,0-2.31H197.2a1.16,1.16,0,0,0,0,2.31h2v1.39h-2a1.16,1.16,0,1,0,0,2.31h2v1.39h-2a1.16,1.16,0,1,0,0,2.31h2v1.39h-2a1.16,1.16,0,1,0,0,2.31h2v1.39h-2a1.16,1.16,0,1,0,0,2.31h2v11.34h-5.32a1.16,1.16,0,0,0-1.16,1.16v12.93a31.14,31.14,0,0,0,4.51,16.14,1.16,1.16,0,0,0,1,.56h4.28a1.16,1.16,0,0,0,1-.56A31.14,31.14,0,0,0,208,238.95V226A1.16,1.16,0,0,0,206.81,224.86Z"/><path class="cls-19" d="M201.81,253.33h-3A28.83,28.83,0,0,1,195,238.95v-6.68h7a1.16,1.16,0,1,0,0-2.31h-7v-2.78h10.65v11.77h0A28.82,28.82,0,0,1,201.81,253.33Z"/><path class="cls-3" d="M220.93,243.2a1.16,1.16,0,1,0,.82.34A1.17,1.17,0,0,0,220.93,243.2Z"/><path class="cls-8" d="M396.58,102.14h-13a18.89,18.89,0,0,1,19.11,18.67V184.6a18.89,18.89,0,0,1-19.11,18.67h13a18.89,18.89,0,0,0,19.11-18.67V120.82A18.89,18.89,0,0,0,396.58,102.14Z"/><path class="cls-8" d="M354.24,252.31h-13A18.89,18.89,0,0,1,360.34,271v63.78a18.89,18.89,0,0,1-19.11,18.67h13a18.89,18.89,0,0,0,19.11-18.67V271A18.89,18.89,0,0,0,354.24,252.31Z"/><path class="cls-8" d="M228.17,185.27h-10.9a15.81,15.81,0,0,1,16,15.58v53.23a15.81,15.81,0,0,1-16,15.58h5.51c8.85,0,20.5-6.66,20.88-20l.53-42.22C244.19,198.82,237,185.27,228.17,185.27Z"/><path class="cls-20" d="M371.61,164.58l26.46,26.7a4.51,4.51,0,0,0,6.43,0,4.62,4.62,0,0,0,0-6.49l-31.71-32L368,147.95l-14.59-14.73a13.24,13.24,0,0,0-2.64-14.77,12.94,12.94,0,0,0-13.8-3l8.17,8.24-1.95,5.71-5.66,2-8.17-8.24a13.24,13.24,0,0,0,3,13.93A12.94,12.94,0,0,0,347,139.7l8.9,9Z"/><path class="cls-21" d="M404.5,184.8l-31.71-32L368,147.95l-14.59-14.73a13.24,13.24,0,0,0-2.64-14.77A12.93,12.93,0,0,0,339,114.86a12.92,12.92,0,0,1,6.61,3.59,13.24,13.24,0,0,1,2.64,14.77l14.59,14.73,4.81,4.85,31.71,32a4.6,4.6,0,0,1-.62,7,4.51,4.51,0,0,0,5.8-.52,4.62,4.62,0,0,0,0-6.49Z"/><path class="cls-22" d="M367,164.36l-10.49-10.59a3.39,3.39,0,0,1,0-4.77,3.32,3.32,0,0,1,4.72,0l10.49,10.59a3.39,3.39,0,0,1,0,4.77A3.32,3.32,0,0,1,367,164.36Z"/><path class="cls-23" d="M330.29,190.83a6.17,6.17,0,0,1,0-8.66l27.19-27.44,8.59,8.66-27.19,27.44A6,6,0,0,1,330.29,190.83Z"/><path class="cls-24" d="M396.24,133.75l9.56-12.82-6.24-6.3-12.71,9.65-1.37,6.55.13.14-21,21.17,4,4,21-21.17.13.14Z"/><path class="cls-25" d="M399.56,114.63,395,118.09l7.39,7.42,3.42-4.58Z"/><path class="cls-3" d="M374,152.39l16-16.11,6.49-1.38a1.18,1.18,0,0,0,.7-.45l9.38-12.59.09-.08a1.18,1.18,0,0,0,0-1.67L403.52,117l-3.12-3.15,0,0a1.18,1.18,0,0,0-1.67,0l-.09.1-12.47,9.47a1.18,1.18,0,0,0-.44.7l-1.37,6.55h0l-2.86,2.89-.11.13-13,13.07-13.6-13.73a14.48,14.48,0,0,0-3.19-15.33,14.15,14.15,0,0,0-15.05-3.28,1.19,1.19,0,0,0-.42,1.93l7.65,7.73-1.53,4.48L337.83,130l-7.65-7.72a1.19,1.19,0,0,0-1.94.42,14.45,14.45,0,0,0,3.25,15.16,14.18,14.18,0,0,0,15.2,3.23l8.17,8.24a4.63,4.63,0,0,0,1,5.39l-26.37,26.61a7.42,7.42,0,0,0-.44,9.83,7.28,7.28,0,0,0,10.7.49l26.35-26.59a4.55,4.55,0,0,0,5.34,1L386.2,181l.16.14,10.87,11a5.74,5.74,0,0,0,8.25-.16,5.85,5.85,0,0,0-.15-8Zm25.4-36.2,4.81,4.85-2,2.69-.07-.08-5.39-5.44ZM383.32,135l.11-.13,3-3a1.18,1.18,0,0,0,.28-1.2l1.18-5.64,7-5.3s5.85,5.86,6,5.92l-5.32,7.13L390,133.88a1.19,1.19,0,0,0-1.21.29L368.64,154.5l-2.35-2.37Zm-35.52,3.91a1.18,1.18,0,0,0-1.33-.24,11.82,11.82,0,0,1-13.3-2.42,12.08,12.08,0,0,1-3.24-10.84l6.75,6.81a1.18,1.18,0,0,0,1.22.28l5.66-2a1.18,1.18,0,0,0,.73-.73l1.95-5.71a1.18,1.18,0,0,0-.28-1.21L339.18,116a11.8,11.8,0,0,1,10.73,3.26,12.11,12.11,0,0,1,2.4,13.45,1.18,1.18,0,0,0,.24,1.31l14.17,14.3-2.23,2.25-2.41-2.43a4.49,4.49,0,0,0-5.66-.6ZM338,190a4.92,4.92,0,0,1-6.91-7l26.35-26.59,3.84,3.87,3.09,3.12Zm32.86-26.47h0a2.14,2.14,0,0,1-3,0l-1-1h0l-4.29-4.33-5.25-5.3a2.21,2.21,0,0,1,0-3.11,2.14,2.14,0,0,1,3,0l10.49,10.59A2.21,2.21,0,0,1,370.91,163.53Zm28,26.93-11.51-11.65-.17-.14-14.07-14.2a4.58,4.58,0,0,0-.58-5.7l-2.42-2.44,2.23-2.25,31.27,31.56C406.7,188.7,402,193.59,398.91,190.46Z"/><path class="cls-3" d="M345,176.34,334.7,186.69c-1,1.06.6,2.74,1.67,1.66L346.63,178A1.18,1.18,0,0,0,345,176.34Z"/><path class="cls-3" d="M400.77,186.5a1.18,1.18,0,0,0,0,2.35A1.18,1.18,0,0,0,400.77,186.5Z"/><path class="cls-3" d="M359.34,297.18h-1.55V291.4a6.2,6.2,0,0,0-6.19-6.19H329.14a6.19,6.19,0,0,0-5,2.61,6.19,6.19,0,0,0-5-2.61H296.59a6.2,6.2,0,0,0-6.19,6.19v5.78h-1.55a3.88,3.88,0,0,0-3.88,3.88v12A8.09,8.09,0,0,0,293,321.1h.58l-1.26,3.38a3.35,3.35,0,0,0,3.11,4.47h1.84a3.33,3.33,0,0,0,2.64-1.31l4.94-6.53h38.39l4.94,6.53a3.33,3.33,0,0,0,2.64,1.31h1.84a3.35,3.35,0,0,0,3.11-4.47l-1.26-3.38h.58a8.09,8.09,0,0,0,8.08-8.08v-12A3.88,3.88,0,0,0,359.34,297.18Z"/><path class="cls-26" d="M325.23,291.4a3.91,3.91,0,0,1,3.9-3.9h22.45a3.91,3.91,0,0,1,3.9,3.9v5.78h-2.16a4,4,0,0,0-3.58,2.38,3.85,3.85,0,0,0-.29,1.24H330.37a7.52,7.52,0,0,0-5.13,2.06Z"/><path class="cls-26" d="M325.23,308.23a5.14,5.14,0,0,1,5.13-5.13h19.08v6.76H325.23Z"/><path class="cls-26" d="M292.69,291.4a3.91,3.91,0,0,1,3.9-3.9H319a3.91,3.91,0,0,1,3.9,3.9v11.46l-.07-.07a7.5,7.5,0,0,0-5.06-2H298.72a3.93,3.93,0,0,0-2.6-3.41,3.81,3.81,0,0,0-1.27-.22h-2.16Z"/><path class="cls-26" d="M322.94,308.23v1.63H298.72v-6.76h19.08A5.14,5.14,0,0,1,322.94,308.23Z"/><path class="cls-27" d="M298.12,326.25a1,1,0,0,1-.81.41h-1.84a1,1,0,0,1-1-1.38l1.55-4.18h6Z"/><path class="cls-27" d="M352.71,326.66h-1.84a1,1,0,0,1-.81-.41l-3.9-5.15h6l1.55,4.18A1,1,0,0,1,352.71,326.66Z"/><path class="cls-26" d="M355.14,318.81H293a5.79,5.79,0,0,1-5.78-5.78v-12a1.59,1.59,0,0,1,1.59-1.59h6a1.59,1.59,0,0,1,1.59,1.59V311a1.15,1.15,0,0,0,1.15,1.15h53a1.15,1.15,0,0,0,1.15-1.15v-9.95a1.59,1.59,0,0,1,1.59-1.59h6a1.59,1.59,0,0,1,1.59,1.59v12h0A5.79,5.79,0,0,1,355.14,318.81Z"/><rect class="cls-6" x="34.99" y="261.48" width="90" height="90" rx="17.85" ry="17.85"/><path class="cls-7" d="M67.55,299.46a6,6,0,0,0,5.58-3.74h23a2.32,2.32,0,1,0,0-4.63h-23a6,6,0,1,0-5.58,8.37Zm-1.42-6.05a1.42,1.42,0,1,1,1.42,1.42A1.42,1.42,0,0,1,66.13,293.41Z"/><path class="cls-7" d="M92.44,313.5a6.05,6.05,0,0,0-5.59,3.73h-23a2.32,2.32,0,1,0,0,4.64h23a6,6,0,1,0,5.59-8.37Zm1.42,6a1.42,1.42,0,1,1-1.42-1.42A1.42,1.42,0,0,1,93.86,319.54Z"/><path class="cls-7" d="M96.17,304.16H85.9a6.18,6.18,0,0,0-11.57,0H63.81a2.32,2.32,0,1,0,0,4.63H74.45a6.18,6.18,0,0,0,11.35,0H96.17a2.32,2.32,0,1,0,0-4.63Zm-14.51,2.19a1.54,1.54,0,1,1-1.54-1.54A1.55,1.55,0,0,1,81.67,306.35Z"/></g></g></g></svg>