<svg width="320" height="48" viewBox="0 0 320 48" fill="none" xmlns="http://www.w3.org/2000/svg">
<rect x="0.5" y="0.5" width="319" height="47" rx="23.5" fill="#141518"/>
<rect x="0.5" y="0.5" width="319" height="47" rx="23.5" stroke="#141518"/>
<path d="M117.702 22.2898H115.577C115.516 21.9413 115.404 21.6326 115.241 21.3636C115.079 21.0909 114.876 20.8598 114.634 20.6705C114.391 20.4811 114.115 20.339 113.804 20.2443C113.497 20.1458 113.166 20.0966 112.81 20.0966C112.177 20.0966 111.616 20.2557 111.128 20.5739C110.639 20.8883 110.257 21.3504 109.98 21.9602C109.704 22.5663 109.565 23.3068 109.565 24.1818C109.565 25.072 109.704 25.822 109.98 26.4318C110.26 27.0379 110.643 27.4962 111.128 27.8068C111.616 28.1136 112.175 28.267 112.804 28.267C113.152 28.267 113.478 28.2216 113.781 28.1307C114.088 28.036 114.363 27.8977 114.605 27.7159C114.851 27.5341 115.058 27.3106 115.224 27.0455C115.395 26.7803 115.512 26.4773 115.577 26.1364L117.702 26.1477C117.622 26.7008 117.45 27.2197 117.185 27.7045C116.923 28.1894 116.58 28.6174 116.156 28.9886C115.732 29.3561 115.236 29.6439 114.668 29.8523C114.099 30.0568 113.469 30.1591 112.776 30.1591C111.753 30.1591 110.84 29.9223 110.037 29.4489C109.234 28.9754 108.601 28.2917 108.139 27.3977C107.677 26.5038 107.446 25.4318 107.446 24.1818C107.446 22.928 107.679 21.8561 108.145 20.9659C108.611 20.072 109.245 19.3883 110.048 18.9148C110.851 18.4413 111.76 18.2045 112.776 18.2045C113.423 18.2045 114.026 18.2955 114.582 18.4773C115.139 18.6591 115.635 18.9261 116.071 19.2784C116.507 19.6269 116.865 20.0549 117.145 20.5625C117.429 21.0663 117.615 21.642 117.702 22.2898ZM123.348 30.1705C122.496 30.1705 121.757 29.983 121.132 29.608C120.507 29.233 120.022 28.7083 119.678 28.0341C119.337 27.3598 119.166 26.572 119.166 25.6705C119.166 24.7689 119.337 23.9792 119.678 23.3011C120.022 22.6231 120.507 22.0966 121.132 21.7216C121.757 21.3466 122.496 21.1591 123.348 21.1591C124.2 21.1591 124.939 21.3466 125.564 21.7216C126.189 22.0966 126.672 22.6231 127.013 23.3011C127.357 23.9792 127.53 24.7689 127.53 25.6705C127.53 26.572 127.357 27.3598 127.013 28.0341C126.672 28.7083 126.189 29.233 125.564 29.608C124.939 29.983 124.2 30.1705 123.348 30.1705ZM123.359 28.5227C123.821 28.5227 124.208 28.3958 124.518 28.142C124.829 27.8845 125.06 27.5398 125.212 27.108C125.367 26.6761 125.445 26.1951 125.445 25.6648C125.445 25.1307 125.367 24.6477 125.212 24.2159C125.06 23.7803 124.829 23.4337 124.518 23.1761C124.208 22.9186 123.821 22.7898 123.359 22.7898C122.886 22.7898 122.492 22.9186 122.178 23.1761C121.867 23.4337 121.634 23.7803 121.479 24.2159C121.327 24.6477 121.251 25.1307 121.251 25.6648C121.251 26.1951 121.327 26.6761 121.479 27.108C121.634 27.5398 121.867 27.8845 122.178 28.142C122.492 28.3958 122.886 28.5227 123.359 28.5227ZM129.276 30V21.2727H131.241V22.7557H131.344C131.526 22.2557 131.827 21.8655 132.247 21.5852C132.668 21.3011 133.17 21.1591 133.753 21.1591C134.344 21.1591 134.842 21.303 135.247 21.5909C135.656 21.875 135.944 22.2633 136.111 22.7557H136.202C136.395 22.2708 136.721 21.8845 137.179 21.5966C137.641 21.3049 138.188 21.1591 138.821 21.1591C139.624 21.1591 140.279 21.4129 140.787 21.9205C141.295 22.428 141.548 23.1686 141.548 24.142V30H139.486V24.4602C139.486 23.9186 139.342 23.5227 139.054 23.2727C138.766 23.0189 138.414 22.892 137.997 22.892C137.501 22.892 137.113 23.0473 136.832 23.358C136.556 23.6648 136.418 24.0644 136.418 24.5568V30H134.401V24.375C134.401 23.9242 134.264 23.5644 133.991 23.2955C133.723 23.0265 133.37 22.892 132.935 22.892C132.639 22.892 132.37 22.9678 132.128 23.1193C131.885 23.267 131.692 23.4773 131.548 23.75C131.404 24.0189 131.332 24.3333 131.332 24.6932V30H129.276ZM147.499 30.1705C146.624 30.1705 145.868 29.9886 145.232 29.625C144.599 29.2576 144.112 28.7386 143.771 28.0682C143.43 27.3939 143.26 26.6004 143.26 25.6875C143.26 24.7898 143.43 24.0019 143.771 23.3239C144.116 22.642 144.597 22.1117 145.214 21.733C145.832 21.3504 146.557 21.1591 147.391 21.1591C147.929 21.1591 148.436 21.2462 148.913 21.4205C149.394 21.5909 149.819 21.8561 150.186 22.2159C150.557 22.5758 150.849 23.0341 151.061 23.5909C151.273 24.1439 151.379 24.803 151.379 25.5682V26.1989H144.226V24.8125H149.408C149.404 24.4186 149.319 24.0682 149.152 23.7614C148.985 23.4508 148.752 23.2064 148.453 23.0284C148.158 22.8504 147.813 22.7614 147.419 22.7614C146.999 22.7614 146.629 22.8636 146.311 23.0682C145.993 23.2689 145.745 23.5341 145.567 23.8636C145.393 24.1894 145.304 24.5473 145.3 24.9375V26.1477C145.3 26.6553 145.393 27.0909 145.578 27.4545C145.764 27.8144 146.023 28.0909 146.357 28.2841C146.69 28.4735 147.08 28.5682 147.527 28.5682C147.826 28.5682 148.097 28.5265 148.339 28.4432C148.582 28.3561 148.792 28.2292 148.97 28.0625C149.148 27.8958 149.283 27.6894 149.374 27.4432L151.294 27.6591C151.173 28.1667 150.942 28.6098 150.601 28.9886C150.264 29.3636 149.832 29.6553 149.305 29.8636C148.779 30.0682 148.177 30.1705 147.499 30.1705ZM155.176 24.8864V30H153.119V21.2727H155.085V22.7557H155.188C155.388 22.267 155.708 21.8788 156.148 21.5909C156.591 21.303 157.138 21.1591 157.79 21.1591C158.392 21.1591 158.917 21.2879 159.364 21.5455C159.814 21.803 160.163 22.1761 160.409 22.6648C160.659 23.1534 160.782 23.7462 160.778 24.4432V30H158.722V24.7614C158.722 24.178 158.57 23.7216 158.267 23.392C157.968 23.0625 157.553 22.8977 157.023 22.8977C156.663 22.8977 156.343 22.9773 156.062 23.1364C155.786 23.2917 155.568 23.517 155.409 23.8125C155.254 24.108 155.176 24.4659 155.176 24.8864ZM166.676 30.1705C165.805 30.1705 165.057 29.9792 164.432 29.5966C163.811 29.214 163.331 28.6856 162.994 28.0114C162.661 27.3333 162.494 26.553 162.494 25.6705C162.494 24.7841 162.665 24.0019 163.006 23.3239C163.347 22.642 163.828 22.1117 164.449 21.733C165.074 21.3504 165.813 21.1591 166.665 21.1591C167.373 21.1591 168 21.2898 168.545 21.5511C169.095 21.8087 169.532 22.1742 169.858 22.6477C170.184 23.1174 170.369 23.6667 170.415 24.2955H168.449C168.369 23.875 168.18 23.5246 167.881 23.2443C167.585 22.9602 167.189 22.8182 166.693 22.8182C166.273 22.8182 165.903 22.9318 165.585 23.1591C165.267 23.3826 165.019 23.7045 164.841 24.125C164.667 24.5455 164.58 25.0492 164.58 25.6364C164.58 26.2311 164.667 26.7424 164.841 27.1705C165.015 27.5947 165.259 27.9223 165.574 28.1534C165.892 28.3807 166.265 28.4943 166.693 28.4943C166.996 28.4943 167.267 28.4375 167.506 28.3239C167.748 28.2064 167.951 28.0379 168.114 27.8182C168.277 27.5985 168.388 27.3314 168.449 27.017H170.415C170.366 27.6345 170.184 28.1818 169.869 28.6591C169.555 29.1326 169.127 29.5038 168.585 29.7727C168.044 30.0379 167.407 30.1705 166.676 30.1705ZM175.967 30.1705C175.092 30.1705 174.337 29.9886 173.7 29.625C173.068 29.2576 172.581 28.7386 172.24 28.0682C171.899 27.3939 171.729 26.6004 171.729 25.6875C171.729 24.7898 171.899 24.0019 172.24 23.3239C172.585 22.642 173.066 22.1117 173.683 21.733C174.301 21.3504 175.026 21.1591 175.859 21.1591C176.397 21.1591 176.905 21.2462 177.382 21.4205C177.863 21.5909 178.287 21.8561 178.655 22.2159C179.026 22.5758 179.318 23.0341 179.53 23.5909C179.742 24.1439 179.848 24.803 179.848 25.5682V26.1989H172.695V24.8125H177.876C177.873 24.4186 177.787 24.0682 177.621 23.7614C177.454 23.4508 177.221 23.2064 176.922 23.0284C176.626 22.8504 176.282 22.7614 175.888 22.7614C175.467 22.7614 175.098 22.8636 174.78 23.0682C174.462 23.2689 174.214 23.5341 174.036 23.8636C173.861 24.1894 173.772 24.5473 173.768 24.9375V26.1477C173.768 26.6553 173.861 27.0909 174.047 27.4545C174.232 27.8144 174.492 28.0909 174.825 28.2841C175.159 28.4735 175.549 28.5682 175.996 28.5682C176.295 28.5682 176.566 28.5265 176.808 28.4432C177.051 28.3561 177.261 28.2292 177.439 28.0625C177.617 27.8958 177.751 27.6894 177.842 27.4432L179.763 27.6591C179.642 28.1667 179.411 28.6098 179.07 28.9886C178.732 29.3636 178.301 29.6553 177.774 29.8636C177.248 30.0682 176.645 30.1705 175.967 30.1705ZM181.588 30V21.2727H183.554V22.7557H183.656C183.838 22.2557 184.139 21.8655 184.56 21.5852C184.98 21.3011 185.482 21.1591 186.065 21.1591C186.656 21.1591 187.154 21.303 187.56 21.5909C187.969 21.875 188.257 22.2633 188.423 22.7557H188.514C188.707 22.2708 189.033 21.8845 189.491 21.5966C189.954 21.3049 190.501 21.1591 191.134 21.1591C191.937 21.1591 192.592 21.4129 193.099 21.9205C193.607 22.428 193.861 23.1686 193.861 24.142V30H191.798V24.4602C191.798 23.9186 191.654 23.5227 191.366 23.2727C191.079 23.0189 190.726 22.892 190.31 22.892C189.813 22.892 189.425 23.0473 189.145 23.358C188.868 23.6648 188.73 24.0644 188.73 24.5568V30H186.713V24.375C186.713 23.9242 186.577 23.5644 186.304 23.2955C186.035 23.0265 185.683 22.892 185.247 22.892C184.952 22.892 184.683 22.9678 184.44 23.1193C184.198 23.267 184.005 23.4773 183.861 23.75C183.717 24.0189 183.645 24.3333 183.645 24.6932V30H181.588ZM199.754 30.1705C198.902 30.1705 198.163 29.983 197.538 29.608C196.913 29.233 196.429 28.7083 196.084 28.0341C195.743 27.3598 195.572 26.572 195.572 25.6705C195.572 24.7689 195.743 23.9792 196.084 23.3011C196.429 22.6231 196.913 22.0966 197.538 21.7216C198.163 21.3466 198.902 21.1591 199.754 21.1591C200.607 21.1591 201.345 21.3466 201.97 21.7216C202.595 22.0966 203.078 22.6231 203.419 23.3011C203.764 23.9792 203.936 24.7689 203.936 25.6705C203.936 26.572 203.764 27.3598 203.419 28.0341C203.078 28.7083 202.595 29.233 201.97 29.608C201.345 29.983 200.607 30.1705 199.754 30.1705ZM199.766 28.5227C200.228 28.5227 200.614 28.3958 200.925 28.142C201.235 27.8845 201.466 27.5398 201.618 27.108C201.773 26.6761 201.851 26.1951 201.851 25.6648C201.851 25.1307 201.773 24.6477 201.618 24.2159C201.466 23.7803 201.235 23.4337 200.925 23.1761C200.614 22.9186 200.228 22.7898 199.766 22.7898C199.292 22.7898 198.898 22.9186 198.584 23.1761C198.273 23.4337 198.04 23.7803 197.885 24.2159C197.733 24.6477 197.658 25.1307 197.658 25.6648C197.658 26.1951 197.733 26.6761 197.885 27.108C198.04 27.5398 198.273 27.8845 198.584 28.142C198.898 28.3958 199.292 28.5227 199.766 28.5227ZM212.58 23.5795L210.705 23.7841C210.652 23.5947 210.559 23.4167 210.426 23.25C210.297 23.0833 210.123 22.9489 209.903 22.8466C209.684 22.7443 209.415 22.6932 209.097 22.6932C208.669 22.6932 208.309 22.786 208.017 22.9716C207.729 23.1572 207.587 23.3977 207.591 23.6932C207.587 23.947 207.68 24.1534 207.869 24.3125C208.063 24.4716 208.381 24.6023 208.824 24.7045L210.312 25.0227C211.138 25.2008 211.752 25.483 212.153 25.8693C212.559 26.2557 212.763 26.7614 212.767 27.3864C212.763 27.9356 212.602 28.4205 212.284 28.8409C211.97 29.2576 211.532 29.5833 210.972 29.8182C210.411 30.053 209.767 30.1705 209.04 30.1705C207.972 30.1705 207.112 29.947 206.46 29.5C205.809 29.0492 205.42 28.4223 205.295 27.6193L207.301 27.4261C207.392 27.8201 207.585 28.1174 207.881 28.3182C208.176 28.5189 208.561 28.6193 209.034 28.6193C209.523 28.6193 209.915 28.5189 210.21 28.3182C210.509 28.1174 210.659 27.8693 210.659 27.5739C210.659 27.3239 210.563 27.1174 210.369 26.9545C210.18 26.7917 209.884 26.6667 209.483 26.5795L207.994 26.267C207.157 26.0928 206.538 25.7992 206.136 25.3864C205.735 24.9697 205.536 24.4432 205.54 23.8068C205.536 23.2689 205.682 22.803 205.977 22.4091C206.277 22.0114 206.691 21.7045 207.222 21.4886C207.756 21.2689 208.371 21.1591 209.068 21.1591C210.091 21.1591 210.896 21.3769 211.483 21.8125C212.074 22.2481 212.439 22.8371 212.58 23.5795Z" fill="white"/>
</svg>
