<svg width="303" height="383" viewBox="0 0 303 383" fill="none" xmlns="http://www.w3.org/2000/svg">
<path d="M33.171 316.34C34.231 316.34 35.171 316.557 35.991 316.99C36.811 317.417 37.471 317.997 37.971 318.73C38.4777 319.463 38.7777 320.28 38.871 321.18H36.301C36.201 320.647 36.0143 320.17 35.741 319.75C35.4743 319.33 35.121 318.997 34.681 318.75C34.241 318.503 33.7143 318.38 33.101 318.38C32.3343 318.38 31.681 318.563 31.141 318.93C30.6077 319.29 30.1977 319.863 29.911 320.65C29.631 321.437 29.491 322.457 29.491 323.71C29.491 325.61 29.8043 326.993 30.431 327.86C31.0577 328.727 31.9477 329.16 33.101 329.16C33.7143 329.16 34.241 329.027 34.681 328.76C35.121 328.487 35.4743 328.127 35.741 327.68C36.0143 327.227 36.201 326.733 36.301 326.2H38.871C38.791 326.853 38.6243 327.48 38.371 328.08C38.1243 328.68 37.7743 329.217 37.321 329.69C36.8677 330.157 36.2977 330.527 35.611 330.8C34.931 331.067 34.1177 331.2 33.171 331.2C31.8443 331.2 30.7043 330.897 29.751 330.29C28.8043 329.677 28.0743 328.81 27.561 327.69C27.0543 326.563 26.801 325.227 26.801 323.68C26.801 322.14 27.0543 320.823 27.561 319.73C28.0677 318.637 28.7943 317.8 29.741 317.22C30.6943 316.633 31.8377 316.34 33.171 316.34ZM45.5626 331.2C44.5759 331.2 43.7159 330.99 42.9826 330.57C42.2492 330.143 41.6792 329.533 41.2726 328.74C40.8726 327.947 40.6726 326.993 40.6726 325.88C40.6726 324.8 40.8659 323.853 41.2526 323.04C41.6459 322.227 42.2092 321.593 42.9426 321.14C43.6759 320.687 44.5526 320.46 45.5726 320.46C46.5592 320.46 47.4159 320.677 48.1426 321.11C48.8692 321.543 49.4292 322.163 49.8226 322.97C50.2226 323.777 50.4226 324.747 50.4226 325.88C50.4226 326.927 50.2326 327.85 49.8526 328.65C49.4792 329.443 48.9292 330.067 48.2026 330.52C47.4826 330.973 46.6026 331.2 45.5626 331.2ZM45.5726 329.35C46.1326 329.35 46.5926 329.197 46.9526 328.89C47.3192 328.583 47.5892 328.163 47.7626 327.63C47.9426 327.097 48.0326 326.49 48.0326 325.81C48.0326 325.177 47.9526 324.593 47.7926 324.06C47.6392 323.527 47.3792 323.1 47.0126 322.78C46.6526 322.453 46.1726 322.29 45.5726 322.29C45.0059 322.29 44.5359 322.44 44.1626 322.74C43.7959 323.033 43.5192 323.447 43.3326 323.98C43.1526 324.507 43.0626 325.117 43.0626 325.81C43.0626 326.437 43.1426 327.02 43.3026 327.56C43.4692 328.093 43.7359 328.527 44.1026 328.86C44.4692 329.187 44.9592 329.35 45.5726 329.35ZM52.5812 331V320.66H54.9612V322.14C55.1212 321.873 55.3378 321.617 55.6112 321.37C55.8912 321.123 56.2345 320.923 56.6412 320.77C57.0478 320.617 57.5245 320.54 58.0712 320.54C58.7112 320.54 59.3045 320.667 59.8512 320.92C60.4045 321.173 60.8478 321.57 61.1812 322.11C61.5212 322.65 61.6912 323.347 61.6912 324.2V331H59.2512V324.49C59.2512 323.81 59.0645 323.307 58.6912 322.98C58.3178 322.647 57.8478 322.48 57.2812 322.48C56.8945 322.48 56.5278 322.547 56.1812 322.68C55.8345 322.807 55.5512 323.003 55.3312 323.27C55.1178 323.53 55.0112 323.857 55.0112 324.25V331H52.5812ZM74.284 331.2C73.584 331.2 72.9007 331.113 72.234 330.94C71.5673 330.76 70.9607 330.497 70.414 330.15C69.874 329.797 69.424 329.36 69.064 328.84C68.704 328.313 68.484 327.7 68.404 327H70.924C71.0307 327.487 71.2407 327.897 71.554 328.23C71.8673 328.563 72.2573 328.817 72.724 328.99C73.1973 329.163 73.714 329.25 74.274 329.25C74.874 329.25 75.414 329.17 75.894 329.01C76.3807 328.85 76.764 328.617 77.044 328.31C77.3307 328.003 77.474 327.627 77.474 327.18C77.474 326.787 77.3707 326.453 77.164 326.18C76.9573 325.907 76.6673 325.683 76.294 325.51C75.9273 325.33 75.4973 325.187 75.004 325.08L72.344 324.5C71.2707 324.28 70.4207 323.853 69.794 323.22C69.1673 322.587 68.8473 321.743 68.834 320.69C68.8273 319.817 69.0573 319.057 69.524 318.41C69.9973 317.757 70.6407 317.253 71.454 316.9C72.2673 316.54 73.1873 316.36 74.214 316.36C75.414 316.36 76.424 316.557 77.244 316.95C78.0707 317.337 78.694 317.857 79.114 318.51C79.5407 319.163 79.7573 319.88 79.764 320.66H77.304C77.244 320.087 77.0707 319.63 76.784 319.29C76.504 318.95 76.144 318.707 75.704 318.56C75.264 318.413 74.7773 318.34 74.244 318.34C73.844 318.34 73.4707 318.387 73.124 318.48C72.7773 318.573 72.474 318.71 72.214 318.89C71.954 319.07 71.7507 319.29 71.604 319.55C71.464 319.803 71.394 320.093 71.394 320.42C71.394 320.887 71.5473 321.267 71.854 321.56C72.1673 321.847 72.7507 322.09 73.604 322.29L76.204 322.87C77.0107 323.03 77.6607 323.27 78.154 323.59C78.6473 323.91 79.024 324.277 79.284 324.69C79.544 325.097 79.7173 325.513 79.804 325.94C79.8907 326.367 79.934 326.773 79.934 327.16C79.934 327.913 79.7007 328.597 79.234 329.21C78.774 329.823 78.1207 330.31 77.274 330.67C76.434 331.023 75.4373 331.2 74.284 331.2ZM84.2568 326.39C84.2501 326.977 84.3435 327.497 84.5368 327.95C84.7301 328.403 85.0168 328.76 85.3968 329.02C85.7768 329.273 86.2468 329.4 86.8068 329.4C87.3801 329.4 87.8768 329.273 88.2968 329.02C88.7235 328.76 89.0068 328.367 89.1468 327.84H91.3768C91.2568 328.56 90.9701 329.17 90.5168 329.67C90.0635 330.17 89.5135 330.55 88.8668 330.81C88.2268 331.07 87.5601 331.2 86.8668 331.2C85.8668 331.2 84.9868 330.99 84.2268 330.57C83.4735 330.143 82.8835 329.537 82.4568 328.75C82.0368 327.963 81.8268 327.027 81.8268 325.94C81.8268 324.88 82.0201 323.94 82.4068 323.12C82.7935 322.293 83.3501 321.643 84.0768 321.17C84.8101 320.697 85.6901 320.46 86.7168 320.46C87.7368 320.46 88.5935 320.677 89.2868 321.11C89.9868 321.543 90.5135 322.15 90.8668 322.93C91.2268 323.703 91.4068 324.61 91.4068 325.65V326.39H84.2568ZM84.2568 324.88H89.1068C89.1068 324.38 89.0201 323.93 88.8468 323.53C88.6735 323.123 88.4068 322.803 88.0468 322.57C87.6935 322.33 87.2468 322.21 86.7068 322.21C86.1735 322.21 85.7235 322.34 85.3568 322.6C84.9901 322.86 84.7135 323.197 84.5268 323.61C84.3401 324.017 84.2501 324.44 84.2568 324.88ZM93.6749 331V320.66H96.0049V322.9C96.1716 322.387 96.4083 321.95 96.7149 321.59C97.0283 321.223 97.3949 320.943 97.8149 320.75C98.2349 320.557 98.6916 320.46 99.1849 320.46C99.3049 320.46 99.4216 320.467 99.5349 320.48C99.6483 320.493 99.7316 320.517 99.7849 320.55V322.88C99.7116 322.847 99.6149 322.823 99.4949 322.81C99.3816 322.797 99.2816 322.79 99.1949 322.79C98.6949 322.75 98.2516 322.77 97.8649 322.85C97.4849 322.93 97.1616 323.067 96.8949 323.26C96.6349 323.447 96.4383 323.687 96.3049 323.98C96.1716 324.267 96.1049 324.603 96.1049 324.99V331H93.6749ZM110.613 320.66L106.803 331H104.883L101.063 320.66H103.293L105.773 327.9H105.903L108.373 320.66H110.613ZM114.857 320.66V331H112.517V320.66H114.857ZM114.887 316.55V318.85H112.477V316.55H114.887ZM122.086 320.46C122.893 320.46 123.603 320.62 124.216 320.94C124.829 321.26 125.319 321.703 125.686 322.27C126.059 322.837 126.283 323.48 126.356 324.2H124.276C124.229 323.887 124.116 323.59 123.936 323.31C123.756 323.023 123.513 322.793 123.206 322.62C122.899 322.44 122.529 322.35 122.096 322.35C121.323 322.35 120.693 322.637 120.206 323.21C119.726 323.783 119.486 324.663 119.486 325.85C119.486 326.943 119.716 327.813 120.176 328.46C120.636 329.107 121.293 329.43 122.146 329.43C122.573 329.43 122.936 329.337 123.236 329.15C123.543 328.957 123.783 328.72 123.956 328.44C124.136 328.153 124.253 327.867 124.306 327.58H126.326C126.266 328.28 126.046 328.903 125.666 329.45C125.293 329.997 124.799 330.427 124.186 330.74C123.579 331.047 122.879 331.2 122.086 331.2C121.139 331.2 120.296 330.993 119.556 330.58C118.823 330.16 118.246 329.553 117.826 328.76C117.406 327.96 117.196 326.997 117.196 325.87C117.196 324.797 117.393 323.857 117.786 323.05C118.179 322.237 118.743 321.603 119.476 321.15C120.209 320.69 121.079 320.46 122.086 320.46ZM130.507 326.39C130.5 326.977 130.593 327.497 130.787 327.95C130.98 328.403 131.267 328.76 131.647 329.02C132.027 329.273 132.497 329.4 133.057 329.4C133.63 329.4 134.127 329.273 134.547 329.02C134.973 328.76 135.257 328.367 135.397 327.84H137.627C137.507 328.56 137.22 329.17 136.767 329.67C136.313 330.17 135.763 330.55 135.117 330.81C134.477 331.07 133.81 331.2 133.117 331.2C132.117 331.2 131.237 330.99 130.477 330.57C129.723 330.143 129.133 329.537 128.707 328.75C128.287 327.963 128.077 327.027 128.077 325.94C128.077 324.88 128.27 323.94 128.657 323.12C129.043 322.293 129.6 321.643 130.327 321.17C131.06 320.697 131.94 320.46 132.967 320.46C133.987 320.46 134.843 320.677 135.537 321.11C136.237 321.543 136.763 322.15 137.117 322.93C137.477 323.703 137.657 324.61 137.657 325.65V326.39H130.507ZM130.507 324.88H135.357C135.357 324.38 135.27 323.93 135.097 323.53C134.923 323.123 134.657 322.803 134.297 322.57C133.943 322.33 133.497 322.21 132.957 322.21C132.423 322.21 131.973 322.34 131.607 322.6C131.24 322.86 130.963 323.197 130.777 323.61C130.59 324.017 130.5 324.44 130.507 324.88ZM139.725 331V329.7V329.03C139.725 328.29 139.862 327.653 140.135 327.12C140.408 326.58 140.772 326.11 141.225 325.71C141.678 325.31 142.175 324.957 142.715 324.65C143.262 324.337 143.802 324.043 144.335 323.77C144.875 323.49 145.372 323.203 145.825 322.91C146.278 322.61 146.642 322.277 146.915 321.91C147.195 321.543 147.335 321.107 147.335 320.6C147.335 319.953 147.105 319.427 146.645 319.02C146.192 318.607 145.575 318.4 144.795 318.4C143.968 318.4 143.285 318.637 142.745 319.11C142.212 319.583 141.895 320.25 141.795 321.11H139.435C139.448 320.23 139.658 319.43 140.065 318.71C140.472 317.99 141.075 317.417 141.875 316.99C142.675 316.557 143.672 316.34 144.865 316.34C145.898 316.34 146.788 316.52 147.535 316.88C148.288 317.233 148.868 317.73 149.275 318.37C149.688 319.003 149.895 319.743 149.895 320.59C149.895 321.33 149.758 321.963 149.485 322.49C149.218 323.017 148.862 323.473 148.415 323.86C147.975 324.24 147.488 324.577 146.955 324.87C146.428 325.163 145.898 325.44 145.365 325.7C144.838 325.953 144.352 326.22 143.905 326.5C143.465 326.773 143.108 327.087 142.835 327.44C142.568 327.793 142.435 328.217 142.435 328.71V328.92H149.925V331H139.725ZM158.439 316.54H160.859V325.5H163.169V327.57H160.859V331H158.499L158.509 327.57H151.779V325.5L158.439 316.54ZM154.059 325.5H158.489V319.56L154.059 325.5ZM177.976 320.66L174.166 331H172.246L168.426 320.66H170.656L173.136 327.9H173.266L175.736 320.66H177.976ZM182.23 331.2C181.57 331.2 180.977 331.08 180.45 330.84C179.93 330.593 179.52 330.243 179.22 329.79C178.927 329.33 178.78 328.773 178.78 328.12C178.78 326.98 179.19 326.12 180.01 325.54C180.837 324.96 182.153 324.657 183.96 324.63L185.5 324.59V323.89C185.5 323.343 185.337 322.917 185.01 322.61C184.69 322.297 184.19 322.143 183.51 322.15C183.01 322.157 182.55 322.277 182.13 322.51C181.717 322.737 181.443 323.12 181.31 323.66H179.24C179.28 322.953 179.483 322.363 179.85 321.89C180.223 321.41 180.733 321.053 181.38 320.82C182.027 320.58 182.773 320.46 183.62 320.46C184.607 320.46 185.41 320.59 186.03 320.85C186.65 321.11 187.107 321.487 187.4 321.98C187.693 322.467 187.84 323.057 187.84 323.75V331H185.79L185.6 329.14C185.227 329.92 184.753 330.46 184.18 330.76C183.613 331.053 182.963 331.2 182.23 331.2ZM183.02 329.55C183.32 329.55 183.617 329.497 183.91 329.39C184.203 329.277 184.47 329.127 184.71 328.94C184.95 328.747 185.14 328.533 185.28 328.3C185.427 328.067 185.5 327.823 185.5 327.57V325.94L184.23 325.96C183.603 325.967 183.057 326.033 182.59 326.16C182.123 326.287 181.757 326.49 181.49 326.77C181.23 327.043 181.1 327.41 181.1 327.87C181.1 328.397 181.283 328.81 181.65 329.11C182.017 329.403 182.473 329.55 183.02 329.55ZM194.42 331.2C193.7 331.2 193.017 331.087 192.37 330.86C191.73 330.627 191.19 330.263 190.75 329.77C190.317 329.277 190.044 328.64 189.93 327.86H192.07C192.164 328.24 192.327 328.55 192.56 328.79C192.8 329.03 193.084 329.207 193.41 329.32C193.737 329.427 194.07 329.48 194.41 329.48C195.03 329.48 195.53 329.373 195.91 329.16C196.297 328.947 196.49 328.617 196.49 328.17C196.49 327.843 196.384 327.583 196.17 327.39C195.957 327.197 195.617 327.05 195.15 326.95L193.18 326.5C192.307 326.307 191.604 325.987 191.07 325.54C190.544 325.093 190.277 324.463 190.27 323.65C190.264 323.037 190.417 322.49 190.73 322.01C191.044 321.53 191.51 321.153 192.13 320.88C192.75 320.6 193.517 320.46 194.43 320.46C195.637 320.46 196.604 320.73 197.33 321.27C198.057 321.803 198.43 322.567 198.45 323.56H196.38C196.307 323.113 196.097 322.767 195.75 322.52C195.404 322.267 194.954 322.14 194.4 322.14C193.827 322.14 193.357 322.25 192.99 322.47C192.624 322.69 192.44 323.027 192.44 323.48C192.44 323.793 192.58 324.04 192.86 324.22C193.14 324.4 193.56 324.553 194.12 324.68L195.98 325.13C196.514 325.263 196.95 325.443 197.29 325.67C197.63 325.897 197.897 326.147 198.09 326.42C198.284 326.687 198.417 326.963 198.49 327.25C198.57 327.53 198.61 327.79 198.61 328.03C198.61 328.697 198.437 329.267 198.09 329.74C197.75 330.207 197.267 330.567 196.64 330.82C196.014 331.073 195.274 331.2 194.42 331.2ZM208.128 331.2C207.468 331.2 206.875 331.08 206.348 330.84C205.828 330.593 205.418 330.243 205.118 329.79C204.825 329.33 204.678 328.773 204.678 328.12C204.678 326.98 205.088 326.12 205.908 325.54C206.735 324.96 208.052 324.657 209.858 324.63L211.398 324.59V323.89C211.398 323.343 211.235 322.917 210.908 322.61C210.588 322.297 210.088 322.143 209.408 322.15C208.908 322.157 208.448 322.277 208.028 322.51C207.615 322.737 207.342 323.12 207.208 323.66H205.138C205.178 322.953 205.382 322.363 205.748 321.89C206.122 321.41 206.632 321.053 207.278 320.82C207.925 320.58 208.672 320.46 209.518 320.46C210.505 320.46 211.308 320.59 211.928 320.85C212.548 321.11 213.005 321.487 213.298 321.98C213.592 322.467 213.738 323.057 213.738 323.75V331H211.688L211.498 329.14C211.125 329.92 210.652 330.46 210.078 330.76C209.512 331.053 208.862 331.2 208.128 331.2ZM208.918 329.55C209.218 329.55 209.515 329.497 209.808 329.39C210.102 329.277 210.368 329.127 210.608 328.94C210.848 328.747 211.038 328.533 211.178 328.3C211.325 328.067 211.398 327.823 211.398 327.57V325.94L210.128 325.96C209.502 325.967 208.955 326.033 208.488 326.16C208.022 326.287 207.655 326.49 207.388 326.77C207.128 327.043 206.998 327.41 206.998 327.87C206.998 328.397 207.182 328.81 207.548 329.11C207.915 329.403 208.372 329.55 208.918 329.55ZM220.999 334.22V320.66H223.429L223.449 322.29C223.582 322.063 223.752 321.84 223.959 321.62C224.172 321.4 224.416 321.203 224.689 321.03C224.969 320.857 225.279 320.72 225.619 320.62C225.959 320.513 226.332 320.46 226.739 320.46C227.532 320.46 228.236 320.65 228.849 321.03C229.462 321.403 229.942 321.98 230.289 322.76C230.642 323.54 230.819 324.527 230.819 325.72C230.819 326.94 230.639 327.957 230.279 328.77C229.919 329.583 229.416 330.193 228.769 330.6C228.122 331 227.372 331.2 226.519 331.2C226.126 331.2 225.766 331.147 225.439 331.04C225.119 330.933 224.832 330.787 224.579 330.6C224.326 330.413 224.102 330.21 223.909 329.99C223.722 329.77 223.566 329.54 223.439 329.3V334.22H220.999ZM225.979 329.38C226.712 329.38 227.319 329.09 227.799 328.51C228.279 327.923 228.519 327.007 228.519 325.76C228.519 324.68 228.292 323.83 227.839 323.21C227.392 322.583 226.772 322.27 225.979 322.27C225.126 322.27 224.486 322.6 224.059 323.26C223.632 323.913 223.419 324.747 223.419 325.76C223.419 326.413 223.512 327.017 223.699 327.57C223.892 328.117 224.176 328.557 224.549 328.89C224.929 329.217 225.406 329.38 225.979 329.38ZM237.262 331.2C236.275 331.2 235.415 330.99 234.682 330.57C233.948 330.143 233.378 329.533 232.972 328.74C232.572 327.947 232.372 326.993 232.372 325.88C232.372 324.8 232.565 323.853 232.952 323.04C233.345 322.227 233.908 321.593 234.642 321.14C235.375 320.687 236.252 320.46 237.272 320.46C238.258 320.46 239.115 320.677 239.842 321.11C240.568 321.543 241.128 322.163 241.522 322.97C241.922 323.777 242.122 324.747 242.122 325.88C242.122 326.927 241.932 327.85 241.552 328.65C241.178 329.443 240.628 330.067 239.902 330.52C239.182 330.973 238.302 331.2 237.262 331.2ZM237.272 329.35C237.832 329.35 238.292 329.197 238.652 328.89C239.018 328.583 239.288 328.163 239.462 327.63C239.642 327.097 239.732 326.49 239.732 325.81C239.732 325.177 239.652 324.593 239.492 324.06C239.338 323.527 239.078 323.1 238.712 322.78C238.352 322.453 237.872 322.29 237.272 322.29C236.705 322.29 236.235 322.44 235.862 322.74C235.495 323.033 235.218 323.447 235.032 323.98C234.852 324.507 234.762 325.117 234.762 325.81C234.762 326.437 234.842 327.02 235.002 327.56C235.168 328.093 235.435 328.527 235.802 328.86C236.168 329.187 236.658 329.35 237.272 329.35ZM248.07 331.2C246.704 331.2 245.63 330.73 244.85 329.79C244.07 328.85 243.68 327.513 243.68 325.78C243.68 324.7 243.837 323.763 244.15 322.97C244.47 322.17 244.937 321.553 245.55 321.12C246.17 320.68 246.937 320.46 247.85 320.46C248.277 320.46 248.664 320.513 249.01 320.62C249.364 320.72 249.677 320.853 249.95 321.02C250.224 321.187 250.454 321.37 250.64 321.57C250.834 321.77 250.984 321.97 251.09 322.17V316.14H253.53V331H251.73L251.46 328.88C251.38 329.127 251.26 329.387 251.1 329.66C250.947 329.927 250.737 330.177 250.47 330.41C250.21 330.643 249.884 330.833 249.49 330.98C249.097 331.127 248.624 331.2 248.07 331.2ZM248.57 329.41C249.444 329.41 250.08 329.127 250.48 328.56C250.887 327.987 251.09 327.04 251.09 325.72C251.084 324.967 250.99 324.333 250.81 323.82C250.637 323.307 250.367 322.92 250 322.66C249.64 322.4 249.174 322.27 248.6 322.27C247.867 322.27 247.264 322.54 246.79 323.08C246.317 323.62 246.08 324.5 246.08 325.72C246.08 326.933 246.297 327.853 246.73 328.48C247.164 329.1 247.777 329.41 248.57 329.41ZM258.202 326.39C258.195 326.977 258.289 327.497 258.482 327.95C258.675 328.403 258.962 328.76 259.342 329.02C259.722 329.273 260.192 329.4 260.752 329.4C261.325 329.4 261.822 329.273 262.242 329.02C262.669 328.76 262.952 328.367 263.092 327.84H265.322C265.202 328.56 264.915 329.17 264.462 329.67C264.009 330.17 263.459 330.55 262.812 330.81C262.172 331.07 261.505 331.2 260.812 331.2C259.812 331.2 258.932 330.99 258.172 330.57C257.419 330.143 256.829 329.537 256.402 328.75C255.982 327.963 255.772 327.027 255.772 325.94C255.772 324.88 255.965 323.94 256.352 323.12C256.739 322.293 257.295 321.643 258.022 321.17C258.755 320.697 259.635 320.46 260.662 320.46C261.682 320.46 262.539 320.677 263.232 321.11C263.932 321.543 264.459 322.15 264.812 322.93C265.172 323.703 265.352 324.61 265.352 325.65V326.39H258.202ZM258.202 324.88H263.052C263.052 324.38 262.965 323.93 262.792 323.53C262.619 323.123 262.352 322.803 261.992 322.57C261.639 322.33 261.192 322.21 260.652 322.21C260.119 322.21 259.669 322.34 259.302 322.6C258.935 322.86 258.659 323.197 258.472 323.61C258.285 324.017 258.195 324.44 258.202 324.88ZM267.62 331V320.66H269.95V322.9C270.117 322.387 270.354 321.95 270.66 321.59C270.974 321.223 271.34 320.943 271.76 320.75C272.18 320.557 272.637 320.46 273.13 320.46C273.25 320.46 273.367 320.467 273.48 320.48C273.594 320.493 273.677 320.517 273.73 320.55V322.88C273.657 322.847 273.56 322.823 273.44 322.81C273.327 322.797 273.227 322.79 273.14 322.79C272.64 322.75 272.197 322.77 271.81 322.85C271.43 322.93 271.107 323.067 270.84 323.26C270.58 323.447 270.384 323.687 270.25 323.98C270.117 324.267 270.05 324.603 270.05 324.99V331H267.62ZM5.9407 358.42C4.2007 358.42 2.86404 358.187 1.9307 357.72C0.99737 357.253 0.530703 356.613 0.530703 355.8C0.530703 355.433 0.620703 355.127 0.800703 354.88C0.980703 354.633 1.19404 354.43 1.4407 354.27C1.68737 354.11 1.91404 353.987 2.1207 353.9C2.32737 353.813 2.4607 353.75 2.5207 353.71C2.40737 353.643 2.25737 353.557 2.0707 353.45C1.88404 353.343 1.71404 353.197 1.5607 353.01C1.41404 352.823 1.3407 352.58 1.3407 352.28C1.3407 351.933 1.50404 351.613 1.8307 351.32C2.16404 351.027 2.6607 350.817 3.3207 350.69C2.67404 350.377 2.17737 349.953 1.8307 349.42C1.48404 348.887 1.3107 348.333 1.3107 347.76C1.3107 347.08 1.50737 346.497 1.9007 346.01C2.3007 345.523 2.85404 345.15 3.5607 344.89C4.27404 344.63 5.09737 344.5 6.0307 344.5C6.72404 344.5 7.29737 344.577 7.7507 344.73C8.20404 344.883 8.62737 345.09 9.0207 345.35C9.15404 345.297 9.3407 345.223 9.5807 345.13C9.82737 345.03 10.094 344.923 10.3807 344.81C10.6674 344.69 10.9407 344.577 11.2007 344.47C11.4674 344.357 11.694 344.263 11.8807 344.19L11.8607 346.2L10.0707 346.52C10.1574 346.713 10.224 346.923 10.2707 347.15C10.324 347.377 10.3507 347.577 10.3507 347.75C10.3507 348.35 10.1807 348.907 9.8407 349.42C9.50737 349.927 9.00404 350.333 8.3307 350.64C7.66404 350.947 6.8307 351.1 5.8307 351.1C5.7307 351.1 5.59404 351.097 5.4207 351.09C5.24737 351.083 5.10737 351.077 5.0007 351.07C4.4607 351.09 4.0907 351.153 3.8907 351.26C3.6907 351.367 3.5907 351.483 3.5907 351.61C3.5907 351.79 3.7407 351.91 4.0407 351.97C4.3407 352.03 4.8207 352.083 5.4807 352.13C5.71404 352.143 6.0207 352.16 6.4007 352.18C6.7807 352.2 7.20404 352.227 7.6707 352.26C8.8507 352.333 9.74404 352.63 10.3507 353.15C10.9574 353.663 11.2607 354.33 11.2607 355.15C11.2607 356.103 10.8207 356.887 9.9407 357.5C9.0607 358.113 7.72737 358.42 5.9407 358.42ZM6.3507 356.99C7.22404 356.99 7.8707 356.87 8.2907 356.63C8.7107 356.39 8.9207 356.037 8.9207 355.57C8.9207 355.21 8.77737 354.917 8.4907 354.69C8.20404 354.463 7.77737 354.33 7.2107 354.29L4.6007 354.13C4.31404 354.11 4.0407 354.163 3.7807 354.29C3.52737 354.41 3.3207 354.58 3.1607 354.8C3.0007 355.013 2.9207 355.25 2.9207 355.51C2.9207 355.997 3.2007 356.363 3.7607 356.61C4.3207 356.863 5.18404 356.99 6.3507 356.99ZM5.9107 349.67C6.54404 349.67 7.05737 349.51 7.4507 349.19C7.84404 348.863 8.0407 348.403 8.0407 347.81C8.0407 347.197 7.84404 346.72 7.4507 346.38C7.05737 346.033 6.54404 345.86 5.9107 345.86C5.26404 345.86 4.7407 346.033 4.3407 346.38C3.94737 346.727 3.7507 347.203 3.7507 347.81C3.7507 348.383 3.9407 348.837 4.3207 349.17C4.7007 349.503 5.2307 349.67 5.9107 349.67ZM15.4482 350.39C15.4415 350.977 15.5349 351.497 15.7282 351.95C15.9215 352.403 16.2082 352.76 16.5882 353.02C16.9682 353.273 17.4382 353.4 17.9982 353.4C18.5715 353.4 19.0682 353.273 19.4882 353.02C19.9149 352.76 20.1982 352.367 20.3382 351.84H22.5682C22.4482 352.56 22.1615 353.17 21.7082 353.67C21.2549 354.17 20.7049 354.55 20.0582 354.81C19.4182 355.07 18.7515 355.2 18.0582 355.2C17.0582 355.2 16.1782 354.99 15.4182 354.57C14.6649 354.143 14.0749 353.537 13.6482 352.75C13.2282 351.963 13.0182 351.027 13.0182 349.94C13.0182 348.88 13.2115 347.94 13.5982 347.12C13.9849 346.293 14.5415 345.643 15.2682 345.17C16.0015 344.697 16.8815 344.46 17.9082 344.46C18.9282 344.46 19.7849 344.677 20.4782 345.11C21.1782 345.543 21.7049 346.15 22.0582 346.93C22.4182 347.703 22.5982 348.61 22.5982 349.65V350.39H15.4482ZM15.4482 348.88H20.2982C20.2982 348.38 20.2115 347.93 20.0382 347.53C19.8649 347.123 19.5982 346.803 19.2382 346.57C18.8849 346.33 18.4382 346.21 17.8982 346.21C17.3649 346.21 16.9149 346.34 16.5482 346.6C16.1815 346.86 15.9049 347.197 15.7182 347.61C15.5315 348.017 15.4415 348.44 15.4482 348.88ZM28.6977 355.2C27.9777 355.2 27.2944 355.087 26.6477 354.86C26.0077 354.627 25.4677 354.263 25.0277 353.77C24.5944 353.277 24.3211 352.64 24.2077 351.86H26.3477C26.4411 352.24 26.6044 352.55 26.8377 352.79C27.0777 353.03 27.3611 353.207 27.6877 353.32C28.0144 353.427 28.3477 353.48 28.6877 353.48C29.3077 353.48 29.8077 353.373 30.1877 353.16C30.5744 352.947 30.7677 352.617 30.7677 352.17C30.7677 351.843 30.6611 351.583 30.4477 351.39C30.2344 351.197 29.8944 351.05 29.4277 350.95L27.4577 350.5C26.5844 350.307 25.8811 349.987 25.3477 349.54C24.8211 349.093 24.5544 348.463 24.5477 347.65C24.5411 347.037 24.6944 346.49 25.0077 346.01C25.3211 345.53 25.7877 345.153 26.4077 344.88C27.0277 344.6 27.7944 344.46 28.7077 344.46C29.9144 344.46 30.8811 344.73 31.6077 345.27C32.3344 345.803 32.7077 346.567 32.7277 347.56H30.6577C30.5844 347.113 30.3744 346.767 30.0277 346.52C29.6811 346.267 29.2311 346.14 28.6777 346.14C28.1044 346.14 27.6344 346.25 27.2677 346.47C26.9011 346.69 26.7177 347.027 26.7177 347.48C26.7177 347.793 26.8577 348.04 27.1377 348.22C27.4177 348.4 27.8377 348.553 28.3977 348.68L30.2577 349.13C30.7911 349.263 31.2277 349.443 31.5677 349.67C31.9077 349.897 32.1744 350.147 32.3677 350.42C32.5611 350.687 32.6944 350.963 32.7677 351.25C32.8477 351.53 32.8877 351.79 32.8877 352.03C32.8877 352.697 32.7144 353.267 32.3677 353.74C32.0277 354.207 31.5444 354.567 30.9177 354.82C30.2911 355.073 29.5511 355.2 28.6977 355.2ZM40.8245 346.38H38.5145L38.5245 352.31C38.5245 352.617 38.5578 352.843 38.6245 352.99C38.6978 353.13 38.8111 353.223 38.9645 353.27C39.1245 353.31 39.3378 353.33 39.6045 353.33H40.8745V354.87C40.7411 354.923 40.5378 354.97 40.2645 355.01C39.9978 355.057 39.6378 355.08 39.1845 355.08C38.3645 355.08 37.7278 354.973 37.2745 354.76C36.8278 354.54 36.5178 354.23 36.3445 353.83C36.1711 353.43 36.0845 352.953 36.0845 352.4V346.38H34.4045V344.66H36.1545L36.7645 341.59H38.5145V344.65H40.8245V346.38ZM45.7162 344.66V355H43.3762V344.66H45.7162ZM45.7462 340.55V342.85H43.3362V340.55H45.7462ZM52.9454 355.2C51.9587 355.2 51.0987 354.99 50.3654 354.57C49.6321 354.143 49.0621 353.533 48.6554 352.74C48.2554 351.947 48.0554 350.993 48.0554 349.88C48.0554 348.8 48.2487 347.853 48.6354 347.04C49.0287 346.227 49.5921 345.593 50.3254 345.14C51.0587 344.687 51.9354 344.46 52.9554 344.46C53.9421 344.46 54.7987 344.677 55.5254 345.11C56.2521 345.543 56.8121 346.163 57.2054 346.97C57.6054 347.777 57.8054 348.747 57.8054 349.88C57.8054 350.927 57.6154 351.85 57.2354 352.65C56.8621 353.443 56.3121 354.067 55.5854 354.52C54.8654 354.973 53.9854 355.2 52.9454 355.2ZM52.9554 353.35C53.5154 353.35 53.9754 353.197 54.3354 352.89C54.7021 352.583 54.9721 352.163 55.1454 351.63C55.3254 351.097 55.4154 350.49 55.4154 349.81C55.4154 349.177 55.3354 348.593 55.1754 348.06C55.0221 347.527 54.7621 347.1 54.3954 346.78C54.0354 346.453 53.5554 346.29 52.9554 346.29C52.3887 346.29 51.9187 346.44 51.5454 346.74C51.1787 347.033 50.9021 347.447 50.7154 347.98C50.5354 348.507 50.4454 349.117 50.4454 349.81C50.4454 350.437 50.5254 351.02 50.6854 351.56C50.8521 352.093 51.1187 352.527 51.4854 352.86C51.8521 353.187 52.3421 353.35 52.9554 353.35ZM59.964 355V344.66H62.344V346.14C62.504 345.873 62.7207 345.617 62.994 345.37C63.274 345.123 63.6173 344.923 64.024 344.77C64.4307 344.617 64.9073 344.54 65.454 344.54C66.094 344.54 66.6873 344.667 67.234 344.92C67.7873 345.173 68.2307 345.57 68.564 346.11C68.904 346.65 69.074 347.347 69.074 348.2V355H66.634V348.49C66.634 347.81 66.4473 347.307 66.074 346.98C65.7007 346.647 65.2307 346.48 64.664 346.48C64.2773 346.48 63.9107 346.547 63.564 346.68C63.2173 346.807 62.934 347.003 62.714 347.27C62.5007 347.53 62.394 347.857 62.394 348.25V355H59.964ZM74.5541 355.2C73.8941 355.2 73.3008 355.08 72.7741 354.84C72.2541 354.593 71.8441 354.243 71.5441 353.79C71.2508 353.33 71.1041 352.773 71.1041 352.12C71.1041 350.98 71.5141 350.12 72.3341 349.54C73.1608 348.96 74.4775 348.657 76.2841 348.63L77.8241 348.59V347.89C77.8241 347.343 77.6608 346.917 77.3341 346.61C77.0141 346.297 76.5141 346.143 75.8341 346.15C75.3341 346.157 74.8741 346.277 74.4541 346.51C74.0408 346.737 73.7675 347.12 73.6341 347.66H71.5641C71.6041 346.953 71.8075 346.363 72.1741 345.89C72.5475 345.41 73.0575 345.053 73.7041 344.82C74.3508 344.58 75.0975 344.46 75.9441 344.46C76.9308 344.46 77.7341 344.59 78.3541 344.85C78.9741 345.11 79.4308 345.487 79.7241 345.98C80.0175 346.467 80.1641 347.057 80.1641 347.75V355H78.1141L77.9241 353.14C77.5508 353.92 77.0775 354.46 76.5041 354.76C75.9375 355.053 75.2875 355.2 74.5541 355.2ZM75.3441 353.55C75.6441 353.55 75.9408 353.497 76.2341 353.39C76.5275 353.277 76.7941 353.127 77.0341 352.94C77.2741 352.747 77.4641 352.533 77.6041 352.3C77.7508 352.067 77.8241 351.823 77.8241 351.57V349.94L76.5541 349.96C75.9275 349.967 75.3808 350.033 74.9141 350.16C74.4475 350.287 74.0808 350.49 73.8141 350.77C73.5541 351.043 73.4241 351.41 73.4241 351.87C73.4241 352.397 73.6075 352.81 73.9741 353.11C74.3408 353.403 74.7975 353.55 75.3441 353.55ZM83.0109 355V344.66H85.3409V346.9C85.5075 346.387 85.7442 345.95 86.0509 345.59C86.3642 345.223 86.7309 344.943 87.1509 344.75C87.5709 344.557 88.0275 344.46 88.5209 344.46C88.6409 344.46 88.7575 344.467 88.8709 344.48C88.9842 344.493 89.0675 344.517 89.1209 344.55V346.88C89.0475 346.847 88.9509 346.823 88.8309 346.81C88.7175 346.797 88.6175 346.79 88.5309 346.79C88.0309 346.75 87.5875 346.77 87.2009 346.85C86.8209 346.93 86.4975 347.067 86.2309 347.26C85.9709 347.447 85.7742 347.687 85.6409 347.98C85.5075 348.267 85.4409 348.603 85.4409 348.99V355H83.0109ZM101.176 346.38H98.866L98.876 352.31C98.876 352.617 98.9093 352.843 98.976 352.99C99.0493 353.13 99.1627 353.223 99.316 353.27C99.476 353.31 99.6893 353.33 99.956 353.33H101.226V354.87C101.093 354.923 100.889 354.97 100.616 355.01C100.349 355.057 99.9893 355.08 99.536 355.08C98.716 355.08 98.0793 354.973 97.626 354.76C97.1793 354.54 96.8693 354.23 96.696 353.83C96.5227 353.43 96.436 352.953 96.436 352.4V346.38H94.756V344.66H96.506L97.116 341.59H98.866V344.65H101.176V346.38ZM107.26 355.2C106.753 355.2 106.263 355.127 105.79 354.98C105.323 354.827 104.903 354.607 104.53 354.32C104.157 354.027 103.86 353.667 103.64 353.24C103.42 352.813 103.31 352.317 103.31 351.75V344.66H105.75V351.47C105.75 352.03 105.927 352.49 106.28 352.85C106.64 353.21 107.18 353.39 107.9 353.39C108.553 353.39 109.077 353.22 109.47 352.88C109.863 352.533 110.06 352.037 110.06 351.39V344.66H112.48V355H110.61L110.34 352.98C110.213 353.547 109.99 353.993 109.67 354.32C109.357 354.64 108.987 354.867 108.56 355C108.14 355.133 107.707 355.2 107.26 355.2ZM118.971 355.2C118.251 355.2 117.568 355.087 116.921 354.86C116.281 354.627 115.741 354.263 115.301 353.77C114.868 353.277 114.595 352.64 114.481 351.86H116.621C116.715 352.24 116.878 352.55 117.111 352.79C117.351 353.03 117.635 353.207 117.961 353.32C118.288 353.427 118.621 353.48 118.961 353.48C119.581 353.48 120.081 353.373 120.461 353.16C120.848 352.947 121.041 352.617 121.041 352.17C121.041 351.843 120.935 351.583 120.721 351.39C120.508 351.197 120.168 351.05 119.701 350.95L117.731 350.5C116.858 350.307 116.155 349.987 115.621 349.54C115.095 349.093 114.828 348.463 114.821 347.65C114.815 347.037 114.968 346.49 115.281 346.01C115.595 345.53 116.061 345.153 116.681 344.88C117.301 344.6 118.068 344.46 118.981 344.46C120.188 344.46 121.155 344.73 121.881 345.27C122.608 345.803 122.981 346.567 123.001 347.56H120.931C120.858 347.113 120.648 346.767 120.301 346.52C119.955 346.267 119.505 346.14 118.951 346.14C118.378 346.14 117.908 346.25 117.541 346.47C117.175 346.69 116.991 347.027 116.991 347.48C116.991 347.793 117.131 348.04 117.411 348.22C117.691 348.4 118.111 348.553 118.671 348.68L120.531 349.13C121.065 349.263 121.501 349.443 121.841 349.67C122.181 349.897 122.448 350.147 122.641 350.42C122.835 350.687 122.968 350.963 123.041 351.25C123.121 351.53 123.161 351.79 123.161 352.03C123.161 352.697 122.988 353.267 122.641 353.74C122.301 354.207 121.818 354.567 121.191 354.82C120.565 355.073 119.825 355.2 118.971 355.2ZM133.639 355.2C132.919 355.2 132.236 355.087 131.589 354.86C130.949 354.627 130.409 354.263 129.969 353.77C129.536 353.277 129.262 352.64 129.149 351.86H131.289C131.382 352.24 131.546 352.55 131.779 352.79C132.019 353.03 132.302 353.207 132.629 353.32C132.956 353.427 133.289 353.48 133.629 353.48C134.249 353.48 134.749 353.373 135.129 353.16C135.516 352.947 135.709 352.617 135.709 352.17C135.709 351.843 135.602 351.583 135.389 351.39C135.176 351.197 134.836 351.05 134.369 350.95L132.399 350.5C131.526 350.307 130.822 349.987 130.289 349.54C129.762 349.093 129.496 348.463 129.489 347.65C129.482 347.037 129.636 346.49 129.949 346.01C130.262 345.53 130.729 345.153 131.349 344.88C131.969 344.6 132.736 344.46 133.649 344.46C134.856 344.46 135.822 344.73 136.549 345.27C137.276 345.803 137.649 346.567 137.669 347.56H135.599C135.526 347.113 135.316 346.767 134.969 346.52C134.622 346.267 134.172 346.14 133.619 346.14C133.046 346.14 132.576 346.25 132.209 346.47C131.842 346.69 131.659 347.027 131.659 347.48C131.659 347.793 131.799 348.04 132.079 348.22C132.359 348.4 132.779 348.553 133.339 348.68L135.199 349.13C135.732 349.263 136.169 349.443 136.509 349.67C136.849 349.897 137.116 350.147 137.309 350.42C137.502 350.687 137.636 350.963 137.709 351.25C137.789 351.53 137.829 351.79 137.829 352.03C137.829 352.697 137.656 353.267 137.309 353.74C136.969 354.207 136.486 354.567 135.859 354.82C135.232 355.073 134.492 355.2 133.639 355.2ZM142.03 350.39C142.024 350.977 142.117 351.497 142.31 351.95C142.504 352.403 142.79 352.76 143.17 353.02C143.55 353.273 144.02 353.4 144.58 353.4C145.154 353.4 145.65 353.273 146.07 353.02C146.497 352.76 146.78 352.367 146.92 351.84H149.15C149.03 352.56 148.744 353.17 148.29 353.67C147.837 354.17 147.287 354.55 146.64 354.81C146 355.07 145.334 355.2 144.64 355.2C143.64 355.2 142.76 354.99 142 354.57C141.247 354.143 140.657 353.537 140.23 352.75C139.81 351.963 139.6 351.027 139.6 349.94C139.6 348.88 139.794 347.94 140.18 347.12C140.567 346.293 141.124 345.643 141.85 345.17C142.584 344.697 143.464 344.46 144.49 344.46C145.51 344.46 146.367 344.677 147.06 345.11C147.76 345.543 148.287 346.15 148.64 346.93C149 347.703 149.18 348.61 149.18 349.65V350.39H142.03ZM142.03 348.88H146.88C146.88 348.38 146.794 347.93 146.62 347.53C146.447 347.123 146.18 346.803 145.82 346.57C145.467 346.33 145.02 346.21 144.48 346.21C143.947 346.21 143.497 346.34 143.13 346.6C142.764 346.86 142.487 347.197 142.3 347.61C142.114 348.017 142.024 348.44 142.03 348.88ZM151.448 355V344.66H153.778V346.9C153.945 346.387 154.182 345.95 154.488 345.59C154.802 345.223 155.168 344.943 155.588 344.75C156.008 344.557 156.465 344.46 156.958 344.46C157.078 344.46 157.195 344.467 157.308 344.48C157.422 344.493 157.505 344.517 157.558 344.55V346.88C157.485 346.847 157.388 346.823 157.268 346.81C157.155 346.797 157.055 346.79 156.968 346.79C156.468 346.75 156.025 346.77 155.638 346.85C155.258 346.93 154.935 347.067 154.668 347.26C154.408 347.447 154.212 347.687 154.078 347.98C153.945 348.267 153.878 348.603 153.878 348.99V355H151.448ZM168.386 344.66L164.576 355H162.656L158.836 344.66H161.066L163.546 351.9H163.676L166.146 344.66H168.386ZM172.63 344.66V355H170.29V344.66H172.63ZM172.66 340.55V342.85H170.25V340.55H172.66ZM179.859 344.46C180.666 344.46 181.376 344.62 181.989 344.94C182.603 345.26 183.093 345.703 183.459 346.27C183.833 346.837 184.056 347.48 184.129 348.2H182.049C182.003 347.887 181.889 347.59 181.709 347.31C181.529 347.023 181.286 346.793 180.979 346.62C180.673 346.44 180.303 346.35 179.869 346.35C179.096 346.35 178.466 346.637 177.979 347.21C177.499 347.783 177.259 348.663 177.259 349.85C177.259 350.943 177.489 351.813 177.949 352.46C178.409 353.107 179.066 353.43 179.919 353.43C180.346 353.43 180.709 353.337 181.009 353.15C181.316 352.957 181.556 352.72 181.729 352.44C181.909 352.153 182.026 351.867 182.079 351.58H184.099C184.039 352.28 183.819 352.903 183.439 353.45C183.066 353.997 182.573 354.427 181.959 354.74C181.353 355.047 180.653 355.2 179.859 355.2C178.913 355.2 178.069 354.993 177.329 354.58C176.596 354.16 176.019 353.553 175.599 352.76C175.179 351.96 174.969 350.997 174.969 349.87C174.969 348.797 175.166 347.857 175.559 347.05C175.953 346.237 176.516 345.603 177.249 345.15C177.983 344.69 178.853 344.46 179.859 344.46ZM188.88 344.66V355H186.54V344.66H188.88ZM188.91 340.55V342.85H186.5V340.55H188.91ZM196.109 355.2C195.123 355.2 194.263 354.99 193.529 354.57C192.796 354.143 192.226 353.533 191.819 352.74C191.419 351.947 191.219 350.993 191.219 349.88C191.219 348.8 191.413 347.853 191.799 347.04C192.193 346.227 192.756 345.593 193.489 345.14C194.223 344.687 195.099 344.46 196.119 344.46C197.106 344.46 197.963 344.677 198.689 345.11C199.416 345.543 199.976 346.163 200.369 346.97C200.769 347.777 200.969 348.747 200.969 349.88C200.969 350.927 200.779 351.85 200.399 352.65C200.026 353.443 199.476 354.067 198.749 354.52C198.029 354.973 197.149 355.2 196.109 355.2ZM196.119 353.35C196.679 353.35 197.139 353.197 197.499 352.89C197.866 352.583 198.136 352.163 198.309 351.63C198.489 351.097 198.579 350.49 198.579 349.81C198.579 349.177 198.499 348.593 198.339 348.06C198.186 347.527 197.926 347.1 197.559 346.78C197.199 346.453 196.719 346.29 196.119 346.29C195.553 346.29 195.083 346.44 194.709 346.74C194.343 347.033 194.066 347.447 193.879 347.98C193.699 348.507 193.609 349.117 193.609 349.81C193.609 350.437 193.689 351.02 193.849 351.56C194.016 352.093 194.283 352.527 194.649 352.86C195.016 353.187 195.506 353.35 196.119 353.35ZM206.959 355.2C206.239 355.2 205.556 355.087 204.909 354.86C204.269 354.627 203.729 354.263 203.289 353.77C202.856 353.277 202.583 352.64 202.469 351.86H204.609C204.703 352.24 204.866 352.55 205.099 352.79C205.339 353.03 205.623 353.207 205.949 353.32C206.276 353.427 206.609 353.48 206.949 353.48C207.569 353.48 208.069 353.373 208.449 353.16C208.836 352.947 209.029 352.617 209.029 352.17C209.029 351.843 208.923 351.583 208.709 351.39C208.496 351.197 208.156 351.05 207.689 350.95L205.719 350.5C204.846 350.307 204.143 349.987 203.609 349.54C203.083 349.093 202.816 348.463 202.809 347.65C202.803 347.037 202.956 346.49 203.269 346.01C203.583 345.53 204.049 345.153 204.669 344.88C205.289 344.6 206.056 344.46 206.969 344.46C208.176 344.46 209.143 344.73 209.869 345.27C210.596 345.803 210.969 346.567 210.989 347.56H208.919C208.846 347.113 208.636 346.767 208.289 346.52C207.943 346.267 207.493 346.14 206.939 346.14C206.366 346.14 205.896 346.25 205.529 346.47C205.163 346.69 204.979 347.027 204.979 347.48C204.979 347.793 205.119 348.04 205.399 348.22C205.679 348.4 206.099 348.553 206.659 348.68L208.519 349.13C209.053 349.263 209.489 349.443 209.829 349.67C210.169 349.897 210.436 350.147 210.629 350.42C210.823 350.687 210.956 350.963 211.029 351.25C211.109 351.53 211.149 351.79 211.149 352.03C211.149 352.697 210.976 353.267 210.629 353.74C210.289 354.207 209.806 354.567 209.179 354.82C208.553 355.073 207.813 355.2 206.959 355.2ZM221.332 355.2C219.965 355.2 218.892 354.73 218.112 353.79C217.332 352.85 216.942 351.513 216.942 349.78C216.942 348.7 217.099 347.763 217.412 346.97C217.732 346.17 218.199 345.553 218.812 345.12C219.432 344.68 220.199 344.46 221.112 344.46C221.539 344.46 221.925 344.513 222.272 344.62C222.625 344.72 222.939 344.853 223.212 345.02C223.485 345.187 223.715 345.37 223.902 345.57C224.095 345.77 224.245 345.97 224.352 346.17V340.14H226.792V355H224.992L224.722 352.88C224.642 353.127 224.522 353.387 224.362 353.66C224.209 353.927 223.999 354.177 223.732 354.41C223.472 354.643 223.145 354.833 222.752 354.98C222.359 355.127 221.885 355.2 221.332 355.2ZM221.832 353.41C222.705 353.41 223.342 353.127 223.742 352.56C224.149 351.987 224.352 351.04 224.352 349.72C224.345 348.967 224.252 348.333 224.072 347.82C223.899 347.307 223.629 346.92 223.262 346.66C222.902 346.4 222.435 346.27 221.862 346.27C221.129 346.27 220.525 346.54 220.052 347.08C219.579 347.62 219.342 348.5 219.342 349.72C219.342 350.933 219.559 351.853 219.992 352.48C220.425 353.1 221.039 353.41 221.832 353.41ZM231.464 350.39C231.457 350.977 231.55 351.497 231.744 351.95C231.937 352.403 232.224 352.76 232.604 353.02C232.984 353.273 233.454 353.4 234.014 353.4C234.587 353.4 235.084 353.273 235.504 353.02C235.93 352.76 236.214 352.367 236.354 351.84H238.584C238.464 352.56 238.177 353.17 237.724 353.67C237.27 354.17 236.72 354.55 236.074 354.81C235.434 355.07 234.767 355.2 234.074 355.2C233.074 355.2 232.194 354.99 231.434 354.57C230.68 354.143 230.09 353.537 229.664 352.75C229.244 351.963 229.034 351.027 229.034 349.94C229.034 348.88 229.227 347.94 229.614 347.12C230 346.293 230.557 345.643 231.284 345.17C232.017 344.697 232.897 344.46 233.924 344.46C234.944 344.46 235.8 344.677 236.494 345.11C237.194 345.543 237.72 346.15 238.074 346.93C238.434 347.703 238.614 348.61 238.614 349.65V350.39H231.464ZM231.464 348.88H236.314C236.314 348.38 236.227 347.93 236.054 347.53C235.88 347.123 235.614 346.803 235.254 346.57C234.9 346.33 234.454 346.21 233.914 346.21C233.38 346.21 232.93 346.34 232.564 346.6C232.197 346.86 231.92 347.197 231.734 347.61C231.547 348.017 231.457 348.44 231.464 348.88ZM251.288 344.66V346.38H248.958V355H246.528V346.38H244.488V344.66H246.528V343.12C246.528 342.293 246.755 341.657 247.208 341.21C247.668 340.763 248.332 340.54 249.198 340.54H251.378L251.388 342.2H249.948C249.555 342.2 249.285 342.303 249.138 342.51C248.992 342.71 248.918 343.027 248.918 343.46V344.66H251.288ZM257.457 355.2C256.47 355.2 255.61 354.99 254.877 354.57C254.144 354.143 253.574 353.533 253.167 352.74C252.767 351.947 252.567 350.993 252.567 349.88C252.567 348.8 252.76 347.853 253.147 347.04C253.54 346.227 254.104 345.593 254.837 345.14C255.57 344.687 256.447 344.46 257.467 344.46C258.454 344.46 259.31 344.677 260.037 345.11C260.764 345.543 261.324 346.163 261.717 346.97C262.117 347.777 262.317 348.747 262.317 349.88C262.317 350.927 262.127 351.85 261.747 352.65C261.374 353.443 260.824 354.067 260.097 354.52C259.377 354.973 258.497 355.2 257.457 355.2ZM257.467 353.35C258.027 353.35 258.487 353.197 258.847 352.89C259.214 352.583 259.484 352.163 259.657 351.63C259.837 351.097 259.927 350.49 259.927 349.81C259.927 349.177 259.847 348.593 259.687 348.06C259.534 347.527 259.274 347.1 258.907 346.78C258.547 346.453 258.067 346.29 257.467 346.29C256.9 346.29 256.43 346.44 256.057 346.74C255.69 347.033 255.414 347.447 255.227 347.98C255.047 348.507 254.957 349.117 254.957 349.81C254.957 350.437 255.037 351.02 255.197 351.56C255.364 352.093 255.63 352.527 255.997 352.86C256.364 353.187 256.854 353.35 257.467 353.35ZM264.476 355V344.66H266.806V346.9C266.972 346.387 267.209 345.95 267.516 345.59C267.829 345.223 268.196 344.943 268.616 344.75C269.036 344.557 269.492 344.46 269.986 344.46C270.106 344.46 270.222 344.467 270.336 344.48C270.449 344.493 270.532 344.517 270.586 344.55V346.88C270.512 346.847 270.416 346.823 270.296 346.81C270.182 346.797 270.082 346.79 269.996 346.79C269.496 346.75 269.052 346.77 268.666 346.85C268.286 346.93 267.962 347.067 267.696 347.26C267.436 347.447 267.239 347.687 267.106 347.98C266.972 348.267 266.906 348.603 266.906 348.99V355H264.476ZM272.444 355V344.66H274.814V346.14C275.114 345.687 275.521 345.293 276.034 344.96C276.554 344.627 277.214 344.46 278.014 344.46C278.381 344.46 278.751 344.523 279.124 344.65C279.504 344.777 279.854 344.963 280.174 345.21C280.501 345.457 280.761 345.763 280.954 346.13C281.281 345.643 281.714 345.243 282.254 344.93C282.801 344.617 283.414 344.46 284.094 344.46C284.468 344.46 284.851 344.52 285.244 344.64C285.644 344.76 286.011 344.96 286.344 345.24C286.678 345.52 286.948 345.903 287.154 346.39C287.361 346.87 287.464 347.473 287.464 348.2V355H285.034V348.49C285.034 347.977 284.944 347.573 284.764 347.28C284.584 346.987 284.351 346.78 284.064 346.66C283.784 346.533 283.484 346.47 283.164 346.47C282.878 346.47 282.578 346.527 282.264 346.64C281.958 346.753 281.694 346.94 281.474 347.2C281.261 347.46 281.154 347.81 281.154 348.25V355H278.724V348.1C278.724 347.74 278.631 347.44 278.444 347.2C278.258 346.96 278.021 346.78 277.734 346.66C277.454 346.533 277.168 346.47 276.874 346.47C276.574 346.47 276.268 346.533 275.954 346.66C275.648 346.787 275.391 346.98 275.184 347.24C274.978 347.5 274.874 347.837 274.874 348.25V355H272.444ZM292.953 355.2C292.293 355.2 291.699 355.08 291.173 354.84C290.653 354.593 290.243 354.243 289.943 353.79C289.649 353.33 289.503 352.773 289.503 352.12C289.503 350.98 289.913 350.12 290.733 349.54C291.559 348.96 292.876 348.657 294.683 348.63L296.223 348.59V347.89C296.223 347.343 296.059 346.917 295.733 346.61C295.413 346.297 294.913 346.143 294.233 346.15C293.733 346.157 293.273 346.277 292.853 346.51C292.439 346.737 292.166 347.12 292.033 347.66H289.963C290.003 346.953 290.206 346.363 290.573 345.89C290.946 345.41 291.456 345.053 292.103 344.82C292.749 344.58 293.496 344.46 294.343 344.46C295.329 344.46 296.133 344.59 296.753 344.85C297.373 345.11 297.829 345.487 298.123 345.98C298.416 346.467 298.563 347.057 298.563 347.75V355H296.513L296.323 353.14C295.949 353.92 295.476 354.46 294.903 354.76C294.336 355.053 293.686 355.2 292.953 355.2ZM293.743 353.55C294.043 353.55 294.339 353.497 294.633 353.39C294.926 353.277 295.193 353.127 295.433 352.94C295.673 352.747 295.863 352.533 296.003 352.3C296.149 352.067 296.223 351.823 296.223 351.57V349.94L294.953 349.96C294.326 349.967 293.779 350.033 293.313 350.16C292.846 350.287 292.479 350.49 292.213 350.77C291.953 351.043 291.823 351.41 291.823 351.87C291.823 352.397 292.006 352.81 292.373 353.11C292.739 353.403 293.196 353.55 293.743 353.55ZM74.9542 379V368.66H77.2842V370.9C77.4509 370.387 77.6876 369.95 77.9942 369.59C78.3076 369.223 78.6742 368.943 79.0942 368.75C79.5142 368.557 79.9709 368.46 80.4642 368.46C80.5842 368.46 80.7009 368.467 80.8142 368.48C80.9276 368.493 81.0109 368.517 81.0642 368.55V370.88C80.9909 370.847 80.8942 370.823 80.7742 370.81C80.6609 370.797 80.5609 370.79 80.4742 370.79C79.9742 370.75 79.5309 370.77 79.1442 370.85C78.7642 370.93 78.4409 371.067 78.1742 371.26C77.9142 371.447 77.7176 371.687 77.5842 371.98C77.4509 372.267 77.3842 372.603 77.3842 372.99V379H74.9542ZM85.6577 379.2C84.9977 379.2 84.4043 379.08 83.8777 378.84C83.3577 378.593 82.9477 378.243 82.6477 377.79C82.3543 377.33 82.2077 376.773 82.2077 376.12C82.2077 374.98 82.6177 374.12 83.4377 373.54C84.2643 372.96 85.581 372.657 87.3877 372.63L88.9277 372.59V371.89C88.9277 371.343 88.7643 370.917 88.4377 370.61C88.1177 370.297 87.6177 370.143 86.9377 370.15C86.4377 370.157 85.9777 370.277 85.5577 370.51C85.1443 370.737 84.871 371.12 84.7377 371.66H82.6677C82.7077 370.953 82.911 370.363 83.2777 369.89C83.651 369.41 84.161 369.053 84.8077 368.82C85.4543 368.58 86.201 368.46 87.0477 368.46C88.0343 368.46 88.8377 368.59 89.4577 368.85C90.0777 369.11 90.5343 369.487 90.8277 369.98C91.121 370.467 91.2677 371.057 91.2677 371.75V379H89.2177L89.0277 377.14C88.6543 377.92 88.181 378.46 87.6077 378.76C87.041 379.053 86.391 379.2 85.6577 379.2ZM86.4477 377.55C86.7477 377.55 87.0443 377.497 87.3377 377.39C87.631 377.277 87.8977 377.127 88.1377 376.94C88.3777 376.747 88.5677 376.533 88.7077 376.3C88.8543 376.067 88.9277 375.823 88.9277 375.57V373.94L87.6577 373.96C87.031 373.967 86.4843 374.033 86.0177 374.16C85.551 374.287 85.1843 374.49 84.9177 374.77C84.6577 375.043 84.5277 375.41 84.5277 375.87C84.5277 376.397 84.711 376.81 85.0777 377.11C85.4443 377.403 85.901 377.55 86.4477 377.55ZM88.2177 364.54H90.8177L87.9577 367.45H86.1577L88.2177 364.54ZM94.1144 382.22V368.66H96.5444L96.5644 370.29C96.6977 370.063 96.8677 369.84 97.0744 369.62C97.2877 369.4 97.531 369.203 97.8044 369.03C98.0844 368.857 98.3944 368.72 98.7344 368.62C99.0744 368.513 99.4477 368.46 99.8544 368.46C100.648 368.46 101.351 368.65 101.964 369.03C102.578 369.403 103.058 369.98 103.404 370.76C103.758 371.54 103.934 372.527 103.934 373.72C103.934 374.94 103.754 375.957 103.394 376.77C103.034 377.583 102.531 378.193 101.884 378.6C101.238 379 100.488 379.2 99.6344 379.2C99.241 379.2 98.881 379.147 98.5544 379.04C98.2344 378.933 97.9477 378.787 97.6944 378.6C97.441 378.413 97.2177 378.21 97.0244 377.99C96.8377 377.77 96.681 377.54 96.5544 377.3V382.22H94.1144ZM99.0944 377.38C99.8277 377.38 100.434 377.09 100.914 376.51C101.394 375.923 101.634 375.007 101.634 373.76C101.634 372.68 101.408 371.83 100.954 371.21C100.508 370.583 99.8877 370.27 99.0944 370.27C98.241 370.27 97.601 370.6 97.1744 371.26C96.7477 371.913 96.5344 372.747 96.5344 373.76C96.5344 374.413 96.6277 375.017 96.8144 375.57C97.0077 376.117 97.291 376.557 97.6644 376.89C98.0444 377.217 98.521 377.38 99.0944 377.38ZM108.597 368.66V379H106.257V368.66H108.597ZM108.627 364.55V366.85H106.217V364.55H108.627ZM115.326 379.2C113.96 379.2 112.886 378.73 112.106 377.79C111.326 376.85 110.936 375.513 110.936 373.78C110.936 372.7 111.093 371.763 111.406 370.97C111.726 370.17 112.193 369.553 112.806 369.12C113.426 368.68 114.193 368.46 115.106 368.46C115.533 368.46 115.92 368.513 116.266 368.62C116.62 368.72 116.933 368.853 117.206 369.02C117.48 369.187 117.71 369.37 117.896 369.57C118.09 369.77 118.24 369.97 118.346 370.17V364.14H120.786V379H118.986L118.716 376.88C118.636 377.127 118.516 377.387 118.356 377.66C118.203 377.927 117.993 378.177 117.726 378.41C117.466 378.643 117.14 378.833 116.746 378.98C116.353 379.127 115.88 379.2 115.326 379.2ZM115.826 377.41C116.7 377.41 117.336 377.127 117.736 376.56C118.143 375.987 118.346 375.04 118.346 373.72C118.34 372.967 118.246 372.333 118.066 371.82C117.893 371.307 117.623 370.92 117.256 370.66C116.896 370.4 116.43 370.27 115.856 370.27C115.123 370.27 114.52 370.54 114.046 371.08C113.573 371.62 113.336 372.5 113.336 373.72C113.336 374.933 113.553 375.853 113.986 376.48C114.42 377.1 115.033 377.41 115.826 377.41ZM126.478 379.2C125.818 379.2 125.225 379.08 124.698 378.84C124.178 378.593 123.768 378.243 123.468 377.79C123.175 377.33 123.028 376.773 123.028 376.12C123.028 374.98 123.438 374.12 124.258 373.54C125.085 372.96 126.401 372.657 128.208 372.63L129.748 372.59V371.89C129.748 371.343 129.585 370.917 129.258 370.61C128.938 370.297 128.438 370.143 127.758 370.15C127.258 370.157 126.798 370.277 126.378 370.51C125.965 370.737 125.691 371.12 125.558 371.66H123.488C123.528 370.953 123.731 370.363 124.098 369.89C124.471 369.41 124.981 369.053 125.628 368.82C126.275 368.58 127.021 368.46 127.868 368.46C128.855 368.46 129.658 368.59 130.278 368.85C130.898 369.11 131.355 369.487 131.648 369.98C131.941 370.467 132.088 371.057 132.088 371.75V379H130.038L129.848 377.14C129.475 377.92 129.001 378.46 128.428 378.76C127.861 379.053 127.211 379.2 126.478 379.2ZM127.268 377.55C127.568 377.55 127.865 377.497 128.158 377.39C128.451 377.277 128.718 377.127 128.958 376.94C129.198 376.747 129.388 376.533 129.528 376.3C129.675 376.067 129.748 375.823 129.748 375.57V373.94L128.478 373.96C127.851 373.967 127.305 374.033 126.838 374.16C126.371 374.287 126.005 374.49 125.738 374.77C125.478 375.043 125.348 375.41 125.348 375.87C125.348 376.397 125.531 376.81 125.898 377.11C126.265 377.403 126.721 377.55 127.268 377.55ZM140.591 382.3C139.931 382.3 139.468 382.247 139.201 382.14C138.941 382.04 138.811 381.99 138.811 381.99V380.43L139.851 380.46C140.271 380.48 140.611 380.457 140.871 380.39C141.138 380.323 141.344 380.23 141.491 380.11C141.638 379.997 141.744 379.873 141.811 379.74C141.884 379.613 141.941 379.503 141.981 379.41L142.251 378.65L138.221 368.66H140.651L143.391 375.97L146.131 368.66H148.511L144.251 379.38C143.931 380.16 143.584 380.76 143.211 381.18C142.844 381.607 142.441 381.9 142.001 382.06C141.568 382.22 141.098 382.3 140.591 382.3ZM158.434 379.2C157.714 379.2 157.031 379.087 156.384 378.86C155.744 378.627 155.204 378.263 154.764 377.77C154.331 377.277 154.057 376.64 153.944 375.86H156.084C156.177 376.24 156.341 376.55 156.574 376.79C156.814 377.03 157.097 377.207 157.424 377.32C157.751 377.427 158.084 377.48 158.424 377.48C159.044 377.48 159.544 377.373 159.924 377.16C160.311 376.947 160.504 376.617 160.504 376.17C160.504 375.843 160.397 375.583 160.184 375.39C159.971 375.197 159.631 375.05 159.164 374.95L157.194 374.5C156.321 374.307 155.617 373.987 155.084 373.54C154.557 373.093 154.291 372.463 154.284 371.65C154.277 371.037 154.431 370.49 154.744 370.01C155.057 369.53 155.524 369.153 156.144 368.88C156.764 368.6 157.531 368.46 158.444 368.46C159.651 368.46 160.617 368.73 161.344 369.27C162.071 369.803 162.444 370.567 162.464 371.56H160.394C160.321 371.113 160.111 370.767 159.764 370.52C159.417 370.267 158.967 370.14 158.414 370.14C157.841 370.14 157.371 370.25 157.004 370.47C156.637 370.69 156.454 371.027 156.454 371.48C156.454 371.793 156.594 372.04 156.874 372.22C157.154 372.4 157.574 372.553 158.134 372.68L159.994 373.13C160.527 373.263 160.964 373.443 161.304 373.67C161.644 373.897 161.911 374.147 162.104 374.42C162.297 374.687 162.431 374.963 162.504 375.25C162.584 375.53 162.624 375.79 162.624 376.03C162.624 376.697 162.451 377.267 162.104 377.74C161.764 378.207 161.281 378.567 160.654 378.82C160.027 379.073 159.287 379.2 158.434 379.2ZM166.825 374.39C166.818 374.977 166.912 375.497 167.105 375.95C167.298 376.403 167.585 376.76 167.965 377.02C168.345 377.273 168.815 377.4 169.375 377.4C169.948 377.4 170.445 377.273 170.865 377.02C171.292 376.76 171.575 376.367 171.715 375.84H173.945C173.825 376.56 173.538 377.17 173.085 377.67C172.632 378.17 172.082 378.55 171.435 378.81C170.795 379.07 170.128 379.2 169.435 379.2C168.435 379.2 167.555 378.99 166.795 378.57C166.042 378.143 165.452 377.537 165.025 376.75C164.605 375.963 164.395 375.027 164.395 373.94C164.395 372.88 164.588 371.94 164.975 371.12C165.362 370.293 165.918 369.643 166.645 369.17C167.378 368.697 168.258 368.46 169.285 368.46C170.305 368.46 171.162 368.677 171.855 369.11C172.555 369.543 173.082 370.15 173.435 370.93C173.795 371.703 173.975 372.61 173.975 373.65V374.39H166.825ZM166.825 372.88H171.675C171.675 372.38 171.588 371.93 171.415 371.53C171.242 371.123 170.975 370.803 170.615 370.57C170.262 370.33 169.815 370.21 169.275 370.21C168.742 370.21 168.292 370.34 167.925 370.6C167.558 370.86 167.282 371.197 167.095 371.61C166.908 372.017 166.818 372.44 166.825 372.88ZM176.243 379V368.66H178.623V370.14C178.783 369.873 179 369.617 179.273 369.37C179.553 369.123 179.897 368.923 180.303 368.77C180.71 368.617 181.187 368.54 181.733 368.54C182.373 368.54 182.967 368.667 183.513 368.92C184.067 369.173 184.51 369.57 184.843 370.11C185.183 370.65 185.353 371.347 185.353 372.2V379H182.913V372.49C182.913 371.81 182.727 371.307 182.353 370.98C181.98 370.647 181.51 370.48 180.943 370.48C180.557 370.48 180.19 370.547 179.843 370.68C179.497 370.807 179.213 371.003 178.993 371.27C178.78 371.53 178.673 371.857 178.673 372.25V379H176.243ZM192.252 368.46C193.059 368.46 193.769 368.62 194.382 368.94C194.995 369.26 195.485 369.703 195.852 370.27C196.225 370.837 196.449 371.48 196.522 372.2H194.442C194.395 371.887 194.282 371.59 194.102 371.31C193.922 371.023 193.679 370.793 193.372 370.62C193.065 370.44 192.695 370.35 192.262 370.35C191.489 370.35 190.859 370.637 190.372 371.21C189.892 371.783 189.652 372.663 189.652 373.85C189.652 374.943 189.882 375.813 190.342 376.46C190.802 377.107 191.459 377.43 192.312 377.43C192.739 377.43 193.102 377.337 193.402 377.15C193.709 376.957 193.949 376.72 194.122 376.44C194.302 376.153 194.419 375.867 194.472 375.58H196.492C196.432 376.28 196.212 376.903 195.832 377.45C195.459 377.997 194.965 378.427 194.352 378.74C193.745 379.047 193.045 379.2 192.252 379.2C191.305 379.2 190.462 378.993 189.722 378.58C188.989 378.16 188.412 377.553 187.992 376.76C187.572 375.96 187.362 374.997 187.362 373.87C187.362 372.797 187.559 371.857 187.952 371.05C188.345 370.237 188.909 369.603 189.642 369.15C190.375 368.69 191.245 368.46 192.252 368.46ZM201.273 368.66V379H198.933V368.66H201.273ZM201.303 364.55V366.85H198.893V364.55H201.303ZM207.29 379.15C206.623 379.15 206.09 379.067 205.69 378.9C205.29 378.733 204.99 378.51 204.79 378.23C204.59 377.95 204.46 377.637 204.4 377.29C204.34 376.937 204.31 376.577 204.31 376.21V364.14H206.69V375.93C206.69 376.377 206.78 376.723 206.96 376.97C207.146 377.217 207.446 377.36 207.86 377.4L208.38 377.42V378.95C208.2 379.003 208.016 379.05 207.83 379.09C207.643 379.13 207.463 379.15 207.29 379.15ZM213.247 379.15C212.58 379.15 212.047 379.067 211.647 378.9C211.247 378.733 210.947 378.51 210.747 378.23C210.547 377.95 210.417 377.637 210.357 377.29C210.297 376.937 210.267 376.577 210.267 376.21V364.14H212.647V375.93C212.647 376.377 212.737 376.723 212.917 376.97C213.103 377.217 213.403 377.36 213.817 377.4L214.337 377.42V378.95C214.157 379.003 213.973 379.05 213.787 379.09C213.6 379.13 213.42 379.15 213.247 379.15ZM219.349 379.2C218.689 379.2 218.096 379.08 217.569 378.84C217.049 378.593 216.639 378.243 216.339 377.79C216.046 377.33 215.899 376.773 215.899 376.12C215.899 374.98 216.309 374.12 217.129 373.54C217.956 372.96 219.272 372.657 221.079 372.63L222.619 372.59V371.89C222.619 371.343 222.456 370.917 222.129 370.61C221.809 370.297 221.309 370.143 220.629 370.15C220.129 370.157 219.669 370.277 219.249 370.51C218.836 370.737 218.562 371.12 218.429 371.66H216.359C216.399 370.953 216.602 370.363 216.969 369.89C217.342 369.41 217.852 369.053 218.499 368.82C219.146 368.58 219.892 368.46 220.739 368.46C221.726 368.46 222.529 368.59 223.149 368.85C223.769 369.11 224.226 369.487 224.519 369.98C224.812 370.467 224.959 371.057 224.959 371.75V379H222.909L222.719 377.14C222.346 377.92 221.872 378.46 221.299 378.76C220.732 379.053 220.082 379.2 219.349 379.2ZM220.139 377.55C220.439 377.55 220.736 377.497 221.029 377.39C221.322 377.277 221.589 377.127 221.829 376.94C222.069 376.747 222.259 376.533 222.399 376.3C222.546 376.067 222.619 375.823 222.619 375.57V373.94L221.349 373.96C220.722 373.967 220.176 374.033 219.709 374.16C219.242 374.287 218.876 374.49 218.609 374.77C218.349 375.043 218.219 375.41 218.219 375.87C218.219 376.397 218.402 376.81 218.769 377.11C219.136 377.403 219.592 377.55 220.139 377.55Z" fill="#141518"/>
<path d="M48.9446 44.2405L121.055 10.6146L145.179 62.3483C146.246 64.6358 145.257 67.3619 142.966 68.4302L79.1503 98.1878C76.8628 99.2545 74.1367 98.2651 73.0684 95.9741L48.9446 44.2405Z" fill="#D7E7FE"/>
<path d="M48.3924 31.5778L111.718 2.04832C114.144 0.917395 117.028 1.96722 118.159 4.3925L121.06 10.6142L48.9494 44.24L46.0482 38.0184C44.9173 35.5931 45.9671 32.7087 48.3924 31.5778Z" fill="#3B6CCE"/>
<path d="M89.398 93.4077L63.3411 37.5271" stroke="#87B6F9" stroke-width="0.452336" stroke-miterlimit="10"/>
<path d="M55.3741 58.2512L127.573 24.5845" stroke="#87B6F9" stroke-width="0.452336" stroke-miterlimit="10"/>
<path d="M61.8893 72.2207L134.088 38.554" stroke="#87B6F9" stroke-width="0.452336" stroke-miterlimit="10"/>
<path d="M68.4045 86.1897L140.603 52.5229" stroke="#87B6F9" stroke-width="0.452336" stroke-miterlimit="10"/>
<path d="M103.793 86.6951L77.7362 30.8145" stroke="#87B6F9" stroke-width="0.452336" stroke-miterlimit="10"/>
<path d="M118.188 79.9825L92.131 24.1057" stroke="#87B6F9" stroke-width="0.452336" stroke-miterlimit="10"/>
<path d="M132.583 73.2696L106.526 17.3928" stroke="#87B6F9" stroke-width="0.452336" stroke-miterlimit="10"/>
<path d="M111.768 11.6913C113.164 11.6913 114.296 10.5595 114.296 9.1635C114.296 7.76746 113.164 6.63574 111.768 6.63574C110.372 6.63574 109.24 7.76746 109.24 9.1635C109.24 10.5595 110.372 11.6913 111.768 11.6913Z" stroke="#87B6F9" stroke-width="0.406723" stroke-miterlimit="10"/>
<path d="M52.8008 39.1847C54.1968 39.1847 55.3285 38.053 55.3285 36.6569C55.3285 35.2609 54.1968 34.1292 52.8008 34.1292C51.4047 34.1292 50.273 35.2609 50.273 36.6569C50.273 38.053 51.4047 39.1847 52.8008 39.1847Z" fill="#82B1F6"/>
<path d="M89.255 112.61H7.3061C3.82334 112.61 1 115.433 1 118.916V158.581C1 162.064 3.82334 164.887 7.3061 164.887H89.255C92.7377 164.887 95.5611 162.064 95.5611 158.581V118.916C95.5611 115.433 92.7377 112.61 89.255 112.61Z" fill="#3B6CCE"/>
<path d="M1.66534 116.532L47.2981 139.263L94.706 115.742" stroke="#84AFEF" stroke-width="0.452336" stroke-miterlimit="10"/>
<path d="M1.13708 157.087L42.1932 136.892" stroke="#84AFEF" stroke-width="0.452336" stroke-miterlimit="10"/>
<path d="M53.1405 136.363L95.5613 158.098" stroke="#84AFEF" stroke-width="0.452336" stroke-miterlimit="10"/>
<path d="M109.004 145.825H216.508V173.596C216.508 176.036 214.528 178.017 212.087 178.017H113.425C110.984 178.017 109.004 176.036 109.004 173.596V145.825Z" fill="white"/>
<path d="M128.002 168.764C131.783 168.764 134.848 165.699 134.848 161.919C134.848 158.138 131.783 155.073 128.002 155.073C124.221 155.073 121.156 158.138 121.156 161.919C121.156 165.699 124.221 168.764 128.002 168.764Z" fill="#DAEEFF"/>
<path d="M146.654 168.764C150.435 168.764 153.5 165.699 153.5 161.919C153.5 158.138 150.435 155.073 146.654 155.073C142.873 155.073 139.808 158.138 139.808 161.919C139.808 165.699 142.873 168.764 146.654 168.764Z" fill="#B7DDF9"/>
<path d="M114.755 78.1414H210.977C214.151 78.1414 216.728 80.7185 216.728 83.8925V145.825H109V83.8925C109 80.7185 111.577 78.1414 114.751 78.1414H114.755Z" stroke="#F6CB93" stroke-width="0.475143" stroke-miterlimit="10"/>
<path d="M114.755 78.1414H210.977C214.151 78.1414 216.728 80.7185 216.728 83.8925V145.825H109V83.8925C109 80.7185 111.577 78.1414 114.751 78.1414H114.755Z" fill="white"/>
<mask id="mask0_36_12441" style="mask-type:luminance" maskUnits="userSpaceOnUse" x="109" y="78" width="108" height="68">
<path d="M114.755 78.1414H210.977C214.151 78.1414 216.728 80.7185 216.728 83.8925V145.825H109V83.8925C109 80.7185 111.577 78.1414 114.751 78.1414H114.755Z" fill="white"/>
</mask>
<g mask="url(#mask0_36_12441)">
<path d="M91.9331 104.996L107.632 102.051L136.578 96.6529L130.53 64.1113L89.9717 66.89L91.9331 104.996Z" fill="#F1F3F4" stroke="#E2E2E2" stroke-width="0.334501" stroke-miterlimit="10"/>
<path d="M91.2791 109.736L137.235 100.743L143.609 132.307L112.049 138.849L106.814 115.624L91.2791 109.736Z" fill="#F1F3F4" stroke="#E2E2E2" stroke-width="0.334501" stroke-miterlimit="10"/>
<path d="M135.27 67.2168L141.158 95.5087L173.213 89.1304L168.469 59.6943L135.27 67.2168Z" fill="#F1F3F4" stroke="#E2E2E2" stroke-width="0.334501" stroke-miterlimit="10"/>
<path d="M141.975 99.5989L173.867 93.7109L180.081 125.276L148.353 131.491L141.975 99.5989Z" fill="#F1F3F4" stroke="#E2E2E2" stroke-width="0.334501" stroke-miterlimit="10"/>
<path d="M149.171 136.067L181.062 129.689L186.623 154.712L152.28 151.602L149.171 136.067Z" fill="#F1F3F4" stroke="#E2E2E2" stroke-width="0.334501" stroke-miterlimit="10"/>
<path d="M185.152 128.708L190.219 153.568L219.986 152.096L218.678 143.263L185.152 128.708Z" fill="#F1F3F4" stroke="#E2E2E2" stroke-width="0.334501" stroke-miterlimit="10"/>
<path d="M184.499 123.801L223.909 141.138L218.348 126.42L209.518 86.3521L178.611 92.4035L184.499 123.801Z" fill="#B2D9B8"/>
<path d="M177.299 88.3134L208.21 82.2619L204.447 65.2556L174.357 72.7781L177.299 88.3134Z" fill="#F1F3F4" stroke="#E2E2E2" stroke-width="0.334501" stroke-miterlimit="10"/>
<path d="M115.317 155.366L112.702 142.772L144.267 136.394L146.654 149.804L115.317 155.366Z" fill="#F1F3F4" stroke="#E2E2E2" stroke-width="0.334501" stroke-miterlimit="10"/>
<path d="M176.759 108.406L162.919 113.412L159.966 98.7817L173.867 92.7302L176.759 108.406Z" fill="#CDD0D1"/>
</g>
<path d="M114.755 78.1414H210.977C214.151 78.1414 216.728 80.7185 216.728 83.8925V145.825H109V83.8925C109 80.7185 111.577 78.1414 114.751 78.1414H114.755Z" stroke="#E2E2E2" stroke-width="0.334501" stroke-miterlimit="10"/>
<path d="M162.919 49.8835C150.626 49.8835 140.683 59.8273 140.683 72.1202C140.683 77.6471 142.268 82.8243 145.16 87.4959C148.175 92.3879 152.147 96.5806 155.199 101.473C156.693 103.856 157.773 106.08 158.917 108.649C159.742 110.398 160.411 113.416 162.919 113.416C165.428 113.416 166.093 110.402 166.892 108.649C168.066 106.076 169.115 103.852 170.609 101.473C173.658 96.611 177.626 92.4184 180.648 87.4959C183.571 82.8281 185.156 77.6509 185.156 72.1202C185.156 59.8273 175.216 49.8835 162.919 49.8835ZM162.919 80.8553C158.537 80.8553 154.979 77.2974 154.979 72.9109C154.979 68.5244 158.537 64.9703 162.919 64.9703C167.302 64.9703 170.86 68.5282 170.86 72.9109C170.86 77.2936 167.302 80.8553 162.919 80.8553Z" fill="#E5343C"/>
<path d="M296.295 158.595H233.181C229.767 158.595 227 161.362 227 164.776V183.139C227 186.553 229.767 189.32 233.181 189.32H296.295C299.708 189.32 302.476 186.553 302.476 183.139V164.776C302.476 161.362 299.708 158.595 296.295 158.595Z" fill="#70B9F6"/>
<path d="M227 176.335V192.125C227 195.242 230.569 197.013 233.051 195.132L245.709 185.53L227 176.339V176.335Z" fill="#70B9F6"/>
<path d="M292.368 166.749H236.788C235.925 166.749 235.226 167.448 235.226 168.311V169.379C235.226 170.242 235.925 170.941 236.788 170.941H292.368C293.231 170.941 293.93 170.242 293.93 169.379V168.311C293.93 167.448 293.231 166.749 292.368 166.749Z" fill="white"/>
<path d="M272.435 176.624H236.788C235.925 176.624 235.226 177.323 235.226 178.186V179.254C235.226 180.117 235.925 180.816 236.788 180.816H272.435C273.298 180.816 273.997 180.117 273.997 179.254V178.186C273.997 177.323 273.298 176.624 272.435 176.624Z" fill="white"/>
<path d="M119.865 191.809H56.7511C53.3376 191.809 50.5704 194.576 50.5704 197.99V216.353C50.5704 219.766 53.3376 222.533 56.7511 222.533H119.865C123.279 222.533 126.046 219.766 126.046 216.353V197.99C126.046 194.576 123.279 191.809 119.865 191.809Z" fill="#70B9F6"/>
<path d="M115.938 199.962H60.3582C59.4953 199.962 58.7959 200.661 58.7959 201.524V202.592C58.7959 203.455 59.4953 204.155 60.3582 204.155H115.938C116.801 204.155 117.501 203.455 117.501 202.592V201.524C117.501 200.661 116.801 199.962 115.938 199.962Z" fill="white"/>
<path d="M96.0053 209.838H60.3582C59.4953 209.838 58.7959 210.537 58.7959 211.4V212.468C58.7959 213.331 59.4953 214.03 60.3582 214.03H96.0053C96.8681 214.03 97.5676 213.331 97.5676 212.468V211.4C97.5676 210.537 96.8681 209.838 96.0053 209.838Z" fill="white"/>
<path d="M91.7106 100.002C98.6743 100.108 104.232 105.844 104.125 112.808C104.019 119.771 98.2828 125.329 91.3191 125.222C84.3554 125.116 78.7981 119.38 78.9046 112.416C79.011 105.452 84.7469 99.8951 91.7106 100.002Z" fill="#E5343C"/>
<path d="M93.6225 105.331L93.4096 119.441L91.2734 119.41L91.4521 107.437H91.3684L87.9588 109.588L87.9892 107.551L91.5433 105.304L93.6187 105.335L93.6225 105.331Z" fill="white"/>
<mask id="mask1_36_12441" style="mask-type:luminance" maskUnits="userSpaceOnUse" x="123" y="133" width="143" height="121">
<path d="M265.319 133H123V254H265.319V133Z" fill="white"/>
</mask>
<g mask="url(#mask1_36_12441)">
<path d="M213.008 210.795C212.101 209.116 210.364 199.481 210.103 180.458H183.174C182.925 199.628 183.152 209.395 182.263 211.1C181.529 212.507 171.611 215.761 171.611 215.761C171.949 225.311 181.988 231.949 197.401 231.949C212.814 231.949 223.4 225.579 223.672 216.029C223.672 216.029 213.93 212.503 213.008 210.795Z" fill="#E8A380"/>
<path d="M208.747 193.174C209.298 190.904 209.721 188.59 210.014 186.272C210.081 185.751 210.18 184.998 210.18 184.998C210.18 184.998 210.187 184.991 210.194 184.979C210.154 183.532 210.121 182.03 210.099 180.458H183.171C182.928 199.07 183.138 208.815 182.337 210.927C183.237 211.074 184.243 210.989 185.128 210.975C190.8 210.879 197.445 209.37 202.029 205.887C205.912 202.941 207.638 197.718 208.744 193.174H208.747Z" fill="#BC725C"/>
<path d="M248.646 220.191C243.742 216.569 227.506 208.205 217.868 205.818C217.868 205.818 221.254 196.741 210.72 195.735C210.72 195.735 197.812 218.857 190.006 218.857C184.596 218.857 182.98 199.331 182.98 199.331C175.85 200.025 177.664 205.671 177.664 205.671C171.684 207.298 150.358 216.382 145.215 222.435C139.9 228.691 142.277 269.078 142.269 267.597C142.269 267.597 140.943 348.852 141.032 349.547C141.057 349.745 145.201 353.337 146.501 353.584C153.37 354.884 173.602 354.689 193.158 354.689C217.376 354.689 234.056 354.799 240.807 353.286C242.588 352.886 246.302 349.223 246.335 348.963C246.423 348.268 243.826 254.984 243.826 254.984C243.826 254.984 249.435 220.779 248.653 220.198L248.646 220.191Z" fill="#F15A24"/>
<path d="M244.745 304.939C233.17 299.804 222.882 259.531 222.882 259.531L234.967 211.603C232.326 210.564 229.269 209.517 226.504 208.525L210.165 248.221C210.165 248.221 199.109 249.749 188.218 249.591C177.33 249.433 170.983 247.784 170.983 247.784L167.908 208.878C165.146 209.866 160.58 211.331 157.939 212.374L157.396 259.898C157.396 259.898 152.514 299.808 140.94 304.943C140.26 326.993 139.529 351.027 139.581 351.405C139.606 351.607 143.978 355.226 145.348 355.475C152.393 356.75 172.761 356.599 192.842 356.592C212.924 356.603 233.292 356.754 240.337 355.475C241.707 355.226 246.078 351.607 246.107 351.405C246.155 351.027 245.428 326.993 244.748 304.943" fill="#244D9F"/>
<path d="M219.245 206.192C218.775 206.056 218.309 205.931 217.864 205.821C217.864 205.821 217.996 205.461 218.129 204.881C214.206 210.123 203.451 223.236 199.131 223.236C195.843 223.236 193.335 219.981 192.262 218.31C191.472 218.663 190.716 218.861 189.999 218.861C189.599 218.861 189.221 218.744 188.864 218.545C186.818 220.334 183.626 222.582 181.834 221.682C180.882 221.205 179.075 218.575 177.672 206.31C177.643 206.053 177.621 205.851 177.599 205.689C177.139 205.814 176.585 205.986 175.964 206.196C175.975 206.295 175.986 206.398 176.001 206.501C177.187 216.878 178.752 222.024 181.081 223.184C184.273 224.782 188.879 220.896 190.763 219.093C191.95 220.988 194.918 224.915 199.131 224.915C204.795 224.915 216.733 209.513 219.242 206.196L219.245 206.192Z" fill="#B23C18"/>
<path d="M248.183 219.86C273.811 234.671 264.712 323.533 264.712 323.533H239.217C239.217 323.533 228.52 208.495 248.187 219.86H248.183Z" fill="#F15A24"/>
<path d="M241.56 223.622C241.56 223.622 235.764 226.916 234.93 239.784C234.096 252.651 235.808 259.777 235.808 259.777" stroke="#B23C18" stroke-width="1.13502" stroke-miterlimit="10"/>
<path d="M212.85 173.681C210.492 159.377 207.054 144.795 207.054 144.795C203.924 140.861 186.8 142.84 186.8 142.84C186.8 142.84 169.885 146.176 168.107 150.877C168.107 150.877 168.757 166.092 170.876 180.432C172.438 191 176.067 197.557 180.034 199.926C184.559 202.626 191.641 203.783 196.211 203.07C200.78 202.358 205.515 198.677 209.001 194.728C212.057 191.264 214.591 184.219 212.854 173.681H212.85Z" fill="#E8A380"/>
<path d="M208.74 172.854C209.159 176.722 211.925 179.481 214.915 179.014C217.905 178.548 219.987 175.032 219.569 171.165C219.15 167.297 216.384 164.538 213.394 165.005C210.404 165.471 208.321 168.986 208.74 172.854Z" fill="#E8A380"/>
<path d="M213.824 176.417L215.069 176.201C214.713 174.155 213.938 168.498 214.646 166.9L213.489 166.389C212.501 168.626 213.684 175.631 213.824 176.421V176.417Z" fill="#BC725C"/>
<path d="M216.511 170.511L213.571 171.872L214.102 173.019L217.042 171.658L216.511 170.511Z" fill="#BC725C"/>
<path d="M175.484 179.441C175.921 179.373 176.132 178.398 175.954 177.264C175.777 176.129 175.279 175.265 174.842 175.333C174.405 175.401 174.195 176.376 174.372 177.511C174.549 178.645 175.047 179.51 175.484 179.441Z" fill="#244D9F"/>
<path d="M196.875 174C197.052 175.135 196.842 176.108 196.405 176.178C195.968 176.248 195.472 175.381 195.292 174.246C195.116 173.111 195.325 172.138 195.762 172.068C196.2 171.998 196.695 172.865 196.875 174Z" fill="#244D9F"/>
<path d="M176.155 169.339C174.884 169.695 173.639 170.121 172.415 170.617C171.842 170.849 171.457 171.385 171.633 172.024C171.784 172.568 172.471 173.038 173.04 172.806C174.263 172.31 175.508 171.884 176.779 171.528C178.19 171.131 177.569 168.942 176.155 169.339Z" fill="#244D9F"/>
<path d="M192.853 166.037C194.172 165.956 195.487 165.952 196.806 166.018C197.423 166.048 197.963 166.43 198.007 167.091C198.043 167.653 197.548 168.321 196.934 168.292C195.615 168.226 194.3 168.233 192.982 168.31C191.52 168.399 191.388 166.125 192.853 166.037Z" fill="#244D9F"/>
<path d="M210.562 171.95L207.608 172.413C209.834 187.393 202.04 191.786 202.04 191.786C202.04 191.786 200.908 184.259 198.319 183.249C195.759 182.25 191.248 185.666 187.542 186.247C183.835 186.827 180.684 185.538 178.55 187.268C176.39 189.02 177.517 192.902 177.517 192.902C177.517 192.902 173.117 191.316 170.795 179.638L170.733 179.649C171.497 187.194 169.976 209.153 193.195 205.527L194.546 205.318C210.617 202.809 214.525 188.061 213.456 178.996C213.456 178.996 211.546 178.279 210.558 171.954L210.562 171.95Z" fill="#244D9F"/>
<path d="M189.066 192.597C185.749 193.115 183.145 192.708 182.969 192.678L183.163 191.499C183.229 191.51 189.948 192.55 195.358 189.023L196.012 190.026C193.713 191.525 191.237 192.26 189.066 192.601V192.597Z" fill="#BC725C"/>
<path d="M208.685 145C206.621 141.79 197.581 136.665 188.192 138.157C178.954 139.622 168.566 146.899 167.809 150.469C166.557 156.387 169.058 166.991 169.058 166.991L169.47 169.026C169.47 169.026 168.757 156.677 169.213 155.553C169.429 155.013 176.291 158.01 183.557 156.857C191.436 155.605 199.465 149.915 199.869 150.4C200.644 151.329 202.227 158.808 202.352 159.138C202.474 159.469 205.298 161.111 205.555 161.842C205.809 162.573 207.609 172.413 207.609 172.413L210.562 171.95L210.782 166.646L213.783 164.946C213.783 164.946 211.95 150.087 208.681 145H208.685Z" fill="#244D9F"/>
<path d="M186.877 186.758C186.285 186.849 185.668 186.868 185.055 186.769C183.777 186.559 182.719 185.876 181.914 184.741C178.836 180.388 184.93 172.876 185.191 172.561L186.293 173.464C184.71 175.396 181.044 181.038 183.079 183.918C183.663 184.745 184.383 185.215 185.286 185.365C187.556 185.736 190.087 183.907 190.113 183.889L190.954 185.038C190.858 185.108 189.037 186.423 186.88 186.758H186.877Z" fill="#BC725C"/>
<path d="M168.323 163.535L169.469 169.031C169.469 169.031 176.654 162.973 180.827 161.75C186.41 160.112 205.669 162.309 205.669 162.309L204.269 157.063L184.845 156.02L168.397 160.634L168.323 163.535Z" fill="#BC725C"/>
<path d="M166.443 166.275L166.913 166.562C166.928 166.507 170.337 158.631 186.925 155.539C204.328 152.291 212.457 161.772 213.96 163.565L214.257 163.414C214.257 163.414 215.594 133.826 187.145 136.882C161.848 139.601 166.447 166.253 166.447 166.253" fill="#F15A24"/>
<path d="M183.042 149.669C173.635 150.969 168.856 154.187 165.951 157.419C165.315 160.699 163.214 164.299 165.444 167.469C165.808 167.66 166.208 167.814 166.649 167.906C170.032 168.623 172.963 160.321 183.387 158.246C193.812 156.17 196.688 165.779 200.791 164.714C204.898 163.649 207.183 158.385 207.183 158.385C207.183 158.385 200.453 147.266 183.042 149.669Z" fill="#D8471A"/>
<path d="M206.771 157.115C205.662 158.918 202.261 163.668 199.788 164.042C199.781 164.042 199.77 164.042 199.763 164.046C198.8 164.189 197.537 163.139 196.079 161.948C193.371 159.737 189.661 156.699 183.792 157.401C177.907 158.103 174.392 161.434 171.556 164.116C170.021 165.567 168.695 166.823 167.461 167.131C166.109 167.469 165.374 166.327 164.529 165.254C164.559 165.489 164.662 166.463 164.662 166.463C164.662 166.463 165.639 168.748 167.824 168.615C169.488 168.516 170.899 166.834 172.588 165.236C175.262 162.709 178.594 159.565 183.972 158.925C189.213 158.301 192.497 160.986 195.134 163.139C196.865 164.553 198.363 165.802 199.972 165.559C199.987 165.559 199.998 165.556 200.013 165.552C203.616 165.008 207.609 158.654 208.057 157.93L206.775 157.115H206.771Z" fill="#B23C18"/>
<path d="M175.093 143.263C173.767 144.644 173.462 149.026 174.098 150.525C174.098 150.525 184.772 146.811 193.305 147.851C193.305 147.851 194.139 142.286 192.794 140.644C191.45 139.002 178.656 139.546 175.09 143.263" fill="#D8471A"/>
<path d="M149.495 217.737C137.347 221.271 102.676 301.182 108.987 317.417C114.548 331.728 130.625 328.279 135.368 323.022C138.405 319.654 154.207 296.149 154.207 296.149C154.207 296.149 165.47 213.091 149.491 217.737H149.495Z" fill="#F15A24"/>
<path d="M175.872 238.215L163.648 203.948C162.204 199.893 161.213 198.644 156.911 198.883L138.461 199.786C137.796 199.827 134.979 201.527 135.118 203.878C135.118 203.904 135.129 203.93 135.137 203.955L135.232 204.227L148.496 241.518C148.797 242.362 149.616 242.91 150.513 242.858L174.106 241.044C175.373 240.864 176.302 239.439 175.869 238.215H175.872Z" fill="#173F7F"/>
<path d="M174.785 240.816C168.291 221.653 161.359 201.373 160.5 200.631C160.129 200.311 159.684 199.933 146.453 200.741C142.464 200.98 138.49 201.259 136.04 201.435C135.944 201.545 135.856 201.663 135.772 201.784C135.768 201.792 135.764 201.795 135.757 201.803C135.676 201.916 135.603 202.038 135.537 202.159C135.529 202.17 135.522 202.181 135.515 202.192C135.445 202.321 135.382 202.453 135.327 202.589C135.327 202.589 135.327 202.596 135.324 202.6C135.268 202.743 135.221 202.89 135.188 203.037C144.231 202.365 157.455 201.545 159.49 201.858C160.676 204.234 167.762 224.933 173.253 241.102L174.105 241.036C174.344 241.003 174.572 240.922 174.781 240.808L174.785 240.816Z" fill="#3B6CCE"/>
<path d="M147.842 250.149C147.607 249.8 139.004 235.141 137.223 229.789C135.441 224.437 140.455 219.122 140.455 219.122L142.898 224.654C142.898 224.654 144.826 223.015 151.842 218.027C158.737 213.127 163.508 212.848 163.457 215.346C163.409 217.722 156.349 223.063 152.408 226.692C151.174 227.827 151.096 229.164 151.096 229.164C151.096 229.164 163.123 221.039 168.17 220.216C173.213 219.397 171.879 224.698 171.879 224.698C171.879 224.698 174.829 224.793 174.965 227.001C175.101 229.208 173.158 231.141 173.158 231.141C173.158 231.141 174.814 231.967 174.59 234.854C174.366 237.741 165.172 246.818 165.146 247.516C165.121 248.214 166.976 251.119 166.061 254.304C165.238 257.162 140.209 300.373 135.764 303.18C133.458 304.638 126.861 303.598 124.488 302.412C118.166 299.249 117.285 292.604 117.637 289.559C118.111 285.471 148.121 250.557 147.846 250.146L147.842 250.149Z" fill="#E8A380"/>
<path d="M152.404 226.693C155.023 224.283 159.012 221.117 161.414 218.567C154.946 222.197 148.801 229.102 148.496 229.451L150.189 230.946C150.222 230.909 151.456 229.521 153.355 227.692C151.978 228.573 151.096 229.168 151.096 229.168C151.096 229.168 151.173 227.835 152.408 226.696L152.404 226.693Z" fill="#BC725C"/>
<path d="M171.876 224.701C171.876 224.701 172.137 223.658 171.99 222.571L171.931 223.081C169.473 224.606 158.402 231.555 153.668 236.213L155.251 237.826C159.806 233.352 170.954 226.351 173.187 224.966C172.5 224.731 171.876 224.705 171.876 224.705V224.701Z" fill="#BC725C"/>
<path d="M141.675 225.822L143.339 224.297C143.03 224.544 142.898 224.654 142.898 224.654L141.95 222.505L140.15 224.158L141.678 225.822H141.675Z" fill="#BC725C"/>
<path d="M174.304 229.569C171.681 230.667 164.232 237.852 159.828 242.238L161.422 243.839C166.256 239.023 171.78 233.907 174.135 232.221C173.712 231.427 173.158 231.144 173.158 231.144C173.158 231.144 173.786 230.516 174.304 229.569Z" fill="#BC725C"/>
<path d="M151.655 254.745C150.343 253.143 148.334 250.679 147.588 249.727C147.732 249.97 147.823 250.117 147.842 250.15C147.923 250.267 147.592 250.895 146.949 251.898C148.051 253.272 149.73 255.322 150.387 256.126L151.655 254.741V254.745Z" fill="#BC725C"/>
</g>
</svg>
