<svg width="291" height="370" viewBox="0 0 291 370" fill="none" xmlns="http://www.w3.org/2000/svg">
<path d="M0.167969 318V303.54H9.72797L9.71797 305.63H2.61797V309.68H8.88797V311.74H2.59797V315.88L9.86797 315.89V318H0.167969ZM12.1808 318V307.66H14.5608V309.14C14.7208 308.873 14.9374 308.617 15.2108 308.37C15.4908 308.123 15.8341 307.923 16.2408 307.77C16.6474 307.617 17.1241 307.54 17.6708 307.54C18.3108 307.54 18.9041 307.667 19.4508 307.92C20.0041 308.173 20.4474 308.57 20.7808 309.11C21.1208 309.65 21.2908 310.347 21.2908 311.2V318H18.8508V311.49C18.8508 310.81 18.6641 310.307 18.2908 309.98C17.9174 309.647 17.4474 309.48 16.8808 309.48C16.4941 309.48 16.1274 309.547 15.7808 309.68C15.4341 309.807 15.1508 310.003 14.9308 310.27C14.7174 310.53 14.6108 310.857 14.6108 311.25V318H12.1808ZM32.068 307.66L28.258 318H26.338L22.518 307.66H24.748L27.228 314.9H27.358L29.828 307.66H32.068ZM36.3119 307.66V318H33.9719V307.66H36.3119ZM36.3419 303.55V305.85H33.9319V303.55H36.3419ZM42.1811 318.2C41.5211 318.2 40.9278 318.08 40.4011 317.84C39.8811 317.593 39.4711 317.243 39.1711 316.79C38.8778 316.33 38.7311 315.773 38.7311 315.12C38.7311 313.98 39.1411 313.12 39.9611 312.54C40.7878 311.96 42.1044 311.657 43.9111 311.63L45.4511 311.59V310.89C45.4511 310.343 45.2878 309.917 44.9611 309.61C44.6411 309.297 44.1411 309.143 43.4611 309.15C42.9611 309.157 42.5011 309.277 42.0811 309.51C41.6678 309.737 41.3944 310.12 41.2611 310.66H39.1911C39.2311 309.953 39.4344 309.363 39.8011 308.89C40.1744 308.41 40.6844 308.053 41.3311 307.82C41.9778 307.58 42.7244 307.46 43.5711 307.46C44.5578 307.46 45.3611 307.59 45.9811 307.85C46.6011 308.11 47.0578 308.487 47.3511 308.98C47.6444 309.467 47.7911 310.057 47.7911 310.75V318H45.7411L45.5511 316.14C45.1778 316.92 44.7044 317.46 44.1311 317.76C43.5644 318.053 42.9144 318.2 42.1811 318.2ZM42.9711 316.55C43.2711 316.55 43.5678 316.497 43.8611 316.39C44.1544 316.277 44.4211 316.127 44.6611 315.94C44.9011 315.747 45.0911 315.533 45.2311 315.3C45.3778 315.067 45.4511 314.823 45.4511 314.57V312.94L44.1811 312.96C43.5544 312.967 43.0078 313.033 42.5411 313.16C42.0744 313.287 41.7078 313.49 41.4411 313.77C41.1811 314.043 41.0511 314.41 41.0511 314.87C41.0511 315.397 41.2344 315.81 41.6011 316.11C41.9678 316.403 42.4244 316.55 42.9711 316.55ZM44.7411 303.54H47.3411L44.4811 306.45H42.6811L44.7411 303.54ZM55.0519 321.22V307.66H57.4819L57.5019 309.29C57.6352 309.063 57.8052 308.84 58.0119 308.62C58.2252 308.4 58.4685 308.203 58.7419 308.03C59.0219 307.857 59.3319 307.72 59.6719 307.62C60.0119 307.513 60.3852 307.46 60.7919 307.46C61.5852 307.46 62.2885 307.65 62.9019 308.03C63.5152 308.403 63.9952 308.98 64.3419 309.76C64.6952 310.54 64.8719 311.527 64.8719 312.72C64.8719 313.94 64.6919 314.957 64.3319 315.77C63.9719 316.583 63.4685 317.193 62.8219 317.6C62.1752 318 61.4252 318.2 60.5719 318.2C60.1785 318.2 59.8185 318.147 59.4919 318.04C59.1719 317.933 58.8852 317.787 58.6319 317.6C58.3785 317.413 58.1552 317.21 57.9619 316.99C57.7752 316.77 57.6185 316.54 57.4919 316.3V321.22H55.0519ZM60.0319 316.38C60.7652 316.38 61.3719 316.09 61.8519 315.51C62.3319 314.923 62.5719 314.007 62.5719 312.76C62.5719 311.68 62.3452 310.83 61.8919 310.21C61.4452 309.583 60.8252 309.27 60.0319 309.27C59.1785 309.27 58.5385 309.6 58.1119 310.26C57.6852 310.913 57.4719 311.747 57.4719 312.76C57.4719 313.413 57.5652 314.017 57.7519 314.57C57.9452 315.117 58.2285 315.557 58.6019 315.89C58.9819 316.217 59.4585 316.38 60.0319 316.38ZM67.0245 318V307.66H69.3545V309.9C69.5212 309.387 69.7579 308.95 70.0645 308.59C70.3779 308.223 70.7445 307.943 71.1645 307.75C71.5845 307.557 72.0412 307.46 72.5345 307.46C72.6545 307.46 72.7712 307.467 72.8845 307.48C72.9979 307.493 73.0812 307.517 73.1345 307.55V309.88C73.0612 309.847 72.9645 309.823 72.8445 309.81C72.7312 309.797 72.6312 309.79 72.5445 309.79C72.0445 309.75 71.6012 309.77 71.2145 309.85C70.8345 309.93 70.5112 310.067 70.2445 310.26C69.9845 310.447 69.7879 310.687 69.6545 310.98C69.5212 311.267 69.4545 311.603 69.4545 311.99V318H67.0245ZM76.7666 313.39C76.7599 313.977 76.8532 314.497 77.0466 314.95C77.2399 315.403 77.5266 315.76 77.9066 316.02C78.2866 316.273 78.7566 316.4 79.3166 316.4C79.8899 316.4 80.3866 316.273 80.8066 316.02C81.2332 315.76 81.5166 315.367 81.6566 314.84H83.8866C83.7666 315.56 83.4799 316.17 83.0266 316.67C82.5732 317.17 82.0232 317.55 81.3766 317.81C80.7366 318.07 80.0699 318.2 79.3766 318.2C78.3766 318.2 77.4966 317.99 76.7366 317.57C75.9832 317.143 75.3932 316.537 74.9666 315.75C74.5466 314.963 74.3366 314.027 74.3366 312.94C74.3366 311.88 74.5299 310.94 74.9166 310.12C75.3032 309.293 75.8599 308.643 76.5866 308.17C77.3199 307.697 78.1999 307.46 79.2266 307.46C80.2466 307.46 81.1032 307.677 81.7966 308.11C82.4966 308.543 83.0232 309.15 83.3766 309.93C83.7366 310.703 83.9166 311.61 83.9166 312.65V313.39H76.7666ZM76.7666 311.88H81.6166C81.6166 311.38 81.5299 310.93 81.3566 310.53C81.1832 310.123 80.9166 309.803 80.5566 309.57C80.2032 309.33 79.7566 309.21 79.2166 309.21C78.6832 309.21 78.2332 309.34 77.8666 309.6C77.4999 309.86 77.2232 310.197 77.0366 310.61C76.8499 311.017 76.7599 311.44 76.7666 311.88ZM90.0161 318.2C89.2961 318.2 88.6128 318.087 87.9661 317.86C87.3261 317.627 86.7861 317.263 86.3461 316.77C85.9128 316.277 85.6394 315.64 85.5261 314.86H87.6661C87.7594 315.24 87.9228 315.55 88.1561 315.79C88.3961 316.03 88.6794 316.207 89.0061 316.32C89.3328 316.427 89.6661 316.48 90.0061 316.48C90.6261 316.48 91.1261 316.373 91.5061 316.16C91.8928 315.947 92.0861 315.617 92.0861 315.17C92.0861 314.843 91.9794 314.583 91.7661 314.39C91.5528 314.197 91.2128 314.05 90.7461 313.95L88.7761 313.5C87.9028 313.307 87.1994 312.987 86.6661 312.54C86.1394 312.093 85.8728 311.463 85.8661 310.65C85.8594 310.037 86.0128 309.49 86.3261 309.01C86.6394 308.53 87.1061 308.153 87.7261 307.88C88.3461 307.6 89.1128 307.46 90.0261 307.46C91.2328 307.46 92.1994 307.73 92.9261 308.27C93.6528 308.803 94.0261 309.567 94.0461 310.56H91.9761C91.9028 310.113 91.6928 309.767 91.3461 309.52C90.9994 309.267 90.5494 309.14 89.9961 309.14C89.4228 309.14 88.9528 309.25 88.5861 309.47C88.2194 309.69 88.0361 310.027 88.0361 310.48C88.0361 310.793 88.1761 311.04 88.4561 311.22C88.7361 311.4 89.1561 311.553 89.7161 311.68L91.5761 312.13C92.1094 312.263 92.5461 312.443 92.8861 312.67C93.2261 312.897 93.4928 313.147 93.6861 313.42C93.8794 313.687 94.0128 313.963 94.0861 314.25C94.1661 314.53 94.2061 314.79 94.2061 315.03C94.2061 315.697 94.0328 316.267 93.6861 316.74C93.3461 317.207 92.8628 317.567 92.2361 317.82C91.6094 318.073 90.8694 318.2 90.0161 318.2ZM100.297 318.2C99.7905 318.2 99.3005 318.127 98.8272 317.98C98.3605 317.827 97.9405 317.607 97.5672 317.32C97.1939 317.027 96.8972 316.667 96.6772 316.24C96.4572 315.813 96.3472 315.317 96.3472 314.75V307.66H98.7872V314.47C98.7872 315.03 98.9639 315.49 99.3172 315.85C99.6772 316.21 100.217 316.39 100.937 316.39C101.591 316.39 102.114 316.22 102.507 315.88C102.901 315.533 103.097 315.037 103.097 314.39V307.66H105.517V318H103.647L103.377 315.98C103.251 316.547 103.027 316.993 102.707 317.32C102.394 317.64 102.024 317.867 101.597 318C101.177 318.133 100.744 318.2 100.297 318.2ZM108.216 321.22V307.66H110.646L110.666 309.29C110.799 309.063 110.969 308.84 111.176 308.62C111.389 308.4 111.633 308.203 111.906 308.03C112.186 307.857 112.496 307.72 112.836 307.62C113.176 307.513 113.549 307.46 113.956 307.46C114.749 307.46 115.453 307.65 116.066 308.03C116.679 308.403 117.159 308.98 117.506 309.76C117.859 310.54 118.036 311.527 118.036 312.72C118.036 313.94 117.856 314.957 117.496 315.77C117.136 316.583 116.633 317.193 115.986 317.6C115.339 318 114.589 318.2 113.736 318.2C113.343 318.2 112.983 318.147 112.656 318.04C112.336 317.933 112.049 317.787 111.796 317.6C111.543 317.413 111.319 317.21 111.126 316.99C110.939 316.77 110.783 316.54 110.656 316.3V321.22H108.216ZM113.196 316.38C113.929 316.38 114.536 316.09 115.016 315.51C115.496 314.923 115.736 314.007 115.736 312.76C115.736 311.68 115.509 310.83 115.056 310.21C114.609 309.583 113.989 309.27 113.196 309.27C112.343 309.27 111.703 309.6 111.276 310.26C110.849 310.913 110.636 311.747 110.636 312.76C110.636 313.413 110.729 314.017 110.916 314.57C111.109 315.117 111.393 315.557 111.766 315.89C112.146 316.217 112.623 316.38 113.196 316.38ZM123.832 318.2C123.326 318.2 122.836 318.127 122.362 317.98C121.896 317.827 121.476 317.607 121.102 317.32C120.729 317.027 120.432 316.667 120.212 316.24C119.992 315.813 119.882 315.317 119.882 314.75V307.66H122.322V314.47C122.322 315.03 122.499 315.49 122.852 315.85C123.212 316.21 123.752 316.39 124.472 316.39C125.126 316.39 125.649 316.22 126.042 315.88C126.436 315.533 126.632 315.037 126.632 314.39V307.66H129.052V318H127.182L126.912 315.98C126.786 316.547 126.562 316.993 126.242 317.32C125.929 317.64 125.559 317.867 125.132 318C124.712 318.133 124.279 318.2 123.832 318.2ZM133.563 313.39C133.557 313.977 133.65 314.497 133.843 314.95C134.037 315.403 134.323 315.76 134.703 316.02C135.083 316.273 135.553 316.4 136.113 316.4C136.687 316.4 137.183 316.273 137.603 316.02C138.03 315.76 138.313 315.367 138.453 314.84H140.683C140.563 315.56 140.277 316.17 139.823 316.67C139.37 317.17 138.82 317.55 138.173 317.81C137.533 318.07 136.867 318.2 136.173 318.2C135.173 318.2 134.293 317.99 133.533 317.57C132.78 317.143 132.19 316.537 131.763 315.75C131.343 314.963 131.133 314.027 131.133 312.94C131.133 311.88 131.327 310.94 131.713 310.12C132.1 309.293 132.657 308.643 133.383 308.17C134.117 307.697 134.997 307.46 136.023 307.46C137.043 307.46 137.9 307.677 138.593 308.11C139.293 308.543 139.82 309.15 140.173 309.93C140.533 310.703 140.713 311.61 140.713 312.65V313.39H133.563ZM133.563 311.88H138.413C138.413 311.38 138.327 310.93 138.153 310.53C137.98 310.123 137.713 309.803 137.353 309.57C137 309.33 136.553 309.21 136.013 309.21C135.48 309.21 135.03 309.34 134.663 309.6C134.297 309.86 134.02 310.197 133.833 310.61C133.647 311.017 133.557 311.44 133.563 311.88ZM146.813 318.2C146.093 318.2 145.41 318.087 144.763 317.86C144.123 317.627 143.583 317.263 143.143 316.77C142.71 316.277 142.436 315.64 142.323 314.86H144.463C144.556 315.24 144.72 315.55 144.953 315.79C145.193 316.03 145.476 316.207 145.803 316.32C146.13 316.427 146.463 316.48 146.803 316.48C147.423 316.48 147.923 316.373 148.303 316.16C148.69 315.947 148.883 315.617 148.883 315.17C148.883 314.843 148.776 314.583 148.563 314.39C148.35 314.197 148.01 314.05 147.543 313.95L145.573 313.5C144.7 313.307 143.996 312.987 143.463 312.54C142.936 312.093 142.67 311.463 142.663 310.65C142.656 310.037 142.81 309.49 143.123 309.01C143.436 308.53 143.903 308.153 144.523 307.88C145.143 307.6 145.91 307.46 146.823 307.46C148.03 307.46 148.996 307.73 149.723 308.27C150.45 308.803 150.823 309.567 150.843 310.56H148.773C148.7 310.113 148.49 309.767 148.143 309.52C147.796 309.267 147.346 309.14 146.793 309.14C146.22 309.14 145.75 309.25 145.383 309.47C145.016 309.69 144.833 310.027 144.833 310.48C144.833 310.793 144.973 311.04 145.253 311.22C145.533 311.4 145.953 311.553 146.513 311.68L148.373 312.13C148.906 312.263 149.343 312.443 149.683 312.67C150.023 312.897 150.29 313.147 150.483 313.42C150.676 313.687 150.81 313.963 150.883 314.25C150.963 314.53 151.003 314.79 151.003 315.03C151.003 315.697 150.83 316.267 150.483 316.74C150.143 317.207 149.66 317.567 149.033 317.82C148.406 318.073 147.666 318.2 146.813 318.2ZM158.94 309.38H156.63L156.64 315.31C156.64 315.617 156.673 315.843 156.74 315.99C156.813 316.13 156.926 316.223 157.08 316.27C157.24 316.31 157.453 316.33 157.72 316.33H158.99V317.87C158.856 317.923 158.653 317.97 158.38 318.01C158.113 318.057 157.753 318.08 157.3 318.08C156.48 318.08 155.843 317.973 155.39 317.76C154.943 317.54 154.633 317.23 154.46 316.83C154.286 316.43 154.2 315.953 154.2 315.4V309.38H152.52V307.66H154.27L154.88 304.59H156.63V307.65H158.94V309.38ZM165.299 318.2C164.312 318.2 163.452 317.99 162.719 317.57C161.986 317.143 161.416 316.533 161.009 315.74C160.609 314.947 160.409 313.993 160.409 312.88C160.409 311.8 160.602 310.853 160.989 310.04C161.382 309.227 161.946 308.593 162.679 308.14C163.412 307.687 164.289 307.46 165.309 307.46C166.296 307.46 167.152 307.677 167.879 308.11C168.606 308.543 169.166 309.163 169.559 309.97C169.959 310.777 170.159 311.747 170.159 312.88C170.159 313.927 169.969 314.85 169.589 315.65C169.216 316.443 168.666 317.067 167.939 317.52C167.219 317.973 166.339 318.2 165.299 318.2ZM165.309 316.35C165.869 316.35 166.329 316.197 166.689 315.89C167.056 315.583 167.326 315.163 167.499 314.63C167.679 314.097 167.769 313.49 167.769 312.81C167.769 312.177 167.689 311.593 167.529 311.06C167.376 310.527 167.116 310.1 166.749 309.78C166.389 309.453 165.909 309.29 165.309 309.29C164.742 309.29 164.272 309.44 163.899 309.74C163.532 310.033 163.256 310.447 163.069 310.98C162.889 311.507 162.799 312.117 162.799 312.81C162.799 313.437 162.879 314.02 163.039 314.56C163.206 315.093 163.472 315.527 163.839 315.86C164.206 316.187 164.696 316.35 165.309 316.35ZM176.149 318.2C175.429 318.2 174.746 318.087 174.099 317.86C173.459 317.627 172.919 317.263 172.479 316.77C172.046 316.277 171.772 315.64 171.659 314.86H173.799C173.892 315.24 174.056 315.55 174.289 315.79C174.529 316.03 174.812 316.207 175.139 316.32C175.466 316.427 175.799 316.48 176.139 316.48C176.759 316.48 177.259 316.373 177.639 316.16C178.026 315.947 178.219 315.617 178.219 315.17C178.219 314.843 178.112 314.583 177.899 314.39C177.686 314.197 177.346 314.05 176.879 313.95L174.909 313.5C174.036 313.307 173.332 312.987 172.799 312.54C172.272 312.093 172.006 311.463 171.999 310.65C171.992 310.037 172.146 309.49 172.459 309.01C172.772 308.53 173.239 308.153 173.859 307.88C174.479 307.6 175.246 307.46 176.159 307.46C177.366 307.46 178.332 307.73 179.059 308.27C179.786 308.803 180.159 309.567 180.179 310.56H178.109C178.036 310.113 177.826 309.767 177.479 309.52C177.132 309.267 176.682 309.14 176.129 309.14C175.556 309.14 175.086 309.25 174.719 309.47C174.352 309.69 174.169 310.027 174.169 310.48C174.169 310.793 174.309 311.04 174.589 311.22C174.869 311.4 175.289 311.553 175.849 311.68L177.709 312.13C178.242 312.263 178.679 312.443 179.019 312.67C179.359 312.897 179.626 313.147 179.819 313.42C180.012 313.687 180.146 313.963 180.219 314.25C180.299 314.53 180.339 314.79 180.339 315.03C180.339 315.697 180.166 316.267 179.819 316.74C179.479 317.207 178.996 317.567 178.369 317.82C177.742 318.073 177.002 318.2 176.149 318.2ZM182.16 320.67L183.3 318.06L182.35 317.99V315.44H185.01V317.67L183.14 320.67H182.16ZM192.161 318V307.66H194.531V309.14C194.831 308.687 195.238 308.293 195.751 307.96C196.271 307.627 196.931 307.46 197.731 307.46C198.098 307.46 198.468 307.523 198.841 307.65C199.221 307.777 199.571 307.963 199.891 308.21C200.218 308.457 200.478 308.763 200.671 309.13C200.998 308.643 201.431 308.243 201.971 307.93C202.518 307.617 203.131 307.46 203.811 307.46C204.185 307.46 204.568 307.52 204.961 307.64C205.361 307.76 205.728 307.96 206.061 308.24C206.395 308.52 206.665 308.903 206.871 309.39C207.078 309.87 207.181 310.473 207.181 311.2V318H204.751V311.49C204.751 310.977 204.661 310.573 204.481 310.28C204.301 309.987 204.068 309.78 203.781 309.66C203.501 309.533 203.201 309.47 202.881 309.47C202.595 309.47 202.295 309.527 201.981 309.64C201.675 309.753 201.411 309.94 201.191 310.2C200.978 310.46 200.871 310.81 200.871 311.25V318H198.441V311.1C198.441 310.74 198.348 310.44 198.161 310.2C197.975 309.96 197.738 309.78 197.451 309.66C197.171 309.533 196.885 309.47 196.591 309.47C196.291 309.47 195.985 309.533 195.671 309.66C195.365 309.787 195.108 309.98 194.901 310.24C194.695 310.5 194.591 310.837 194.591 311.25V318H192.161ZM214.088 318.2C213.101 318.2 212.241 317.99 211.508 317.57C210.775 317.143 210.205 316.533 209.798 315.74C209.398 314.947 209.198 313.993 209.198 312.88C209.198 311.8 209.391 310.853 209.778 310.04C210.171 309.227 210.735 308.593 211.468 308.14C212.201 307.687 213.078 307.46 214.098 307.46C215.085 307.46 215.941 307.677 216.668 308.11C217.395 308.543 217.955 309.163 218.348 309.97C218.748 310.777 218.948 311.747 218.948 312.88C218.948 313.927 218.758 314.85 218.378 315.65C218.005 316.443 217.455 317.067 216.728 317.52C216.008 317.973 215.128 318.2 214.088 318.2ZM214.098 316.35C214.658 316.35 215.118 316.197 215.478 315.89C215.845 315.583 216.115 315.163 216.288 314.63C216.468 314.097 216.558 313.49 216.558 312.81C216.558 312.177 216.478 311.593 216.318 311.06C216.165 310.527 215.905 310.1 215.538 309.78C215.178 309.453 214.698 309.29 214.098 309.29C213.531 309.29 213.061 309.44 212.688 309.74C212.321 310.033 212.045 310.447 211.858 310.98C211.678 311.507 211.588 312.117 211.588 312.81C211.588 313.437 211.668 314.02 211.828 314.56C211.995 315.093 212.261 315.527 212.628 315.86C212.995 316.187 213.485 316.35 214.098 316.35ZM224.938 318.2C224.218 318.2 223.535 318.087 222.888 317.86C222.248 317.627 221.708 317.263 221.268 316.77C220.835 316.277 220.561 315.64 220.448 314.86H222.588C222.681 315.24 222.845 315.55 223.078 315.79C223.318 316.03 223.601 316.207 223.928 316.32C224.255 316.427 224.588 316.48 224.928 316.48C225.548 316.48 226.048 316.373 226.428 316.16C226.815 315.947 227.008 315.617 227.008 315.17C227.008 314.843 226.901 314.583 226.688 314.39C226.475 314.197 226.135 314.05 225.668 313.95L223.698 313.5C222.825 313.307 222.121 312.987 221.588 312.54C221.061 312.093 220.795 311.463 220.788 310.65C220.781 310.037 220.935 309.49 221.248 309.01C221.561 308.53 222.028 308.153 222.648 307.88C223.268 307.6 224.035 307.46 224.948 307.46C226.155 307.46 227.121 307.73 227.848 308.27C228.575 308.803 228.948 309.567 228.968 310.56H226.898C226.825 310.113 226.615 309.767 226.268 309.52C225.921 309.267 225.471 309.14 224.918 309.14C224.345 309.14 223.875 309.25 223.508 309.47C223.141 309.69 222.958 310.027 222.958 310.48C222.958 310.793 223.098 311.04 223.378 311.22C223.658 311.4 224.078 311.553 224.638 311.68L226.498 312.13C227.031 312.263 227.468 312.443 227.808 312.67C228.148 312.897 228.415 313.147 228.608 313.42C228.801 313.687 228.935 313.963 229.008 314.25C229.088 314.53 229.128 314.79 229.128 315.03C229.128 315.697 228.955 316.267 228.608 316.74C228.268 317.207 227.785 317.567 227.158 317.82C226.531 318.073 225.791 318.2 224.938 318.2ZM237.065 309.38H234.755L234.765 315.31C234.765 315.617 234.798 315.843 234.865 315.99C234.938 316.13 235.051 316.223 235.205 316.27C235.365 316.31 235.578 316.33 235.845 316.33H237.115V317.87C236.981 317.923 236.778 317.97 236.505 318.01C236.238 318.057 235.878 318.08 235.425 318.08C234.605 318.08 233.968 317.973 233.515 317.76C233.068 317.54 232.758 317.23 232.585 316.83C232.411 316.43 232.325 315.953 232.325 315.4V309.38H230.645V307.66H232.395L233.005 304.59H234.755V307.65H237.065V309.38ZM239.446 318V307.66H241.776V309.9C241.943 309.387 242.18 308.95 242.486 308.59C242.8 308.223 243.166 307.943 243.586 307.75C244.006 307.557 244.463 307.46 244.956 307.46C245.076 307.46 245.193 307.467 245.306 307.48C245.42 307.493 245.503 307.517 245.556 307.55V309.88C245.483 309.847 245.386 309.823 245.266 309.81C245.153 309.797 245.053 309.79 244.966 309.79C244.466 309.75 244.023 309.77 243.636 309.85C243.256 309.93 242.933 310.067 242.666 310.26C242.406 310.447 242.21 310.687 242.076 310.98C241.943 311.267 241.876 311.603 241.876 311.99V318H239.446ZM250.15 318.2C249.49 318.2 248.897 318.08 248.37 317.84C247.85 317.593 247.44 317.243 247.14 316.79C246.847 316.33 246.7 315.773 246.7 315.12C246.7 313.98 247.11 313.12 247.93 312.54C248.757 311.96 250.073 311.657 251.88 311.63L253.42 311.59V310.89C253.42 310.343 253.257 309.917 252.93 309.61C252.61 309.297 252.11 309.143 251.43 309.15C250.93 309.157 250.47 309.277 250.05 309.51C249.637 309.737 249.363 310.12 249.23 310.66H247.16C247.2 309.953 247.403 309.363 247.77 308.89C248.143 308.41 248.653 308.053 249.3 307.82C249.947 307.58 250.693 307.46 251.54 307.46C252.527 307.46 253.33 307.59 253.95 307.85C254.57 308.11 255.027 308.487 255.32 308.98C255.613 309.467 255.76 310.057 255.76 310.75V318H253.71L253.52 316.14C253.147 316.92 252.673 317.46 252.1 317.76C251.533 318.053 250.883 318.2 250.15 318.2ZM250.94 316.55C251.24 316.55 251.537 316.497 251.83 316.39C252.123 316.277 252.39 316.127 252.63 315.94C252.87 315.747 253.06 315.533 253.2 315.3C253.347 315.067 253.42 314.823 253.42 314.57V312.94L252.15 312.96C251.523 312.967 250.977 313.033 250.51 313.16C250.043 313.287 249.677 313.49 249.41 313.77C249.15 314.043 249.02 314.41 249.02 314.87C249.02 315.397 249.203 315.81 249.57 316.11C249.937 316.403 250.393 316.55 250.94 316.55ZM252.71 303.54H255.31L252.45 306.45H250.65L252.71 303.54ZM268.803 309.38H266.493L266.503 315.31C266.503 315.617 266.536 315.843 266.603 315.99C266.676 316.13 266.79 316.223 266.943 316.27C267.103 316.31 267.316 316.33 267.583 316.33H268.853V317.87C268.72 317.923 268.516 317.97 268.243 318.01C267.976 318.057 267.616 318.08 267.163 318.08C266.343 318.08 265.706 317.973 265.253 317.76C264.806 317.54 264.496 317.23 264.323 316.83C264.15 316.43 264.063 315.953 264.063 315.4V309.38H262.383V307.66H264.133L264.743 304.59H266.493V307.65H268.803V309.38ZM274.887 318.2C274.38 318.2 273.89 318.127 273.417 317.98C272.95 317.827 272.53 317.607 272.157 317.32C271.784 317.027 271.487 316.667 271.267 316.24C271.047 315.813 270.937 315.317 270.937 314.75V307.66H273.377V314.47C273.377 315.03 273.554 315.49 273.907 315.85C274.267 316.21 274.807 316.39 275.527 316.39C276.18 316.39 276.704 316.22 277.097 315.88C277.49 315.533 277.687 315.037 277.687 314.39V307.66H280.107V318H278.237L277.967 315.98C277.84 316.547 277.617 316.993 277.297 317.32C276.984 317.64 276.614 317.867 276.187 318C275.767 318.133 275.334 318.2 274.887 318.2ZM286.598 318.2C285.878 318.2 285.195 318.087 284.548 317.86C283.908 317.627 283.368 317.263 282.928 316.77C282.495 316.277 282.221 315.64 282.108 314.86H284.248C284.341 315.24 284.505 315.55 284.738 315.79C284.978 316.03 285.261 316.207 285.588 316.32C285.915 316.427 286.248 316.48 286.588 316.48C287.208 316.48 287.708 316.373 288.088 316.16C288.475 315.947 288.668 315.617 288.668 315.17C288.668 314.843 288.561 314.583 288.348 314.39C288.135 314.197 287.795 314.05 287.328 313.95L285.358 313.5C284.485 313.307 283.781 312.987 283.248 312.54C282.721 312.093 282.455 311.463 282.448 310.65C282.441 310.037 282.595 309.49 282.908 309.01C283.221 308.53 283.688 308.153 284.308 307.88C284.928 307.6 285.695 307.46 286.608 307.46C287.815 307.46 288.781 307.73 289.508 308.27C290.235 308.803 290.608 309.567 290.628 310.56H288.558C288.485 310.113 288.275 309.767 287.928 309.52C287.581 309.267 287.131 309.14 286.578 309.14C286.005 309.14 285.535 309.25 285.168 309.47C284.801 309.69 284.618 310.027 284.618 310.48C284.618 310.793 284.758 311.04 285.038 311.22C285.318 311.4 285.738 311.553 286.298 311.68L288.158 312.13C288.691 312.263 289.128 312.443 289.468 312.67C289.808 312.897 290.075 313.147 290.268 313.42C290.461 313.687 290.595 313.963 290.668 314.25C290.748 314.53 290.788 314.79 290.788 315.03C290.788 315.697 290.615 316.267 290.268 316.74C289.928 317.207 289.445 317.567 288.818 317.82C288.191 318.073 287.451 318.2 286.598 318.2ZM17.8546 342V327.14H20.2546V333.16C20.4213 332.9 20.6413 332.65 20.9146 332.41C21.1879 332.163 21.5213 331.963 21.9146 331.81C22.3146 331.65 22.7913 331.57 23.3446 331.57C24.0046 331.57 24.6079 331.697 25.1546 331.95C25.7013 332.203 26.1379 332.57 26.4646 333.05C26.7913 333.523 26.9546 334.09 26.9546 334.75V342H24.5146V335.16C24.5146 334.627 24.3246 334.213 23.9446 333.92C23.5713 333.627 23.0979 333.48 22.5246 333.48C22.1446 333.48 21.7813 333.547 21.4346 333.68C21.0879 333.813 20.8079 334.013 20.5946 334.28C20.3879 334.54 20.2846 334.867 20.2846 335.26V342H17.8546ZM33.8438 342.2C32.8572 342.2 31.9972 341.99 31.2638 341.57C30.5305 341.143 29.9605 340.533 29.5538 339.74C29.1538 338.947 28.9538 337.993 28.9538 336.88C28.9538 335.8 29.1472 334.853 29.5338 334.04C29.9272 333.227 30.4905 332.593 31.2238 332.14C31.9572 331.687 32.8338 331.46 33.8538 331.46C34.8405 331.46 35.6972 331.677 36.4238 332.11C37.1505 332.543 37.7105 333.163 38.1038 333.97C38.5038 334.777 38.7038 335.747 38.7038 336.88C38.7038 337.927 38.5138 338.85 38.1338 339.65C37.7605 340.443 37.2105 341.067 36.4838 341.52C35.7638 341.973 34.8838 342.2 33.8438 342.2ZM33.8538 340.35C34.4138 340.35 34.8738 340.197 35.2338 339.89C35.6005 339.583 35.8705 339.163 36.0438 338.63C36.2238 338.097 36.3138 337.49 36.3138 336.81C36.3138 336.177 36.2338 335.593 36.0738 335.06C35.9205 334.527 35.6605 334.1 35.2938 333.78C34.9338 333.453 34.4538 333.29 33.8538 333.29C33.2872 333.29 32.8172 333.44 32.4438 333.74C32.0772 334.033 31.8005 334.447 31.6138 334.98C31.4338 335.507 31.3438 336.117 31.3438 336.81C31.3438 337.437 31.4238 338.02 31.5838 338.56C31.7505 339.093 32.0172 339.527 32.3838 339.86C32.7505 340.187 33.2405 340.35 33.8538 340.35ZM40.8624 342V331.66H43.1924V333.9C43.3591 333.387 43.5958 332.95 43.9024 332.59C44.2158 332.223 44.5824 331.943 45.0024 331.75C45.4224 331.557 45.8791 331.46 46.3724 331.46C46.4924 331.46 46.6091 331.467 46.7224 331.48C46.8358 331.493 46.9191 331.517 46.9724 331.55V333.88C46.8991 333.847 46.8024 333.823 46.6824 333.81C46.5691 333.797 46.4691 333.79 46.3824 333.79C45.8824 333.75 45.4391 333.77 45.0524 333.85C44.6724 333.93 44.3491 334.067 44.0824 334.26C43.8224 334.447 43.6258 334.687 43.4924 334.98C43.3591 335.267 43.2924 335.603 43.2924 335.99V342H40.8624ZM51.5659 342.2C50.9059 342.2 50.3125 342.08 49.7859 341.84C49.2659 341.593 48.8559 341.243 48.5559 340.79C48.2625 340.33 48.1159 339.773 48.1159 339.12C48.1159 337.98 48.5259 337.12 49.3459 336.54C50.1725 335.96 51.4892 335.657 53.2959 335.63L54.8359 335.59V334.89C54.8359 334.343 54.6725 333.917 54.3459 333.61C54.0259 333.297 53.5259 333.143 52.8459 333.15C52.3459 333.157 51.8859 333.277 51.4659 333.51C51.0525 333.737 50.7792 334.12 50.6459 334.66H48.5759C48.6159 333.953 48.8192 333.363 49.1859 332.89C49.5592 332.41 50.0692 332.053 50.7159 331.82C51.3625 331.58 52.1092 331.46 52.9559 331.46C53.9425 331.46 54.7459 331.59 55.3659 331.85C55.9859 332.11 56.4425 332.487 56.7359 332.98C57.0292 333.467 57.1759 334.057 57.1759 334.75V342H55.1259L54.9359 340.14C54.5625 340.92 54.0892 341.46 53.5159 341.76C52.9492 342.053 52.2992 342.2 51.5659 342.2ZM52.3559 340.55C52.6559 340.55 52.9525 340.497 53.2459 340.39C53.5392 340.277 53.8059 340.127 54.0459 339.94C54.2859 339.747 54.4759 339.533 54.6159 339.3C54.7625 339.067 54.8359 338.823 54.8359 338.57V336.94L53.5659 336.96C52.9392 336.967 52.3925 337.033 51.9259 337.16C51.4592 337.287 51.0925 337.49 50.8259 337.77C50.5659 338.043 50.4359 338.41 50.4359 338.87C50.4359 339.397 50.6192 339.81 50.9859 340.11C51.3525 340.403 51.8092 340.55 52.3559 340.55ZM60.0226 342V331.66H62.3526V333.9C62.5192 333.387 62.7559 332.95 63.0626 332.59C63.3759 332.223 63.7426 331.943 64.1626 331.75C64.5826 331.557 65.0392 331.46 65.5326 331.46C65.6526 331.46 65.7692 331.467 65.8826 331.48C65.9959 331.493 66.0792 331.517 66.1326 331.55V333.88C66.0592 333.847 65.9626 333.823 65.8426 333.81C65.7292 333.797 65.6292 333.79 65.5426 333.79C65.0426 333.75 64.5992 333.77 64.2126 333.85C63.8326 333.93 63.5092 334.067 63.2426 334.26C62.9826 334.447 62.7859 334.687 62.6526 334.98C62.5192 335.267 62.4526 335.603 62.4526 335.99V342H60.0226ZM70.5013 331.66V342H68.1613V331.66H70.5013ZM70.5313 327.55V329.85H68.1213V327.55H70.5313ZM77.7305 342.2C76.7439 342.2 75.8839 341.99 75.1505 341.57C74.4172 341.143 73.8472 340.533 73.4405 339.74C73.0405 338.947 72.8405 337.993 72.8405 336.88C72.8405 335.8 73.0339 334.853 73.4205 334.04C73.8139 333.227 74.3772 332.593 75.1105 332.14C75.8439 331.687 76.7205 331.46 77.7405 331.46C78.7272 331.46 79.5839 331.677 80.3105 332.11C81.0372 332.543 81.5972 333.163 81.9905 333.97C82.3905 334.777 82.5905 335.747 82.5905 336.88C82.5905 337.927 82.4005 338.85 82.0205 339.65C81.6472 340.443 81.0972 341.067 80.3705 341.52C79.6505 341.973 78.7705 342.2 77.7305 342.2ZM77.7405 340.35C78.3005 340.35 78.7605 340.197 79.1205 339.89C79.4872 339.583 79.7572 339.163 79.9305 338.63C80.1105 338.097 80.2005 337.49 80.2005 336.81C80.2005 336.177 80.1205 335.593 79.9605 335.06C79.8072 334.527 79.5472 334.1 79.1805 333.78C78.8205 333.453 78.3405 333.29 77.7405 333.29C77.1739 333.29 76.7039 333.44 76.3305 333.74C75.9639 334.033 75.6872 334.447 75.5005 334.98C75.3205 335.507 75.2305 336.117 75.2305 336.81C75.2305 337.437 75.3105 338.02 75.4705 338.56C75.6372 339.093 75.9039 339.527 76.2705 339.86C76.6372 340.187 77.1272 340.35 77.7405 340.35ZM88.5805 342.2C87.8605 342.2 87.1772 342.087 86.5305 341.86C85.8905 341.627 85.3505 341.263 84.9105 340.77C84.4772 340.277 84.2039 339.64 84.0905 338.86H86.2305C86.3239 339.24 86.4872 339.55 86.7205 339.79C86.9605 340.03 87.2439 340.207 87.5705 340.32C87.8972 340.427 88.2305 340.48 88.5705 340.48C89.1905 340.48 89.6905 340.373 90.0705 340.16C90.4572 339.947 90.6505 339.617 90.6505 339.17C90.6505 338.843 90.5439 338.583 90.3305 338.39C90.1172 338.197 89.7772 338.05 89.3105 337.95L87.3405 337.5C86.4672 337.307 85.7639 336.987 85.2305 336.54C84.7039 336.093 84.4372 335.463 84.4305 334.65C84.4239 334.037 84.5772 333.49 84.8905 333.01C85.2039 332.53 85.6705 332.153 86.2905 331.88C86.9105 331.6 87.6772 331.46 88.5905 331.46C89.7972 331.46 90.7639 331.73 91.4905 332.27C92.2172 332.803 92.5905 333.567 92.6105 334.56H90.5405C90.4672 334.113 90.2572 333.767 89.9105 333.52C89.5639 333.267 89.1139 333.14 88.5605 333.14C87.9872 333.14 87.5172 333.25 87.1505 333.47C86.7839 333.69 86.6005 334.027 86.6005 334.48C86.6005 334.793 86.7405 335.04 87.0205 335.22C87.3005 335.4 87.7205 335.553 88.2805 335.68L90.1405 336.13C90.6739 336.263 91.1105 336.443 91.4505 336.67C91.7905 336.897 92.0572 337.147 92.2505 337.42C92.4439 337.687 92.5772 337.963 92.6505 338.25C92.7305 338.53 92.7705 338.79 92.7705 339.03C92.7705 339.697 92.5972 340.267 92.2505 340.74C91.9105 341.207 91.4272 341.567 90.8005 341.82C90.1739 342.073 89.4339 342.2 88.5805 342.2ZM102.953 342.2C101.587 342.2 100.513 341.73 99.7332 340.79C98.9532 339.85 98.5632 338.513 98.5632 336.78C98.5632 335.7 98.7199 334.763 99.0332 333.97C99.3532 333.17 99.8199 332.553 100.433 332.12C101.053 331.68 101.82 331.46 102.733 331.46C103.16 331.46 103.547 331.513 103.893 331.62C104.247 331.72 104.56 331.853 104.833 332.02C105.107 332.187 105.337 332.37 105.523 332.57C105.717 332.77 105.867 332.97 105.973 333.17V327.14H108.413V342H106.613L106.343 339.88C106.263 340.127 106.143 340.387 105.983 340.66C105.83 340.927 105.62 341.177 105.353 341.41C105.093 341.643 104.767 341.833 104.373 341.98C103.98 342.127 103.507 342.2 102.953 342.2ZM103.453 340.41C104.327 340.41 104.963 340.127 105.363 339.56C105.77 338.987 105.973 338.04 105.973 336.72C105.967 335.967 105.873 335.333 105.693 334.82C105.52 334.307 105.25 333.92 104.883 333.66C104.523 333.4 104.057 333.27 103.483 333.27C102.75 333.27 102.147 333.54 101.673 334.08C101.2 334.62 100.963 335.5 100.963 336.72C100.963 337.933 101.18 338.853 101.613 339.48C102.047 340.1 102.66 340.41 103.453 340.41ZM113.085 337.39C113.078 337.977 113.172 338.497 113.365 338.95C113.558 339.403 113.845 339.76 114.225 340.02C114.605 340.273 115.075 340.4 115.635 340.4C116.208 340.4 116.705 340.273 117.125 340.02C117.552 339.76 117.835 339.367 117.975 338.84H120.205C120.085 339.56 119.798 340.17 119.345 340.67C118.892 341.17 118.342 341.55 117.695 341.81C117.055 342.07 116.388 342.2 115.695 342.2C114.695 342.2 113.815 341.99 113.055 341.57C112.302 341.143 111.712 340.537 111.285 339.75C110.865 338.963 110.655 338.027 110.655 336.94C110.655 335.88 110.848 334.94 111.235 334.12C111.622 333.293 112.178 332.643 112.905 332.17C113.638 331.697 114.518 331.46 115.545 331.46C116.565 331.46 117.422 331.677 118.115 332.11C118.815 332.543 119.342 333.15 119.695 333.93C120.055 334.703 120.235 335.61 120.235 336.65V337.39H113.085ZM113.085 335.88H117.935C117.935 335.38 117.848 334.93 117.675 334.53C117.502 334.123 117.235 333.803 116.875 333.57C116.522 333.33 116.075 333.21 115.535 333.21C115.002 333.21 114.552 333.34 114.185 333.6C113.818 333.86 113.542 334.197 113.355 334.61C113.168 335.017 113.078 335.44 113.085 335.88ZM130.414 342.2C129.047 342.2 127.974 341.73 127.194 340.79C126.414 339.85 126.024 338.513 126.024 336.78C126.024 335.7 126.181 334.763 126.494 333.97C126.814 333.17 127.281 332.553 127.894 332.12C128.514 331.68 129.281 331.46 130.194 331.46C130.621 331.46 131.007 331.513 131.354 331.62C131.707 331.72 132.021 331.853 132.294 332.02C132.567 332.187 132.797 332.37 132.984 332.57C133.177 332.77 133.327 332.97 133.434 333.17V327.14H135.874V342H134.074L133.804 339.88C133.724 340.127 133.604 340.387 133.444 340.66C133.291 340.927 133.081 341.177 132.814 341.41C132.554 341.643 132.227 341.833 131.834 341.98C131.441 342.127 130.967 342.2 130.414 342.2ZM130.914 340.41C131.787 340.41 132.424 340.127 132.824 339.56C133.231 338.987 133.434 338.04 133.434 336.72C133.427 335.967 133.334 335.333 133.154 334.82C132.981 334.307 132.711 333.92 132.344 333.66C131.984 333.4 131.517 333.27 130.944 333.27C130.211 333.27 129.607 333.54 129.134 334.08C128.661 334.62 128.424 335.5 128.424 336.72C128.424 337.933 128.641 338.853 129.074 339.48C129.507 340.1 130.121 340.41 130.914 340.41ZM141.244 331.66V342H138.904V331.66H141.244ZM141.274 327.55V329.85H138.864V327.55H141.274ZM148.073 342.2C147.353 342.2 146.669 342.087 146.023 341.86C145.383 341.627 144.843 341.263 144.403 340.77C143.969 340.277 143.696 339.64 143.583 338.86H145.723C145.816 339.24 145.979 339.55 146.213 339.79C146.453 340.03 146.736 340.207 147.063 340.32C147.389 340.427 147.723 340.48 148.063 340.48C148.683 340.48 149.183 340.373 149.563 340.16C149.949 339.947 150.143 339.617 150.143 339.17C150.143 338.843 150.036 338.583 149.823 338.39C149.609 338.197 149.269 338.05 148.803 337.95L146.833 337.5C145.959 337.307 145.256 336.987 144.723 336.54C144.196 336.093 143.929 335.463 143.923 334.65C143.916 334.037 144.069 333.49 144.383 333.01C144.696 332.53 145.163 332.153 145.783 331.88C146.403 331.6 147.169 331.46 148.083 331.46C149.289 331.46 150.256 331.73 150.983 332.27C151.709 332.803 152.083 333.567 152.103 334.56H150.033C149.959 334.113 149.749 333.767 149.403 333.52C149.056 333.267 148.606 333.14 148.053 333.14C147.479 333.14 147.009 333.25 146.643 333.47C146.276 333.69 146.093 334.027 146.093 334.48C146.093 334.793 146.233 335.04 146.513 335.22C146.793 335.4 147.213 335.553 147.773 335.68L149.633 336.13C150.166 336.263 150.603 336.443 150.943 336.67C151.283 336.897 151.549 337.147 151.743 337.42C151.936 337.687 152.069 337.963 152.143 338.25C152.223 338.53 152.263 338.79 152.263 339.03C152.263 339.697 152.089 340.267 151.743 340.74C151.403 341.207 150.919 341.567 150.293 341.82C149.666 342.073 148.926 342.2 148.073 342.2ZM154.554 345.22V331.66H156.984L157.004 333.29C157.137 333.063 157.307 332.84 157.514 332.62C157.727 332.4 157.97 332.203 158.244 332.03C158.524 331.857 158.834 331.72 159.174 331.62C159.514 331.513 159.887 331.46 160.294 331.46C161.087 331.46 161.79 331.65 162.404 332.03C163.017 332.403 163.497 332.98 163.844 333.76C164.197 334.54 164.374 335.527 164.374 336.72C164.374 337.94 164.194 338.957 163.834 339.77C163.474 340.583 162.97 341.193 162.324 341.6C161.677 342 160.927 342.2 160.074 342.2C159.68 342.2 159.32 342.147 158.994 342.04C158.674 341.933 158.387 341.787 158.134 341.6C157.88 341.413 157.657 341.21 157.464 340.99C157.277 340.77 157.12 340.54 156.994 340.3V345.22H154.554ZM159.534 340.38C160.267 340.38 160.874 340.09 161.354 339.51C161.834 338.923 162.074 338.007 162.074 336.76C162.074 335.68 161.847 334.83 161.394 334.21C160.947 333.583 160.327 333.27 159.534 333.27C158.68 333.27 158.04 333.6 157.614 334.26C157.187 334.913 156.974 335.747 156.974 336.76C156.974 337.413 157.067 338.017 157.254 338.57C157.447 339.117 157.73 339.557 158.104 339.89C158.484 340.217 158.96 340.38 159.534 340.38ZM170.816 342.2C169.83 342.2 168.97 341.99 168.236 341.57C167.503 341.143 166.933 340.533 166.526 339.74C166.126 338.947 165.926 337.993 165.926 336.88C165.926 335.8 166.12 334.853 166.506 334.04C166.9 333.227 167.463 332.593 168.196 332.14C168.93 331.687 169.806 331.46 170.826 331.46C171.813 331.46 172.67 331.677 173.396 332.11C174.123 332.543 174.683 333.163 175.076 333.97C175.476 334.777 175.676 335.747 175.676 336.88C175.676 337.927 175.486 338.85 175.106 339.65C174.733 340.443 174.183 341.067 173.456 341.52C172.736 341.973 171.856 342.2 170.816 342.2ZM170.826 340.35C171.386 340.35 171.846 340.197 172.206 339.89C172.573 339.583 172.843 339.163 173.016 338.63C173.196 338.097 173.286 337.49 173.286 336.81C173.286 336.177 173.206 335.593 173.046 335.06C172.893 334.527 172.633 334.1 172.266 333.78C171.906 333.453 171.426 333.29 170.826 333.29C170.26 333.29 169.79 333.44 169.416 333.74C169.05 334.033 168.773 334.447 168.586 334.98C168.406 335.507 168.316 336.117 168.316 336.81C168.316 337.437 168.396 338.02 168.556 338.56C168.723 339.093 168.99 339.527 169.356 339.86C169.723 340.187 170.213 340.35 170.826 340.35ZM177.835 342V331.66H180.215V333.14C180.375 332.873 180.592 332.617 180.865 332.37C181.145 332.123 181.488 331.923 181.895 331.77C182.302 331.617 182.778 331.54 183.325 331.54C183.965 331.54 184.558 331.667 185.105 331.92C185.658 332.173 186.102 332.57 186.435 333.11C186.775 333.65 186.945 334.347 186.945 335.2V342H184.505V335.49C184.505 334.81 184.318 334.307 183.945 333.98C183.572 333.647 183.102 333.48 182.535 333.48C182.148 333.48 181.782 333.547 181.435 333.68C181.088 333.807 180.805 334.003 180.585 334.27C180.372 334.53 180.265 334.857 180.265 335.25V342H177.835ZM192.064 331.66V342H189.724V331.66H192.064ZM192.094 327.55V329.85H189.684V327.55H192.094ZM200.561 342.2C200.007 342.2 199.534 342.127 199.141 341.98C198.747 341.833 198.417 341.643 198.151 341.41C197.891 341.177 197.681 340.927 197.521 340.66C197.367 340.387 197.251 340.127 197.171 339.88L196.891 342H195.101V327.14H197.541V333.17C197.647 332.97 197.794 332.77 197.981 332.57C198.174 332.37 198.407 332.187 198.681 332.02C198.954 331.853 199.264 331.72 199.611 331.62C199.964 331.513 200.354 331.46 200.781 331.46C202.067 331.46 203.084 331.917 203.831 332.83C204.577 333.743 204.951 335.06 204.951 336.78C204.951 337.867 204.784 338.817 204.451 339.63C204.124 340.443 203.634 341.077 202.981 341.53C202.334 341.977 201.527 342.2 200.561 342.2ZM200.061 340.41C200.787 340.41 201.384 340.12 201.851 339.54C202.317 338.96 202.551 338.02 202.551 336.72C202.551 335.587 202.331 334.73 201.891 334.15C201.451 333.563 200.831 333.27 200.031 333.27C199.457 333.27 198.987 333.4 198.621 333.66C198.261 333.92 197.991 334.307 197.811 334.82C197.637 335.333 197.547 335.967 197.541 336.72C197.541 338.04 197.741 338.987 198.141 339.56C198.547 340.127 199.187 340.41 200.061 340.41ZM209.622 331.66V342H207.282V331.66H209.622ZM209.652 327.55V329.85H207.242V327.55H209.652ZM215.639 342.15C214.973 342.15 214.439 342.067 214.039 341.9C213.639 341.733 213.339 341.51 213.139 341.23C212.939 340.95 212.809 340.637 212.749 340.29C212.689 339.937 212.659 339.577 212.659 339.21V327.14H215.039V338.93C215.039 339.377 215.129 339.723 215.309 339.97C215.496 340.217 215.796 340.36 216.209 340.4L216.729 340.42V341.95C216.549 342.003 216.366 342.05 216.179 342.09C215.993 342.13 215.813 342.15 215.639 342.15ZM221.361 331.66V342H219.021V331.66H221.361ZM221.391 327.55V329.85H218.981V327.55H221.391ZM228.09 342.2C226.723 342.2 225.65 341.73 224.87 340.79C224.09 339.85 223.7 338.513 223.7 336.78C223.7 335.7 223.857 334.763 224.17 333.97C224.49 333.17 224.957 332.553 225.57 332.12C226.19 331.68 226.957 331.46 227.87 331.46C228.297 331.46 228.683 331.513 229.03 331.62C229.383 331.72 229.697 331.853 229.97 332.02C230.243 332.187 230.473 332.37 230.66 332.57C230.853 332.77 231.003 332.97 231.11 333.17V327.14H233.55V342H231.75L231.48 339.88C231.4 340.127 231.28 340.387 231.12 340.66C230.967 340.927 230.757 341.177 230.49 341.41C230.23 341.643 229.903 341.833 229.51 341.98C229.117 342.127 228.643 342.2 228.09 342.2ZM228.59 340.41C229.463 340.41 230.1 340.127 230.5 339.56C230.907 338.987 231.11 338.04 231.11 336.72C231.103 335.967 231.01 335.333 230.83 334.82C230.657 334.307 230.387 333.92 230.02 333.66C229.66 333.4 229.193 333.27 228.62 333.27C227.887 333.27 227.283 333.54 226.81 334.08C226.337 334.62 226.1 335.5 226.1 336.72C226.1 337.933 226.317 338.853 226.75 339.48C227.183 340.1 227.797 340.41 228.59 340.41ZM239.242 342.2C238.582 342.2 237.988 342.08 237.462 341.84C236.942 341.593 236.532 341.243 236.232 340.79C235.938 340.33 235.792 339.773 235.792 339.12C235.792 337.98 236.202 337.12 237.022 336.54C237.848 335.96 239.165 335.657 240.972 335.63L242.512 335.59V334.89C242.512 334.343 242.348 333.917 242.022 333.61C241.702 333.297 241.202 333.143 240.522 333.15C240.022 333.157 239.562 333.277 239.142 333.51C238.728 333.737 238.455 334.12 238.322 334.66H236.252C236.292 333.953 236.495 333.363 236.862 332.89C237.235 332.41 237.745 332.053 238.392 331.82C239.038 331.58 239.785 331.46 240.632 331.46C241.618 331.46 242.422 331.59 243.042 331.85C243.662 332.11 244.118 332.487 244.412 332.98C244.705 333.467 244.852 334.057 244.852 334.75V342H242.802L242.612 340.14C242.238 340.92 241.765 341.46 241.192 341.76C240.625 342.053 239.975 342.2 239.242 342.2ZM240.032 340.55C240.332 340.55 240.628 340.497 240.922 340.39C241.215 340.277 241.482 340.127 241.722 339.94C241.962 339.747 242.152 339.533 242.292 339.3C242.438 339.067 242.512 338.823 242.512 338.57V336.94L241.242 336.96C240.615 336.967 240.068 337.033 239.602 337.16C239.135 337.287 238.768 337.49 238.502 337.77C238.242 338.043 238.112 338.41 238.112 338.87C238.112 339.397 238.295 339.81 238.662 340.11C239.028 340.403 239.485 340.55 240.032 340.55ZM251.488 342.2C250.122 342.2 249.048 341.73 248.268 340.79C247.488 339.85 247.098 338.513 247.098 336.78C247.098 335.7 247.255 334.763 247.568 333.97C247.888 333.17 248.355 332.553 248.968 332.12C249.588 331.68 250.355 331.46 251.268 331.46C251.695 331.46 252.082 331.513 252.428 331.62C252.782 331.72 253.095 331.853 253.368 332.02C253.642 332.187 253.872 332.37 254.058 332.57C254.252 332.77 254.402 332.97 254.508 333.17V327.14H256.948V342H255.148L254.878 339.88C254.798 340.127 254.678 340.387 254.518 340.66C254.365 340.927 254.155 341.177 253.888 341.41C253.628 341.643 253.302 341.833 252.908 341.98C252.515 342.127 252.042 342.2 251.488 342.2ZM251.988 340.41C252.862 340.41 253.498 340.127 253.898 339.56C254.305 338.987 254.508 338.04 254.508 336.72C254.502 335.967 254.408 335.333 254.228 334.82C254.055 334.307 253.785 333.92 253.418 333.66C253.058 333.4 252.592 333.27 252.018 333.27C251.285 333.27 250.682 333.54 250.208 334.08C249.735 334.62 249.498 335.5 249.498 336.72C249.498 337.933 249.715 338.853 250.148 339.48C250.582 340.1 251.195 340.41 251.988 340.41ZM265.366 345.3C264.706 345.3 264.243 345.247 263.976 345.14C263.716 345.04 263.586 344.99 263.586 344.99V343.43L264.626 343.46C265.046 343.48 265.386 343.457 265.646 343.39C265.913 343.323 266.12 343.23 266.266 343.11C266.413 342.997 266.52 342.873 266.586 342.74C266.66 342.613 266.716 342.503 266.756 342.41L267.026 341.65L262.996 331.66H265.426L268.166 338.97L270.906 331.66H273.286L269.026 342.38C268.706 343.16 268.36 343.76 267.986 344.18C267.62 344.607 267.216 344.9 266.776 345.06C266.343 345.22 265.873 345.3 265.366 345.3ZM81.478 366.2C80.818 366.2 80.2246 366.08 79.698 365.84C79.178 365.593 78.768 365.243 78.468 364.79C78.1746 364.33 78.028 363.773 78.028 363.12C78.028 361.98 78.438 361.12 79.258 360.54C80.0846 359.96 81.4013 359.657 83.208 359.63L84.748 359.59V358.89C84.748 358.343 84.5846 357.917 84.258 357.61C83.938 357.297 83.438 357.143 82.758 357.15C82.258 357.157 81.798 357.277 81.378 357.51C80.9646 357.737 80.6913 358.12 80.558 358.66H78.488C78.528 357.953 78.7313 357.363 79.098 356.89C79.4713 356.41 79.9813 356.053 80.628 355.82C81.2746 355.58 82.0213 355.46 82.868 355.46C83.8546 355.46 84.658 355.59 85.278 355.85C85.898 356.11 86.3546 356.487 86.648 356.98C86.9413 357.467 87.088 358.057 87.088 358.75V366H85.038L84.848 364.14C84.4746 364.92 84.0013 365.46 83.428 365.76C82.8613 366.053 82.2113 366.2 81.478 366.2ZM82.268 364.55C82.568 364.55 82.8646 364.497 83.158 364.39C83.4513 364.277 83.718 364.127 83.958 363.94C84.198 363.747 84.388 363.533 84.528 363.3C84.6746 363.067 84.748 362.823 84.748 362.57V360.94L83.478 360.96C82.8513 360.967 82.3046 361.033 81.838 361.16C81.3713 361.287 81.0046 361.49 80.738 361.77C80.478 362.043 80.348 362.41 80.348 362.87C80.348 363.397 80.5313 363.81 80.898 364.11C81.2646 364.403 81.7213 364.55 82.268 364.55ZM94.5247 369.42C92.7847 369.42 91.448 369.187 90.5147 368.72C89.5814 368.253 89.1147 367.613 89.1147 366.8C89.1147 366.433 89.2047 366.127 89.3847 365.88C89.5647 365.633 89.778 365.43 90.0247 365.27C90.2714 365.11 90.498 364.987 90.7047 364.9C90.9114 364.813 91.0447 364.75 91.1047 364.71C90.9914 364.643 90.8414 364.557 90.6547 364.45C90.468 364.343 90.298 364.197 90.1447 364.01C89.998 363.823 89.9247 363.58 89.9247 363.28C89.9247 362.933 90.088 362.613 90.4147 362.32C90.748 362.027 91.2447 361.817 91.9047 361.69C91.258 361.377 90.7614 360.953 90.4147 360.42C90.068 359.887 89.8947 359.333 89.8947 358.76C89.8947 358.08 90.0914 357.497 90.4847 357.01C90.8847 356.523 91.438 356.15 92.1447 355.89C92.858 355.63 93.6814 355.5 94.6147 355.5C95.308 355.5 95.8814 355.577 96.3347 355.73C96.788 355.883 97.2114 356.09 97.6047 356.35C97.738 356.297 97.9247 356.223 98.1647 356.13C98.4114 356.03 98.678 355.923 98.9647 355.81C99.2514 355.69 99.5247 355.577 99.7847 355.47C100.051 355.357 100.278 355.263 100.465 355.19L100.445 357.2L98.6547 357.52C98.7414 357.713 98.808 357.923 98.8547 358.15C98.908 358.377 98.9347 358.577 98.9347 358.75C98.9347 359.35 98.7647 359.907 98.4247 360.42C98.0914 360.927 97.588 361.333 96.9147 361.64C96.248 361.947 95.4147 362.1 94.4147 362.1C94.3147 362.1 94.178 362.097 94.0047 362.09C93.8314 362.083 93.6914 362.077 93.5847 362.07C93.0447 362.09 92.6747 362.153 92.4747 362.26C92.2747 362.367 92.1747 362.483 92.1747 362.61C92.1747 362.79 92.3247 362.91 92.6247 362.97C92.9247 363.03 93.4047 363.083 94.0647 363.13C94.298 363.143 94.6047 363.16 94.9847 363.18C95.3647 363.2 95.788 363.227 96.2547 363.26C97.4347 363.333 98.328 363.63 98.9347 364.15C99.5414 364.663 99.8447 365.33 99.8447 366.15C99.8447 367.103 99.4047 367.887 98.5247 368.5C97.6447 369.113 96.3114 369.42 94.5247 369.42ZM94.9347 367.99C95.808 367.99 96.4547 367.87 96.8747 367.63C97.2947 367.39 97.5047 367.037 97.5047 366.57C97.5047 366.21 97.3614 365.917 97.0747 365.69C96.788 365.463 96.3614 365.33 95.7947 365.29L93.1847 365.13C92.898 365.11 92.6247 365.163 92.3647 365.29C92.1114 365.41 91.9047 365.58 91.7447 365.8C91.5847 366.013 91.5047 366.25 91.5047 366.51C91.5047 366.997 91.7847 367.363 92.3447 367.61C92.9047 367.863 93.768 367.99 94.9347 367.99ZM94.4947 360.67C95.128 360.67 95.6414 360.51 96.0347 360.19C96.428 359.863 96.6247 359.403 96.6247 358.81C96.6247 358.197 96.428 357.72 96.0347 357.38C95.6414 357.033 95.128 356.86 94.4947 356.86C93.848 356.86 93.3247 357.033 92.9247 357.38C92.5314 357.727 92.3347 358.203 92.3347 358.81C92.3347 359.383 92.5247 359.837 92.9047 360.17C93.2847 360.503 93.8147 360.67 94.4947 360.67ZM104.032 361.39C104.026 361.977 104.119 362.497 104.312 362.95C104.506 363.403 104.792 363.76 105.172 364.02C105.552 364.273 106.022 364.4 106.582 364.4C107.156 364.4 107.652 364.273 108.072 364.02C108.499 363.76 108.782 363.367 108.922 362.84H111.152C111.032 363.56 110.746 364.17 110.292 364.67C109.839 365.17 109.289 365.55 108.642 365.81C108.002 366.07 107.336 366.2 106.642 366.2C105.642 366.2 104.762 365.99 104.002 365.57C103.249 365.143 102.659 364.537 102.232 363.75C101.812 362.963 101.602 362.027 101.602 360.94C101.602 359.88 101.796 358.94 102.182 358.12C102.569 357.293 103.126 356.643 103.852 356.17C104.586 355.697 105.466 355.46 106.492 355.46C107.512 355.46 108.369 355.677 109.062 356.11C109.762 356.543 110.289 357.15 110.642 357.93C111.002 358.703 111.182 359.61 111.182 360.65V361.39H104.032ZM104.032 359.88H108.882C108.882 359.38 108.796 358.93 108.622 358.53C108.449 358.123 108.182 357.803 107.822 357.57C107.469 357.33 107.022 357.21 106.482 357.21C105.949 357.21 105.499 357.34 105.132 357.6C104.766 357.86 104.489 358.197 104.302 358.61C104.116 359.017 104.026 359.44 104.032 359.88ZM113.45 366V355.66H115.83V357.14C115.99 356.873 116.207 356.617 116.48 356.37C116.76 356.123 117.104 355.923 117.51 355.77C117.917 355.617 118.394 355.54 118.94 355.54C119.58 355.54 120.174 355.667 120.72 355.92C121.274 356.173 121.717 356.57 122.05 357.11C122.39 357.65 122.56 358.347 122.56 359.2V366H120.12V359.49C120.12 358.81 119.934 358.307 119.56 357.98C119.187 357.647 118.717 357.48 118.15 357.48C117.764 357.48 117.397 357.547 117.05 357.68C116.704 357.807 116.42 358.003 116.2 358.27C115.987 358.53 115.88 358.857 115.88 359.25V366H113.45ZM128.959 366.2C127.592 366.2 126.519 365.73 125.739 364.79C124.959 363.85 124.569 362.513 124.569 360.78C124.569 359.7 124.726 358.763 125.039 357.97C125.359 357.17 125.826 356.553 126.439 356.12C127.059 355.68 127.826 355.46 128.739 355.46C129.166 355.46 129.552 355.513 129.899 355.62C130.252 355.72 130.566 355.853 130.839 356.02C131.112 356.187 131.342 356.37 131.529 356.57C131.722 356.77 131.872 356.97 131.979 357.17V351.14H134.419V366H132.619L132.349 363.88C132.269 364.127 132.149 364.387 131.989 364.66C131.836 364.927 131.626 365.177 131.359 365.41C131.099 365.643 130.772 365.833 130.379 365.98C129.986 366.127 129.512 366.2 128.959 366.2ZM129.459 364.41C130.332 364.41 130.969 364.127 131.369 363.56C131.776 362.987 131.979 362.04 131.979 360.72C131.972 359.967 131.879 359.333 131.699 358.82C131.526 358.307 131.256 357.92 130.889 357.66C130.529 357.4 130.062 357.27 129.489 357.27C128.756 357.27 128.152 357.54 127.679 358.08C127.206 358.62 126.969 359.5 126.969 360.72C126.969 361.933 127.186 362.853 127.619 363.48C128.052 364.1 128.666 364.41 129.459 364.41ZM140.111 366.2C139.451 366.2 138.857 366.08 138.331 365.84C137.811 365.593 137.401 365.243 137.101 364.79C136.807 364.33 136.661 363.773 136.661 363.12C136.661 361.98 137.071 361.12 137.891 360.54C138.717 359.96 140.034 359.657 141.841 359.63L143.381 359.59V358.89C143.381 358.343 143.217 357.917 142.891 357.61C142.571 357.297 142.071 357.143 141.391 357.15C140.891 357.157 140.431 357.277 140.011 357.51C139.597 357.737 139.324 358.12 139.191 358.66H137.121C137.161 357.953 137.364 357.363 137.731 356.89C138.104 356.41 138.614 356.053 139.261 355.82C139.907 355.58 140.654 355.46 141.501 355.46C142.487 355.46 143.291 355.59 143.911 355.85C144.531 356.11 144.987 356.487 145.281 356.98C145.574 357.467 145.721 358.057 145.721 358.75V366H143.671L143.481 364.14C143.107 364.92 142.634 365.46 142.061 365.76C141.494 366.053 140.844 366.2 140.111 366.2ZM140.901 364.55C141.201 364.55 141.497 364.497 141.791 364.39C142.084 364.277 142.351 364.127 142.591 363.94C142.831 363.747 143.021 363.533 143.161 363.3C143.307 363.067 143.381 362.823 143.381 362.57V360.94L142.111 360.96C141.484 360.967 140.937 361.033 140.471 361.16C140.004 361.287 139.637 361.49 139.371 361.77C139.111 362.043 138.981 362.41 138.981 362.87C138.981 363.397 139.164 363.81 139.531 364.11C139.897 364.403 140.354 364.55 140.901 364.55ZM142.671 351.54H145.271L142.411 354.45H140.611L142.671 351.54ZM161.404 355.66L157.594 366H155.674L151.854 355.66H154.084L156.564 362.9H156.694L159.164 355.66H161.404ZM165.648 355.66V366H163.308V355.66H165.648ZM165.678 351.55V353.85H163.268V351.55H165.678ZM172.477 366.2C171.757 366.2 171.074 366.087 170.427 365.86C169.787 365.627 169.247 365.263 168.807 364.77C168.374 364.277 168.1 363.64 167.987 362.86H170.127C170.22 363.24 170.384 363.55 170.617 363.79C170.857 364.03 171.14 364.207 171.467 364.32C171.794 364.427 172.127 364.48 172.467 364.48C173.087 364.48 173.587 364.373 173.967 364.16C174.354 363.947 174.547 363.617 174.547 363.17C174.547 362.843 174.44 362.583 174.227 362.39C174.014 362.197 173.674 362.05 173.207 361.95L171.237 361.5C170.364 361.307 169.66 360.987 169.127 360.54C168.6 360.093 168.334 359.463 168.327 358.65C168.32 358.037 168.474 357.49 168.787 357.01C169.1 356.53 169.567 356.153 170.187 355.88C170.807 355.6 171.574 355.46 172.487 355.46C173.694 355.46 174.66 355.73 175.387 356.27C176.114 356.803 176.487 357.567 176.507 358.56H174.437C174.364 358.113 174.154 357.767 173.807 357.52C173.46 357.267 173.01 357.14 172.457 357.14C171.884 357.14 171.414 357.25 171.047 357.47C170.68 357.69 170.497 358.027 170.497 358.48C170.497 358.793 170.637 359.04 170.917 359.22C171.197 359.4 171.617 359.553 172.177 359.68L174.037 360.13C174.57 360.263 175.007 360.443 175.347 360.67C175.687 360.897 175.954 361.147 176.147 361.42C176.34 361.687 176.474 361.963 176.547 362.25C176.627 362.53 176.667 362.79 176.667 363.03C176.667 363.697 176.494 364.267 176.147 364.74C175.807 365.207 175.324 365.567 174.697 365.82C174.07 366.073 173.33 366.2 172.477 366.2ZM181.468 355.66V366H179.128V355.66H181.468ZM181.498 351.55V353.85H179.088V351.55H181.498ZM190.287 357.38H187.977L187.987 363.31C187.987 363.617 188.021 363.843 188.087 363.99C188.161 364.13 188.274 364.223 188.427 364.27C188.587 364.31 188.801 364.33 189.067 364.33H190.337V365.87C190.204 365.923 190.001 365.97 189.727 366.01C189.461 366.057 189.101 366.08 188.647 366.08C187.827 366.08 187.191 365.973 186.737 365.76C186.291 365.54 185.981 365.23 185.807 364.83C185.634 364.43 185.547 363.953 185.547 363.4V357.38H183.867V355.66H185.617L186.227 352.59H187.977V355.65H190.287V357.38ZM195.54 366.2C194.88 366.2 194.287 366.08 193.76 365.84C193.24 365.593 192.83 365.243 192.53 364.79C192.237 364.33 192.09 363.773 192.09 363.12C192.09 361.98 192.5 361.12 193.32 360.54C194.147 359.96 195.464 359.657 197.27 359.63L198.81 359.59V358.89C198.81 358.343 198.647 357.917 198.32 357.61C198 357.297 197.5 357.143 196.82 357.15C196.32 357.157 195.86 357.277 195.44 357.51C195.027 357.737 194.754 358.12 194.62 358.66H192.55C192.59 357.953 192.794 357.363 193.16 356.89C193.534 356.41 194.044 356.053 194.69 355.82C195.337 355.58 196.084 355.46 196.93 355.46C197.917 355.46 198.72 355.59 199.34 355.85C199.96 356.11 200.417 356.487 200.71 356.98C201.004 357.467 201.15 358.057 201.15 358.75V366H199.1L198.91 364.14C198.537 364.92 198.064 365.46 197.49 365.76C196.924 366.053 196.274 366.2 195.54 366.2ZM196.33 364.55C196.63 364.55 196.927 364.497 197.22 364.39C197.514 364.277 197.78 364.127 198.02 363.94C198.26 363.747 198.45 363.533 198.59 363.3C198.737 363.067 198.81 362.823 198.81 362.57V360.94L197.54 360.96C196.914 360.967 196.367 361.033 195.9 361.16C195.434 361.287 195.067 361.49 194.8 361.77C194.54 362.043 194.41 362.41 194.41 362.87C194.41 363.397 194.594 363.81 194.96 364.11C195.327 364.403 195.784 364.55 196.33 364.55ZM207.731 366.2C207.011 366.2 206.328 366.087 205.681 365.86C205.041 365.627 204.501 365.263 204.061 364.77C203.628 364.277 203.354 363.64 203.241 362.86H205.381C205.474 363.24 205.638 363.55 205.871 363.79C206.111 364.03 206.394 364.207 206.721 364.32C207.048 364.427 207.381 364.48 207.721 364.48C208.341 364.48 208.841 364.373 209.221 364.16C209.608 363.947 209.801 363.617 209.801 363.17C209.801 362.843 209.694 362.583 209.481 362.39C209.268 362.197 208.928 362.05 208.461 361.95L206.491 361.5C205.618 361.307 204.914 360.987 204.381 360.54C203.854 360.093 203.588 359.463 203.581 358.65C203.574 358.037 203.728 357.49 204.041 357.01C204.354 356.53 204.821 356.153 205.441 355.88C206.061 355.6 206.828 355.46 207.741 355.46C208.948 355.46 209.914 355.73 210.641 356.27C211.368 356.803 211.741 357.567 211.761 358.56H209.691C209.618 358.113 209.408 357.767 209.061 357.52C208.714 357.267 208.264 357.14 207.711 357.14C207.138 357.14 206.668 357.25 206.301 357.47C205.934 357.69 205.751 358.027 205.751 358.48C205.751 358.793 205.891 359.04 206.171 359.22C206.451 359.4 206.871 359.553 207.431 359.68L209.291 360.13C209.824 360.263 210.261 360.443 210.601 360.67C210.941 360.897 211.208 361.147 211.401 361.42C211.594 361.687 211.728 361.963 211.801 362.25C211.881 362.53 211.921 362.79 211.921 363.03C211.921 363.697 211.748 364.267 211.401 364.74C211.061 365.207 210.578 365.567 209.951 365.82C209.324 366.073 208.584 366.2 207.731 366.2Z" fill="#141518"/>
<path d="M73.8684 235.94H43.5632C39.7326 235.94 36.5324 233.012 36.1929 229.2L19.3311 40.4591C18.9432 36.1255 22.3556 32.3979 26.7014 32.3979H57.0065C60.8371 32.3979 64.0373 35.3254 64.3768 39.1378L81.2386 227.879C81.6265 232.206 78.2141 235.934 73.8684 235.934V235.94Z" fill="#E1EDFD"/>
<path d="M42.9572 235.94L34.8233 213.696L20.5375 54.1995H26.6955L42.9572 235.94Z" fill="#3B6CCE"/>
<path d="M26.6957 54.1995H20.5377L19.0164 36.6104C18.7982 34.1011 20.7741 31.9495 23.2894 31.9495H31.7445L26.6957 54.1995Z" fill="#173F7F"/>
<path d="M50.1819 235.94H42.9451C39.466 235.94 36.5567 233.279 36.2537 229.812L34.8293 213.69H40.9874L50.1819 235.94Z" fill="#173F7F"/>
<path d="M47.9578 235.94H77.8629C80.0692 235.94 81.7966 234.049 81.6026 231.855L80.0086 213.69H40.9997L42.515 230.952C42.7635 233.77 45.1273 235.934 47.9578 235.934V235.94Z" fill="#3B6CCE"/>
<path d="M26.6956 54.1995H65.7226L64.2256 37.1074C63.971 34.186 61.5284 31.9495 58.6009 31.9495H29.8171C27.1017 31.9495 24.9743 34.2708 25.2046 36.9741L26.6956 54.1935V54.1995Z" fill="#3B6CCE"/>
<path d="M39.9025 43.0715H52.5276" stroke="white" stroke-width="1.37586" stroke-miterlimit="10"/>
<path d="M62.904 230.145C64.2129 230.145 65.2739 227.82 65.2739 224.951C65.2739 222.082 64.2129 219.757 62.904 219.757C61.5952 219.757 60.5342 222.082 60.5342 224.951C60.5342 227.82 61.5952 230.145 62.904 230.145Z" stroke="white" stroke-width="0.430334" stroke-miterlimit="10"/>
<path d="M216.473 235.94H246.778C250.609 235.94 253.809 233.012 254.148 229.2L271.016 40.4592C271.404 36.1316 267.992 32.4041 263.646 32.4041H233.341C229.51 32.4041 226.31 35.3315 225.971 39.1439L209.109 227.885C208.721 232.212 212.133 235.94 216.479 235.94H216.473Z" fill="#E1EDFD"/>
<path d="M247.39 235.939L255.518 213.695L269.81 54.1992H263.646L247.39 235.939Z" fill="#3B6CCE"/>
<path d="M263.646 54.1993H269.804L271.325 36.6102C271.55 34.1009 269.574 31.9492 267.058 31.9492H258.603L263.652 54.1993H263.646Z" fill="#173F7F"/>
<path d="M240.16 235.94H247.396C250.875 235.94 253.785 233.279 254.088 229.812L255.512 213.689H249.354L240.16 235.94Z" fill="#173F7F"/>
<path d="M242.384 235.94H212.479C210.272 235.94 208.545 234.048 208.739 231.854L210.333 213.689H249.336L247.821 230.951C247.572 233.77 245.208 235.933 242.378 235.933L242.384 235.94Z" fill="#3B6CCE"/>
<path d="M263.646 54.1993H224.619L226.116 37.1072C226.371 34.1857 228.813 31.9492 231.747 31.9492H260.531C263.246 31.9492 265.373 34.2706 265.143 36.9738L263.652 54.1932L263.646 54.1993Z" fill="#3B6CCE"/>
<path d="M250.445 43.0713H237.814" stroke="white" stroke-width="1.37586" stroke-miterlimit="10"/>
<path d="M227.443 230.145C228.752 230.145 229.813 227.819 229.813 224.951C229.813 222.082 228.752 219.756 227.443 219.756C226.135 219.756 225.074 222.082 225.074 224.951C225.074 227.819 226.135 230.145 227.443 230.145Z" stroke="white" stroke-width="0.430334" stroke-miterlimit="10"/>
<mask id="mask0_36_12441" style="mask-type:alpha" maskUnits="userSpaceOnUse" x="31" y="2" width="118" height="206">
<path d="M31.9324 113.027L50.3366 86.6646L84.6579 74.7268L108.534 11.5558L137.383 2.10498L148.824 39.9081L145.839 105.566L110.523 207.038L39.3936 195.597L31.9324 113.027Z" fill="#FD682A"/>
</mask>
<g mask="url(#mask0_36_12441)">
<path d="M-18.2526 102.251L-23.4951 169.436C-23.4951 169.436 45.8596 202.832 61.6289 193.832C77.3982 184.832 125.834 102.74 125.834 102.74L99.0851 81.3343L50.3399 135.879L-18.261 102.249L-18.2526 102.251Z" fill="#4283F2"/>
<path d="M103.163 84.6038L109.985 74.2662C109.985 74.2662 110.64 40.8493 110.711 37.5739C110.782 34.2985 109.912 24.7631 113.472 24.0643C117.502 23.2814 118.485 27.4573 118.485 27.4573C118.485 27.4573 121.695 27.147 122.896 29.4149C124.097 31.6829 124.673 45.506 124.673 45.506C124.673 45.506 128.115 45.9663 128.526 48.5828C128.936 51.1993 131.443 75.9244 131.203 80.2555C130.962 84.5866 128.075 90.1749 126.134 93.0058C124.194 95.8366 121.416 99.1889 121.416 99.1889L103.166 84.587L103.163 84.6038Z" fill="#E8A380"/>
<path d="M119.708 70.6487C119.66 69.8576 118.633 51.3629 120.123 48.4475C121.696 45.348 125.241 45.9117 125.274 45.9174L125.133 46.7541C125.016 46.7343 122.172 46.2976 120.884 48.834C119.737 51.0931 120.264 65.3124 120.559 70.6029L119.716 70.6501L119.708 70.6487Z" fill="#BC725C"/>
<path d="M116.702 66.1232C116.662 64.7309 115.642 32.0641 115.756 29.9062C115.867 27.9199 117.544 27.1615 118.425 27.0433L118.542 27.8806C118.471 27.8944 116.703 28.1726 116.608 29.9553C116.491 32.0783 117.539 65.7566 117.549 66.1026L116.701 66.1316L116.702 66.1232Z" fill="#BC725C"/>
<path d="M111.742 31.3922L110.895 31.4514L113.21 64.524L114.057 64.4648L111.742 31.3922Z" fill="#BC725C"/>
<path d="M47.8415 140.512L43.3865 155.308L44.199 155.553L48.654 140.756L47.8415 140.512Z" fill="#244D9F"/>
<path d="M53.0054 140.507L52.2044 140.787L56.6299 153.443L57.4309 153.162L53.0054 140.507Z" fill="#244D9F"/>
</g>
<mask id="mask1_36_12441" style="mask-type:alpha" maskUnits="userSpaceOnUse" x="147" y="0" width="112" height="211">
<path d="M258.254 115.017L241.839 93.6284L211 64.2812L204.036 8.07394L188.119 0.612793L147.829 8.07394L149.819 70.2501L185.632 195.597L235.968 210.062L250.996 197.382L258.254 115.017Z" fill="#FD682A"/>
</mask>
<g mask="url(#mask1_36_12441)">
<path d="M170.077 96.7465C170.077 96.7465 167.2 91.3921 166.64 87.6414C166.08 83.8908 165.121 76.5422 168.354 68.8711C171.588 61.2001 177.018 50.7457 176.704 47.5466C176.39 44.3476 175.109 39.0016 173.268 37.6439C171.426 36.2862 169.916 34.2072 171.027 31.9755C171.027 31.9755 170.79 26.307 173.666 25.9082C173.666 25.9082 173.336 20.5198 176.144 19.5949C180.777 18.0759 183.255 22.7091 183.255 22.7091C183.255 22.7091 185.334 23.1079 187.091 24.7881C188.847 26.4683 195.398 32.5355 195.797 44.8312C196.196 57.127 191.724 70.5513 190.765 73.5807C189.806 76.6101 187.727 81.6505 187.727 81.6505L188.126 86.6062L170.077 96.7465Z" fill="#DCA37B"/>
<path d="M169.127 77.1532L168.321 76.8986C168.414 76.6016 177.927 46.8254 178.538 44.721C179.361 41.9037 181.949 40.6648 184.104 40.9024C185.878 41.0976 187.855 42.3874 188.075 45.4507C188.474 51.0852 187.447 65.6466 187.439 65.7993L186.59 65.7399C186.599 65.5957 187.626 51.0937 187.227 45.5186C187.074 43.3632 185.878 41.9546 184.011 41.751C182.212 41.5643 180.039 42.5995 179.352 44.967C178.733 47.08 169.22 76.8646 169.127 77.1616V77.1532Z" fill="#CC805D"/>
<path d="M179.293 44.3813L178.445 44.3388C178.826 36.6678 171.648 30.9315 171.58 30.8806L172.106 30.2102C172.42 30.4563 179.7 36.269 179.293 44.3813Z" fill="#CC805D"/>
<path d="M181.397 41.4877C181.321 31.9583 174.558 25 174.49 24.9321L175.092 24.3381C175.16 24.406 182.161 31.6019 182.246 41.4877H181.397Z" fill="#CC805D"/>
<path d="M184.113 41.5814C184.113 41.539 183.943 37.1434 182.865 34.3771C182.492 33.4267 181.703 32.2387 180.871 30.9743C179.165 28.4032 177.4 25.7472 178.156 23.7615C179.072 21.3516 181.499 21.097 182.645 21.3007L182.5 22.1408C182.399 22.1238 179.844 21.7165 178.945 24.067C178.342 25.6368 180.065 28.225 181.575 30.4991C182.441 31.7974 183.256 33.0279 183.654 34.0631C184.783 36.9737 184.953 41.3608 184.961 41.5475L184.113 41.5814Z" fill="#CC805D"/>
<path d="M305.474 97.1302L298.6 174.469C298.6 174.469 224.471 211.617 210.41 200.119C196.349 188.621 162.254 99.6149 162.254 99.6149L192.191 82.9575L231.183 144.852L305.474 97.1302Z" fill="#F3B956"/>
<path d="M232.906 151.509L232.064 151.615L233.979 166.948L234.821 166.843L232.906 151.509Z" fill="#E09A34" stroke="#E09A34" stroke-width="0.848566" stroke-miterlimit="10"/>
<path d="M227.81 150.616L221.337 162.357L222.08 162.767L228.553 151.026L227.81 150.616Z" fill="#E09A34" stroke="#E09A34" stroke-width="0.848566" stroke-miterlimit="10"/>
</g>
</svg>
