<svg width="18" height="18" viewBox="0 0 18 18" fill="none" xmlns="http://www.w3.org/2000/svg">
<path fill-rule="evenodd" clip-rule="evenodd" d="M9.0001 17.4001C13.6393 17.4001 17.4001 13.6393 17.4001 9.0001C17.4001 4.36091 13.6393 0.600098 9.0001 0.600098C4.36091 0.600098 0.600098 4.36091 0.600098 9.0001C0.600098 13.6393 4.36091 17.4001 9.0001 17.4001ZM10.0001 4.8001C10.0001 4.24781 9.55238 3.8001 9.0001 3.8001C8.44781 3.8001 8.0001 4.24781 8.0001 4.8001V9.0001C8.0001 9.26531 8.10545 9.51967 8.29299 9.7072L11.2628 12.6771C11.6534 13.0676 12.2865 13.0676 12.6771 12.6771C13.0676 12.2865 13.0676 11.6534 12.6771 11.2628L10.0001 8.58588V4.8001Z" fill="#141518"/>
</svg>
