<svg width="14" height="14" viewBox="0 0 14 14" fill="none" xmlns="http://www.w3.org/2000/svg">
<path fill-rule="evenodd" clip-rule="evenodd" d="M0.341709 0.341709C0.79732 -0.113903 1.53601 -0.113903 1.99162 0.341709L7 5.35008L12.0084 0.341709C12.464 -0.113903 13.2027 -0.113903 13.6583 0.341709C14.1139 0.79732 14.1139 1.53601 13.6583 1.99162L8.64991 7L13.6583 12.0084C14.1139 12.464 14.1139 13.2027 13.6583 13.6583C13.2027 14.1139 12.464 14.1139 12.0084 13.6583L7 8.64991L1.99162 13.6583C1.53601 14.1139 0.79732 14.1139 0.341709 13.6583C-0.113903 13.2027 -0.113903 12.464 0.341709 12.0084L5.35008 7L0.341709 1.99162C-0.113903 1.53601 -0.113903 0.79732 0.341709 0.341709Z" fill="#171717"/>
</svg>
