<svg width="34" height="27" viewBox="0 0 34 27" fill="none" xmlns="http://www.w3.org/2000/svg">
<g clip-path="url(#clip0_420_3123)">
<path d="M32.2671 1.89307H1.7334V20.2969H32.2671V1.89307Z" stroke="#141518" stroke-width="2.09135" stroke-linejoin="round"/>
<path d="M7.72852 11.5132H10.517" stroke="#141518" stroke-width="2.09135" stroke-linecap="round" stroke-linejoin="round"/>
<path d="M23.9014 11.5132H26.6898" stroke="#141518" stroke-width="2.09135" stroke-linecap="round" stroke-linejoin="round"/>
<path d="M1.7334 8.30653C5.35282 8.30653 8.28628 5.43581 8.28628 1.89307" stroke="#141518" stroke-width="2.09135" stroke-linejoin="round"/>
<path d="M25.9229 1.82324C25.9229 5.44267 28.7936 8.37613 32.3363 8.37613" stroke="#141518" stroke-width="2.09135" stroke-linejoin="round"/>
<path d="M32.3361 13.8833C28.7167 13.8833 25.7832 16.754 25.7832 20.2968" stroke="#141518" stroke-width="2.09135" stroke-linejoin="round"/>
<path d="M8.14686 20.3664C8.14686 16.7469 5.27614 13.8135 1.7334 13.8135" stroke="#141518" stroke-width="2.09135" stroke-linejoin="round"/>
<path d="M2.70898 23.2246H31.709V24.814C31.709 25.553 31.1095 26.1525 30.3705 26.1525H4.04745C3.3085 26.1525 2.70898 25.553 2.70898 24.814V23.2246Z" fill="#FD682A"/>
<path d="M17.1966 15.5312C16.098 15.5312 15.2182 15.322 14.5574 14.9038C13.8965 14.4855 13.5284 13.8177 13.4531 12.8975H15.7662C15.8303 13.1875 15.9864 13.4147 16.2332 13.5793C16.48 13.7438 16.7965 13.826 17.1869 13.826C17.4197 13.826 17.6107 13.7912 17.7627 13.7201C17.9133 13.649 18.0248 13.5569 18.0973 13.4426C18.1698 13.3283 18.2061 13.2042 18.2061 13.0704C18.2061 12.818 18.1196 12.6479 17.9481 12.5573C17.7766 12.468 17.5145 12.3942 17.1632 12.337L15.8693 12.1195C15.2238 12.0163 14.7038 11.7598 14.3064 11.3499C13.909 10.94 13.7055 10.3837 13.6943 9.68098C13.686 9.12329 13.8393 8.64786 14.153 8.25189C14.4653 7.85733 14.8864 7.55478 15.4148 7.34704C15.9432 7.1393 16.526 7.03473 17.1632 7.03473C17.8394 7.03473 18.425 7.14906 18.9241 7.37771C19.4232 7.60637 19.8038 7.91867 20.0687 8.31324C20.3337 8.70781 20.4536 9.15257 20.4271 9.64473H18.1712C18.1489 9.39238 18.0792 9.18045 17.9649 9.00896C17.8505 8.83747 17.5982 8.75103 17.2092 8.75103C16.9917 8.75103 16.8104 8.77055 16.6654 8.81098C16.5204 8.85141 16.4033 8.903 16.3169 8.96574C16.229 9.02848 16.1677 9.09819 16.1314 9.17488C16.0952 9.25156 16.0771 9.32824 16.0771 9.40353C16.0771 9.59036 16.1384 9.73815 16.2597 9.84689C16.381 9.95565 16.6222 10.0477 16.9805 10.1243L18.2744 10.3879C19.0761 10.5524 19.6575 10.8647 20.02 11.3262C20.3825 11.7877 20.5637 12.3677 20.5637 13.0662C20.5637 13.5737 20.4271 14.0115 20.1538 14.3795C19.8805 14.7476 19.4929 15.0306 18.9882 15.23C18.4849 15.428 17.8868 15.5284 17.1966 15.5284V15.5312ZM16.236 6.00439H18.1029V7.49343H16.236V6.00439ZM16.236 14.9233H18.1029V16.4123H16.236V14.9233Z" fill="#141518"/>
</g>
<defs>
<clipPath id="clip0_420_3123">
<rect width="32.625" height="25.3053" fill="white" transform="translate(0.6875 0.847168)"/>
</clipPath>
</defs>
</svg>
