<svg width="18" height="18" viewBox="0 0 18 18" fill="none" xmlns="http://www.w3.org/2000/svg">
<path fill-rule="evenodd" clip-rule="evenodd" d="M4.8001 4.8001V3.7501C4.8001 2.0104 6.2104 0.600098 7.9501 0.600098H10.0501C11.7898 0.600098 13.2001 2.0104 13.2001 3.7501V4.8001H15.3001C16.4599 4.8001 17.4001 5.7403 17.4001 6.9001V10.6494C14.7852 11.6196 11.9557 12.15 9.00012 12.15C6.0445 12.15 3.21498 11.6196 0.600098 10.6494V6.9001C0.600098 5.7403 1.5403 4.8001 2.7001 4.8001H4.8001ZM6.9001 3.7501C6.9001 3.1702 7.3702 2.7001 7.9501 2.7001H10.0501C10.63 2.7001 11.1001 3.1702 11.1001 3.7501V4.8001H6.9001V3.7501ZM7.9501 9.0001C7.9501 8.4202 8.4202 7.9501 9.0001 7.9501H9.0106C9.5905 7.9501 10.0606 8.4202 10.0606 9.0001C10.0606 9.58 9.5905 10.0501 9.0106 10.0501H9.0001C8.4202 10.0501 7.9501 9.58 7.9501 9.0001Z" fill="#141518"/>
<path d="M0.600098 12.877V15.3001C0.600098 16.4599 1.5403 17.4001 2.7001 17.4001H15.3001C16.4599 17.4001 17.4001 16.4599 17.4001 15.3001V12.877C14.7617 13.7676 11.9363 14.25 9.00012 14.25C6.06391 14.25 3.23853 13.7676 0.600098 12.877Z" fill="#141518"/>
</svg>
