<svg width="18" height="18" viewBox="0 0 18 18" fill="none" xmlns="http://www.w3.org/2000/svg">
<path d="M7.92557 1.73625C8.26379 0.695337 9.73641 0.695337 10.0746 1.73625L11.283 5.4554C11.4343 5.92091 11.8681 6.23609 12.3576 6.23609H16.2681C17.3626 6.23609 17.8177 7.63663 16.9322 8.27995L13.7685 10.5785C13.3725 10.8662 13.2068 11.3762 13.3581 11.8417L14.5665 15.5608C14.9047 16.6018 13.7133 17.4673 12.8279 16.824L9.66419 14.5255C9.2682 14.2378 8.73199 14.2378 8.336 14.5255L5.17231 16.824C4.28685 17.4673 3.09548 16.6018 3.43369 15.5608L4.64212 11.8417C4.79337 11.3762 4.62767 10.8662 4.23169 10.5785L1.06799 8.27995C0.182536 7.63663 0.637601 6.23609 1.73209 6.23609H5.64263C6.13209 6.23609 6.5659 5.92091 6.71715 5.4554L7.92557 1.73625Z" fill="#141518"/>
</svg>
