<svg width="24" height="24" viewBox="0 0 24 24" fill="none" xmlns="http://www.w3.org/2000/svg">
<path d="M9.79056 13.2763C9.46448 12.9502 8.93578 12.9502 8.6097 13.2763C8.28361 13.6024 8.28361 14.1311 8.6097 14.4572L9.79056 13.2763ZM11.0668 15.7334L10.4764 16.3239C10.8025 16.65 11.3311 16.65 11.6572 16.3239L11.0668 15.7334ZM15.3906 12.5905C15.7167 12.2644 15.7167 11.7358 15.3906 11.4097C15.0645 11.0836 14.5358 11.0836 14.2097 11.4097L15.3906 12.5905ZM17.6985 7.33343V18.5334H19.3685V7.33343H17.6985ZM16.6668 19.5651H7.33346V21.2351H16.6668V19.5651ZM6.3018 18.5334V7.33343H4.6318V18.5334H6.3018ZM7.33346 6.30176H9.20013V4.63176H7.33346V6.30176ZM14.8001 6.30176H16.6668V4.63176H14.8001V6.30176ZM7.33346 19.5651C6.76369 19.5651 6.3018 19.1032 6.3018 18.5334H4.6318C4.6318 20.0255 5.84137 21.2351 7.33346 21.2351V19.5651ZM17.6985 18.5334C17.6985 19.1032 17.2366 19.5651 16.6668 19.5651V21.2351C18.1589 21.2351 19.3685 20.0255 19.3685 18.5334H17.6985ZM19.3685 7.33343C19.3685 5.84134 18.1589 4.63176 16.6668 4.63176V6.30176C17.2366 6.30176 17.6985 6.76366 17.6985 7.33343H19.3685ZM6.3018 7.33343C6.3018 6.76366 6.76369 6.30176 7.33346 6.30176V4.63176C5.84137 4.63176 4.6318 5.84134 4.6318 7.33343H6.3018ZM8.6097 14.4572L10.4764 16.3239L11.6572 15.143L9.79056 13.2763L8.6097 14.4572ZM11.6572 16.3239L15.3906 12.5905L14.2097 11.4097L10.4764 15.143L11.6572 16.3239ZM11.0668 4.4351H12.9335V2.7651H11.0668V4.4351ZM12.9335 6.49843H11.0668V8.16843H12.9335V6.49843ZM11.0668 6.49843C10.497 6.49843 10.0351 6.03654 10.0351 5.46676H8.36513C8.36513 6.95885 9.57471 8.16843 11.0668 8.16843V6.49843ZM13.9651 5.46676C13.9651 6.03654 13.5032 6.49843 12.9335 6.49843V8.16843C14.4256 8.16843 15.6351 6.95885 15.6351 5.46676H13.9651ZM12.9335 4.4351C13.5032 4.4351 13.9651 4.89699 13.9651 5.46676H15.6351C15.6351 3.97468 14.4256 2.7651 12.9335 2.7651V4.4351ZM11.0668 2.7651C9.57471 2.7651 8.36513 3.97468 8.36513 5.46676H10.0351C10.0351 4.89699 10.497 4.4351 11.0668 4.4351V2.7651Z" fill="#171717"/>
</svg>
