<svg width="30" height="29" viewBox="0 0 30 29" fill="none" xmlns="http://www.w3.org/2000/svg">
<g clip-path="url(#clip0_420_4584)">
<path d="M25.7778 1.10596H4.22279C2.64245 1.10596 1.36133 2.38708 1.36133 3.96742V25.0327C1.36133 26.613 2.64245 27.8941 4.22279 27.8941H25.7778C27.3582 27.8941 28.6393 26.613 28.6393 25.0327V3.96742C28.6393 2.38708 27.3582 1.10596 25.7778 1.10596Z" stroke="#141518" stroke-width="2.02941" stroke-linejoin="round"/>
<path d="M1.11621 18.9917L28.7216 24.3818" stroke="#141518" stroke-width="2.02941" stroke-linejoin="round"/>
<path d="M11.0811 27.6492L12.5503 21.4419" stroke="#141518" stroke-width="2.02941" stroke-linejoin="round"/>
<path d="M6.0166 19.4814L10.0998 1.18701" stroke="#141518" stroke-width="2.02941" stroke-linejoin="round"/>
<path d="M23.5701 17.4491C22.8449 18.1743 21.4284 19.5908 20.2852 20.7341C19.33 21.6892 17.7836 21.6892 16.8284 20.7341C15.7068 19.6125 14.3147 18.2203 13.5448 17.4505C10.7767 14.6824 10.7767 10.1947 13.5448 7.42521C16.3129 4.65709 20.8006 4.65709 23.5701 7.42521C26.3382 10.1933 26.3382 14.681 23.5701 17.4505V17.4491Z" fill="#FD682A" stroke="#141518" stroke-width="1.633" stroke-linejoin="round"/>
<path d="M21.2155 12.4368C21.2155 13.9048 20.0249 15.0954 18.557 15.0954C17.089 15.0954 15.8984 13.9048 15.8984 12.4368C15.8984 10.9689 17.089 9.77832 18.557 9.77832C20.0249 9.77832 21.2155 10.9689 21.2155 12.4368Z" stroke="#141518" stroke-width="1.633" stroke-linejoin="round"/>
</g>
<defs>
<clipPath id="clip0_420_4584">
<rect width="29.3074" height="28.8176" fill="white" transform="translate(0.34668 0.0913086)"/>
</clipPath>
</defs>
</svg>
