<svg width="38" height="27" viewBox="0 0 38 27" fill="none" xmlns="http://www.w3.org/2000/svg">
<g clip-path="url(#clip0_420_1381)">
<path d="M5.93916 12.7862L1.87988 10.405L6.68914 2.5083L10.4828 5.0223L5.93916 12.7862Z" fill="#FD682A"/>
<path d="M10.7185 4.40491L6.34364 2.06122L1.65625 10.4985L6.34364 13.1547L14.0263 19.4827C14.2138 19.6374 14.4341 19.7467 14.6716 19.8014L22.9667 21.7373C23.4151 21.842 23.8854 21.7076 24.2104 21.3826L32.1243 13.4688L36.3429 10.8126L31.8118 2.37528L27.5931 4.25023L22.9057 3.78149L19.1777 2.06122C18.9621 1.96122 18.7183 1.9456 18.4918 2.01591L10.7185 4.40804V4.40491Z" stroke="#141518" stroke-width="2.34369" stroke-linecap="round" stroke-linejoin="round"/>
<path d="M8.375 20.6548L12.1249 23.7797L16.656 25.0297" stroke="#141518" stroke-width="2.34369" stroke-linecap="round" stroke-linejoin="round"/>
<path d="M23.8433 3.93604L21.0308 4.56102L14.5904 10.8546C14.3326 11.1062 14.3013 11.5124 14.5232 11.7968C15.1482 12.6014 16.5184 14.0483 18.2184 13.9358C20.5621 13.7795 23.2183 11.4359 23.2183 11.4359L29.4384 15.967" stroke="#141518" stroke-width="2.34369" stroke-linecap="round" stroke-linejoin="round"/>
<path d="M6.1875 12.5296L10.7186 4.40479" stroke="#141518" stroke-width="2.34369" stroke-linecap="round" stroke-linejoin="round"/>
<path d="M27.124 4.24854L32.1239 13.1546" stroke="#141518" stroke-width="2.34369" stroke-linecap="round" stroke-linejoin="round"/>
</g>
<defs>
<clipPath id="clip0_420_1381">
<rect width="37.0303" height="25.4025" fill="white" transform="translate(0.484375 0.798828)"/>
</clipPath>
</defs>
</svg>
