<svg width="20" height="20" viewBox="0 0 20 20" fill="none" xmlns="http://www.w3.org/2000/svg">
<path d="M5.80002 5.8001C4.64023 5.8001 3.70003 4.85989 3.70003 3.7001C3.70003 2.5403 4.64023 1.6001 5.80002 1.6001C6.95982 1.6001 7.90002 2.5403 7.90002 3.7001C7.90002 4.8599 6.95982 5.8001 5.80002 5.8001Z" fill="white"/>
<path d="M14.2 12.1001C13.0402 12.1001 12.1 11.1599 12.1 10.0001C12.1 8.8403 13.0402 7.9001 14.2 7.9001C15.3598 7.9001 16.3 8.8403 16.3 10.0001C16.3 11.1599 15.3598 12.1001 14.2 12.1001Z" fill="white"/>
<path d="M5.80002 18.4001C4.64023 18.4001 3.70002 17.4599 3.70002 16.3001C3.70002 15.1403 4.64023 14.2001 5.80002 14.2001C6.95982 14.2001 7.90002 15.1403 7.90002 16.3001C7.90002 17.4599 6.95982 18.4001 5.80002 18.4001Z" fill="white"/>
<path d="M16.3 10.0001L18.4 10.0001M16.3 10.0001C16.3 8.8403 15.3598 7.9001 14.2 7.9001C13.0402 7.9001 12.1 8.8403 12.1 10.0001M16.3 10.0001C16.3 11.1599 15.3598 12.1001 14.2 12.1001C13.0402 12.1001 12.1 11.1599 12.1 10.0001M3.70002 3.7001C3.70002 4.85989 4.64023 5.8001 5.80002 5.8001C6.95982 5.8001 7.90002 4.8599 7.90002 3.7001M3.70002 3.7001C3.70003 2.5403 4.64023 1.6001 5.80002 1.6001C6.95982 1.6001 7.90002 2.5403 7.90002 3.7001M3.70002 3.7001L1.60003 3.7001M7.90002 3.7001L18.4 3.7001M12.1 10.0001L1.60002 10.0001M3.70002 16.3001C3.70002 17.4599 4.64023 18.4001 5.80002 18.4001C6.95982 18.4001 7.90002 17.4599 7.90002 16.3001M3.70002 16.3001C3.70002 15.1403 4.64023 14.2001 5.80002 14.2001C6.95982 14.2001 7.90002 15.1403 7.90002 16.3001M3.70002 16.3001L1.60002 16.3001M7.90002 16.3001L18.4 16.3001" stroke="#171717" stroke-width="1.67" stroke-linecap="round" stroke-linejoin="round"/>
</svg>
