<svg width="20" height="20" viewBox="0 0 20 20" fill="none" xmlns="http://www.w3.org/2000/svg">
<path d="M10 16.125L10 16.1162M10 10L10 9.99125M10 3.875L10 3.86625M10 15.25C10.4832 15.25 10.875 15.6418 10.875 16.125C10.875 16.6082 10.4832 17 10 17C9.51675 17 9.125 16.6082 9.125 16.125C9.125 15.6418 9.51675 15.25 10 15.25ZM10 9.125C10.4832 9.125 10.875 9.51675 10.875 10C10.875 10.4832 10.4832 10.875 10 10.875C9.51675 10.875 9.125 10.4832 9.125 10C9.125 9.51675 9.51675 9.125 10 9.125ZM10 3C10.4832 3 10.875 3.39175 10.875 3.875C10.875 4.35825 10.4832 4.75 10 4.75C9.51675 4.75 9.125 4.35825 9.125 3.875C9.125 3.39175 9.51675 3 10 3Z" stroke="#171717" stroke-width="1.67" stroke-linecap="round" stroke-linejoin="round"/>
</svg>
