<svg width="90" height="15" viewBox="0 0 90 15" fill="none" xmlns="http://www.w3.org/2000/svg">
<path d="M23.3126 14.3687C24.0169 14.3687 24.5916 13.7963 24.5916 13.092V7.65308C24.5916 6.82865 24.8295 6.1903 25.2983 5.75924C25.5974 5.48364 25.9814 5.29284 26.4431 5.19391C27.0013 5.07378 27.4041 4.56734 27.4041 3.99259C27.4041 3.62984 27.2463 3.28594 26.9707 3.05038C26.7493 2.85959 26.4713 2.7583 26.1863 2.7583C26.1274 2.7583 26.0662 2.76301 26.0073 2.77243C24.9638 2.93025 24.0993 3.29771 23.4351 3.86068C22.507 4.64743 22.0359 5.76395 22.0359 7.17726V13.0943C22.0359 13.7986 22.6083 14.371 23.3126 14.371V14.3687Z" fill="#FD682A"/>
<path d="M32.9773 13.702C33.1893 14.126 33.6133 14.3874 34.0867 14.3874C34.5602 14.3874 34.9842 14.1236 35.1962 13.702L39.9473 4.5861C40.2535 3.97366 40.0038 3.22932 39.3937 2.9231C39.0969 2.7747 38.7601 2.75115 38.4468 2.85479C38.1335 2.95843 37.8768 3.17985 37.7307 3.47665L34.0891 10.376L30.5605 3.47665C30.4121 3.17985 30.1577 2.96079 29.8444 2.85479C29.5288 2.74879 29.1943 2.7747 28.8975 2.9231C28.6007 3.0715 28.3817 3.3259 28.2757 3.64154C28.172 3.95482 28.1956 4.29166 28.344 4.58846L32.982 13.7043L32.9773 13.702Z" fill="#FD682A"/>
<path d="M42.2982 14.4628C43.0378 14.4628 43.6409 13.8598 43.6409 13.1202V4.14563C43.6409 3.40599 43.0378 2.80298 42.2982 2.80298C41.5586 2.80298 40.9556 3.40599 40.9556 4.14563V13.1202C40.9556 13.8598 41.5586 14.4628 42.2982 14.4628Z" fill="#FD682A"/>
<path d="M50.5237 14.2839H50.5284C52.2126 14.2839 53.8073 13.5514 54.9026 12.2723C55.0887 12.058 55.1806 11.7706 55.1594 11.4879C55.1382 11.2005 55.0063 10.9391 54.7872 10.7506C54.4033 10.4209 53.8497 10.4091 53.4563 10.6918L53.3339 10.7977L53.2679 10.8661C52.5825 11.6669 51.5814 12.1263 50.5261 12.1263C48.5333 12.1263 46.9127 10.5033 46.9103 8.51054C46.9103 6.51776 48.5333 4.89481 50.5261 4.89481C51.5814 4.89481 52.5801 5.35413 53.2679 6.15737C53.6566 6.60727 54.3373 6.65909 54.7896 6.27279C55.0086 6.08435 55.1405 5.82288 55.1617 5.53551C55.1829 5.24813 55.0911 4.97018 54.905 4.75112C53.8097 3.47207 52.215 2.7395 50.5308 2.7395H50.5261C47.3438 2.7395 44.755 5.33058 44.7527 8.51289C44.7527 11.6952 47.3438 14.2839 50.5261 14.2863L50.5237 14.2839Z" fill="#FD682A"/>
<path d="M61.5523 14.2581H61.557C63.2224 14.2581 64.803 13.5349 65.8936 12.2771C66.3128 11.7942 66.261 11.0593 65.7781 10.64C65.2953 10.2207 64.5603 10.2725 64.1411 10.7554C63.4909 11.5068 62.5487 11.9379 61.5547 11.9379H61.5523C60.1013 11.9379 58.8129 11.0169 58.3253 9.6695H66.1385C66.7769 9.6695 67.2975 9.14893 67.2975 8.51058C67.2975 5.3424 64.7182 2.7631 61.55 2.76074C58.3818 2.76074 55.8048 5.34004 55.8025 8.50822C55.8025 11.6764 58.3818 14.2557 61.55 14.2557L61.5523 14.2581ZM61.5523 5.08094C63.0033 5.08094 64.2918 6.00194 64.777 7.3493H58.3253C58.8105 6.00194 60.099 5.08094 61.55 5.08094H61.5523Z" fill="#FD682A"/>
<path d="M14.9576 14.2581H14.9623C16.6277 14.2581 18.2082 13.5349 19.2988 12.2771C19.7181 11.7942 19.6663 11.0593 19.1834 10.64C18.7005 10.2207 17.9656 10.2725 17.5463 10.7554C16.8962 11.5068 15.954 11.9379 14.96 11.9379H14.9576C13.5066 11.9379 12.2181 11.0169 11.7305 9.6695H19.5438C20.1822 9.6695 20.7027 9.14893 20.7027 8.51058C20.7027 5.3424 18.1234 2.7631 14.9552 2.76074C11.7871 2.76074 9.21012 5.34004 9.20776 8.50822C9.20776 11.6764 11.7871 14.2557 14.9552 14.2557L14.9576 14.2581ZM14.9576 5.08094C16.4086 5.08094 17.6971 6.00194 18.1847 7.3493H11.7329C12.2181 6.00194 13.5066 5.08094 14.9576 5.08094Z" fill="#FD682A"/>
<path d="M3.04569 9.40557L4.70869 9.7589C5.57317 9.93557 5.97125 10.3784 5.97125 10.9555C5.97125 11.6198 5.3494 12.1945 4.2847 12.1945C3.31422 12.1945 2.52041 11.7635 2.19064 11.1651C1.94331 10.7152 1.41331 10.5056 0.918655 10.6422L0.866833 10.6564C0.131909 10.8589 -0.186086 11.7163 0.228486 12.357C0.8527 13.3228 2.22126 14.232 4.3059 14.232C7.05009 14.232 8.44927 12.4159 8.44927 10.7788C8.44927 9.14175 7.38693 7.94515 5.3494 7.50231L3.64164 7.17018C2.97738 7.03827 2.27073 6.67081 2.27073 6.04188C2.27073 5.25514 3.1988 4.80288 4.10804 4.80288C5.01727 4.80288 5.60615 5.19861 5.88881 5.64851C6.15734 6.07486 6.66849 6.27744 7.15137 6.14082C7.88394 5.93117 8.209 5.06198 7.77559 4.43541C7.19142 3.58507 5.91472 2.79126 4.17634 2.79126C1.94095 2.79126 0 4.38595 0 6.26801C0 7.75199 1.14007 8.991 3.04334 9.41264L3.04569 9.40557Z" fill="#FD682A"/>
<path d="M73.1038 2.20721C73.8222 2.20721 74.3617 2.3933 74.7126 2.7584C75.0707 3.13293 75.245 3.63466 75.245 4.29185C75.245 4.63104 75.172 4.96553 75.0306 5.28353C74.8846 5.60859 74.6349 5.95721 74.2839 6.31996C73.9141 6.70155 73.4053 7.16794 72.7693 7.70265C72.7623 7.70736 72.7575 7.71443 72.7505 7.71914L68.7131 11.7565C68.4893 11.952 68.3456 12.131 68.2656 12.3077C68.1855 12.4844 68.1431 12.6516 68.1431 12.8071V13.4172C68.1431 13.6197 68.2137 13.7964 68.3504 13.9307C68.4846 14.0673 68.6636 14.1379 68.8662 14.1379H76.8444C77.1388 14.1379 77.4144 14.0225 77.6241 13.8152C77.8313 13.608 77.9468 13.33 77.9468 13.0356V13.012C77.9468 12.4066 77.4521 11.912 76.8467 11.912H72.0061L75.1861 8.68255C75.7302 8.2138 76.1895 7.75447 76.5594 7.30692C76.9386 6.84759 77.233 6.36707 77.4333 5.87947C77.6382 5.38246 77.7418 4.83127 77.7418 4.23532C77.7418 3.48155 77.5769 2.77489 77.2519 2.14125C76.9221 1.49584 76.4062 0.97056 75.7161 0.581898C75.033 0.195592 74.1544 0.00244141 73.1062 0.00244141C72.3335 0.00244141 71.6434 0.131995 71.0545 0.388747C70.468 0.645499 69.9686 0.99176 69.5682 1.41811C69.1701 1.8421 68.8662 2.32263 68.6613 2.84556C68.4587 3.36377 68.3504 3.89141 68.3362 4.40963C68.3362 4.58865 68.4069 4.75118 68.5412 4.87366C68.6683 4.99144 68.8356 5.05268 69.0193 5.05268H70.011C70.1523 5.05268 70.2984 5.00793 70.4491 4.91842C70.5763 4.84304 70.7365 4.68993 70.786 4.379C70.8566 3.95501 70.9885 3.57106 71.1746 3.23893C71.3536 2.91858 71.601 2.6736 71.926 2.48752C72.2511 2.30379 72.6468 2.20957 73.1038 2.20957V2.20721Z" fill="#FD682A"/>
<path d="M85.6257 0C85.0887 0 84.7966 0.252041 84.6482 0.464039L78.6863 8.87091C78.5921 9.01224 78.5215 9.15592 78.4814 9.29726C78.439 9.4433 78.4202 9.54459 78.4202 9.62938V10.4232C78.4202 10.6352 78.4955 10.8213 78.6369 10.9603C78.7782 11.1016 78.9643 11.177 79.1763 11.177H85.3101V13.1862C85.3101 13.8764 85.8707 14.437 86.5609 14.437C87.251 14.437 87.8116 13.8764 87.8116 13.1862V11.177H88.8387C89.1519 11.177 89.444 11.0545 89.6654 10.8331C89.8845 10.6116 90.0046 10.3148 89.9999 10.0039C89.9929 9.37028 89.4723 8.85442 88.8387 8.85442H87.8116V0.753767C87.8116 0.544125 87.7363 0.358041 87.5949 0.214354C87.4536 0.0730221 87.2675 0 87.0579 0H85.6281H85.6257ZM85.3289 8.89446H81.4164L85.3289 3.326V8.89446Z" fill="#FD682A"/>
</svg>
