<svg width="262" height="24" viewBox="0 0 262 24" fill="none" xmlns="http://www.w3.org/2000/svg">
<path d="M16.4795 17.782H12.8795L11.8715 14.758H5.17553L4.16753 17.782H0.591531L6.47153 0.981981H10.5755L16.4795 17.782ZM8.53553 4.79798L6.23153 11.662H10.8395L8.53553 4.79798ZM23.2496 0.981981H26.9696L24.3056 4.26998H21.3296L23.2496 0.981981ZM25.7696 12.262V5.78198H28.8656V17.782H25.7696V16.438C25.0256 17.566 23.8256 18.118 22.1936 18.118C20.8736 18.118 19.7936 17.686 18.9296 16.798C18.0896 15.91 17.6576 14.71 17.6576 13.15V5.78198H20.7536V12.766C20.7536 14.374 21.6896 15.238 23.1296 15.238C24.7376 15.238 25.7696 14.254 25.7696 12.262ZM38.3732 5.44598C39.6932 5.44598 40.7732 5.87798 41.6132 6.76598C42.4772 7.65398 42.9092 8.85398 42.9092 10.414V17.782H39.8132V10.798C39.8132 9.18998 38.8772 8.32598 37.4372 8.32598C35.8292 8.32598 34.7972 9.30998 34.7972 11.302V17.782H31.7012V5.78198H34.7972V7.12598C35.5412 5.99798 36.7412 5.44598 38.3732 5.44598ZM58.2247 5.44598C59.5447 5.44598 60.6247 5.87798 61.4647 6.76598C62.3287 7.65398 62.7607 8.85398 62.7607 10.414V17.782H59.6647V10.798C59.6647 9.18998 58.7287 8.32598 57.2887 8.32598C55.6807 8.32598 54.6487 9.30998 54.6487 11.302V17.782H51.5527V5.78198H54.6487V7.12598C55.3927 5.99798 56.5927 5.44598 58.2247 5.44598ZM75.6283 16.294C74.4043 17.518 72.8923 18.118 71.1163 18.118C69.3403 18.118 67.8283 17.518 66.6043 16.294C65.3803 15.07 64.7803 13.558 64.7803 11.782C64.7803 10.006 65.3803 8.51798 66.6043 7.29398C67.8283 6.06998 69.3403 5.44598 71.1163 5.44598C72.8923 5.44598 74.4043 6.06998 75.6283 7.29398C76.8523 8.51798 77.4763 10.006 77.4763 11.782C77.4763 13.558 76.8523 15.07 75.6283 16.294ZM68.7883 14.158C69.4123 14.782 70.1803 15.094 71.1163 15.094C72.0523 15.094 72.8203 14.782 73.4443 14.158C74.0683 13.534 74.3803 12.742 74.3803 11.782C74.3803 10.822 74.0683 10.03 73.4443 9.40598C72.8203 8.78198 72.0523 8.46998 71.1163 8.46998C70.1803 8.46998 69.4123 8.78198 68.7883 9.40598C68.1883 10.03 67.8763 10.822 67.8763 11.782C67.8763 12.742 68.1883 13.534 68.7883 14.158ZM92.5183 5.78198V8.75798H89.8063V13.75C89.8063 15.046 90.7423 15.07 92.5183 14.974V17.782C88.2703 18.262 86.7103 17.038 86.7103 13.75V8.75798H84.6223V5.78198H86.7103V3.35798L89.8063 2.42198V5.78198H92.5183ZM96.2372 4.34198C95.2052 4.34198 94.3412 3.47798 94.3412 2.44598C94.3412 1.41398 95.2052 0.525981 96.2372 0.525981C97.2932 0.525981 98.1572 1.41398 98.1572 2.44598C98.1572 3.47798 97.2932 4.34198 96.2372 4.34198ZM97.7972 17.782H94.7012V5.78198H97.7972V17.782ZM112.295 13.054H103.247C103.655 14.566 104.783 15.31 106.631 15.31C107.807 15.31 108.719 14.902 109.319 14.11L111.815 15.55C110.639 17.254 108.887 18.118 106.583 18.118C104.591 18.118 103.007 17.518 101.807 16.318C100.607 15.118 100.007 13.606 100.007 11.782C100.007 9.98198 100.607 8.46998 101.783 7.26998C102.959 6.04598 104.495 5.44598 106.343 5.44598C108.095 5.44598 109.559 6.04598 110.687 7.26998C111.839 8.49398 112.415 9.98198 112.415 11.782C112.415 12.19 112.367 12.598 112.295 13.054ZM103.199 10.654H109.319C108.959 9.02198 107.759 8.22998 106.343 8.22998C104.687 8.22998 103.559 9.11798 103.199 10.654ZM121.248 5.44598C122.568 5.44598 123.648 5.87798 124.488 6.76598C125.352 7.65398 125.784 8.85398 125.784 10.414V17.782H122.688V10.798C122.688 9.18998 121.752 8.32598 120.312 8.32598C118.704 8.32598 117.672 9.30998 117.672 11.302V17.782H114.576V5.78198H117.672V7.12598C118.416 5.99798 119.616 5.44598 121.248 5.44598ZM140.092 13.054H131.044C131.452 14.566 132.58 15.31 134.428 15.31C135.604 15.31 136.516 14.902 137.116 14.11L139.612 15.55C138.436 17.254 136.684 18.118 134.38 18.118C132.388 18.118 130.804 17.518 129.604 16.318C128.404 15.118 127.804 13.606 127.804 11.782C127.804 9.98198 128.404 8.46998 129.58 7.26998C130.756 6.04598 132.292 5.44598 134.14 5.44598C135.892 5.44598 137.356 6.04598 138.484 7.26998C139.636 8.49398 140.212 9.98198 140.212 11.782C140.212 12.19 140.164 12.598 140.092 13.054ZM130.996 10.654H137.116C136.756 9.02198 135.556 8.22998 134.14 8.22998C132.484 8.22998 131.356 9.11798 130.996 10.654ZM144.76 9.18998C144.76 9.83798 145.72 10.198 146.944 10.51C148.696 10.87 150.976 11.71 150.952 14.278C150.952 15.502 150.496 16.462 149.56 17.134C148.648 17.782 147.496 18.118 146.128 18.118C143.656 18.118 141.976 17.158 141.088 15.262L143.776 13.75C144.136 14.782 144.904 15.31 146.128 15.31C147.232 15.31 147.784 14.974 147.784 14.278C147.784 13.63 146.824 13.27 145.6 12.958C143.824 12.502 141.592 11.758 141.592 9.26198C141.592 8.08598 142.024 7.14998 142.888 6.47798C143.776 5.78198 144.856 5.44598 146.152 5.44598C148.096 5.44598 149.776 6.35798 150.712 7.98998L148.072 9.42998C147.688 8.61398 147.04 8.20598 146.152 8.20598C145.36 8.20598 144.76 8.58998 144.76 9.18998ZM172.333 5.44598C175.093 5.44598 176.869 7.38998 176.869 10.39V17.782H173.773V10.606C173.773 9.16598 173.029 8.32598 171.757 8.32598C170.341 8.32598 169.525 9.28598 169.525 11.038V17.782H166.429V10.606C166.429 9.16598 165.685 8.32598 164.413 8.32598C163.045 8.32598 162.157 9.28598 162.157 11.038V17.782H159.061V5.78198H162.157V7.05398C162.877 5.97398 163.981 5.44598 165.493 5.44598C166.957 5.44598 168.061 6.02198 168.757 7.17398C169.549 6.02198 170.749 5.44598 172.333 5.44598ZM191.162 13.054H182.114C182.522 14.566 183.65 15.31 185.498 15.31C186.674 15.31 187.586 14.902 188.186 14.11L190.682 15.55C189.506 17.254 187.754 18.118 185.45 18.118C183.458 18.118 181.874 17.518 180.674 16.318C179.474 15.118 178.874 13.606 178.874 11.782C178.874 9.98198 179.474 8.46998 180.65 7.26998C181.826 6.04598 183.362 5.44598 185.21 5.44598C186.962 5.44598 188.426 6.04598 189.554 7.26998C190.706 8.49398 191.282 9.98198 191.282 11.782C191.282 12.19 191.234 12.598 191.162 13.054ZM182.066 10.654H188.186C187.826 9.02198 186.626 8.22998 185.21 8.22998C183.554 8.22998 182.426 9.11798 182.066 10.654ZM200.115 5.44598C201.435 5.44598 202.515 5.87798 203.355 6.76598C204.219 7.65398 204.651 8.85398 204.651 10.414V17.782H201.555V10.798C201.555 9.18998 200.619 8.32598 199.179 8.32598C197.571 8.32598 196.539 9.30998 196.539 11.302V17.782H193.443V5.78198H196.539V7.12598C197.283 5.99798 198.483 5.44598 200.115 5.44598ZM210.151 9.18998C210.151 9.83798 211.111 10.198 212.335 10.51C214.087 10.87 216.367 11.71 216.343 14.278C216.343 15.502 215.887 16.462 214.951 17.134C214.039 17.782 212.887 18.118 211.519 18.118C209.047 18.118 207.367 17.158 206.479 15.262L209.167 13.75C209.527 14.782 210.295 15.31 211.519 15.31C212.623 15.31 213.175 14.974 213.175 14.278C213.175 13.63 212.215 13.27 210.991 12.958C209.215 12.502 206.983 11.758 206.983 9.26198C206.983 8.08598 207.415 7.14998 208.279 6.47798C209.167 5.78198 210.247 5.44598 211.543 5.44598C213.487 5.44598 215.167 6.35798 216.103 7.98998L213.463 9.42998C213.079 8.61398 212.431 8.20598 211.543 8.20598C210.751 8.20598 210.151 8.58998 210.151 9.18998ZM227.29 7.19798V5.78198H230.386V17.782H227.29V16.366C226.354 17.542 225.058 18.118 223.378 18.118C221.77 18.118 220.402 17.518 219.25 16.294C218.122 15.07 217.546 13.558 217.546 11.782C217.546 10.006 218.122 8.51798 219.25 7.29398C220.402 6.06998 221.77 5.44598 223.378 5.44598C225.058 5.44598 226.354 6.02198 227.29 7.19798ZM221.578 14.23C222.202 14.854 222.994 15.166 223.954 15.166C224.914 15.166 225.706 14.854 226.33 14.23C226.978 13.582 227.29 12.766 227.29 11.782C227.29 10.798 226.978 9.98198 226.33 9.35798C225.706 8.70998 224.914 8.39798 223.954 8.39798C222.994 8.39798 222.202 8.70998 221.578 9.35798C220.954 9.98198 220.642 10.798 220.642 11.782C220.642 12.766 220.954 13.582 221.578 14.23ZM234.904 4.34198C233.848 4.34198 232.984 3.47798 232.984 2.44598C232.984 1.41398 233.848 0.525981 234.904 0.525981C235.936 0.525981 236.8 1.41398 236.8 2.44598C236.8 3.47798 235.936 4.34198 234.904 4.34198ZM233.344 18.022V5.78198H236.44V18.022C236.44 21.55 234.76 23.134 231.208 22.918V19.942C232.672 20.038 233.344 19.462 233.344 18.022ZM250.928 13.054H241.88C242.288 14.566 243.416 15.31 245.264 15.31C246.44 15.31 247.352 14.902 247.952 14.11L250.448 15.55C249.272 17.254 247.52 18.118 245.216 18.118C243.224 18.118 241.64 17.518 240.44 16.318C239.24 15.118 238.64 13.606 238.64 11.782C238.64 9.98198 239.24 8.46998 240.416 7.26998C241.592 6.04598 243.128 5.44598 244.976 5.44598C246.728 5.44598 248.192 6.04598 249.32 7.26998C250.472 8.49398 251.048 9.98198 251.048 11.782C251.048 12.19 251 12.598 250.928 13.054ZM241.832 10.654H247.952C247.592 9.02198 246.392 8.22998 244.976 8.22998C243.32 8.22998 242.192 9.11798 241.832 10.654ZM255.596 9.18998C255.596 9.83798 256.556 10.198 257.78 10.51C259.532 10.87 261.812 11.71 261.788 14.278C261.788 15.502 261.332 16.462 260.396 17.134C259.484 17.782 258.332 18.118 256.964 18.118C254.492 18.118 252.812 17.158 251.924 15.262L254.612 13.75C254.972 14.782 255.74 15.31 256.964 15.31C258.068 15.31 258.62 14.974 258.62 14.278C258.62 13.63 257.66 13.27 256.436 12.958C254.66 12.502 252.428 11.758 252.428 9.26198C252.428 8.08598 252.86 7.14998 253.724 6.47798C254.612 5.78198 255.692 5.44598 256.988 5.44598C258.932 5.44598 260.612 6.35798 261.548 7.98998L258.908 9.42998C258.524 8.61398 257.876 8.20598 256.988 8.20598C256.196 8.20598 255.596 8.58998 255.596 9.18998Z" fill="black"/>
</svg>
