<svg width="43" height="40" viewBox="0 0 43 40" fill="none" xmlns="http://www.w3.org/2000/svg">
<circle cx="21" cy="20" r="20" fill="#F5FBFF"/>
<path fill-rule="evenodd" clip-rule="evenodd" d="M21.9999 10.75C21.9999 10.5511 21.9209 10.3603 21.7803 10.2197C21.6396 10.079 21.4489 10 21.2499 10C21.051 10 20.8603 10.079 20.7196 10.2197C20.579 10.3603 20.4999 10.5511 20.4999 10.75V12.023C18.2779 12.163 16.8449 12.943 16.0009 14.209C15.1139 15.539 14.9999 17.249 14.9999 18.75V21.75C14.9999 22.559 14.5759 23.67 14.0799 24.665C13.7967 25.2279 13.4843 25.7757 13.1439 26.306L13.1299 26.328L13.1259 26.333C13.0507 26.4459 13.0074 26.5782 13.0009 26.7138C12.9943 26.8494 13.0247 26.9842 13.0887 27.1039C13.1528 27.2236 13.2481 27.3236 13.3646 27.3934C13.481 27.4631 13.6142 27.5 13.7499 27.5H18.0879C18.257 28.2115 18.6611 28.8453 19.2349 29.2987C19.8086 29.7522 20.5186 29.9988 21.2499 29.9988C21.9813 29.9988 22.6912 29.7522 23.265 29.2987C23.8388 28.8453 24.2429 28.2115 24.4119 27.5H28.7499C28.8857 27.5 29.0189 27.4631 29.1353 27.3934C29.2518 27.3236 29.3471 27.2236 29.4112 27.1039C29.4752 26.9842 29.5056 26.8494 29.499 26.7138C29.4925 26.5782 29.4492 26.4469 29.3739 26.334L29.3699 26.328L29.3559 26.306C29.2618 26.1602 29.1701 26.0129 29.0809 25.864C28.9009 25.564 28.6609 25.144 28.4209 24.664C27.9239 23.67 27.4999 22.559 27.4999 21.75V18.75C27.4999 17.249 27.3859 15.54 26.4989 14.209C25.6549 12.943 24.2219 12.163 21.9999 12.023V10.75ZM21.2499 13.5C18.9049 13.5 17.8139 14.194 17.2489 15.041C16.6359 15.961 16.4999 17.251 16.4999 18.75V21.75C16.4999 22.941 15.9239 24.33 15.4199 25.335C15.3019 25.573 15.1839 25.796 15.0709 26H27.4299C27.3089 25.7807 27.1922 25.559 27.0799 25.335C26.5769 24.329 26.0009 22.941 26.0009 21.75V18.75C26.0009 17.251 25.8649 15.96 25.2519 15.041C24.6859 14.194 23.5949 13.5 21.2499 13.5ZM20.0129 27.987C19.8712 27.8456 19.7549 27.6808 19.6689 27.5H22.8309C22.6893 27.7994 22.4655 28.0524 22.1856 28.2294C21.9057 28.4065 21.5812 28.5003 21.2499 28.5C20.7859 28.4998 20.341 28.3152 20.0129 27.987Z" fill="#141518"/>
</svg>
