<svg width="76" height="101" viewBox="0 0 76 101" fill="none" xmlns="http://www.w3.org/2000/svg">
<rect width="76" height="100" transform="translate(0 0.0185547)" fill="white"/>
<rect x="20" y="16.0186" width="36" height="36" rx="18" fill="#FD682A"/>
<path d="M33.7812 40.1776C32.9252 40.1776 32.196 39.9447 31.5938 39.4788C30.9915 39.0091 30.5313 38.3292 30.2131 37.439C29.8949 36.5451 29.7358 35.4655 29.7358 34.2004C29.7358 32.9428 29.8949 31.8689 30.2131 30.9788C30.535 30.0848 30.9972 29.403 31.5994 28.9333C32.2055 28.4598 32.9328 28.2231 33.7812 28.2231C34.6297 28.2231 35.3551 28.4598 35.9574 28.9333C36.5634 29.403 37.0256 30.0848 37.3438 30.9788C37.6657 31.8689 37.8267 32.9428 37.8267 34.2004C37.8267 35.4655 37.6676 36.5451 37.3494 37.439C37.0312 38.3292 36.571 39.0091 35.9688 39.4788C35.3665 39.9447 34.6373 40.1776 33.7812 40.1776ZM33.7812 38.9276C34.6297 38.9276 35.2888 38.5186 35.7585 37.7004C36.2282 36.8822 36.4631 35.7155 36.4631 34.2004C36.4631 33.1928 36.3551 32.3348 36.1392 31.6265C35.9271 30.9182 35.6203 30.3784 35.2188 30.0072C34.821 29.636 34.3419 29.4504 33.7812 29.4504C32.9403 29.4504 32.2831 29.8651 31.8097 30.6947C31.3362 31.5204 31.0994 32.689 31.0994 34.2004C31.0994 35.2079 31.2055 36.064 31.4176 36.7686C31.6297 37.4731 31.9347 38.0091 32.3324 38.3765C32.7339 38.7439 33.2169 38.9276 33.7812 38.9276ZM44.0767 28.3822V40.0186H42.6676V29.8595H42.5994L39.7585 31.7458V30.314L42.6676 28.3822H44.0767Z" fill="white"/>
<rect x="56" y="33.0186" width="20" height="2" fill="#FD682A"/>
</svg>
