<svg width="76" height="101" viewBox="0 0 76 101" fill="none" xmlns="http://www.w3.org/2000/svg">
<rect width="76" height="100" transform="translate(0 0.0185547)" fill="white"/>
<rect y="33.0186" width="20" height="2" fill="#FD682A"/>
<g filter="url(#filter0_d_94_21773)">
<rect x="20" y="16.0186" width="36" height="36" rx="18" fill="white"/>
<path d="M32.6562 40.1776C31.8002 40.1776 31.071 39.9447 30.4688 39.4788C29.8665 39.0091 29.4063 38.3292 29.0881 37.439C28.7699 36.5451 28.6108 35.4655 28.6108 34.2004C28.6108 32.9428 28.7699 31.8689 29.0881 30.9788C29.41 30.0848 29.8722 29.403 30.4744 28.9333C31.0805 28.4598 31.8078 28.2231 32.6562 28.2231C33.5047 28.2231 34.2301 28.4598 34.8324 28.9333C35.4384 29.403 35.9006 30.0848 36.2188 30.9788C36.5407 31.8689 36.7017 32.9428 36.7017 34.2004C36.7017 35.4655 36.5426 36.5451 36.2244 37.439C35.9062 38.3292 35.446 39.0091 34.8438 39.4788C34.2415 39.9447 33.5123 40.1776 32.6562 40.1776ZM32.6562 38.9276C33.5047 38.9276 34.1638 38.5186 34.6335 37.7004C35.1032 36.8822 35.3381 35.7155 35.3381 34.2004C35.3381 33.1928 35.2301 32.3348 35.0142 31.6265C34.8021 30.9182 34.4953 30.3784 34.0938 30.0072C33.696 29.636 33.2169 29.4504 32.6562 29.4504C31.8153 29.4504 31.1581 29.8651 30.6847 30.6947C30.2112 31.5204 29.9744 32.689 29.9744 34.2004C29.9744 35.2079 30.0805 36.064 30.2926 36.7686C30.5047 37.4731 30.8097 38.0091 31.2074 38.3765C31.6089 38.7439 32.0919 38.9276 32.6562 38.9276ZM38.8608 40.0186V38.9958L42.7017 34.7913C43.1525 34.2989 43.5237 33.8708 43.8153 33.5072C44.107 33.1398 44.3229 32.7951 44.4631 32.4731C44.607 32.1473 44.679 31.8064 44.679 31.4504C44.679 31.0413 44.5805 30.6871 44.3835 30.3879C44.1903 30.0886 43.9252 29.8576 43.5881 29.6947C43.2509 29.5318 42.8722 29.4504 42.4517 29.4504C42.0047 29.4504 41.6146 29.5432 41.2812 29.7288C40.9517 29.9106 40.696 30.1663 40.5142 30.4958C40.3362 30.8254 40.2472 31.2117 40.2472 31.6549H38.9062C38.9062 30.9731 39.0634 30.3746 39.3778 29.8595C39.6922 29.3443 40.1203 28.9428 40.6619 28.6549C41.2074 28.367 41.8191 28.2231 42.4972 28.2231C43.179 28.2231 43.7831 28.367 44.3097 28.6549C44.8362 28.9428 45.2491 29.3311 45.5483 29.8197C45.8475 30.3083 45.9972 30.8519 45.9972 31.4504C45.9972 31.8784 45.9195 32.297 45.7642 32.7061C45.6127 33.1114 45.3475 33.564 44.9688 34.064C44.5938 34.5602 44.0729 35.1663 43.4062 35.8822L40.7926 38.6776V38.7686H46.2017V40.0186H38.8608Z" fill="#FD682A"/>
<rect x="21" y="17.0186" width="34" height="34" rx="17" stroke="#FD682A" stroke-width="2"/>
</g>
<rect x="56" y="33.0186" width="20" height="2" fill="#DAE2E7"/>
<defs>
<filter id="filter0_d_94_21773" x="16" y="12.0186" width="44" height="44" filterUnits="userSpaceOnUse" color-interpolation-filters="sRGB">
<feFlood flood-opacity="0" result="BackgroundImageFix"/>
<feColorMatrix in="SourceAlpha" type="matrix" values="0 0 0 0 0 0 0 0 0 0 0 0 0 0 0 0 0 0 127 0" result="hardAlpha"/>
<feMorphology radius="4" operator="dilate" in="SourceAlpha" result="effect1_dropShadow_94_21773"/>
<feOffset/>
<feColorMatrix type="matrix" values="0 0 0 0 1 0 0 0 0 0.937255 0 0 0 0 0.890196 0 0 0 1 0"/>
<feBlend mode="normal" in2="BackgroundImageFix" result="effect1_dropShadow_94_21773"/>
<feBlend mode="normal" in="SourceGraphic" in2="effect1_dropShadow_94_21773" result="shape"/>
</filter>
</defs>
</svg>
