<svg width="76" height="101" viewBox="0 0 76 101" fill="none" xmlns="http://www.w3.org/2000/svg">
<rect width="76" height="100" transform="translate(0 0.0185547)" fill="white"/>
<rect y="33.0186" width="20" height="2" fill="#FD682A"/>
<g filter="url(#filter0_d_209_11972)">
<rect x="20" y="16.0186" width="36" height="36" rx="18" fill="white"/>
<path d="M32.9062 40.1776C32.0502 40.1776 31.321 39.9447 30.7188 39.4788C30.1165 39.0091 29.6563 38.3292 29.3381 37.439C29.0199 36.5451 28.8608 35.4655 28.8608 34.2004C28.8608 32.9428 29.0199 31.8689 29.3381 30.9788C29.66 30.0848 30.1222 29.403 30.7244 28.9333C31.3305 28.4598 32.0578 28.2231 32.9062 28.2231C33.7547 28.2231 34.4801 28.4598 35.0824 28.9333C35.6884 29.403 36.1506 30.0848 36.4688 30.9788C36.7907 31.8689 36.9517 32.9428 36.9517 34.2004C36.9517 35.4655 36.7926 36.5451 36.4744 37.439C36.1562 38.3292 35.696 39.0091 35.0938 39.4788C34.4915 39.9447 33.7623 40.1776 32.9062 40.1776ZM32.9062 38.9276C33.7547 38.9276 34.4138 38.5186 34.8835 37.7004C35.3532 36.8822 35.5881 35.7155 35.5881 34.2004C35.5881 33.1928 35.4801 32.3348 35.2642 31.6265C35.0521 30.9182 34.7453 30.3784 34.3438 30.0072C33.946 29.636 33.4669 29.4504 32.9062 29.4504C32.0653 29.4504 31.4081 29.8651 30.9347 30.6947C30.4612 31.5204 30.2244 32.689 30.2244 34.2004C30.2244 35.2079 30.3305 36.064 30.5426 36.7686C30.7547 37.4731 31.0597 38.0091 31.4574 38.3765C31.8589 38.7439 32.3419 38.9276 32.9062 38.9276ZM43.0426 40.1776C42.2926 40.1776 41.6241 40.0489 41.0369 39.7913C40.4536 39.5337 39.9896 39.1758 39.6449 38.7174C39.304 38.2553 39.1184 37.7193 39.0881 37.1095H40.5199C40.5502 37.4845 40.679 37.8083 40.9062 38.0811C41.1335 38.35 41.4309 38.5583 41.7983 38.7061C42.1657 38.8538 42.5729 38.9276 43.0199 38.9276C43.5199 38.9276 43.9631 38.8405 44.3494 38.6663C44.7358 38.492 45.0388 38.2496 45.2585 37.939C45.4782 37.6284 45.5881 37.2686 45.5881 36.8595C45.5881 36.4314 45.482 36.0545 45.2699 35.7288C45.0578 35.3992 44.7472 35.1417 44.3381 34.9561C43.929 34.7704 43.429 34.6776 42.8381 34.6776H41.9062V33.4276H42.8381C43.3002 33.4276 43.7055 33.3443 44.054 33.1776C44.4063 33.011 44.6809 32.7761 44.8778 32.4731C45.0786 32.1701 45.179 31.814 45.179 31.4049C45.179 31.011 45.0919 30.6682 44.9176 30.3765C44.7434 30.0848 44.4972 29.8576 44.179 29.6947C43.8646 29.5318 43.4934 29.4504 43.0653 29.4504C42.6638 29.4504 42.285 29.5242 41.929 29.672C41.5767 29.8159 41.2888 30.0261 41.0653 30.3026C40.8419 30.5754 40.7206 30.9049 40.7017 31.2913H39.3381C39.3608 30.6814 39.5445 30.1473 39.8892 29.689C40.2339 29.2269 40.6847 28.867 41.2415 28.6095C41.8021 28.3519 42.4176 28.2231 43.0881 28.2231C43.8078 28.2231 44.4252 28.3689 44.9403 28.6606C45.4555 28.9485 45.8513 29.3292 46.1278 29.8026C46.4044 30.2761 46.5426 30.7875 46.5426 31.3367C46.5426 31.992 46.3703 32.5508 46.0256 33.0129C45.6847 33.475 45.2206 33.7951 44.6335 33.9731V34.064C45.3684 34.1852 45.9422 34.4977 46.3551 35.0015C46.768 35.5015 46.9744 36.1208 46.9744 36.8595C46.9744 37.492 46.8021 38.0602 46.4574 38.564C46.1165 39.064 45.6506 39.4579 45.0597 39.7458C44.4688 40.0337 43.7964 40.1776 43.0426 40.1776Z" fill="#FD682A"/>
<rect x="21" y="17.0186" width="34" height="34" rx="17" stroke="#FD682A" stroke-width="2"/>
</g>
<rect x="56" y="33.0186" width="20" height="2" fill="#DAE2E7"/>
<defs>
<filter id="filter0_d_209_11972" x="16" y="12.0186" width="44" height="44" filterUnits="userSpaceOnUse" color-interpolation-filters="sRGB">
<feFlood flood-opacity="0" result="BackgroundImageFix"/>
<feColorMatrix in="SourceAlpha" type="matrix" values="0 0 0 0 0 0 0 0 0 0 0 0 0 0 0 0 0 0 127 0" result="hardAlpha"/>
<feMorphology radius="4" operator="dilate" in="SourceAlpha" result="effect1_dropShadow_209_11972"/>
<feOffset/>
<feColorMatrix type="matrix" values="0 0 0 0 1 0 0 0 0 0.937255 0 0 0 0 0.890196 0 0 0 1 0"/>
<feBlend mode="normal" in2="BackgroundImageFix" result="effect1_dropShadow_209_11972"/>
<feBlend mode="normal" in="SourceGraphic" in2="effect1_dropShadow_209_11972" result="shape"/>
</filter>
</defs>
</svg>
