<svg width="76" height="101" viewBox="0 0 76 101" fill="none" xmlns="http://www.w3.org/2000/svg">
<rect width="76" height="100" transform="translate(0 0.0185547)" fill="white"/>
<rect y="33.0186" width="20" height="2" fill="#DAE2E7"/>
<path d="M32.8672 40.1776C32.0111 40.1776 31.282 39.9447 30.6797 39.4788C30.0774 39.0091 29.6172 38.3292 29.299 37.439C28.9808 36.5451 28.8217 35.4655 28.8217 34.2004C28.8217 32.9428 28.9808 31.8689 29.299 30.9788C29.621 30.0848 30.0831 29.403 30.6854 28.9333C31.2914 28.4598 32.0187 28.2231 32.8672 28.2231C33.7157 28.2231 34.4411 28.4598 35.0433 28.9333C35.6494 29.403 36.1115 30.0848 36.4297 30.9788C36.7517 31.8689 36.9126 32.9428 36.9126 34.2004C36.9126 35.4655 36.7536 36.5451 36.4354 37.439C36.1172 38.3292 35.657 39.0091 35.0547 39.4788C34.4524 39.9447 33.7232 40.1776 32.8672 40.1776ZM32.8672 38.9276C33.7157 38.9276 34.3748 38.5186 34.8445 37.7004C35.3142 36.8822 35.549 35.7155 35.549 34.2004C35.549 33.1928 35.4411 32.3348 35.2251 31.6265C35.013 30.9182 34.7062 30.3784 34.3047 30.0072C33.907 29.636 33.4278 29.4504 32.8672 29.4504C32.0263 29.4504 31.3691 29.8651 30.8956 30.6947C30.4221 31.5204 30.1854 32.689 30.1854 34.2004C30.1854 35.2079 30.2914 36.064 30.5036 36.7686C30.7157 37.4731 31.0206 38.0091 31.4183 38.3765C31.8198 38.7439 32.3028 38.9276 32.8672 38.9276ZM38.799 37.6322V36.4731L43.9126 28.3822H44.7536V30.1776H44.1854L40.3217 36.2913V36.3822H47.2081V37.6322H38.799ZM44.2763 40.0186V37.2799V36.7401V28.3822H45.6172V40.0186H44.2763Z" fill="#7E8389"/>
<rect x="21" y="17.0186" width="34" height="34" rx="17" stroke="#DAE2E7" stroke-width="2"/>
</svg>
