<svg width="304" height="101" viewBox="0 0 304 101" fill="none" xmlns="http://www.w3.org/2000/svg">
<rect width="76" height="100" transform="translate(0 0.0185547)" fill="white"/>
<rect x="20" y="16.0186" width="36" height="36" rx="18" fill="#FD682A"/>
<path d="M33.7812 40.1776C32.9252 40.1776 32.196 39.9447 31.5938 39.4788C30.9915 39.0091 30.5313 38.3292 30.2131 37.439C29.8949 36.5451 29.7358 35.4655 29.7358 34.2004C29.7358 32.9428 29.8949 31.8689 30.2131 30.9788C30.535 30.0848 30.9972 29.403 31.5994 28.9333C32.2055 28.4598 32.9328 28.2231 33.7812 28.2231C34.6297 28.2231 35.3551 28.4598 35.9574 28.9333C36.5634 29.403 37.0256 30.0848 37.3438 30.9788C37.6657 31.8689 37.8267 32.9428 37.8267 34.2004C37.8267 35.4655 37.6676 36.5451 37.3494 37.439C37.0312 38.3292 36.571 39.0091 35.9688 39.4788C35.3665 39.9447 34.6373 40.1776 33.7812 40.1776ZM33.7812 38.9276C34.6297 38.9276 35.2888 38.5186 35.7585 37.7004C36.2282 36.8822 36.4631 35.7155 36.4631 34.2004C36.4631 33.1928 36.3551 32.3348 36.1392 31.6265C35.9271 30.9182 35.6203 30.3784 35.2188 30.0072C34.821 29.636 34.3419 29.4504 33.7812 29.4504C32.9403 29.4504 32.2831 29.8651 31.8097 30.6947C31.3362 31.5204 31.0994 32.689 31.0994 34.2004C31.0994 35.2079 31.2055 36.064 31.4176 36.7686C31.6297 37.4731 31.9347 38.0091 32.3324 38.3765C32.7339 38.7439 33.2169 38.9276 33.7812 38.9276ZM44.0767 28.3822V40.0186H42.6676V29.8595H42.5994L39.7585 31.7458V30.314L42.6676 28.3822H44.0767Z" fill="white"/>
<rect x="56" y="33.0186" width="20" height="2" fill="#FD682A"/>
<rect width="76" height="100" transform="translate(76 0.0185547)" fill="white"/>
<rect x="76" y="33.0186" width="20" height="2" fill="#FD682A"/>
<rect x="96" y="16.0186" width="36" height="36" rx="18" fill="#FD682A"/>
<path d="M108.656 40.1776C107.8 40.1776 107.071 39.9447 106.469 39.4788C105.866 39.0091 105.406 38.3292 105.088 37.439C104.77 36.5451 104.611 35.4655 104.611 34.2004C104.611 32.9428 104.77 31.8689 105.088 30.9788C105.41 30.0848 105.872 29.403 106.474 28.9333C107.08 28.4598 107.808 28.2231 108.656 28.2231C109.505 28.2231 110.23 28.4598 110.832 28.9333C111.438 29.403 111.901 30.0848 112.219 30.9788C112.541 31.8689 112.702 32.9428 112.702 34.2004C112.702 35.4655 112.543 36.5451 112.224 37.439C111.906 38.3292 111.446 39.0091 110.844 39.4788C110.241 39.9447 109.512 40.1776 108.656 40.1776ZM108.656 38.9276C109.505 38.9276 110.164 38.5186 110.634 37.7004C111.103 36.8822 111.338 35.7155 111.338 34.2004C111.338 33.1928 111.23 32.3348 111.014 31.6265C110.802 30.9182 110.495 30.3784 110.094 30.0072C109.696 29.636 109.217 29.4504 108.656 29.4504C107.815 29.4504 107.158 29.8651 106.685 30.6947C106.211 31.5204 105.974 32.689 105.974 34.2004C105.974 35.2079 106.08 36.064 106.293 36.7686C106.505 37.4731 106.81 38.0091 107.207 38.3765C107.609 38.7439 108.092 38.9276 108.656 38.9276ZM114.861 40.0186V38.9958L118.702 34.7913C119.152 34.2989 119.524 33.8708 119.815 33.5072C120.107 33.1398 120.323 32.7951 120.463 32.4731C120.607 32.1473 120.679 31.8064 120.679 31.4504C120.679 31.0413 120.58 30.6871 120.384 30.3879C120.19 30.0886 119.925 29.8576 119.588 29.6947C119.251 29.5318 118.872 29.4504 118.452 29.4504C118.005 29.4504 117.615 29.5432 117.281 29.7288C116.952 29.9106 116.696 30.1663 116.514 30.4958C116.336 30.8254 116.247 31.2117 116.247 31.6549H114.906C114.906 30.9731 115.063 30.3746 115.378 29.8595C115.692 29.3443 116.12 28.9428 116.662 28.6549C117.207 28.367 117.819 28.2231 118.497 28.2231C119.179 28.2231 119.783 28.367 120.31 28.6549C120.836 28.9428 121.249 29.3311 121.548 29.8197C121.848 30.3083 121.997 30.8519 121.997 31.4504C121.997 31.8784 121.92 32.297 121.764 32.7061C121.613 33.1114 121.348 33.564 120.969 34.064C120.594 34.5602 120.073 35.1663 119.406 35.8822L116.793 38.6776V38.7686H122.202V40.0186H114.861Z" fill="white"/>
<rect x="132" y="33.0186" width="20" height="2" fill="#FD682A"/>
<rect width="76" height="100" transform="translate(152 0.0185547)" fill="white"/>
<rect x="152" y="33.0186" width="20" height="2" fill="#FD682A"/>
<g filter="url(#filter0_d_0_1)">
<rect x="172" y="16.0186" width="36" height="36" rx="18" fill="white"/>
<path d="M184.906 40.1776C184.05 40.1776 183.321 39.9447 182.719 39.4788C182.116 39.0091 181.656 38.3292 181.338 37.439C181.02 36.5451 180.861 35.4655 180.861 34.2004C180.861 32.9428 181.02 31.8689 181.338 30.9788C181.66 30.0848 182.122 29.403 182.724 28.9333C183.33 28.4598 184.058 28.2231 184.906 28.2231C185.755 28.2231 186.48 28.4598 187.082 28.9333C187.688 29.403 188.151 30.0848 188.469 30.9788C188.791 31.8689 188.952 32.9428 188.952 34.2004C188.952 35.4655 188.793 36.5451 188.474 37.439C188.156 38.3292 187.696 39.0091 187.094 39.4788C186.491 39.9447 185.762 40.1776 184.906 40.1776ZM184.906 38.9276C185.755 38.9276 186.414 38.5186 186.884 37.7004C187.353 36.8822 187.588 35.7155 187.588 34.2004C187.588 33.1928 187.48 32.3348 187.264 31.6265C187.052 30.9182 186.745 30.3784 186.344 30.0072C185.946 29.636 185.467 29.4504 184.906 29.4504C184.065 29.4504 183.408 29.8651 182.935 30.6947C182.461 31.5204 182.224 32.689 182.224 34.2004C182.224 35.2079 182.33 36.064 182.543 36.7686C182.755 37.4731 183.06 38.0091 183.457 38.3765C183.859 38.7439 184.342 38.9276 184.906 38.9276ZM195.043 40.1776C194.293 40.1776 193.624 40.0489 193.037 39.7913C192.454 39.5337 191.99 39.1758 191.645 38.7174C191.304 38.2553 191.118 37.7193 191.088 37.1095H192.52C192.55 37.4845 192.679 37.8083 192.906 38.0811C193.134 38.35 193.431 38.5583 193.798 38.7061C194.166 38.8538 194.573 38.9276 195.02 38.9276C195.52 38.9276 195.963 38.8405 196.349 38.6663C196.736 38.492 197.039 38.2496 197.259 37.939C197.478 37.6284 197.588 37.2686 197.588 36.8595C197.588 36.4314 197.482 36.0545 197.27 35.7288C197.058 35.3992 196.747 35.1417 196.338 34.9561C195.929 34.7704 195.429 34.6776 194.838 34.6776H193.906V33.4276H194.838C195.3 33.4276 195.705 33.3443 196.054 33.1776C196.406 33.011 196.681 32.7761 196.878 32.4731C197.079 32.1701 197.179 31.814 197.179 31.4049C197.179 31.011 197.092 30.6682 196.918 30.3765C196.743 30.0848 196.497 29.8576 196.179 29.6947C195.865 29.5318 195.493 29.4504 195.065 29.4504C194.664 29.4504 194.285 29.5242 193.929 29.672C193.577 29.8159 193.289 30.0261 193.065 30.3026C192.842 30.5754 192.721 30.9049 192.702 31.2913H191.338C191.361 30.6814 191.545 30.1473 191.889 29.689C192.234 29.2269 192.685 28.867 193.241 28.6095C193.802 28.3519 194.418 28.2231 195.088 28.2231C195.808 28.2231 196.425 28.3689 196.94 28.6606C197.455 28.9485 197.851 29.3292 198.128 29.8026C198.404 30.2761 198.543 30.7875 198.543 31.3367C198.543 31.992 198.37 32.5508 198.026 33.0129C197.685 33.475 197.221 33.7951 196.634 33.9731V34.064C197.368 34.1852 197.942 34.4977 198.355 35.0015C198.768 35.5015 198.974 36.1208 198.974 36.8595C198.974 37.492 198.802 38.0602 198.457 38.564C198.116 39.064 197.651 39.4579 197.06 39.7458C196.469 40.0337 195.796 40.1776 195.043 40.1776Z" fill="#FD682A"/>
<rect x="173" y="17.0186" width="34" height="34" rx="17" stroke="#FD682A" stroke-width="2"/>
</g>
<rect x="208" y="33.0186" width="20" height="2" fill="#DAE2E7"/>
<rect width="76" height="100" transform="translate(228 0.0185547)" fill="white"/>
<rect x="228" y="33.0186" width="20" height="2" fill="#DAE2E7"/>
<path d="M260.867 40.1776C260.011 40.1776 259.282 39.9447 258.68 39.4788C258.077 39.0091 257.617 38.3292 257.299 37.439C256.981 36.5451 256.822 35.4655 256.822 34.2004C256.822 32.9428 256.981 31.8689 257.299 30.9788C257.621 30.0848 258.083 29.403 258.685 28.9333C259.291 28.4598 260.019 28.2231 260.867 28.2231C261.716 28.2231 262.441 28.4598 263.043 28.9333C263.649 29.403 264.112 30.0848 264.43 30.9788C264.752 31.8689 264.913 32.9428 264.913 34.2004C264.913 35.4655 264.754 36.5451 264.435 37.439C264.117 38.3292 263.657 39.0091 263.055 39.4788C262.452 39.9447 261.723 40.1776 260.867 40.1776ZM260.867 38.9276C261.716 38.9276 262.375 38.5186 262.844 37.7004C263.314 36.8822 263.549 35.7155 263.549 34.2004C263.549 33.1928 263.441 32.3348 263.225 31.6265C263.013 30.9182 262.706 30.3784 262.305 30.0072C261.907 29.636 261.428 29.4504 260.867 29.4504C260.026 29.4504 259.369 29.8651 258.896 30.6947C258.422 31.5204 258.185 32.689 258.185 34.2004C258.185 35.2079 258.291 36.064 258.504 36.7686C258.716 37.4731 259.021 38.0091 259.418 38.3765C259.82 38.7439 260.303 38.9276 260.867 38.9276ZM266.799 37.6322V36.4731L271.913 28.3822H272.754V30.1776H272.185L268.322 36.2913V36.3822H275.208V37.6322H266.799ZM272.276 40.0186V37.2799V36.7401V28.3822H273.617V40.0186H272.276Z" fill="#7E8389"/>
<rect x="249" y="17.0186" width="34" height="34" rx="17" stroke="#DAE2E7" stroke-width="2"/>
<defs>
<filter id="filter0_d_0_1" x="168" y="12.0186" width="44" height="44" filterUnits="userSpaceOnUse" color-interpolation-filters="sRGB">
<feFlood flood-opacity="0" result="BackgroundImageFix"/>
<feColorMatrix in="SourceAlpha" type="matrix" values="0 0 0 0 0 0 0 0 0 0 0 0 0 0 0 0 0 0 127 0" result="hardAlpha"/>
<feMorphology radius="4" operator="dilate" in="SourceAlpha" result="effect1_dropShadow_0_1"/>
<feOffset/>
<feColorMatrix type="matrix" values="0 0 0 0 1 0 0 0 0 0.937255 0 0 0 0 0.890196 0 0 0 1 0"/>
<feBlend mode="normal" in2="BackgroundImageFix" result="effect1_dropShadow_0_1"/>
<feBlend mode="normal" in="SourceGraphic" in2="effect1_dropShadow_0_1" result="shape"/>
</filter>
</defs>
</svg>
