<svg width="90" height="16" viewBox="0 0 90 16" fill="none" xmlns="http://www.w3.org/2000/svg">
<path d="M23.3128 15.1372C24.0171 15.1372 24.5919 14.5648 24.5919 13.8605V8.42163C24.5919 7.5972 24.8298 6.95885 25.2985 6.52779C25.5977 6.25219 25.9816 6.0614 26.4433 5.96247C27.0016 5.84233 27.4044 5.3359 27.4044 4.76115C27.4044 4.3984 27.2466 4.05449 26.971 3.81894C26.7495 3.62814 26.4716 3.52686 26.1866 3.52686C26.1277 3.52686 26.0664 3.53157 26.0075 3.54099C24.964 3.69881 24.0996 4.06627 23.4353 4.62924C22.5072 5.41598 22.0361 6.5325 22.0361 7.94582V13.8629C22.0361 14.5672 22.6085 15.1396 23.3128 15.1396V15.1372Z" fill="black"/>
<path d="M32.977 14.4708C33.189 14.8948 33.613 15.1562 34.0865 15.1562C34.56 15.1562 34.9839 14.8924 35.1959 14.4708L39.947 5.3549C40.2533 4.74246 40.0036 3.99812 39.3935 3.6919C39.0967 3.5435 38.7599 3.51995 38.4466 3.62359C38.1333 3.72723 37.8765 3.94865 37.7305 4.24545L34.0888 11.1448L30.5603 4.24545C30.4119 3.94865 30.1575 3.72959 29.8442 3.62359C29.5286 3.51759 29.1941 3.5435 28.8973 3.6919C28.6005 3.8403 28.3814 4.09469 28.2754 4.41033C28.1718 4.72362 28.1953 5.06046 28.3437 5.35726L32.9817 14.4731L32.977 14.4708Z" fill="black"/>
<path d="M42.2977 15.2316C43.0374 15.2316 43.6404 14.6286 43.6404 13.889V4.91443C43.6404 4.17479 43.0374 3.57178 42.2977 3.57178C41.5581 3.57178 40.9551 4.17479 40.9551 4.91443V13.889C40.9551 14.6286 41.5581 15.2316 42.2977 15.2316Z" fill="black"/>
<path d="M50.524 15.0522H50.5287C52.2129 15.0522 53.8076 14.3197 54.9029 13.0406C55.089 12.8263 55.1808 12.5389 55.1596 12.2562C55.1384 11.9689 55.0065 11.7074 54.7875 11.5189C54.4035 11.1892 53.85 11.1774 53.4566 11.4601L53.3341 11.5661L53.2682 11.6344C52.5827 12.4353 51.5816 12.8946 50.5263 12.8946C48.5335 12.8946 46.9129 11.2716 46.9106 9.27885C46.9106 7.28607 48.5335 5.66312 50.5263 5.66312C51.5816 5.66312 52.5803 6.12244 53.2682 6.92568C53.6568 7.37558 54.3376 7.42741 54.7898 7.0411C55.0089 6.85266 55.1408 6.59119 55.162 6.30382C55.1832 6.01644 55.0913 5.73849 54.9052 5.51943C53.8099 4.24038 52.2152 3.50781 50.531 3.50781H50.5263C47.344 3.50781 44.7553 6.09889 44.7529 9.2812C44.7529 12.4635 47.344 15.0522 50.5263 15.0546L50.524 15.0522Z" fill="black"/>
<path d="M61.5526 15.0266H61.5573C63.2226 15.0266 64.8032 14.3035 65.8938 13.0456C66.3131 12.5627 66.2613 11.8278 65.7784 11.4085C65.2955 10.9892 64.5606 11.0411 64.1413 11.5239C63.4912 12.2754 62.549 12.7064 61.5549 12.7064H61.5526C60.1016 12.7064 58.8131 11.7854 58.3255 10.4381H66.1388C66.7771 10.4381 67.2977 9.91748 67.2977 9.27913C67.2977 6.11095 64.7184 3.53165 61.5502 3.5293C58.382 3.5293 55.8051 6.1086 55.8027 9.27678C55.8027 12.445 58.382 15.0243 61.5502 15.0243L61.5526 15.0266ZM61.5526 5.84949C63.0036 5.84949 64.292 6.7705 64.7773 8.11786H58.3255C58.8107 6.7705 60.0992 5.84949 61.5502 5.84949H61.5526Z" fill="black"/>
<path d="M14.9578 15.0266H14.9626C16.6279 15.0266 18.2085 14.3035 19.2991 13.0456C19.7184 12.5627 19.6665 11.8278 19.1837 11.4085C18.7008 10.9892 17.9658 11.0411 17.5466 11.5239C16.8964 12.2754 15.9542 12.7064 14.9602 12.7064H14.9578C13.5068 12.7064 12.2184 11.7854 11.7308 10.4381H19.544C20.1824 10.4381 20.703 9.91748 20.703 9.27913C20.703 6.11095 18.1237 3.53165 14.9555 3.5293C11.7873 3.5293 9.21036 6.1086 9.20801 9.27678C9.20801 12.445 11.7873 15.0243 14.9555 15.0243L14.9578 15.0266ZM14.9578 5.84949C16.4088 5.84949 17.6973 6.7705 18.1849 8.11786H11.7331C12.2184 6.7705 13.5068 5.84949 14.9578 5.84949Z" fill="black"/>
<path d="M3.04569 10.1744L4.70869 10.5277C5.57317 10.7044 5.97125 11.1472 5.97125 11.7243C5.97125 12.3886 5.3494 12.9633 4.2847 12.9633C3.31422 12.9633 2.52041 12.5323 2.19064 11.9339C1.94331 11.484 1.41331 11.2744 0.918655 11.411L0.866833 11.4252C0.131909 11.6277 -0.186086 12.4851 0.228486 13.1258C0.8527 14.0916 2.22126 15.0008 4.3059 15.0008C7.05009 15.0008 8.44927 13.1847 8.44927 11.5476C8.44927 9.91055 7.38693 8.71395 5.3494 8.27111L3.64164 7.93898C2.97738 7.80707 2.27073 7.43961 2.27073 6.81068C2.27073 6.02394 3.1988 5.57167 4.10804 5.57167C5.01727 5.57167 5.60615 5.96741 5.88881 6.41731C6.15734 6.84366 6.66849 7.04624 7.15137 6.90961C7.88394 6.69997 8.209 5.83078 7.77559 5.20421C7.19142 4.35387 5.91472 3.56006 4.17634 3.56006C1.94095 3.56006 0 5.15475 0 7.03681C0 8.52079 1.14007 9.7598 3.04334 10.1814L3.04569 10.1744Z" fill="black"/>
<path d="M73.1033 2.97577C73.8217 2.97577 74.3612 3.16185 74.7121 3.52696C75.0702 3.90149 75.2445 4.40321 75.2445 5.0604C75.2445 5.3996 75.1715 5.73409 75.0301 6.05208C74.8841 6.37714 74.6344 6.72576 74.2834 7.08851C73.9136 7.47011 73.4048 7.9365 72.7688 8.4712C72.7618 8.47591 72.7571 8.48298 72.75 8.48769L68.7126 12.5251C68.4888 12.7206 68.3452 12.8996 68.2651 13.0763C68.185 13.2529 68.1426 13.4202 68.1426 13.5756V14.1857C68.1426 14.3883 68.2132 14.5649 68.3499 14.6992C68.4841 14.8358 68.6632 14.9065 68.8657 14.9065H76.8439C77.1383 14.9065 77.4139 14.7911 77.6236 14.5838C77.8309 14.3765 77.9463 14.0985 77.9463 13.8041V13.7806C77.9463 13.1752 77.4516 12.6805 76.8462 12.6805H72.0056L75.1856 9.4511C75.7297 8.98235 76.1891 8.52303 76.5589 8.07548C76.9381 7.61615 77.2326 7.13562 77.4328 6.64803C77.6377 6.15101 77.7413 5.59982 77.7413 5.00387C77.7413 4.25011 77.5765 3.54345 77.2514 2.90981C76.9216 2.2644 76.4058 1.73911 75.7156 1.35045C75.0325 0.964147 74.1539 0.770996 73.1057 0.770996C72.3331 0.770996 71.6429 0.90055 71.054 1.1573C70.4675 1.41405 69.9681 1.76032 69.5677 2.18666C69.1696 2.61066 68.8657 3.09119 68.6608 3.61411C68.4582 4.13233 68.3499 4.65997 68.3357 5.17818C68.3357 5.3572 68.4064 5.51973 68.5407 5.64222C68.6679 5.75999 68.8351 5.82124 69.0188 5.82124H70.0105C70.1518 5.82124 70.2979 5.77648 70.4486 5.68697C70.5758 5.6116 70.736 5.45849 70.7855 5.14756C70.8561 4.72356 70.9881 4.33961 71.1741 4.00748C71.3532 3.68713 71.6005 3.44216 71.9256 3.25607C72.2506 3.07234 72.6463 2.97812 73.1033 2.97812V2.97577Z" fill="black"/>
<path d="M85.6255 0.768555C85.0884 0.768555 84.7963 1.0206 84.6479 1.23259L78.6861 9.63946C78.5919 9.78079 78.5212 9.92448 78.4812 10.0658C78.4388 10.2119 78.4199 10.3131 78.4199 10.3979V11.1918C78.4199 11.4037 78.4953 11.5898 78.6366 11.7288C78.778 11.8701 78.964 11.9455 79.176 11.9455H85.3098V13.9548C85.3098 14.645 85.8704 15.2056 86.5606 15.2056C87.2508 15.2056 87.8114 14.645 87.8114 13.9548V11.9455H88.8384C89.1517 11.9455 89.4438 11.823 89.6652 11.6016C89.8843 11.3802 90.0044 11.0834 89.9997 10.7725C89.9926 10.1388 89.472 9.62297 88.8384 9.62297H87.8114V1.52232C87.8114 1.31268 87.736 1.1266 87.5947 0.982908C87.4534 0.841577 87.2673 0.768555 87.0576 0.768555H85.6278H85.6255ZM85.3287 9.66302H81.4161L85.3287 4.09456V9.66302Z" fill="black"/>
</svg>
