<svg width="15" height="15" viewBox="0 0 15 15" fill="none" xmlns="http://www.w3.org/2000/svg">
<path d="M6.87329 3.26265C7.07058 2.65545 7.92961 2.65545 8.1269 3.26265L8.83182 5.43215C8.92005 5.7037 9.1731 5.88755 9.45862 5.88755H11.7398C12.3782 5.88755 12.6437 6.70454 12.1272 7.07981L10.2817 8.42064C10.0507 8.58846 9.95402 8.88594 10.0423 9.15749L10.7472 11.327C10.9445 11.9342 10.2495 12.4391 9.73297 12.0638L7.88748 10.723C7.65649 10.5552 7.3437 10.5552 7.11271 10.723L5.26722 12.0638C4.75071 12.4391 4.05574 11.9342 4.25303 11.327L4.95794 9.15749C5.04617 8.88594 4.94952 8.58846 4.71852 8.42064L2.87304 7.07981C2.35652 6.70454 2.62197 5.88755 3.26042 5.88755H5.54157C5.8271 5.88755 6.08015 5.7037 6.16838 5.43215L6.87329 3.26265Z" fill="#FD682A"/>
</svg>
