<svg xmlns="http://www.w3.org/2000/svg" width="1024" height="1024" viewBox="0 0 1024 1024"><defs><style>.cls-1{fill:#f78319;}.cls-2{fill:#01467a;}.cls-3{fill:#020202;}.cls-4{fill:none;}</style></defs><title>Asset 79</title><g id="Layer_2" data-name="Layer 2"><g id="Layer_1-2" data-name="Layer 1"><path class="cls-1" d="M351.14,551.42a2.87,2.87,0,0,1,1.43.32c.37.22.56.92.56,2.15v7.37q0,9.51-9.51,9.51H284.34a18,18,0,0,0-6,.84,9.8,9.8,0,0,0-3.56,2,14.11,14.11,0,0,0-2.66,4.88,18.35,18.35,0,0,0-.79,8.72q.58,5.07,3.8,7.13a27.88,27.88,0,0,0,8.44,3.34l42.79,8.72q16.32,3.56,23.78,10.14t7.45,19.26q0,13.48-9,22t-29.32,8.48H254.06a3.48,3.48,0,0,1-1.46-.31c-.45-.22-.67-.88-.67-2V658q0-10.3,9.51-10.31h63.95a18.33,18.33,0,0,0,6.11-.83,9.53,9.53,0,0,0,3.53-2.07,14.35,14.35,0,0,0,2.38-3.33,13.06,13.06,0,0,0,1.07-6.3q-.08-4.19-4.28-6.62a31,31,0,0,0-9-3.44L281,616.33q-31.22-6.89-31.22-31.38a33.65,33.65,0,0,1,2.78-13.84,29.46,29.46,0,0,1,7.88-10.57,36.24,36.24,0,0,1,12.44-6.75,52.47,52.47,0,0,1,16.21-2.38Z"/><path class="cls-1" d="M388.41,648.35q5.44,2.68,16.69,2.69,3.8,0,8-.2c2.77-.14,5.41-.3,7.93-.52s4.66-.38,6.46-.51,3-.2,3.56-.2c1.22,0,1.83.69,1.83,2.06l.24,7.13c.16,2.06-.29,3.57-1.34,4.56a8.08,8.08,0,0,1-4.52,1.85q-4,.48-10.22.67t-14.34.2q-11.89,0-19.62-2.93a29,29,0,0,1-12.21-8.24A30.41,30.41,0,0,1,364.56,642a75.27,75.27,0,0,1-1.79-17.2q0-11.48,2.62-19.21A28.93,28.93,0,0,1,373,593.27a28,28,0,0,1,12.2-6.46A66.52,66.52,0,0,1,401.76,585q10.86,0,18,2.09a32.13,32.13,0,0,1,11.17,5.43,17.59,17.59,0,0,1,5.63,7.49,23.87,23.87,0,0,1,1.55,8.36,26.82,26.82,0,0,1-1.48,9.35,15.79,15.79,0,0,1-4.68,6.69,25.48,25.48,0,0,1-8.11,4.48,77.75,77.75,0,0,1-11.81,3l-30.67,5.47C382.43,642.87,384.79,646.56,388.41,648.35Zm16.69-28.53a55.57,55.57,0,0,0,8.28-1.9,15.12,15.12,0,0,0,4.6-2.3,5.69,5.69,0,0,0,2-2.94,15.3,15.3,0,0,0,.44-4,7.82,7.82,0,0,0-4-7.29q-4-2.3-13.39-2.29a45.42,45.42,0,0,0-11.25,1.15,14.18,14.18,0,0,0-6.9,3.84,14.37,14.37,0,0,0-3.45,7,52.16,52.16,0,0,0-.9,10.54v2.53Z"/><path class="cls-1" d="M458.09,665.94H444.7c-1.22,0-1.83-.69-1.83-2.07V614.67q0-14.9,7.73-21.59t22.94-6.7c2.37,0,4.77.08,7.17.24s4.56.37,6.46.63q4.75.79,4.76,5.15l-.24,7.37c0,1.1-.61,1.66-1.83,1.66s-3.71,0-7-.08-6.59-.08-9.87-.08q-6.42,0-9.63,2.46t-3.21,8.4v51.75A1.82,1.82,0,0,1,458.09,665.94Z"/><path class="cls-1" d="M557.84,588.91a5,5,0,0,1,1.59-2.85,6.28,6.28,0,0,1,3.81-.87h11.33c1.32,0,2,.58,2,1.74a4.23,4.23,0,0,1-.12,1,9.62,9.62,0,0,1-.59,1.5l-28.62,74.73a3.4,3.4,0,0,1-3.24,2.22H526.7a3,3,0,0,1-2.17-.75,5.59,5.59,0,0,1-1.24-1.94l-27.65-74.26a7,7,0,0,1-.48-2.46c0-1.16.67-1.74,2-1.74h12c3.33,0,5.39,1.24,6.18,3.72l20.76,60.86h.24Z"/><path class="cls-1" d="M581.13,563.55q0-10.39,10.06-10.39t10,10.39q0,10-10,10T581.13,563.55Zm3.09,102.7a1.54,1.54,0,0,1-1.74-1.74V596q0-7.6,7.6-7.6h7.61a1.54,1.54,0,0,1,1.75,1.73v74.34a1.54,1.54,0,0,1-1.75,1.74Z"/><path class="cls-1" d="M643.72,666.34q-21.79,0-30.51-12Q605.6,645.1,605.6,625q0-38.67,38.12-38.67h9.82a72.71,72.71,0,0,1,9.19.56c3.65.74,5.47,2.9,5.47,6.5v6.58a1.4,1.4,0,0,1-1.59,1.58h-7.68q-3.25-.48-6.5-.76c-2.16-.17-4.17-.27-6-.27q-14.1,0-19,6-4.91,4.91-4.92,18.54,0,16.32,6,21.24,4.37,5.39,17.91,5.39,2.78,0,6-.24t6.5-.79a43.85,43.85,0,0,1,5.47-.55h1.66q1.58,0,1.58,2.14l.56,7.13q0,5.39-5.47,5.94a55.76,55.76,0,0,1-7.6.84Q650.21,666.33,643.72,666.34Z"/><path class="cls-1" d="M697.63,648.35q5.43,2.68,16.69,2.69c2.53,0,5.19-.07,8-.2s5.42-.3,7.93-.52,4.66-.38,6.46-.51,3-.2,3.55-.2c1.22,0,1.83.69,1.83,2.06l.24,7.13c.15,2.06-.29,3.57-1.35,4.56a8.07,8.07,0,0,1-4.52,1.85c-2.65.32-6,.54-10.22.67s-9,.2-14.35.2q-11.89,0-19.62-2.93a29,29,0,0,1-12.2-8.24A30.53,30.53,0,0,1,673.77,642,76.14,76.14,0,0,1,672,624.8q0-11.48,2.61-19.21a28.93,28.93,0,0,1,7.61-12.33,28,28,0,0,1,12.21-6.46A66.46,66.46,0,0,1,711,585a64.47,64.47,0,0,1,18,2.09,32.15,32.15,0,0,1,11.17,5.43,17.54,17.54,0,0,1,5.63,7.49,23.79,23.79,0,0,1,1.54,8.36,27.12,27.12,0,0,1-1.46,9.35,15.94,15.94,0,0,1-4.68,6.69,25.36,25.36,0,0,1-8.13,4.48,77.41,77.41,0,0,1-11.81,3l-30.66,5.47C691.64,642.87,694,646.56,697.63,648.35Zm16.69-28.53a55.67,55.67,0,0,0,8.28-1.9,15,15,0,0,0,4.59-2.3,5.62,5.62,0,0,0,2-2.94,15.8,15.8,0,0,0,.43-4,7.82,7.82,0,0,0-4-7.29q-4-2.3-13.39-2.29A45.34,45.34,0,0,0,701,600.28a13.19,13.19,0,0,0-10.35,10.82,51.82,51.82,0,0,0-.9,10.54v2.53Z"/><path class="cls-2" d="M887.9,645.44q0,19-15.56,19H773.94q-9.61,0-9.61-11.4V642q0-12.45,5.94-20l50-53.22q16.32-20.25,20.24-27.59,5.19-9.61,9-29.69,0-18.9-10.37-22.95-3.8-2.4-18.08-2.4-11.14,0-39.08,4.35l-1.77.3a5.93,5.93,0,0,0-1.52.3l-1.9-.3q-5.19-1.2-6.2-9.6V474q0-15.6,13.79-18.45a205.46,205.46,0,0,1,39.08-3.9q59.31,0,59.32,59.23,0,23.1-9.62,41.09-6.44,12.29-30.6,41.83l-35.16,36.74h72q8.61,0,8.61,10Z"/><path class="cls-2" d="M1018.52,598.18a19.31,19.31,0,0,1-2.32,8.7q-3.22,6.25-12.73,6.25H991.64v37.06q0,11.74-7.33,15.55a57.63,57.63,0,0,1-10.54.61,16.22,16.22,0,0,1-8.62-2.44q-5.53-3.81-5.53-14.48V613.12l-64.69.3q-12.86,0-16.59-9-1.8-4.73-2.06-13.12a24.09,24.09,0,0,1,2.57-10.52l63.4-117.71Q948,451.8,958.59,451.8h15.18q6,0,12,7a24,24,0,0,1,5.91,15.86v108.1h11.83q9,0,12.47,6.25A20.41,20.41,0,0,1,1018.52,598.18Zm-58-14.94V488.4l-51.69,94.84Z"/><path class="cls-3" d="M175.67,421.11a23.08,23.08,0,1,1-20-11.51c.76,0,1.51,0,2.25.11a71,71,0,1,0,17.7,11.39Z"/><path class="cls-2" d="M124.63,356.31S12.1,360.89,5.54,478.32c0,0-6.83,80,123.32,189.37,0,0,121.79-102.82,121.87-189.5C250.74,478.19,250.28,359.15,124.63,356.31Zm3.61,225.24A103.35,103.35,0,1,1,231.6,478.2,103.35,103.35,0,0,1,128.24,581.55Z"/><rect class="cls-4" width="1024" height="1024"/></g></g></svg>